<?xml version="1.0" encoding="utf-8" standalone="no"?>
<!DOCTYPE svg PUBLIC "-//W3C//DTD SVG 1.1//EN"
  "http://www.w3.org/Graphics/SVG/1.1/DTD/svg11.dtd">
<svg xmlns:xlink="http://www.w3.org/1999/xlink" width="604.248426pt" height="264.153533pt" viewBox="0 0 604.248426 264.153533" xmlns="http://www.w3.org/2000/svg" version="1.1">
 <metadata>
  <rdf:RDF xmlns:dc="http://purl.org/dc/elements/1.1/" xmlns:cc="http://creativecommons.org/ns#" xmlns:rdf="http://www.w3.org/1999/02/22-rdf-syntax-ns#">
   <cc:Work>
    <dc:type rdf:resource="http://purl.org/dc/dcmitype/StillImage"/>
    <dc:date>2023-01-09T08:47:20.175472</dc:date>
    <dc:format>image/svg+xml</dc:format>
    <dc:creator>
     <cc:Agent>
      <dc:title>Matplotlib v3.5.1, https://matplotlib.org/</dc:title>
     </cc:Agent>
    </dc:creator>
   </cc:Work>
  </rdf:RDF>
 </metadata>
 <defs>
  <style type="text/css">*{stroke-linejoin: round; stroke-linecap: butt}</style>
 </defs>
 <g id="figure_1">
  <g id="patch_1">
   <path d="M 0 264.153533 
L 604.248426 264.153533 
L 604.248426 0 
L 0 0 
L 0 264.153533 
z
" style="fill: none"/>
  </g>
  <g id="axes_1">
   <g id="patch_2">
    <path d="M 42.648426 235.34218 
L 600.648426 235.34218 
L 600.648426 17.90218 
L 42.648426 17.90218 
z
" style="fill: #ffffff"/>
   </g>
   <g id="matplotlib.axis_1">
    <g id="xtick_1">
     <g id="line2d_1">
      <path d="M 90.749522 235.34218 
L 90.749522 17.90218 
" clip-path="url(#pec229e9ad9)" style="fill: none; stroke-dasharray: 1.85,0.8; stroke-dashoffset: 0; stroke: #000000; stroke-opacity: 0.5; stroke-width: 0.5"/>
     </g>
     <g id="line2d_2">
      <defs>
       <path id="m20a4475c46" d="M 0 0 
L 0 -3 
" style="stroke: #000000; stroke-width: 0.5"/>
      </defs>
      <g>
       <use xlink:href="#m20a4475c46" x="90.749522" y="235.34218" style="stroke: #000000; stroke-width: 0.5"/>
      </g>
     </g>
     <g id="line2d_3">
      <defs>
       <path id="md3216a77b4" d="M 0 0 
L 0 3 
" style="stroke: #000000; stroke-width: 0.5"/>
      </defs>
      <g>
       <use xlink:href="#md3216a77b4" x="90.749522" y="17.90218" style="stroke: #000000; stroke-width: 0.5"/>
      </g>
     </g>
     <g id="text_1">
      <!-- $\mathdefault{700}$ -->
      <g transform="translate(83.277519 245.760678)scale(0.1 -0.1)">
       <defs>
        <path id="CMR17-37" d="M 2886 3941 
L 2886 4081 
L 1382 4081 
C 634 4081 621 4165 595 4288 
L 480 4288 
L 294 3094 
L 410 3094 
C 429 3215 474 3540 550 3661 
C 589 3712 1062 3712 1171 3712 
L 2579 3712 
L 1869 2661 
C 1395 1954 1069 999 1069 165 
C 1069 89 1069 -128 1299 -128 
C 1530 -128 1530 89 1530 171 
L 1530 465 
C 1530 1508 1709 2196 2003 2636 
L 2886 3941 
z
" transform="scale(0.015625)"/>
        <path id="CMR17-30" d="M 2688 2025 
C 2688 2416 2682 3080 2413 3591 
C 2176 4039 1798 4198 1466 4198 
C 1158 4198 768 4058 525 3597 
C 269 3118 243 2524 243 2025 
C 243 1661 250 1106 448 619 
C 723 -39 1216 -128 1466 -128 
C 1760 -128 2208 -7 2470 600 
C 2662 1042 2688 1559 2688 2025 
z
M 1466 -26 
C 1056 -26 813 325 723 812 
C 653 1188 653 1738 653 2096 
C 653 2588 653 2997 736 3387 
C 858 3929 1216 4096 1466 4096 
C 1728 4096 2067 3923 2189 3400 
C 2272 3036 2278 2607 2278 2096 
C 2278 1680 2278 1169 2202 792 
C 2067 95 1690 -26 1466 -26 
z
" transform="scale(0.015625)"/>
       </defs>
       <use xlink:href="#CMR17-37" transform="scale(0.996264)"/>
       <use xlink:href="#CMR17-30" transform="translate(45.690477 0)scale(0.996264)"/>
       <use xlink:href="#CMR17-30" transform="translate(91.380954 0)scale(0.996264)"/>
      </g>
     </g>
    </g>
    <g id="xtick_2">
     <g id="line2d_4">
      <path d="M 166.541055 235.34218 
L 166.541055 17.90218 
" clip-path="url(#pec229e9ad9)" style="fill: none; stroke-dasharray: 1.85,0.8; stroke-dashoffset: 0; stroke: #000000; stroke-opacity: 0.5; stroke-width: 0.5"/>
     </g>
     <g id="line2d_5">
      <g>
       <use xlink:href="#m20a4475c46" x="166.541055" y="235.34218" style="stroke: #000000; stroke-width: 0.5"/>
      </g>
     </g>
     <g id="line2d_6">
      <g>
       <use xlink:href="#md3216a77b4" x="166.541055" y="17.90218" style="stroke: #000000; stroke-width: 0.5"/>
      </g>
     </g>
     <g id="text_2">
      <!-- $\mathdefault{750}$ -->
      <g transform="translate(159.069052 245.760678)scale(0.1 -0.1)">
       <defs>
        <path id="CMR17-35" d="M 730 3692 
C 794 3666 1056 3584 1325 3584 
C 1920 3584 2246 3911 2432 4100 
C 2432 4157 2432 4192 2394 4192 
C 2387 4192 2374 4192 2323 4163 
C 2099 4058 1837 3973 1517 3973 
C 1325 3973 1037 3999 723 4139 
C 653 4171 640 4171 634 4171 
C 602 4171 595 4164 595 4037 
L 595 2203 
C 595 2089 595 2057 659 2057 
C 691 2057 704 2070 736 2114 
C 941 2401 1222 2522 1542 2522 
C 1766 2522 2246 2382 2246 1289 
C 2246 1085 2246 715 2054 421 
C 1894 159 1645 25 1370 25 
C 947 25 518 320 403 814 
C 429 807 480 795 506 795 
C 589 795 749 840 749 1038 
C 749 1210 627 1280 506 1280 
C 358 1280 262 1190 262 1011 
C 262 454 704 -128 1382 -128 
C 2042 -128 2669 440 2669 1264 
C 2669 2030 2170 2624 1549 2624 
C 1222 2624 947 2503 730 2274 
L 730 3692 
z
" transform="scale(0.015625)"/>
       </defs>
       <use xlink:href="#CMR17-37" transform="scale(0.996264)"/>
       <use xlink:href="#CMR17-35" transform="translate(45.690477 0)scale(0.996264)"/>
       <use xlink:href="#CMR17-30" transform="translate(91.380954 0)scale(0.996264)"/>
      </g>
     </g>
    </g>
    <g id="xtick_3">
     <g id="line2d_7">
      <path d="M 242.332587 235.34218 
L 242.332587 17.90218 
" clip-path="url(#pec229e9ad9)" style="fill: none; stroke-dasharray: 1.85,0.8; stroke-dashoffset: 0; stroke: #000000; stroke-opacity: 0.5; stroke-width: 0.5"/>
     </g>
     <g id="line2d_8">
      <g>
       <use xlink:href="#m20a4475c46" x="242.332587" y="235.34218" style="stroke: #000000; stroke-width: 0.5"/>
      </g>
     </g>
     <g id="line2d_9">
      <g>
       <use xlink:href="#md3216a77b4" x="242.332587" y="17.90218" style="stroke: #000000; stroke-width: 0.5"/>
      </g>
     </g>
     <g id="text_3">
      <!-- $\mathdefault{800}$ -->
      <g transform="translate(234.860585 245.760678)scale(0.1 -0.1)">
       <defs>
        <path id="CMR17-38" d="M 1741 2264 
C 2144 2467 2554 2773 2554 3263 
C 2554 3841 1990 4179 1472 4179 
C 890 4179 378 3759 378 3180 
C 378 3021 416 2747 666 2505 
C 730 2442 998 2251 1171 2130 
C 883 1983 211 1634 211 934 
C 211 279 838 -128 1459 -128 
C 2144 -128 2720 362 2720 1010 
C 2720 1590 2330 1857 2074 2029 
L 1741 2264 
z
M 902 2822 
C 851 2854 595 3051 595 3351 
C 595 3739 998 4032 1459 4032 
C 1965 4032 2336 3676 2336 3262 
C 2336 2669 1670 2331 1638 2331 
C 1632 2331 1626 2331 1574 2370 
L 902 2822 
z
M 2080 1519 
C 2176 1449 2483 1240 2483 851 
C 2483 381 2010 25 1472 25 
C 890 25 448 438 448 940 
C 448 1443 838 1862 1280 2060 
L 2080 1519 
z
" transform="scale(0.015625)"/>
       </defs>
       <use xlink:href="#CMR17-38" transform="scale(0.996264)"/>
       <use xlink:href="#CMR17-30" transform="translate(45.690477 0)scale(0.996264)"/>
       <use xlink:href="#CMR17-30" transform="translate(91.380954 0)scale(0.996264)"/>
      </g>
     </g>
    </g>
    <g id="xtick_4">
     <g id="line2d_10">
      <path d="M 318.12412 235.34218 
L 318.12412 17.90218 
" clip-path="url(#pec229e9ad9)" style="fill: none; stroke-dasharray: 1.85,0.8; stroke-dashoffset: 0; stroke: #000000; stroke-opacity: 0.5; stroke-width: 0.5"/>
     </g>
     <g id="line2d_11">
      <g>
       <use xlink:href="#m20a4475c46" x="318.12412" y="235.34218" style="stroke: #000000; stroke-width: 0.5"/>
      </g>
     </g>
     <g id="line2d_12">
      <g>
       <use xlink:href="#md3216a77b4" x="318.12412" y="17.90218" style="stroke: #000000; stroke-width: 0.5"/>
      </g>
     </g>
     <g id="text_4">
      <!-- $\mathdefault{850}$ -->
      <g transform="translate(310.652117 245.760678)scale(0.1 -0.1)">
       <use xlink:href="#CMR17-38" transform="scale(0.996264)"/>
       <use xlink:href="#CMR17-35" transform="translate(45.690477 0)scale(0.996264)"/>
       <use xlink:href="#CMR17-30" transform="translate(91.380954 0)scale(0.996264)"/>
      </g>
     </g>
    </g>
    <g id="xtick_5">
     <g id="line2d_13">
      <path d="M 393.915652 235.34218 
L 393.915652 17.90218 
" clip-path="url(#pec229e9ad9)" style="fill: none; stroke-dasharray: 1.85,0.8; stroke-dashoffset: 0; stroke: #000000; stroke-opacity: 0.5; stroke-width: 0.5"/>
     </g>
     <g id="line2d_14">
      <g>
       <use xlink:href="#m20a4475c46" x="393.915652" y="235.34218" style="stroke: #000000; stroke-width: 0.5"/>
      </g>
     </g>
     <g id="line2d_15">
      <g>
       <use xlink:href="#md3216a77b4" x="393.915652" y="17.90218" style="stroke: #000000; stroke-width: 0.5"/>
      </g>
     </g>
     <g id="text_5">
      <!-- $\mathdefault{900}$ -->
      <g transform="translate(386.44365 245.760678)scale(0.1 -0.1)">
       <defs>
        <path id="CMR17-39" d="M 2253 1864 
C 2253 464 1670 31 1190 31 
C 1043 31 685 31 538 294 
C 704 268 826 357 826 518 
C 826 692 685 749 595 749 
C 538 749 365 723 365 506 
C 365 71 742 -128 1203 -128 
C 1939 -128 2688 674 2688 2073 
C 2688 3817 1971 4179 1485 4179 
C 851 4179 243 3628 243 2778 
C 243 1991 762 1408 1414 1408 
C 1952 1408 2189 1903 2253 2112 
L 2253 1864 
z
M 1427 1510 
C 1254 1510 1011 1542 813 1922 
C 678 2169 678 2461 678 2771 
C 678 3146 678 3405 858 3684 
C 947 3817 1114 4032 1485 4032 
C 2240 4032 2240 2885 2240 2632 
C 2240 2182 2035 1510 1427 1510 
z
" transform="scale(0.015625)"/>
       </defs>
       <use xlink:href="#CMR17-39" transform="scale(0.996264)"/>
       <use xlink:href="#CMR17-30" transform="translate(45.690477 0)scale(0.996264)"/>
       <use xlink:href="#CMR17-30" transform="translate(91.380954 0)scale(0.996264)"/>
      </g>
     </g>
    </g>
    <g id="xtick_6">
     <g id="line2d_16">
      <path d="M 469.707185 235.34218 
L 469.707185 17.90218 
" clip-path="url(#pec229e9ad9)" style="fill: none; stroke-dasharray: 1.85,0.8; stroke-dashoffset: 0; stroke: #000000; stroke-opacity: 0.5; stroke-width: 0.5"/>
     </g>
     <g id="line2d_17">
      <g>
       <use xlink:href="#m20a4475c46" x="469.707185" y="235.34218" style="stroke: #000000; stroke-width: 0.5"/>
      </g>
     </g>
     <g id="line2d_18">
      <g>
       <use xlink:href="#md3216a77b4" x="469.707185" y="17.90218" style="stroke: #000000; stroke-width: 0.5"/>
      </g>
     </g>
     <g id="text_6">
      <!-- $\mathdefault{950}$ -->
      <g transform="translate(462.235182 245.760678)scale(0.1 -0.1)">
       <use xlink:href="#CMR17-39" transform="scale(0.996264)"/>
       <use xlink:href="#CMR17-35" transform="translate(45.690477 0)scale(0.996264)"/>
       <use xlink:href="#CMR17-30" transform="translate(91.380954 0)scale(0.996264)"/>
      </g>
     </g>
    </g>
    <g id="xtick_7">
     <g id="line2d_19">
      <path d="M 545.498718 235.34218 
L 545.498718 17.90218 
" clip-path="url(#pec229e9ad9)" style="fill: none; stroke-dasharray: 1.85,0.8; stroke-dashoffset: 0; stroke: #000000; stroke-opacity: 0.5; stroke-width: 0.5"/>
     </g>
     <g id="line2d_20">
      <g>
       <use xlink:href="#m20a4475c46" x="545.498718" y="235.34218" style="stroke: #000000; stroke-width: 0.5"/>
      </g>
     </g>
     <g id="line2d_21">
      <g>
       <use xlink:href="#md3216a77b4" x="545.498718" y="17.90218" style="stroke: #000000; stroke-width: 0.5"/>
      </g>
     </g>
     <g id="text_7">
      <!-- $\mathdefault{1000}$ -->
      <g transform="translate(535.536047 245.760678)scale(0.1 -0.1)">
       <defs>
        <path id="CMR17-31" d="M 1702 4058 
C 1702 4192 1696 4192 1606 4192 
C 1357 3916 979 3827 621 3827 
C 602 3827 570 3827 563 3808 
C 557 3795 557 3782 557 3648 
C 755 3648 1088 3686 1344 3839 
L 1344 461 
C 1344 236 1331 160 781 160 
L 589 160 
L 589 0 
C 896 0 1216 0 1523 0 
C 1830 0 2150 0 2458 0 
L 2458 160 
L 2266 160 
C 1715 160 1702 230 1702 458 
L 1702 4058 
z
" transform="scale(0.015625)"/>
       </defs>
       <use xlink:href="#CMR17-31" transform="scale(0.996264)"/>
       <use xlink:href="#CMR17-30" transform="translate(45.690477 0)scale(0.996264)"/>
       <use xlink:href="#CMR17-30" transform="translate(91.380954 0)scale(0.996264)"/>
       <use xlink:href="#CMR17-30" transform="translate(137.071431 0)scale(0.996264)"/>
      </g>
     </g>
    </g>
    <g id="xtick_8">
     <g id="line2d_22">
      <defs>
       <path id="mff9796e189" d="M 0 0 
L 0 -1.5 
" style="stroke: #000000; stroke-width: 0.5"/>
      </defs>
      <g>
       <use xlink:href="#mff9796e189" x="45.274603" y="235.34218" style="stroke: #000000; stroke-width: 0.5"/>
      </g>
     </g>
     <g id="line2d_23">
      <defs>
       <path id="m0bb1f04aa1" d="M 0 0 
L 0 1.5 
" style="stroke: #000000; stroke-width: 0.5"/>
      </defs>
      <g>
       <use xlink:href="#m0bb1f04aa1" x="45.274603" y="17.90218" style="stroke: #000000; stroke-width: 0.5"/>
      </g>
     </g>
    </g>
    <g id="xtick_9">
     <g id="line2d_24">
      <g>
       <use xlink:href="#mff9796e189" x="60.432909" y="235.34218" style="stroke: #000000; stroke-width: 0.5"/>
      </g>
     </g>
     <g id="line2d_25">
      <g>
       <use xlink:href="#m0bb1f04aa1" x="60.432909" y="17.90218" style="stroke: #000000; stroke-width: 0.5"/>
      </g>
     </g>
    </g>
    <g id="xtick_10">
     <g id="line2d_26">
      <g>
       <use xlink:href="#mff9796e189" x="75.591216" y="235.34218" style="stroke: #000000; stroke-width: 0.5"/>
      </g>
     </g>
     <g id="line2d_27">
      <g>
       <use xlink:href="#m0bb1f04aa1" x="75.591216" y="17.90218" style="stroke: #000000; stroke-width: 0.5"/>
      </g>
     </g>
    </g>
    <g id="xtick_11">
     <g id="line2d_28">
      <g>
       <use xlink:href="#mff9796e189" x="105.907829" y="235.34218" style="stroke: #000000; stroke-width: 0.5"/>
      </g>
     </g>
     <g id="line2d_29">
      <g>
       <use xlink:href="#m0bb1f04aa1" x="105.907829" y="17.90218" style="stroke: #000000; stroke-width: 0.5"/>
      </g>
     </g>
    </g>
    <g id="xtick_12">
     <g id="line2d_30">
      <g>
       <use xlink:href="#mff9796e189" x="121.066135" y="235.34218" style="stroke: #000000; stroke-width: 0.5"/>
      </g>
     </g>
     <g id="line2d_31">
      <g>
       <use xlink:href="#m0bb1f04aa1" x="121.066135" y="17.90218" style="stroke: #000000; stroke-width: 0.5"/>
      </g>
     </g>
    </g>
    <g id="xtick_13">
     <g id="line2d_32">
      <g>
       <use xlink:href="#mff9796e189" x="136.224442" y="235.34218" style="stroke: #000000; stroke-width: 0.5"/>
      </g>
     </g>
     <g id="line2d_33">
      <g>
       <use xlink:href="#m0bb1f04aa1" x="136.224442" y="17.90218" style="stroke: #000000; stroke-width: 0.5"/>
      </g>
     </g>
    </g>
    <g id="xtick_14">
     <g id="line2d_34">
      <g>
       <use xlink:href="#mff9796e189" x="151.382748" y="235.34218" style="stroke: #000000; stroke-width: 0.5"/>
      </g>
     </g>
     <g id="line2d_35">
      <g>
       <use xlink:href="#m0bb1f04aa1" x="151.382748" y="17.90218" style="stroke: #000000; stroke-width: 0.5"/>
      </g>
     </g>
    </g>
    <g id="xtick_15">
     <g id="line2d_36">
      <g>
       <use xlink:href="#mff9796e189" x="181.699361" y="235.34218" style="stroke: #000000; stroke-width: 0.5"/>
      </g>
     </g>
     <g id="line2d_37">
      <g>
       <use xlink:href="#m0bb1f04aa1" x="181.699361" y="17.90218" style="stroke: #000000; stroke-width: 0.5"/>
      </g>
     </g>
    </g>
    <g id="xtick_16">
     <g id="line2d_38">
      <g>
       <use xlink:href="#mff9796e189" x="196.857668" y="235.34218" style="stroke: #000000; stroke-width: 0.5"/>
      </g>
     </g>
     <g id="line2d_39">
      <g>
       <use xlink:href="#m0bb1f04aa1" x="196.857668" y="17.90218" style="stroke: #000000; stroke-width: 0.5"/>
      </g>
     </g>
    </g>
    <g id="xtick_17">
     <g id="line2d_40">
      <g>
       <use xlink:href="#mff9796e189" x="212.015974" y="235.34218" style="stroke: #000000; stroke-width: 0.5"/>
      </g>
     </g>
     <g id="line2d_41">
      <g>
       <use xlink:href="#m0bb1f04aa1" x="212.015974" y="17.90218" style="stroke: #000000; stroke-width: 0.5"/>
      </g>
     </g>
    </g>
    <g id="xtick_18">
     <g id="line2d_42">
      <g>
       <use xlink:href="#mff9796e189" x="227.174281" y="235.34218" style="stroke: #000000; stroke-width: 0.5"/>
      </g>
     </g>
     <g id="line2d_43">
      <g>
       <use xlink:href="#m0bb1f04aa1" x="227.174281" y="17.90218" style="stroke: #000000; stroke-width: 0.5"/>
      </g>
     </g>
    </g>
    <g id="xtick_19">
     <g id="line2d_44">
      <g>
       <use xlink:href="#mff9796e189" x="257.490894" y="235.34218" style="stroke: #000000; stroke-width: 0.5"/>
      </g>
     </g>
     <g id="line2d_45">
      <g>
       <use xlink:href="#m0bb1f04aa1" x="257.490894" y="17.90218" style="stroke: #000000; stroke-width: 0.5"/>
      </g>
     </g>
    </g>
    <g id="xtick_20">
     <g id="line2d_46">
      <g>
       <use xlink:href="#mff9796e189" x="272.6492" y="235.34218" style="stroke: #000000; stroke-width: 0.5"/>
      </g>
     </g>
     <g id="line2d_47">
      <g>
       <use xlink:href="#m0bb1f04aa1" x="272.6492" y="17.90218" style="stroke: #000000; stroke-width: 0.5"/>
      </g>
     </g>
    </g>
    <g id="xtick_21">
     <g id="line2d_48">
      <g>
       <use xlink:href="#mff9796e189" x="287.807507" y="235.34218" style="stroke: #000000; stroke-width: 0.5"/>
      </g>
     </g>
     <g id="line2d_49">
      <g>
       <use xlink:href="#m0bb1f04aa1" x="287.807507" y="17.90218" style="stroke: #000000; stroke-width: 0.5"/>
      </g>
     </g>
    </g>
    <g id="xtick_22">
     <g id="line2d_50">
      <g>
       <use xlink:href="#mff9796e189" x="302.965813" y="235.34218" style="stroke: #000000; stroke-width: 0.5"/>
      </g>
     </g>
     <g id="line2d_51">
      <g>
       <use xlink:href="#m0bb1f04aa1" x="302.965813" y="17.90218" style="stroke: #000000; stroke-width: 0.5"/>
      </g>
     </g>
    </g>
    <g id="xtick_23">
     <g id="line2d_52">
      <g>
       <use xlink:href="#mff9796e189" x="333.282426" y="235.34218" style="stroke: #000000; stroke-width: 0.5"/>
      </g>
     </g>
     <g id="line2d_53">
      <g>
       <use xlink:href="#m0bb1f04aa1" x="333.282426" y="17.90218" style="stroke: #000000; stroke-width: 0.5"/>
      </g>
     </g>
    </g>
    <g id="xtick_24">
     <g id="line2d_54">
      <g>
       <use xlink:href="#mff9796e189" x="348.440733" y="235.34218" style="stroke: #000000; stroke-width: 0.5"/>
      </g>
     </g>
     <g id="line2d_55">
      <g>
       <use xlink:href="#m0bb1f04aa1" x="348.440733" y="17.90218" style="stroke: #000000; stroke-width: 0.5"/>
      </g>
     </g>
    </g>
    <g id="xtick_25">
     <g id="line2d_56">
      <g>
       <use xlink:href="#mff9796e189" x="363.599039" y="235.34218" style="stroke: #000000; stroke-width: 0.5"/>
      </g>
     </g>
     <g id="line2d_57">
      <g>
       <use xlink:href="#m0bb1f04aa1" x="363.599039" y="17.90218" style="stroke: #000000; stroke-width: 0.5"/>
      </g>
     </g>
    </g>
    <g id="xtick_26">
     <g id="line2d_58">
      <g>
       <use xlink:href="#mff9796e189" x="378.757346" y="235.34218" style="stroke: #000000; stroke-width: 0.5"/>
      </g>
     </g>
     <g id="line2d_59">
      <g>
       <use xlink:href="#m0bb1f04aa1" x="378.757346" y="17.90218" style="stroke: #000000; stroke-width: 0.5"/>
      </g>
     </g>
    </g>
    <g id="xtick_27">
     <g id="line2d_60">
      <g>
       <use xlink:href="#mff9796e189" x="409.073959" y="235.34218" style="stroke: #000000; stroke-width: 0.5"/>
      </g>
     </g>
     <g id="line2d_61">
      <g>
       <use xlink:href="#m0bb1f04aa1" x="409.073959" y="17.90218" style="stroke: #000000; stroke-width: 0.5"/>
      </g>
     </g>
    </g>
    <g id="xtick_28">
     <g id="line2d_62">
      <g>
       <use xlink:href="#mff9796e189" x="424.232265" y="235.34218" style="stroke: #000000; stroke-width: 0.5"/>
      </g>
     </g>
     <g id="line2d_63">
      <g>
       <use xlink:href="#m0bb1f04aa1" x="424.232265" y="17.90218" style="stroke: #000000; stroke-width: 0.5"/>
      </g>
     </g>
    </g>
    <g id="xtick_29">
     <g id="line2d_64">
      <g>
       <use xlink:href="#mff9796e189" x="439.390572" y="235.34218" style="stroke: #000000; stroke-width: 0.5"/>
      </g>
     </g>
     <g id="line2d_65">
      <g>
       <use xlink:href="#m0bb1f04aa1" x="439.390572" y="17.90218" style="stroke: #000000; stroke-width: 0.5"/>
      </g>
     </g>
    </g>
    <g id="xtick_30">
     <g id="line2d_66">
      <g>
       <use xlink:href="#mff9796e189" x="454.548878" y="235.34218" style="stroke: #000000; stroke-width: 0.5"/>
      </g>
     </g>
     <g id="line2d_67">
      <g>
       <use xlink:href="#m0bb1f04aa1" x="454.548878" y="17.90218" style="stroke: #000000; stroke-width: 0.5"/>
      </g>
     </g>
    </g>
    <g id="xtick_31">
     <g id="line2d_68">
      <g>
       <use xlink:href="#mff9796e189" x="484.865492" y="235.34218" style="stroke: #000000; stroke-width: 0.5"/>
      </g>
     </g>
     <g id="line2d_69">
      <g>
       <use xlink:href="#m0bb1f04aa1" x="484.865492" y="17.90218" style="stroke: #000000; stroke-width: 0.5"/>
      </g>
     </g>
    </g>
    <g id="xtick_32">
     <g id="line2d_70">
      <g>
       <use xlink:href="#mff9796e189" x="500.023798" y="235.34218" style="stroke: #000000; stroke-width: 0.5"/>
      </g>
     </g>
     <g id="line2d_71">
      <g>
       <use xlink:href="#m0bb1f04aa1" x="500.023798" y="17.90218" style="stroke: #000000; stroke-width: 0.5"/>
      </g>
     </g>
    </g>
    <g id="xtick_33">
     <g id="line2d_72">
      <g>
       <use xlink:href="#mff9796e189" x="515.182105" y="235.34218" style="stroke: #000000; stroke-width: 0.5"/>
      </g>
     </g>
     <g id="line2d_73">
      <g>
       <use xlink:href="#m0bb1f04aa1" x="515.182105" y="17.90218" style="stroke: #000000; stroke-width: 0.5"/>
      </g>
     </g>
    </g>
    <g id="xtick_34">
     <g id="line2d_74">
      <g>
       <use xlink:href="#mff9796e189" x="530.340411" y="235.34218" style="stroke: #000000; stroke-width: 0.5"/>
      </g>
     </g>
     <g id="line2d_75">
      <g>
       <use xlink:href="#m0bb1f04aa1" x="530.340411" y="17.90218" style="stroke: #000000; stroke-width: 0.5"/>
      </g>
     </g>
    </g>
    <g id="xtick_35">
     <g id="line2d_76">
      <g>
       <use xlink:href="#mff9796e189" x="560.657024" y="235.34218" style="stroke: #000000; stroke-width: 0.5"/>
      </g>
     </g>
     <g id="line2d_77">
      <g>
       <use xlink:href="#m0bb1f04aa1" x="560.657024" y="17.90218" style="stroke: #000000; stroke-width: 0.5"/>
      </g>
     </g>
    </g>
    <g id="xtick_36">
     <g id="line2d_78">
      <g>
       <use xlink:href="#mff9796e189" x="575.815331" y="235.34218" style="stroke: #000000; stroke-width: 0.5"/>
      </g>
     </g>
     <g id="line2d_79">
      <g>
       <use xlink:href="#m0bb1f04aa1" x="575.815331" y="17.90218" style="stroke: #000000; stroke-width: 0.5"/>
      </g>
     </g>
    </g>
    <g id="xtick_37">
     <g id="line2d_80">
      <g>
       <use xlink:href="#mff9796e189" x="590.973637" y="235.34218" style="stroke: #000000; stroke-width: 0.5"/>
      </g>
     </g>
     <g id="line2d_81">
      <g>
       <use xlink:href="#m0bb1f04aa1" x="590.973637" y="17.90218" style="stroke: #000000; stroke-width: 0.5"/>
      </g>
     </g>
    </g>
    <g id="text_8">
     <!-- Betrag der Spannung am Netzteil in V -->
     <g transform="translate(237.145708 258.616355)scale(0.1 -0.1)">
      <defs>
       <path id="CMR17-42" d="M 333 4352 
L 333 4186 
C 774 4186 845 4186 845 3900 
L 845 452 
C 845 166 774 166 333 166 
L 333 0 
L 2534 0 
C 3354 0 3885 583 3885 1164 
C 3885 1741 3360 2233 2675 2233 
C 3290 2356 3718 2771 3718 3264 
C 3718 3802 3194 4352 2368 4352 
L 333 4352 
z
M 1248 2304 
L 1248 3937 
C 1248 4155 1261 4186 1517 4186 
L 2336 4186 
C 2970 4186 3251 3674 3251 3277 
C 3251 2791 2861 2304 2170 2304 
L 1248 2304 
z
M 1517 166 
C 1261 166 1248 197 1248 413 
L 1248 2202 
L 2432 2202 
C 3091 2202 3411 1625 3411 1162 
C 3411 699 3046 166 2349 166 
L 1517 166 
z
" transform="scale(0.015625)"/>
       <path id="CMR17-65" d="M 2438 1472 
C 2464 1498 2464 1511 2464 1576 
C 2464 2238 2118 2816 1389 2816 
C 710 2816 173 2169 173 1383 
C 173 551 781 -64 1459 -64 
C 2176 -64 2458 607 2458 740 
C 2458 784 2419 784 2406 784 
C 2362 784 2355 771 2330 696 
C 2189 265 1837 51 1504 51 
C 1229 51 954 203 781 480 
C 582 803 582 1176 582 1472 
L 2438 1472 
z
M 589 1568 
C 634 2505 1126 2714 1382 2714 
C 1818 2714 2112 2297 2118 1568 
L 589 1568 
z
" transform="scale(0.015625)"/>
       <path id="CMR17-74" d="M 966 2560 
L 1862 2560 
L 1862 2725 
L 966 2725 
L 966 3904 
L 851 3904 
C 838 3245 614 2668 70 2668 
L 70 2560 
L 627 2560 
L 627 771 
C 627 650 627 -64 1370 -64 
C 1747 -64 1965 306 1965 777 
L 1965 1140 
L 1850 1140 
L 1850 783 
C 1850 344 1677 51 1408 51 
C 1222 51 966 178 966 758 
L 966 2560 
z
" transform="scale(0.015625)"/>
       <path id="CMR17-72" d="M 960 1497 
C 960 2112 1222 2688 1702 2688 
C 1747 2688 1792 2682 1837 2662 
C 1837 2662 1696 2617 1696 2452 
C 1696 2298 1818 2234 1914 2234 
C 1990 2234 2131 2279 2131 2458 
C 2131 2663 1926 2790 1709 2790 
C 1222 2790 1011 2317 947 2093 
L 941 2093 
L 941 2790 
L 198 2720 
L 198 2554 
C 576 2554 634 2515 634 2208 
L 634 428 
C 634 184 608 153 198 153 
L 198 -13 
C 352 0 646 0 813 0 
C 998 0 1325 0 1498 -13 
L 1498 153 
C 1037 153 960 153 960 440 
L 960 1497 
z
" transform="scale(0.015625)"/>
       <path id="CMR17-61" d="M 2304 1653 
C 2304 2072 2304 2294 2035 2543 
C 1798 2752 1523 2816 1306 2816 
C 800 2816 435 2407 435 1971 
C 435 1728 627 1728 666 1728 
C 749 1728 896 1778 896 1954 
C 896 2112 774 2181 666 2181 
C 640 2181 608 2174 589 2168 
C 723 2592 1069 2714 1293 2714 
C 1613 2714 1965 2429 1965 1885 
L 1965 1600 
C 1587 1600 1133 1549 774 1357 
C 371 1133 256 813 256 570 
C 256 77 832 -64 1171 -64 
C 1523 -64 1850 139 1990 511 
C 2003 233 2182 -18 2464 -18 
C 2598 -18 2938 70 2938 567 
L 2938 920 
L 2822 920 
L 2822 562 
C 2822 178 2650 128 2566 128 
C 2304 128 2304 458 2304 738 
L 2304 1653 
z
M 1965 870 
C 1965 317 1568 38 1216 38 
C 896 38 646 275 646 570 
C 646 761 730 1100 1101 1305 
C 1408 1478 1760 1504 1965 1504 
L 1965 870 
z
" transform="scale(0.015625)"/>
       <path id="CMR17-67" d="M 710 1164 
C 832 1068 1043 960 1299 960 
C 1805 960 2240 1357 2240 1888 
C 2240 2054 2189 2310 1997 2509 
C 2176 2692 2438 2752 2586 2752 
C 2611 2752 2650 2752 2682 2734 
C 2656 2728 2598 2703 2598 2605 
C 2598 2527 2656 2471 2739 2471 
C 2835 2471 2886 2533 2886 2614 
C 2886 2731 2790 2854 2586 2854 
C 2330 2854 2106 2738 1926 2580 
C 1734 2753 1504 2816 1299 2816 
C 794 2816 358 2419 358 1888 
C 358 1522 570 1292 634 1228 
C 442 1004 442 743 442 711 
C 442 545 506 302 723 168 
C 390 85 128 -169 128 -486 
C 128 -943 736 -1280 1466 -1280 
C 2170 -1280 2803 -956 2803 -479 
C 2803 384 1856 384 1363 384 
C 1216 384 954 384 922 391 
C 723 423 589 602 589 826 
C 589 883 589 1024 710 1164 
z
M 1299 1068 
C 736 1068 736 1760 736 1889 
C 736 2016 736 2708 1299 2708 
C 1862 2708 1862 2016 1862 1889 
C 1862 1760 1862 1068 1299 1068 
z
M 1466 -1171 
C 826 -1171 384 -835 384 -486 
C 384 -289 493 -105 634 -4 
C 794 104 858 104 1293 104 
C 1818 104 2547 104 2547 -486 
C 2547 -835 2106 -1171 1466 -1171 
z
" transform="scale(0.015625)"/>
       <path id="CMR17-64" d="M 1869 4326 
L 1869 4160 
C 2246 4160 2304 4122 2304 3820 
L 2304 2345 
C 2278 2377 2016 2790 1498 2790 
C 845 2790 211 2208 211 1364 
C 211 525 806 -64 1434 -64 
C 1978 -64 2259 337 2291 380 
L 2291 -63 
L 3066 -63 
L 3066 128 
C 2688 128 2630 166 2630 473 
L 2630 4396 
L 1869 4326 
z
M 2291 755 
C 2291 563 2176 390 2029 262 
C 1811 70 1594 38 1472 38 
C 1286 38 621 134 621 1356 
C 621 2612 1363 2688 1530 2688 
C 1824 2688 2061 2522 2208 2291 
C 2291 2157 2291 2138 2291 2023 
L 2291 755 
z
" transform="scale(0.015625)"/>
       <path id="CMR17-53" d="M 2803 4290 
C 2803 4404 2797 4411 2758 4411 
C 2720 4411 2707 4385 2682 4328 
L 2490 3907 
C 2246 4257 1875 4416 1472 4416 
C 819 4416 294 3901 294 3253 
C 294 3056 339 2776 557 2510 
C 794 2218 1018 2167 1530 2033 
C 1722 1982 2042 1899 2106 1874 
C 2470 1722 2662 1341 2662 985 
C 2662 527 2336 38 1779 38 
C 1094 38 454 419 410 1311 
C 403 1413 397 1419 352 1419 
C 301 1419 294 1413 294 1285 
L 294 -1 
C 294 -115 301 -122 339 -122 
C 384 -122 397 -90 486 108 
C 493 127 493 140 614 381 
C 934 -39 1472 -128 1779 -128 
C 2477 -128 2970 451 2970 1124 
C 2970 1454 2848 1708 2778 1823 
C 2509 2230 2221 2306 1914 2382 
C 1869 2402 1856 2402 1498 2490 
C 1152 2579 1005 2624 845 2796 
C 666 2992 602 3196 602 3399 
C 602 3812 934 4263 1478 4263 
C 2157 4263 2579 3786 2675 2993 
C 2694 2878 2701 2872 2746 2872 
C 2803 2872 2803 2891 2803 2999 
L 2803 4290 
z
" transform="scale(0.015625)"/>
       <path id="CMR17-70" d="M 1408 -1063 
C 998 -1063 973 -1037 973 -789 
L 973 402 
C 1158 134 1427 -38 1766 -38 
C 2406 -38 3053 523 3053 1388 
C 3053 2191 2496 2802 1837 2802 
C 1453 2802 1139 2592 960 2338 
L 960 2802 
L 198 2732 
L 198 2567 
C 576 2567 634 2528 634 2223 
L 634 -789 
C 634 -1031 608 -1063 198 -1063 
L 198 -1228 
C 352 -1216 634 -1216 800 -1216 
C 966 -1216 1254 -1216 1408 -1228 
L 1408 -1063 
z
M 973 2012 
C 973 2102 973 2235 1222 2471 
C 1254 2497 1472 2688 1792 2688 
C 2259 2688 2643 2108 2643 1382 
C 2643 656 2234 64 1728 64 
C 1498 64 1248 172 1056 472 
C 973 612 973 650 973 752 
L 973 2012 
z
" transform="scale(0.015625)"/>
       <path id="CMR17-6e" d="M 2656 1933 
C 2656 2259 2592 2790 1837 2790 
C 1331 2790 1069 2400 973 2144 
L 966 2144 
L 966 2790 
L 211 2720 
L 211 2554 
C 589 2554 646 2515 646 2208 
L 646 428 
C 646 184 621 153 211 153 
L 211 -13 
C 365 0 646 0 813 0 
C 979 0 1267 0 1421 -13 
L 1421 153 
C 1011 153 986 178 986 428 
L 986 1658 
C 986 2247 1344 2688 1792 2688 
C 2266 2688 2317 2266 2317 1958 
L 2317 428 
C 2317 184 2291 153 1882 153 
L 1882 -13 
C 2035 0 2317 0 2483 0 
C 2650 0 2938 0 3091 -13 
L 3091 153 
C 2682 153 2656 178 2656 428 
L 2656 1933 
z
" transform="scale(0.015625)"/>
       <path id="CMR17-75" d="M 1882 2693 
L 1882 2528 
C 2259 2528 2317 2489 2317 2186 
L 2317 1032 
C 2317 500 2029 38 1555 38 
C 1030 38 986 348 986 678 
L 986 2763 
L 211 2693 
L 211 2528 
C 467 2528 640 2528 646 2274 
L 646 1058 
C 646 633 646 361 813 183 
C 896 101 1056 -64 1517 -64 
C 2061 -64 2272 377 2323 506 
L 2330 506 
L 2330 -63 
L 3091 -63 
L 3091 128 
C 2714 128 2656 166 2656 473 
L 2656 2763 
L 1882 2693 
z
" transform="scale(0.015625)"/>
       <path id="CMR17-6d" d="M 4326 1933 
C 4326 2252 4269 2790 3507 2790 
C 3072 2790 2771 2496 2656 2151 
L 2650 2151 
C 2573 2676 2195 2790 1837 2790 
C 1331 2790 1069 2400 973 2144 
L 966 2144 
L 966 2790 
L 211 2720 
L 211 2554 
C 589 2554 646 2515 646 2208 
L 646 428 
C 646 184 621 153 211 153 
L 211 -13 
C 365 0 646 0 813 0 
C 979 0 1267 0 1421 -13 
L 1421 153 
C 1011 153 986 178 986 428 
L 986 1658 
C 986 2247 1344 2688 1792 2688 
C 2266 2688 2317 2266 2317 1958 
L 2317 428 
C 2317 184 2291 153 1882 153 
L 1882 -13 
C 2035 0 2317 0 2483 0 
C 2650 0 2938 0 3091 -13 
L 3091 153 
C 2682 153 2656 178 2656 428 
L 2656 1658 
C 2656 2247 3014 2688 3462 2688 
C 3936 2688 3987 2266 3987 1958 
L 3987 428 
C 3987 184 3962 153 3552 153 
L 3552 -13 
C 3706 0 3987 0 4154 0 
C 4320 0 4608 0 4762 -13 
L 4762 153 
C 4352 153 4326 178 4326 428 
L 4326 1933 
z
" transform="scale(0.015625)"/>
       <path id="CMR17-4e" d="M 1312 4250 
C 1267 4320 1261 4320 1139 4320 
L 326 4320 
L 326 4160 
L 448 4160 
C 704 4160 819 4129 838 4122 
L 838 610 
C 838 451 838 153 326 153 
L 326 -13 
C 474 0 742 0 902 0 
C 1062 0 1331 0 1478 -13 
L 1478 153 
C 966 153 966 451 966 610 
L 966 4033 
C 1011 3995 1011 3982 1056 3919 
L 3430 76 
C 3475 0 3494 0 3526 0 
C 3590 0 3590 19 3590 139 
L 3590 3705 
C 3590 3863 3590 4160 4102 4160 
L 4102 4326 
C 3955 4320 3686 4320 3526 4320 
C 3366 4320 3098 4320 2950 4326 
L 2950 4160 
C 3462 4160 3462 3862 3462 3703 
L 3462 763 
L 1312 4250 
z
" transform="scale(0.015625)"/>
       <path id="CMR17-7a" d="M 2310 2605 
C 2362 2670 2362 2682 2362 2695 
C 2362 2752 2336 2752 2221 2752 
L 275 2752 
L 211 1760 
L 326 1760 
C 371 2381 442 2650 1178 2650 
L 1958 2650 
L 128 96 
C 128 0 134 0 269 0 
L 2291 0 
L 2381 1152 
L 2266 1152 
C 2214 442 2131 115 1350 115 
L 531 115 
L 2310 2605 
z
" transform="scale(0.015625)"/>
       <path id="CMR17-69" d="M 992 3909 
C 992 4049 877 4170 730 4170 
C 589 4170 467 4056 467 3909 
C 467 3769 582 3648 730 3648 
C 870 3648 992 3763 992 3909 
z
M 243 2706 
L 243 2541 
C 602 2541 653 2502 653 2197 
L 653 427 
C 653 184 627 153 218 153 
L 218 -13 
C 371 0 646 0 806 0 
C 960 0 1222 0 1370 -13 
L 1370 153 
C 992 153 979 191 979 420 
L 979 2776 
L 243 2706 
z
" transform="scale(0.015625)"/>
       <path id="CMR17-6c" d="M 979 4396 
L 218 4326 
L 218 4160 
C 595 4160 653 4122 653 3817 
L 653 426 
C 653 184 627 153 218 153 
L 218 -13 
C 371 0 653 0 813 0 
C 979 0 1261 0 1414 -13 
L 1414 153 
C 1005 153 979 178 979 426 
L 979 4396 
z
" transform="scale(0.015625)"/>
       <path id="CMR17-56" d="M 3776 3745 
C 3834 3886 3936 4160 4365 4160 
L 4365 4332 
C 4218 4319 4051 4319 3891 4319 
C 3738 4319 3475 4319 3328 4332 
L 3328 4160 
C 3648 4160 3661 3936 3661 3898 
C 3661 3827 3642 3783 3622 3732 
L 2362 446 
L 1043 3886 
C 1024 3931 1011 3963 1011 3994 
C 1011 4160 1267 4160 1402 4160 
L 1402 4319 
C 1197 4319 896 4319 685 4319 
C 518 4319 218 4319 64 4332 
L 64 4160 
C 435 4160 506 4135 582 3931 
L 2106 -26 
C 2138 -115 2144 -128 2214 -128 
C 2285 -128 2291 -115 2323 -26 
L 3776 3745 
z
" transform="scale(0.015625)"/>
      </defs>
      <use xlink:href="#CMR17-42" transform="scale(0.996264)"/>
      <use xlink:href="#CMR17-65" transform="translate(65.188754 0)scale(0.996264)"/>
      <use xlink:href="#CMR17-74" transform="translate(105.674415 0)scale(0.996264)"/>
      <use xlink:href="#CMR17-72" transform="translate(140.955183 0)scale(0.996264)"/>
      <use xlink:href="#CMR17-61" transform="translate(176.235951 0)scale(0.996264)"/>
      <use xlink:href="#CMR17-67" transform="translate(221.926428 0)scale(0.996264)"/>
      <use xlink:href="#CMR17-64" transform="translate(297.692871 0)scale(0.996264)"/>
      <use xlink:href="#CMR17-65" transform="translate(348.588241 0)scale(0.996264)"/>
      <use xlink:href="#CMR17-72" transform="translate(389.073901 0)scale(0.996264)"/>
      <use xlink:href="#CMR17-53" transform="translate(454.430635 0)scale(0.996264)"/>
      <use xlink:href="#CMR17-70" transform="translate(505.326005 0)scale(0.996264)"/>
      <use xlink:href="#CMR17-61" transform="translate(556.221375 0)scale(0.996264)"/>
      <use xlink:href="#CMR17-6e" transform="translate(601.911852 0)scale(0.996264)"/>
      <use xlink:href="#CMR17-6e" transform="translate(652.807222 0)scale(0.996264)"/>
      <use xlink:href="#CMR17-75" transform="translate(701.100138 0)scale(0.996264)"/>
      <use xlink:href="#CMR17-6e" transform="translate(751.995508 0)scale(0.996264)"/>
      <use xlink:href="#CMR17-67" transform="translate(802.890877 0)scale(0.996264)"/>
      <use xlink:href="#CMR17-61" transform="translate(878.657321 0)scale(0.996264)"/>
      <use xlink:href="#CMR17-6d" transform="translate(924.347798 0)scale(0.996264)"/>
      <use xlink:href="#CMR17-4e" transform="translate(1031.343354 0)scale(0.996264)"/>
      <use xlink:href="#CMR17-65" transform="translate(1100.415784 0)scale(0.996264)"/>
      <use xlink:href="#CMR17-74" transform="translate(1140.901444 0)scale(0.996264)"/>
      <use xlink:href="#CMR17-7a" transform="translate(1176.182212 0)scale(0.996264)"/>
      <use xlink:href="#CMR17-74" transform="translate(1216.667873 0)scale(0.996264)"/>
      <use xlink:href="#CMR17-65" transform="translate(1251.94864 0)scale(0.996264)"/>
      <use xlink:href="#CMR17-69" transform="translate(1292.434301 0)scale(0.996264)"/>
      <use xlink:href="#CMR17-6c" transform="translate(1317.305359 0)scale(0.996264)"/>
      <use xlink:href="#CMR17-69" transform="translate(1372.252384 0)scale(0.996264)"/>
      <use xlink:href="#CMR17-6e" transform="translate(1397.123443 0)scale(0.996264)"/>
      <use xlink:href="#CMR17-56" transform="translate(1478.094779 0)scale(0.996264)"/>
     </g>
    </g>
   </g>
   <g id="matplotlib.axis_2">
    <g id="ytick_1">
     <g id="line2d_82">
      <path d="M 42.648426 235.34218 
L 600.648426 235.34218 
" clip-path="url(#pec229e9ad9)" style="fill: none; stroke-dasharray: 1.85,0.8; stroke-dashoffset: 0; stroke: #000000; stroke-opacity: 0.5; stroke-width: 0.5"/>
     </g>
     <g id="line2d_83">
      <defs>
       <path id="m15d486dec0" d="M 0 0 
L 3 0 
" style="stroke: #000000; stroke-width: 0.5"/>
      </defs>
      <g>
       <use xlink:href="#m15d486dec0" x="42.648426" y="235.34218" style="stroke: #000000; stroke-width: 0.5"/>
      </g>
     </g>
     <g id="line2d_84">
      <defs>
       <path id="m8694fcf8e9" d="M 0 0 
L -3 0 
" style="stroke: #000000; stroke-width: 0.5"/>
      </defs>
      <g>
       <use xlink:href="#m8694fcf8e9" x="600.648426" y="235.34218" style="stroke: #000000; stroke-width: 0.5"/>
      </g>
     </g>
     <g id="text_9">
      <!-- $\mathdefault{0.000}$ -->
      <g transform="translate(16.455677 238.801429)scale(0.1 -0.1)">
       <defs>
        <path id="CMMI12-3a" d="M 1178 307 
C 1178 492 1024 619 870 619 
C 685 619 557 466 557 313 
C 557 128 710 0 864 0 
C 1050 0 1178 153 1178 307 
z
" transform="scale(0.015625)"/>
       </defs>
       <use xlink:href="#CMR17-30" transform="scale(0.996264)"/>
       <use xlink:href="#CMMI12-3a" transform="translate(45.690477 0)scale(0.996264)"/>
       <use xlink:href="#CMR17-30" transform="translate(72.787654 0)scale(0.996264)"/>
       <use xlink:href="#CMR17-30" transform="translate(118.478131 0)scale(0.996264)"/>
       <use xlink:href="#CMR17-30" transform="translate(164.168608 0)scale(0.996264)"/>
      </g>
     </g>
    </g>
    <g id="ytick_2">
     <g id="line2d_85">
      <path d="M 42.648426 208.503699 
L 600.648426 208.503699 
" clip-path="url(#pec229e9ad9)" style="fill: none; stroke-dasharray: 1.85,0.8; stroke-dashoffset: 0; stroke: #000000; stroke-opacity: 0.5; stroke-width: 0.5"/>
     </g>
     <g id="line2d_86">
      <g>
       <use xlink:href="#m15d486dec0" x="42.648426" y="208.503699" style="stroke: #000000; stroke-width: 0.5"/>
      </g>
     </g>
     <g id="line2d_87">
      <g>
       <use xlink:href="#m8694fcf8e9" x="600.648426" y="208.503699" style="stroke: #000000; stroke-width: 0.5"/>
      </g>
     </g>
     <g id="text_10">
      <!-- $\mathdefault{0.025}$ -->
      <g transform="translate(16.455677 211.962949)scale(0.1 -0.1)">
       <defs>
        <path id="CMR17-32" d="M 2669 989 
L 2554 989 
C 2490 536 2438 459 2413 420 
C 2381 369 1920 369 1830 369 
L 602 369 
C 832 619 1280 1072 1824 1597 
C 2214 1967 2669 2402 2669 3035 
C 2669 3790 2067 4224 1395 4224 
C 691 4224 262 3604 262 3030 
C 262 2780 448 2748 525 2748 
C 589 2748 781 2787 781 3010 
C 781 3207 614 3264 525 3264 
C 486 3264 448 3258 422 3245 
C 544 3790 915 4058 1306 4058 
C 1862 4058 2227 3617 2227 3035 
C 2227 2479 1901 2000 1536 1584 
L 262 146 
L 262 0 
L 2515 0 
L 2669 989 
z
" transform="scale(0.015625)"/>
       </defs>
       <use xlink:href="#CMR17-30" transform="scale(0.996264)"/>
       <use xlink:href="#CMMI12-3a" transform="translate(45.690477 0)scale(0.996264)"/>
       <use xlink:href="#CMR17-30" transform="translate(72.787654 0)scale(0.996264)"/>
       <use xlink:href="#CMR17-32" transform="translate(118.478131 0)scale(0.996264)"/>
       <use xlink:href="#CMR17-35" transform="translate(164.168608 0)scale(0.996264)"/>
      </g>
     </g>
    </g>
    <g id="ytick_3">
     <g id="line2d_88">
      <path d="M 42.648426 181.665219 
L 600.648426 181.665219 
" clip-path="url(#pec229e9ad9)" style="fill: none; stroke-dasharray: 1.85,0.8; stroke-dashoffset: 0; stroke: #000000; stroke-opacity: 0.5; stroke-width: 0.5"/>
     </g>
     <g id="line2d_89">
      <g>
       <use xlink:href="#m15d486dec0" x="42.648426" y="181.665219" style="stroke: #000000; stroke-width: 0.5"/>
      </g>
     </g>
     <g id="line2d_90">
      <g>
       <use xlink:href="#m8694fcf8e9" x="600.648426" y="181.665219" style="stroke: #000000; stroke-width: 0.5"/>
      </g>
     </g>
     <g id="text_11">
      <!-- $\mathdefault{0.050}$ -->
      <g transform="translate(16.455677 185.124468)scale(0.1 -0.1)">
       <use xlink:href="#CMR17-30" transform="scale(0.996264)"/>
       <use xlink:href="#CMMI12-3a" transform="translate(45.690477 0)scale(0.996264)"/>
       <use xlink:href="#CMR17-30" transform="translate(72.787654 0)scale(0.996264)"/>
       <use xlink:href="#CMR17-35" transform="translate(118.478131 0)scale(0.996264)"/>
       <use xlink:href="#CMR17-30" transform="translate(164.168608 0)scale(0.996264)"/>
      </g>
     </g>
    </g>
    <g id="ytick_4">
     <g id="line2d_91">
      <path d="M 42.648426 154.826739 
L 600.648426 154.826739 
" clip-path="url(#pec229e9ad9)" style="fill: none; stroke-dasharray: 1.85,0.8; stroke-dashoffset: 0; stroke: #000000; stroke-opacity: 0.5; stroke-width: 0.5"/>
     </g>
     <g id="line2d_92">
      <g>
       <use xlink:href="#m15d486dec0" x="42.648426" y="154.826739" style="stroke: #000000; stroke-width: 0.5"/>
      </g>
     </g>
     <g id="line2d_93">
      <g>
       <use xlink:href="#m8694fcf8e9" x="600.648426" y="154.826739" style="stroke: #000000; stroke-width: 0.5"/>
      </g>
     </g>
     <g id="text_12">
      <!-- $\mathdefault{0.075}$ -->
      <g transform="translate(16.455677 158.285988)scale(0.1 -0.1)">
       <use xlink:href="#CMR17-30" transform="scale(0.996264)"/>
       <use xlink:href="#CMMI12-3a" transform="translate(45.690477 0)scale(0.996264)"/>
       <use xlink:href="#CMR17-30" transform="translate(72.787654 0)scale(0.996264)"/>
       <use xlink:href="#CMR17-37" transform="translate(118.478131 0)scale(0.996264)"/>
       <use xlink:href="#CMR17-35" transform="translate(164.168608 0)scale(0.996264)"/>
      </g>
     </g>
    </g>
    <g id="ytick_5">
     <g id="line2d_94">
      <path d="M 42.648426 127.988258 
L 600.648426 127.988258 
" clip-path="url(#pec229e9ad9)" style="fill: none; stroke-dasharray: 1.85,0.8; stroke-dashoffset: 0; stroke: #000000; stroke-opacity: 0.5; stroke-width: 0.5"/>
     </g>
     <g id="line2d_95">
      <g>
       <use xlink:href="#m15d486dec0" x="42.648426" y="127.988258" style="stroke: #000000; stroke-width: 0.5"/>
      </g>
     </g>
     <g id="line2d_96">
      <g>
       <use xlink:href="#m8694fcf8e9" x="600.648426" y="127.988258" style="stroke: #000000; stroke-width: 0.5"/>
      </g>
     </g>
     <g id="text_13">
      <!-- $\mathdefault{0.100}$ -->
      <g transform="translate(16.455677 131.447508)scale(0.1 -0.1)">
       <use xlink:href="#CMR17-30" transform="scale(0.996264)"/>
       <use xlink:href="#CMMI12-3a" transform="translate(45.690477 0)scale(0.996264)"/>
       <use xlink:href="#CMR17-31" transform="translate(72.787654 0)scale(0.996264)"/>
       <use xlink:href="#CMR17-30" transform="translate(118.478131 0)scale(0.996264)"/>
       <use xlink:href="#CMR17-30" transform="translate(164.168608 0)scale(0.996264)"/>
      </g>
     </g>
    </g>
    <g id="ytick_6">
     <g id="line2d_97">
      <path d="M 42.648426 101.149778 
L 600.648426 101.149778 
" clip-path="url(#pec229e9ad9)" style="fill: none; stroke-dasharray: 1.85,0.8; stroke-dashoffset: 0; stroke: #000000; stroke-opacity: 0.5; stroke-width: 0.5"/>
     </g>
     <g id="line2d_98">
      <g>
       <use xlink:href="#m15d486dec0" x="42.648426" y="101.149778" style="stroke: #000000; stroke-width: 0.5"/>
      </g>
     </g>
     <g id="line2d_99">
      <g>
       <use xlink:href="#m8694fcf8e9" x="600.648426" y="101.149778" style="stroke: #000000; stroke-width: 0.5"/>
      </g>
     </g>
     <g id="text_14">
      <!-- $\mathdefault{0.125}$ -->
      <g transform="translate(16.455677 104.609027)scale(0.1 -0.1)">
       <use xlink:href="#CMR17-30" transform="scale(0.996264)"/>
       <use xlink:href="#CMMI12-3a" transform="translate(45.690477 0)scale(0.996264)"/>
       <use xlink:href="#CMR17-31" transform="translate(72.787654 0)scale(0.996264)"/>
       <use xlink:href="#CMR17-32" transform="translate(118.478131 0)scale(0.996264)"/>
       <use xlink:href="#CMR17-35" transform="translate(164.168608 0)scale(0.996264)"/>
      </g>
     </g>
    </g>
    <g id="ytick_7">
     <g id="line2d_100">
      <path d="M 42.648426 74.311298 
L 600.648426 74.311298 
" clip-path="url(#pec229e9ad9)" style="fill: none; stroke-dasharray: 1.85,0.8; stroke-dashoffset: 0; stroke: #000000; stroke-opacity: 0.5; stroke-width: 0.5"/>
     </g>
     <g id="line2d_101">
      <g>
       <use xlink:href="#m15d486dec0" x="42.648426" y="74.311298" style="stroke: #000000; stroke-width: 0.5"/>
      </g>
     </g>
     <g id="line2d_102">
      <g>
       <use xlink:href="#m8694fcf8e9" x="600.648426" y="74.311298" style="stroke: #000000; stroke-width: 0.5"/>
      </g>
     </g>
     <g id="text_15">
      <!-- $\mathdefault{0.150}$ -->
      <g transform="translate(16.455677 77.770547)scale(0.1 -0.1)">
       <use xlink:href="#CMR17-30" transform="scale(0.996264)"/>
       <use xlink:href="#CMMI12-3a" transform="translate(45.690477 0)scale(0.996264)"/>
       <use xlink:href="#CMR17-31" transform="translate(72.787654 0)scale(0.996264)"/>
       <use xlink:href="#CMR17-35" transform="translate(118.478131 0)scale(0.996264)"/>
       <use xlink:href="#CMR17-30" transform="translate(164.168608 0)scale(0.996264)"/>
      </g>
     </g>
    </g>
    <g id="ytick_8">
     <g id="line2d_103">
      <path d="M 42.648426 47.472817 
L 600.648426 47.472817 
" clip-path="url(#pec229e9ad9)" style="fill: none; stroke-dasharray: 1.85,0.8; stroke-dashoffset: 0; stroke: #000000; stroke-opacity: 0.5; stroke-width: 0.5"/>
     </g>
     <g id="line2d_104">
      <g>
       <use xlink:href="#m15d486dec0" x="42.648426" y="47.472817" style="stroke: #000000; stroke-width: 0.5"/>
      </g>
     </g>
     <g id="line2d_105">
      <g>
       <use xlink:href="#m8694fcf8e9" x="600.648426" y="47.472817" style="stroke: #000000; stroke-width: 0.5"/>
      </g>
     </g>
     <g id="text_16">
      <!-- $\mathdefault{0.175}$ -->
      <g transform="translate(16.455677 50.932067)scale(0.1 -0.1)">
       <use xlink:href="#CMR17-30" transform="scale(0.996264)"/>
       <use xlink:href="#CMMI12-3a" transform="translate(45.690477 0)scale(0.996264)"/>
       <use xlink:href="#CMR17-31" transform="translate(72.787654 0)scale(0.996264)"/>
       <use xlink:href="#CMR17-37" transform="translate(118.478131 0)scale(0.996264)"/>
       <use xlink:href="#CMR17-35" transform="translate(164.168608 0)scale(0.996264)"/>
      </g>
     </g>
    </g>
    <g id="ytick_9">
     <g id="line2d_106">
      <path d="M 42.648426 20.634337 
L 600.648426 20.634337 
" clip-path="url(#pec229e9ad9)" style="fill: none; stroke-dasharray: 1.85,0.8; stroke-dashoffset: 0; stroke: #000000; stroke-opacity: 0.5; stroke-width: 0.5"/>
     </g>
     <g id="line2d_107">
      <g>
       <use xlink:href="#m15d486dec0" x="42.648426" y="20.634337" style="stroke: #000000; stroke-width: 0.5"/>
      </g>
     </g>
     <g id="line2d_108">
      <g>
       <use xlink:href="#m8694fcf8e9" x="600.648426" y="20.634337" style="stroke: #000000; stroke-width: 0.5"/>
      </g>
     </g>
     <g id="text_17">
      <!-- $\mathdefault{0.200}$ -->
      <g transform="translate(16.455677 24.093586)scale(0.1 -0.1)">
       <use xlink:href="#CMR17-30" transform="scale(0.996264)"/>
       <use xlink:href="#CMMI12-3a" transform="translate(45.690477 0)scale(0.996264)"/>
       <use xlink:href="#CMR17-32" transform="translate(72.787654 0)scale(0.996264)"/>
       <use xlink:href="#CMR17-30" transform="translate(118.478131 0)scale(0.996264)"/>
       <use xlink:href="#CMR17-30" transform="translate(164.168608 0)scale(0.996264)"/>
      </g>
     </g>
    </g>
    <g id="ytick_10">
     <g id="line2d_109">
      <defs>
       <path id="me2ac8f4193" d="M 0 0 
L 1.5 0 
" style="stroke: #000000; stroke-width: 0.5"/>
      </defs>
      <g>
       <use xlink:href="#me2ac8f4193" x="42.648426" y="229.974484" style="stroke: #000000; stroke-width: 0.5"/>
      </g>
     </g>
     <g id="line2d_110">
      <defs>
       <path id="m2b16797194" d="M 0 0 
L -1.5 0 
" style="stroke: #000000; stroke-width: 0.5"/>
      </defs>
      <g>
       <use xlink:href="#m2b16797194" x="600.648426" y="229.974484" style="stroke: #000000; stroke-width: 0.5"/>
      </g>
     </g>
    </g>
    <g id="ytick_11">
     <g id="line2d_111">
      <g>
       <use xlink:href="#me2ac8f4193" x="42.648426" y="224.606788" style="stroke: #000000; stroke-width: 0.5"/>
      </g>
     </g>
     <g id="line2d_112">
      <g>
       <use xlink:href="#m2b16797194" x="600.648426" y="224.606788" style="stroke: #000000; stroke-width: 0.5"/>
      </g>
     </g>
    </g>
    <g id="ytick_12">
     <g id="line2d_113">
      <g>
       <use xlink:href="#me2ac8f4193" x="42.648426" y="219.239092" style="stroke: #000000; stroke-width: 0.5"/>
      </g>
     </g>
     <g id="line2d_114">
      <g>
       <use xlink:href="#m2b16797194" x="600.648426" y="219.239092" style="stroke: #000000; stroke-width: 0.5"/>
      </g>
     </g>
    </g>
    <g id="ytick_13">
     <g id="line2d_115">
      <g>
       <use xlink:href="#me2ac8f4193" x="42.648426" y="213.871396" style="stroke: #000000; stroke-width: 0.5"/>
      </g>
     </g>
     <g id="line2d_116">
      <g>
       <use xlink:href="#m2b16797194" x="600.648426" y="213.871396" style="stroke: #000000; stroke-width: 0.5"/>
      </g>
     </g>
    </g>
    <g id="ytick_14">
     <g id="line2d_117">
      <g>
       <use xlink:href="#me2ac8f4193" x="42.648426" y="203.136003" style="stroke: #000000; stroke-width: 0.5"/>
      </g>
     </g>
     <g id="line2d_118">
      <g>
       <use xlink:href="#m2b16797194" x="600.648426" y="203.136003" style="stroke: #000000; stroke-width: 0.5"/>
      </g>
     </g>
    </g>
    <g id="ytick_15">
     <g id="line2d_119">
      <g>
       <use xlink:href="#me2ac8f4193" x="42.648426" y="197.768307" style="stroke: #000000; stroke-width: 0.5"/>
      </g>
     </g>
     <g id="line2d_120">
      <g>
       <use xlink:href="#m2b16797194" x="600.648426" y="197.768307" style="stroke: #000000; stroke-width: 0.5"/>
      </g>
     </g>
    </g>
    <g id="ytick_16">
     <g id="line2d_121">
      <g>
       <use xlink:href="#me2ac8f4193" x="42.648426" y="192.400611" style="stroke: #000000; stroke-width: 0.5"/>
      </g>
     </g>
     <g id="line2d_122">
      <g>
       <use xlink:href="#m2b16797194" x="600.648426" y="192.400611" style="stroke: #000000; stroke-width: 0.5"/>
      </g>
     </g>
    </g>
    <g id="ytick_17">
     <g id="line2d_123">
      <g>
       <use xlink:href="#me2ac8f4193" x="42.648426" y="187.032915" style="stroke: #000000; stroke-width: 0.5"/>
      </g>
     </g>
     <g id="line2d_124">
      <g>
       <use xlink:href="#m2b16797194" x="600.648426" y="187.032915" style="stroke: #000000; stroke-width: 0.5"/>
      </g>
     </g>
    </g>
    <g id="ytick_18">
     <g id="line2d_125">
      <g>
       <use xlink:href="#me2ac8f4193" x="42.648426" y="176.297523" style="stroke: #000000; stroke-width: 0.5"/>
      </g>
     </g>
     <g id="line2d_126">
      <g>
       <use xlink:href="#m2b16797194" x="600.648426" y="176.297523" style="stroke: #000000; stroke-width: 0.5"/>
      </g>
     </g>
    </g>
    <g id="ytick_19">
     <g id="line2d_127">
      <g>
       <use xlink:href="#me2ac8f4193" x="42.648426" y="170.929827" style="stroke: #000000; stroke-width: 0.5"/>
      </g>
     </g>
     <g id="line2d_128">
      <g>
       <use xlink:href="#m2b16797194" x="600.648426" y="170.929827" style="stroke: #000000; stroke-width: 0.5"/>
      </g>
     </g>
    </g>
    <g id="ytick_20">
     <g id="line2d_129">
      <g>
       <use xlink:href="#me2ac8f4193" x="42.648426" y="165.562131" style="stroke: #000000; stroke-width: 0.5"/>
      </g>
     </g>
     <g id="line2d_130">
      <g>
       <use xlink:href="#m2b16797194" x="600.648426" y="165.562131" style="stroke: #000000; stroke-width: 0.5"/>
      </g>
     </g>
    </g>
    <g id="ytick_21">
     <g id="line2d_131">
      <g>
       <use xlink:href="#me2ac8f4193" x="42.648426" y="160.194435" style="stroke: #000000; stroke-width: 0.5"/>
      </g>
     </g>
     <g id="line2d_132">
      <g>
       <use xlink:href="#m2b16797194" x="600.648426" y="160.194435" style="stroke: #000000; stroke-width: 0.5"/>
      </g>
     </g>
    </g>
    <g id="ytick_22">
     <g id="line2d_133">
      <g>
       <use xlink:href="#me2ac8f4193" x="42.648426" y="149.459043" style="stroke: #000000; stroke-width: 0.5"/>
      </g>
     </g>
     <g id="line2d_134">
      <g>
       <use xlink:href="#m2b16797194" x="600.648426" y="149.459043" style="stroke: #000000; stroke-width: 0.5"/>
      </g>
     </g>
    </g>
    <g id="ytick_23">
     <g id="line2d_135">
      <g>
       <use xlink:href="#me2ac8f4193" x="42.648426" y="144.091347" style="stroke: #000000; stroke-width: 0.5"/>
      </g>
     </g>
     <g id="line2d_136">
      <g>
       <use xlink:href="#m2b16797194" x="600.648426" y="144.091347" style="stroke: #000000; stroke-width: 0.5"/>
      </g>
     </g>
    </g>
    <g id="ytick_24">
     <g id="line2d_137">
      <g>
       <use xlink:href="#me2ac8f4193" x="42.648426" y="138.723651" style="stroke: #000000; stroke-width: 0.5"/>
      </g>
     </g>
     <g id="line2d_138">
      <g>
       <use xlink:href="#m2b16797194" x="600.648426" y="138.723651" style="stroke: #000000; stroke-width: 0.5"/>
      </g>
     </g>
    </g>
    <g id="ytick_25">
     <g id="line2d_139">
      <g>
       <use xlink:href="#me2ac8f4193" x="42.648426" y="133.355955" style="stroke: #000000; stroke-width: 0.5"/>
      </g>
     </g>
     <g id="line2d_140">
      <g>
       <use xlink:href="#m2b16797194" x="600.648426" y="133.355955" style="stroke: #000000; stroke-width: 0.5"/>
      </g>
     </g>
    </g>
    <g id="ytick_26">
     <g id="line2d_141">
      <g>
       <use xlink:href="#me2ac8f4193" x="42.648426" y="122.620562" style="stroke: #000000; stroke-width: 0.5"/>
      </g>
     </g>
     <g id="line2d_142">
      <g>
       <use xlink:href="#m2b16797194" x="600.648426" y="122.620562" style="stroke: #000000; stroke-width: 0.5"/>
      </g>
     </g>
    </g>
    <g id="ytick_27">
     <g id="line2d_143">
      <g>
       <use xlink:href="#me2ac8f4193" x="42.648426" y="117.252866" style="stroke: #000000; stroke-width: 0.5"/>
      </g>
     </g>
     <g id="line2d_144">
      <g>
       <use xlink:href="#m2b16797194" x="600.648426" y="117.252866" style="stroke: #000000; stroke-width: 0.5"/>
      </g>
     </g>
    </g>
    <g id="ytick_28">
     <g id="line2d_145">
      <g>
       <use xlink:href="#me2ac8f4193" x="42.648426" y="111.88517" style="stroke: #000000; stroke-width: 0.5"/>
      </g>
     </g>
     <g id="line2d_146">
      <g>
       <use xlink:href="#m2b16797194" x="600.648426" y="111.88517" style="stroke: #000000; stroke-width: 0.5"/>
      </g>
     </g>
    </g>
    <g id="ytick_29">
     <g id="line2d_147">
      <g>
       <use xlink:href="#me2ac8f4193" x="42.648426" y="106.517474" style="stroke: #000000; stroke-width: 0.5"/>
      </g>
     </g>
     <g id="line2d_148">
      <g>
       <use xlink:href="#m2b16797194" x="600.648426" y="106.517474" style="stroke: #000000; stroke-width: 0.5"/>
      </g>
     </g>
    </g>
    <g id="ytick_30">
     <g id="line2d_149">
      <g>
       <use xlink:href="#me2ac8f4193" x="42.648426" y="95.782082" style="stroke: #000000; stroke-width: 0.5"/>
      </g>
     </g>
     <g id="line2d_150">
      <g>
       <use xlink:href="#m2b16797194" x="600.648426" y="95.782082" style="stroke: #000000; stroke-width: 0.5"/>
      </g>
     </g>
    </g>
    <g id="ytick_31">
     <g id="line2d_151">
      <g>
       <use xlink:href="#me2ac8f4193" x="42.648426" y="90.414386" style="stroke: #000000; stroke-width: 0.5"/>
      </g>
     </g>
     <g id="line2d_152">
      <g>
       <use xlink:href="#m2b16797194" x="600.648426" y="90.414386" style="stroke: #000000; stroke-width: 0.5"/>
      </g>
     </g>
    </g>
    <g id="ytick_32">
     <g id="line2d_153">
      <g>
       <use xlink:href="#me2ac8f4193" x="42.648426" y="85.04669" style="stroke: #000000; stroke-width: 0.5"/>
      </g>
     </g>
     <g id="line2d_154">
      <g>
       <use xlink:href="#m2b16797194" x="600.648426" y="85.04669" style="stroke: #000000; stroke-width: 0.5"/>
      </g>
     </g>
    </g>
    <g id="ytick_33">
     <g id="line2d_155">
      <g>
       <use xlink:href="#me2ac8f4193" x="42.648426" y="79.678994" style="stroke: #000000; stroke-width: 0.5"/>
      </g>
     </g>
     <g id="line2d_156">
      <g>
       <use xlink:href="#m2b16797194" x="600.648426" y="79.678994" style="stroke: #000000; stroke-width: 0.5"/>
      </g>
     </g>
    </g>
    <g id="ytick_34">
     <g id="line2d_157">
      <g>
       <use xlink:href="#me2ac8f4193" x="42.648426" y="68.943602" style="stroke: #000000; stroke-width: 0.5"/>
      </g>
     </g>
     <g id="line2d_158">
      <g>
       <use xlink:href="#m2b16797194" x="600.648426" y="68.943602" style="stroke: #000000; stroke-width: 0.5"/>
      </g>
     </g>
    </g>
    <g id="ytick_35">
     <g id="line2d_159">
      <g>
       <use xlink:href="#me2ac8f4193" x="42.648426" y="63.575906" style="stroke: #000000; stroke-width: 0.5"/>
      </g>
     </g>
     <g id="line2d_160">
      <g>
       <use xlink:href="#m2b16797194" x="600.648426" y="63.575906" style="stroke: #000000; stroke-width: 0.5"/>
      </g>
     </g>
    </g>
    <g id="ytick_36">
     <g id="line2d_161">
      <g>
       <use xlink:href="#me2ac8f4193" x="42.648426" y="58.20821" style="stroke: #000000; stroke-width: 0.5"/>
      </g>
     </g>
     <g id="line2d_162">
      <g>
       <use xlink:href="#m2b16797194" x="600.648426" y="58.20821" style="stroke: #000000; stroke-width: 0.5"/>
      </g>
     </g>
    </g>
    <g id="ytick_37">
     <g id="line2d_163">
      <g>
       <use xlink:href="#me2ac8f4193" x="42.648426" y="52.840514" style="stroke: #000000; stroke-width: 0.5"/>
      </g>
     </g>
     <g id="line2d_164">
      <g>
       <use xlink:href="#m2b16797194" x="600.648426" y="52.840514" style="stroke: #000000; stroke-width: 0.5"/>
      </g>
     </g>
    </g>
    <g id="ytick_38">
     <g id="line2d_165">
      <g>
       <use xlink:href="#me2ac8f4193" x="42.648426" y="42.105121" style="stroke: #000000; stroke-width: 0.5"/>
      </g>
     </g>
     <g id="line2d_166">
      <g>
       <use xlink:href="#m2b16797194" x="600.648426" y="42.105121" style="stroke: #000000; stroke-width: 0.5"/>
      </g>
     </g>
    </g>
    <g id="ytick_39">
     <g id="line2d_167">
      <g>
       <use xlink:href="#me2ac8f4193" x="42.648426" y="36.737425" style="stroke: #000000; stroke-width: 0.5"/>
      </g>
     </g>
     <g id="line2d_168">
      <g>
       <use xlink:href="#m2b16797194" x="600.648426" y="36.737425" style="stroke: #000000; stroke-width: 0.5"/>
      </g>
     </g>
    </g>
    <g id="ytick_40">
     <g id="line2d_169">
      <g>
       <use xlink:href="#me2ac8f4193" x="42.648426" y="31.369729" style="stroke: #000000; stroke-width: 0.5"/>
      </g>
     </g>
     <g id="line2d_170">
      <g>
       <use xlink:href="#m2b16797194" x="600.648426" y="31.369729" style="stroke: #000000; stroke-width: 0.5"/>
      </g>
     </g>
    </g>
    <g id="ytick_41">
     <g id="line2d_171">
      <g>
       <use xlink:href="#me2ac8f4193" x="42.648426" y="26.002033" style="stroke: #000000; stroke-width: 0.5"/>
      </g>
     </g>
     <g id="line2d_172">
      <g>
       <use xlink:href="#m2b16797194" x="600.648426" y="26.002033" style="stroke: #000000; stroke-width: 0.5"/>
      </g>
     </g>
    </g>
    <g id="text_18">
     <!-- Thermische Leistung in W -->
     <g transform="translate(10.518498 184.5993)rotate(-90)scale(0.1 -0.1)">
      <defs>
       <path id="CMR17-54" d="M 3981 4326 
L 288 4326 
L 179 2918 
L 294 2918 
C 378 3976 467 4160 1453 4160 
C 1568 4160 1754 4160 1805 4154 
C 1926 4135 1926 4058 1926 3912 
L 1926 459 
C 1926 230 1907 160 1376 160 
L 1197 160 
L 1197 0 
C 1504 0 1824 0 2138 0 
C 2451 0 2771 0 3078 0 
L 3078 160 
L 2899 160 
C 2368 160 2349 230 2349 459 
L 2349 3912 
C 2349 4052 2349 4129 2464 4154 
C 2515 4160 2701 4160 2816 4160 
C 3795 4160 3891 3976 3974 2918 
L 4090 2918 
L 3981 4326 
z
" transform="scale(0.015625)"/>
       <path id="CMR17-68" d="M 2656 1933 
C 2656 2259 2592 2790 1837 2790 
C 1312 2790 1056 2368 979 2157 
L 973 2157 
L 973 4396 
L 211 4326 
L 211 4160 
C 589 4160 646 4122 646 3817 
L 646 426 
C 646 184 621 153 211 153 
L 211 -13 
C 365 0 646 0 813 0 
C 979 0 1267 0 1421 -13 
L 1421 153 
C 1011 153 986 178 986 428 
L 986 1658 
C 986 2247 1344 2688 1792 2688 
C 2266 2688 2317 2266 2317 1958 
L 2317 428 
C 2317 184 2291 153 1882 153 
L 1882 -13 
C 2035 0 2317 0 2483 0 
C 2650 0 2938 0 3091 -13 
L 3091 153 
C 2682 153 2656 178 2656 428 
L 2656 1933 
z
" transform="scale(0.015625)"/>
       <path id="CMR17-73" d="M 1978 2697 
C 1978 2813 1971 2819 1933 2819 
C 1907 2819 1901 2813 1824 2717 
C 1805 2691 1747 2626 1728 2601 
C 1523 2819 1235 2819 1126 2819 
C 416 2819 160 2447 160 2076 
C 160 1498 813 1365 998 1325 
C 1402 1243 1542 1217 1677 1101 
C 1760 1025 1901 884 1901 654 
C 1901 384 1747 38 1158 38 
C 602 38 403 460 288 1021 
C 269 1110 269 1117 218 1117 
C 166 1117 160 1110 160 983 
L 160 63 
C 160 -51 166 -58 205 -58 
C 237 -58 243 -51 275 0 
C 314 57 410 211 448 276 
C 576 103 800 -64 1158 -64 
C 1792 -64 2131 283 2131 784 
C 2131 1112 1958 1285 1875 1362 
C 1683 1561 1459 1606 1190 1657 
C 838 1735 390 1825 390 2217 
C 390 2383 480 2737 1126 2737 
C 1811 2737 1850 2094 1862 1888 
C 1869 1856 1901 1849 1920 1849 
C 1978 1849 1978 1869 1978 1978 
L 1978 2697 
z
" transform="scale(0.015625)"/>
       <path id="CMR17-63" d="M 2234 2240 
C 2112 2240 1933 2240 1933 2017 
C 1933 1838 2080 1787 2163 1787 
C 2208 1787 2394 1807 2394 2024 
C 2394 2467 1958 2803 1466 2803 
C 787 2803 211 2178 211 1363 
C 211 516 813 -64 1466 -64 
C 2259 -64 2458 677 2458 748 
C 2458 774 2451 793 2406 793 
C 2362 793 2355 787 2330 703 
C 2163 180 1798 51 1523 51 
C 1114 51 621 427 621 1369 
C 621 2338 1094 2688 1472 2688 
C 1722 2688 2093 2573 2234 2240 
z
" transform="scale(0.015625)"/>
       <path id="CMR17-4c" d="M 3469 1615 
L 3354 1615 
C 3302 983 3219 166 2125 166 
L 1530 166 
C 1274 166 1261 197 1261 414 
L 1261 3898 
C 1261 4129 1274 4192 1760 4192 
L 1901 4192 
L 1901 4352 
C 1638 4352 1331 4352 1069 4352 
C 870 4352 512 4352 326 4352 
L 326 4192 
C 768 4192 838 4192 838 3905 
L 838 452 
C 838 166 768 166 326 166 
L 326 0 
L 3315 0 
L 3469 1615 
z
" transform="scale(0.015625)"/>
       <path id="CMR17-57" d="M 5523 3764 
C 5581 3936 5677 4160 6048 4160 
L 6048 4326 
C 5939 4326 5715 4326 5600 4326 
C 5440 4326 5158 4326 5005 4332 
L 5005 4160 
C 5293 4160 5414 4000 5414 3847 
C 5414 3802 5408 3777 5382 3707 
L 4390 555 
L 3347 3873 
C 3328 3937 3322 3963 3322 3988 
C 3322 4160 3603 4160 3725 4160 
L 3725 4326 
C 3539 4326 3219 4326 3021 4326 
C 2861 4326 2573 4326 2426 4332 
L 2426 4160 
C 2720 4160 2797 4141 2861 4027 
C 2886 3969 2989 3638 2989 3619 
C 2989 3593 2976 3555 2970 3536 
L 2029 561 
L 986 3867 
C 954 3957 954 3969 954 3982 
C 954 4160 1235 4160 1363 4160 
L 1363 4326 
C 1178 4326 858 4326 659 4326 
C 493 4326 211 4326 58 4332 
L 58 4160 
C 442 4160 467 4122 531 3918 
L 1779 -20 
C 1811 -115 1811 -128 1869 -128 
C 1920 -128 1939 -115 1965 -26 
L 3053 3433 
L 4141 -26 
C 4166 -115 4186 -128 4237 -128 
C 4294 -128 4294 -115 4326 -20 
L 5523 3764 
z
" transform="scale(0.015625)"/>
      </defs>
      <use xlink:href="#CMR17-54" transform="scale(0.996264)"/>
      <use xlink:href="#CMR17-68" transform="translate(66.509881 0)scale(0.996264)"/>
      <use xlink:href="#CMR17-65" transform="translate(117.40525 0)scale(0.996264)"/>
      <use xlink:href="#CMR17-72" transform="translate(157.890911 0)scale(0.996264)"/>
      <use xlink:href="#CMR17-6d" transform="translate(193.171679 0)scale(0.996264)"/>
      <use xlink:href="#CMR17-69" transform="translate(270.091268 0)scale(0.996264)"/>
      <use xlink:href="#CMR17-73" transform="translate(294.962327 0)scale(0.996264)"/>
      <use xlink:href="#CMR17-63" transform="translate(330.763665 0)scale(0.996264)"/>
      <use xlink:href="#CMR17-68" transform="translate(368.646871 0)scale(0.996264)"/>
      <use xlink:href="#CMR17-65" transform="translate(419.542241 0)scale(0.996264)"/>
      <use xlink:href="#CMR17-4c" transform="translate(490.103868 0)scale(0.996264)"/>
      <use xlink:href="#CMR17-65" transform="translate(547.485276 0)scale(0.996264)"/>
      <use xlink:href="#CMR17-69" transform="translate(587.970936 0)scale(0.996264)"/>
      <use xlink:href="#CMR17-73" transform="translate(612.841994 0)scale(0.996264)"/>
      <use xlink:href="#CMR17-74" transform="translate(648.643332 0)scale(0.996264)"/>
      <use xlink:href="#CMR17-75" transform="translate(683.9241 0)scale(0.996264)"/>
      <use xlink:href="#CMR17-6e" transform="translate(734.81947 0)scale(0.996264)"/>
      <use xlink:href="#CMR17-67" transform="translate(785.714839 0)scale(0.996264)"/>
      <use xlink:href="#CMR17-69" transform="translate(861.481283 0)scale(0.996264)"/>
      <use xlink:href="#CMR17-6e" transform="translate(886.352341 0)scale(0.996264)"/>
      <use xlink:href="#CMR17-57" transform="translate(967.323678 0)scale(0.996264)"/>
     </g>
    </g>
   </g>
   <g id="patch_3">
    <path d="M 0 0 
z
" clip-path="url(#pec229e9ad9)" style="fill: #0c5da5"/>
   </g>
   <g id="patch_4">
    <path d="M 136.754983 235.34218 
L 150.852208 235.34218 
L 150.852208 95.767422 
L 136.754983 95.767422 
z
" clip-path="url(#pec229e9ad9)" style="fill: #0c5da5"/>
   </g>
   <g id="patch_5">
    <path d="M 212.546515 235.34218 
L 226.64374 235.34218 
L 226.64374 82.527979 
L 212.546515 82.527979 
z
" clip-path="url(#pec229e9ad9)" style="fill: #0c5da5"/>
   </g>
   <g id="patch_6">
    <path d="M 288.338048 235.34218 
L 302.435273 235.34218 
L 302.435273 70.589626 
L 288.338048 70.589626 
z
" clip-path="url(#pec229e9ad9)" style="fill: #0c5da5"/>
   </g>
   <g id="patch_7">
    <path d="M 364.12958 235.34218 
L 378.226805 235.34218 
L 378.226805 59.38668 
L 364.12958 59.38668 
z
" clip-path="url(#pec229e9ad9)" style="fill: #0c5da5"/>
   </g>
   <g id="patch_8">
    <path d="M 439.921113 235.34218 
L 454.018338 235.34218 
L 454.018338 45.387852 
L 439.921113 45.387852 
z
" clip-path="url(#pec229e9ad9)" style="fill: #0c5da5"/>
   </g>
   <g id="patch_9">
    <path d="M 515.712645 235.34218 
L 529.80987 235.34218 
L 529.80987 32.924737 
L 515.712645 32.924737 
z
" clip-path="url(#pec229e9ad9)" style="fill: #0c5da5"/>
   </g>
   <g id="patch_10">
    <path d="M 0 0 
z
" clip-path="url(#pec229e9ad9)" style="fill: #00b945"/>
   </g>
   <g id="patch_11">
    <path d="M 151.913289 235.34218 
L 166.010514 235.34218 
L 166.010514 110.841031 
L 151.913289 110.841031 
z
" clip-path="url(#pec229e9ad9)" style="fill: #00b945"/>
   </g>
   <g id="patch_12">
    <path d="M 227.704822 235.34218 
L 241.802047 235.34218 
L 241.802047 99.168906 
L 227.704822 99.168906 
z
" clip-path="url(#pec229e9ad9)" style="fill: #00b945"/>
   </g>
   <g id="patch_13">
    <path d="M 303.496354 235.34218 
L 317.593579 235.34218 
L 317.593579 88.436542 
L 303.496354 88.436542 
z
" clip-path="url(#pec229e9ad9)" style="fill: #00b945"/>
   </g>
   <g id="patch_14">
    <path d="M 379.287887 235.34218 
L 393.385112 235.34218 
L 393.385112 77.826578 
L 379.287887 77.826578 
z
" clip-path="url(#pec229e9ad9)" style="fill: #00b945"/>
   </g>
   <g id="patch_15">
    <path d="M 455.079419 235.34218 
L 469.176644 235.34218 
L 469.176644 65.645822 
L 455.079419 65.645822 
z
" clip-path="url(#pec229e9ad9)" style="fill: #00b945"/>
   </g>
   <g id="patch_16">
    <path d="M 530.870952 235.34218 
L 544.968177 235.34218 
L 544.968177 54.480228 
L 530.870952 54.480228 
z
" clip-path="url(#pec229e9ad9)" style="fill: #00b945"/>
   </g>
   <g id="patch_17">
    <path d="M 106.43837 235.34218 
L 120.535595 235.34218 
L 120.535595 123.068279 
L 106.43837 123.068279 
z
" clip-path="url(#pec229e9ad9)" style="fill: #ff9500"/>
   </g>
   <g id="patch_18">
    <path d="M 182.229902 235.34218 
L 196.327127 235.34218 
L 196.327127 112.212606 
L 182.229902 112.212606 
z
" clip-path="url(#pec229e9ad9)" style="fill: #ff9500"/>
   </g>
   <g id="patch_19">
    <path d="M 258.021435 235.34218 
L 272.11866 235.34218 
L 272.11866 100.726191 
L 258.021435 100.726191 
z
" clip-path="url(#pec229e9ad9)" style="fill: #ff9500"/>
   </g>
   <g id="patch_20">
    <path d="M 333.812967 235.34218 
L 347.910192 235.34218 
L 347.910192 88.598037 
L 333.812967 88.598037 
z
" clip-path="url(#pec229e9ad9)" style="fill: #ff9500"/>
   </g>
   <g id="patch_21">
    <path d="M 409.6045 235.34218 
L 423.701725 235.34218 
L 423.701725 76.248577 
L 409.6045 76.248577 
z
" clip-path="url(#pec229e9ad9)" style="fill: #ff9500"/>
   </g>
   <g id="patch_22">
    <path d="M 485.396032 235.34218 
L 499.493257 235.34218 
L 499.493257 65.009107 
L 485.396032 65.009107 
z
" clip-path="url(#pec229e9ad9)" style="fill: #ff9500"/>
   </g>
   <g id="patch_23">
    <path d="M 561.187565 235.34218 
L 575.28479 235.34218 
L 575.28479 53.633304 
L 561.187565 53.633304 
z
" clip-path="url(#pec229e9ad9)" style="fill: #ff9500"/>
   </g>
   <g id="patch_24">
    <path d="M 91.280063 235.34218 
L 105.377288 235.34218 
L 105.377288 108.901793 
L 91.280063 108.901793 
z
" clip-path="url(#pec229e9ad9)" style="fill: #ff2c00"/>
   </g>
   <g id="patch_25">
    <path d="M 167.071596 235.34218 
L 181.168821 235.34218 
L 181.168821 97.081263 
L 167.071596 97.081263 
z
" clip-path="url(#pec229e9ad9)" style="fill: #ff2c00"/>
   </g>
   <g id="patch_26">
    <path d="M 242.863128 235.34218 
L 256.960353 235.34218 
L 256.960353 84.454568 
L 242.863128 84.454568 
z
" clip-path="url(#pec229e9ad9)" style="fill: #ff2c00"/>
   </g>
   <g id="patch_27">
    <path d="M 318.654661 235.34218 
L 332.751886 235.34218 
L 332.751886 70.961826 
L 318.654661 70.961826 
z
" clip-path="url(#pec229e9ad9)" style="fill: #ff2c00"/>
   </g>
   <g id="patch_28">
    <path d="M 394.446193 235.34218 
L 408.543418 235.34218 
L 408.543418 56.802997 
L 394.446193 56.802997 
z
" clip-path="url(#pec229e9ad9)" style="fill: #ff2c00"/>
   </g>
   <g id="patch_29">
    <path d="M 470.237726 235.34218 
L 484.334951 235.34218 
L 484.334951 44.080943 
L 470.237726 44.080943 
z
" clip-path="url(#pec229e9ad9)" style="fill: #ff2c00"/>
   </g>
   <g id="patch_30">
    <path d="M 546.029258 235.34218 
L 560.126483 235.34218 
L 560.126483 32.088846 
L 546.029258 32.088846 
z
" clip-path="url(#pec229e9ad9)" style="fill: #ff2c00"/>
   </g>
   <g id="LineCollection_1">
    <path clip-path="url(#pec229e9ad9)" style="fill: none; stroke: #000000"/>
    <path d="M 143.803595 97.52404 
L 143.803595 94.010805 
" clip-path="url(#pec229e9ad9)" style="fill: none; stroke: #000000"/>
    <path d="M 219.595128 84.69576 
L 219.595128 80.360198 
" clip-path="url(#pec229e9ad9)" style="fill: none; stroke: #000000"/>
    <path d="M 295.38666 72.970407 
L 295.38666 68.208845 
" clip-path="url(#pec229e9ad9)" style="fill: none; stroke: #000000"/>
    <path d="M 371.178193 63.143655 
L 371.178193 55.629704 
" clip-path="url(#pec229e9ad9)" style="fill: none; stroke: #000000"/>
    <path d="M 446.969725 49.423069 
L 446.969725 41.352636 
" clip-path="url(#pec229e9ad9)" style="fill: none; stroke: #000000"/>
    <path d="M 522.761258 37.593008 
L 522.761258 28.256466 
" clip-path="url(#pec229e9ad9)" style="fill: none; stroke: #000000"/>
   </g>
   <g id="line2d_173">
    <defs>
     <path id="m703302de5c" d="M 3 0 
L -3 -0 
" style="stroke: #000000"/>
    </defs>
    <g clip-path="url(#pec229e9ad9)">
     <use xlink:href="#m703302de5c" x="143.803595" y="97.52404" style="stroke: #000000"/>
     <use xlink:href="#m703302de5c" x="219.595128" y="84.69576" style="stroke: #000000"/>
     <use xlink:href="#m703302de5c" x="295.38666" y="72.970407" style="stroke: #000000"/>
     <use xlink:href="#m703302de5c" x="371.178193" y="63.143655" style="stroke: #000000"/>
     <use xlink:href="#m703302de5c" x="446.969725" y="49.423069" style="stroke: #000000"/>
     <use xlink:href="#m703302de5c" x="522.761258" y="37.593008" style="stroke: #000000"/>
    </g>
   </g>
   <g id="line2d_174">
    <g clip-path="url(#pec229e9ad9)">
     <use xlink:href="#m703302de5c" x="143.803595" y="94.010805" style="stroke: #000000"/>
     <use xlink:href="#m703302de5c" x="219.595128" y="80.360198" style="stroke: #000000"/>
     <use xlink:href="#m703302de5c" x="295.38666" y="68.208845" style="stroke: #000000"/>
     <use xlink:href="#m703302de5c" x="371.178193" y="55.629704" style="stroke: #000000"/>
     <use xlink:href="#m703302de5c" x="446.969725" y="41.352636" style="stroke: #000000"/>
     <use xlink:href="#m703302de5c" x="522.761258" y="28.256466" style="stroke: #000000"/>
    </g>
   </g>
   <g id="LineCollection_2">
    <path clip-path="url(#pec229e9ad9)" style="fill: none; stroke: #000000"/>
    <path d="M 158.961902 112.652665 
L 158.961902 109.029396 
" clip-path="url(#pec229e9ad9)" style="fill: none; stroke: #000000"/>
    <path d="M 234.753434 101.276322 
L 234.753434 97.061491 
" clip-path="url(#pec229e9ad9)" style="fill: none; stroke: #000000"/>
    <path d="M 310.544967 90.557686 
L 310.544967 86.315398 
" clip-path="url(#pec229e9ad9)" style="fill: none; stroke: #000000"/>
    <path d="M 386.336499 81.246106 
L 386.336499 74.40705 
" clip-path="url(#pec229e9ad9)" style="fill: none; stroke: #000000"/>
    <path d="M 462.128032 68.687613 
L 462.128032 62.60403 
" clip-path="url(#pec229e9ad9)" style="fill: none; stroke: #000000"/>
    <path d="M 537.919564 57.37986 
L 537.919564 51.580596 
" clip-path="url(#pec229e9ad9)" style="fill: none; stroke: #000000"/>
   </g>
   <g id="line2d_175">
    <g clip-path="url(#pec229e9ad9)">
     <use xlink:href="#m703302de5c" x="158.961902" y="112.652665" style="stroke: #000000"/>
     <use xlink:href="#m703302de5c" x="234.753434" y="101.276322" style="stroke: #000000"/>
     <use xlink:href="#m703302de5c" x="310.544967" y="90.557686" style="stroke: #000000"/>
     <use xlink:href="#m703302de5c" x="386.336499" y="81.246106" style="stroke: #000000"/>
     <use xlink:href="#m703302de5c" x="462.128032" y="68.687613" style="stroke: #000000"/>
     <use xlink:href="#m703302de5c" x="537.919564" y="57.37986" style="stroke: #000000"/>
    </g>
   </g>
   <g id="line2d_176">
    <g clip-path="url(#pec229e9ad9)">
     <use xlink:href="#m703302de5c" x="158.961902" y="109.029396" style="stroke: #000000"/>
     <use xlink:href="#m703302de5c" x="234.753434" y="97.061491" style="stroke: #000000"/>
     <use xlink:href="#m703302de5c" x="310.544967" y="86.315398" style="stroke: #000000"/>
     <use xlink:href="#m703302de5c" x="386.336499" y="74.40705" style="stroke: #000000"/>
     <use xlink:href="#m703302de5c" x="462.128032" y="62.60403" style="stroke: #000000"/>
     <use xlink:href="#m703302de5c" x="537.919564" y="51.580596" style="stroke: #000000"/>
    </g>
   </g>
   <g id="LineCollection_3">
    <path d="M 113.486982 124.97088 
L 113.486982 121.165678 
" clip-path="url(#pec229e9ad9)" style="fill: none; stroke: #000000"/>
    <path d="M 189.278515 113.876966 
L 189.278515 110.548245 
" clip-path="url(#pec229e9ad9)" style="fill: none; stroke: #000000"/>
    <path d="M 265.070047 102.684652 
L 265.070047 98.76773 
" clip-path="url(#pec229e9ad9)" style="fill: none; stroke: #000000"/>
    <path d="M 340.86158 89.750556 
L 340.86158 87.445519 
" clip-path="url(#pec229e9ad9)" style="fill: none; stroke: #000000"/>
    <path d="M 416.653112 79.361098 
L 416.653112 73.136055 
" clip-path="url(#pec229e9ad9)" style="fill: none; stroke: #000000"/>
    <path d="M 492.444645 66.172905 
L 492.444645 63.845309 
" clip-path="url(#pec229e9ad9)" style="fill: none; stroke: #000000"/>
    <path d="M 568.236177 56.741512 
L 568.236177 50.525096 
" clip-path="url(#pec229e9ad9)" style="fill: none; stroke: #000000"/>
   </g>
   <g id="line2d_177">
    <g clip-path="url(#pec229e9ad9)">
     <use xlink:href="#m703302de5c" x="113.486982" y="124.97088" style="stroke: #000000"/>
     <use xlink:href="#m703302de5c" x="189.278515" y="113.876966" style="stroke: #000000"/>
     <use xlink:href="#m703302de5c" x="265.070047" y="102.684652" style="stroke: #000000"/>
     <use xlink:href="#m703302de5c" x="340.86158" y="89.750556" style="stroke: #000000"/>
     <use xlink:href="#m703302de5c" x="416.653112" y="79.361098" style="stroke: #000000"/>
     <use xlink:href="#m703302de5c" x="492.444645" y="66.172905" style="stroke: #000000"/>
     <use xlink:href="#m703302de5c" x="568.236177" y="56.741512" style="stroke: #000000"/>
    </g>
   </g>
   <g id="line2d_178">
    <g clip-path="url(#pec229e9ad9)">
     <use xlink:href="#m703302de5c" x="113.486982" y="121.165678" style="stroke: #000000"/>
     <use xlink:href="#m703302de5c" x="189.278515" y="110.548245" style="stroke: #000000"/>
     <use xlink:href="#m703302de5c" x="265.070047" y="98.76773" style="stroke: #000000"/>
     <use xlink:href="#m703302de5c" x="340.86158" y="87.445519" style="stroke: #000000"/>
     <use xlink:href="#m703302de5c" x="416.653112" y="73.136055" style="stroke: #000000"/>
     <use xlink:href="#m703302de5c" x="492.444645" y="63.845309" style="stroke: #000000"/>
     <use xlink:href="#m703302de5c" x="568.236177" y="50.525096" style="stroke: #000000"/>
    </g>
   </g>
   <g id="LineCollection_4">
    <path d="M 98.328676 111.195526 
L 98.328676 106.60806 
" clip-path="url(#pec229e9ad9)" style="fill: none; stroke: #000000"/>
    <path d="M 174.120208 98.595427 
L 174.120208 95.567098 
" clip-path="url(#pec229e9ad9)" style="fill: none; stroke: #000000"/>
    <path d="M 249.911741 86.754998 
L 249.911741 82.154138 
" clip-path="url(#pec229e9ad9)" style="fill: none; stroke: #000000"/>
    <path d="M 325.703273 73.559399 
L 325.703273 68.364253 
" clip-path="url(#pec229e9ad9)" style="fill: none; stroke: #000000"/>
    <path d="M 401.494806 60.36602 
L 401.494806 53.239974 
" clip-path="url(#pec229e9ad9)" style="fill: none; stroke: #000000"/>
    <path d="M 477.286338 45.924313 
L 477.286338 42.237573 
" clip-path="url(#pec229e9ad9)" style="fill: none; stroke: #000000"/>
    <path d="M 553.077871 35.114482 
L 553.077871 29.063211 
" clip-path="url(#pec229e9ad9)" style="fill: none; stroke: #000000"/>
   </g>
   <g id="line2d_179">
    <g clip-path="url(#pec229e9ad9)">
     <use xlink:href="#m703302de5c" x="98.328676" y="111.195526" style="stroke: #000000"/>
     <use xlink:href="#m703302de5c" x="174.120208" y="98.595427" style="stroke: #000000"/>
     <use xlink:href="#m703302de5c" x="249.911741" y="86.754998" style="stroke: #000000"/>
     <use xlink:href="#m703302de5c" x="325.703273" y="73.559399" style="stroke: #000000"/>
     <use xlink:href="#m703302de5c" x="401.494806" y="60.36602" style="stroke: #000000"/>
     <use xlink:href="#m703302de5c" x="477.286338" y="45.924313" style="stroke: #000000"/>
     <use xlink:href="#m703302de5c" x="553.077871" y="35.114482" style="stroke: #000000"/>
    </g>
   </g>
   <g id="line2d_180">
    <g clip-path="url(#pec229e9ad9)">
     <use xlink:href="#m703302de5c" x="98.328676" y="106.60806" style="stroke: #000000"/>
     <use xlink:href="#m703302de5c" x="174.120208" y="95.567098" style="stroke: #000000"/>
     <use xlink:href="#m703302de5c" x="249.911741" y="82.154138" style="stroke: #000000"/>
     <use xlink:href="#m703302de5c" x="325.703273" y="68.364253" style="stroke: #000000"/>
     <use xlink:href="#m703302de5c" x="401.494806" y="53.239974" style="stroke: #000000"/>
     <use xlink:href="#m703302de5c" x="477.286338" y="42.237573" style="stroke: #000000"/>
     <use xlink:href="#m703302de5c" x="553.077871" y="29.063211" style="stroke: #000000"/>
    </g>
   </g>
   <g id="patch_31">
    <path d="M 42.648426 235.34218 
L 42.648426 17.90218 
" style="fill: none; stroke: #000000; stroke-width: 0.5; stroke-linejoin: miter; stroke-linecap: square"/>
   </g>
   <g id="patch_32">
    <path d="M 600.648426 235.34218 
L 600.648426 17.90218 
" style="fill: none; stroke: #000000; stroke-width: 0.5; stroke-linejoin: miter; stroke-linecap: square"/>
   </g>
   <g id="patch_33">
    <path d="M 42.648426 235.34218 
L 600.648426 235.34218 
" style="fill: none; stroke: #000000; stroke-width: 0.5; stroke-linejoin: miter; stroke-linecap: square"/>
   </g>
   <g id="patch_34">
    <path d="M 42.648426 17.90218 
L 600.648426 17.90218 
" style="fill: none; stroke: #000000; stroke-width: 0.5; stroke-linejoin: miter; stroke-linecap: square"/>
   </g>
   <g id="text_19">
    <!-- Thermische Leistungen bei Kupfer korrigiert -->
    <g transform="translate(207.534483 11.90218)scale(0.12 -0.12)">
     <defs>
      <path id="CMR17-62" d="M 960 4396 
L 198 4326 
L 198 4160 
C 576 4160 634 4122 634 3817 
L 634 -13 
L 749 -13 
L 934 441 
C 1120 141 1395 -64 1766 -64 
C 2406 -64 3053 500 3053 1370 
C 3053 2188 2477 2790 1830 2790 
C 1434 2790 1152 2579 960 2330 
L 960 4396 
z
M 973 2004 
C 973 2118 973 2138 1062 2272 
C 1312 2657 1670 2688 1792 2688 
C 1984 2688 2643 2585 2643 1376 
C 2643 108 1888 38 1734 38 
C 1536 38 1248 114 1043 486 
C 973 608 973 621 973 735 
L 973 2004 
z
" transform="scale(0.015625)"/>
      <path id="CMR17-4b" d="M 2362 2675 
L 3469 3782 
C 3699 4006 3942 4186 4301 4186 
L 4301 4352 
C 4173 4352 4013 4352 3885 4352 
C 3712 4352 3411 4352 3245 4358 
L 3245 4192 
C 3411 4180 3437 4065 3437 4019 
C 3437 3975 3411 3905 3386 3867 
L 1261 1738 
L 1261 3900 
C 1261 4186 1331 4186 1773 4186 
L 1773 4352 
C 1587 4352 1248 4352 1050 4352 
C 851 4352 512 4352 326 4352 
L 326 4186 
C 768 4186 838 4186 838 3899 
L 838 446 
C 838 160 768 160 326 160 
L 326 0 
C 512 0 851 0 1050 0 
C 1248 0 1587 0 1773 0 
L 1773 160 
C 1331 160 1261 160 1261 447 
L 1261 1579 
L 2080 2390 
L 3290 537 
C 3328 473 3373 390 3373 326 
C 3373 160 3194 160 3110 160 
L 3110 0 
C 3315 0 3610 0 3821 0 
C 3974 0 4237 0 4384 -6 
L 4384 160 
C 4077 160 3981 198 3789 493 
L 2362 2675 
z
" transform="scale(0.015625)"/>
      <path id="CMR17-66" d="M 979 2560 
L 1709 2560 
L 1709 2725 
L 966 2725 
L 966 3494 
C 966 4022 1235 4352 1510 4352 
C 1594 4352 1690 4327 1754 4282 
C 1702 4269 1568 4225 1568 4067 
C 1568 3901 1696 3850 1786 3850 
C 1875 3850 2003 3901 2003 4067 
C 2003 4308 1773 4454 1517 4454 
C 1152 4454 653 4156 653 3481 
L 653 2725 
L 141 2725 
L 141 2560 
L 653 2560 
L 653 427 
C 653 184 627 153 218 153 
L 218 -13 
C 371 0 666 0 832 0 
C 1018 0 1344 0 1517 -13 
L 1517 153 
C 1056 153 979 153 979 439 
L 979 2560 
z
" transform="scale(0.015625)"/>
      <path id="CMR17-6b" d="M 1670 1673 
C 1664 1686 1632 1724 1632 1743 
C 1632 1756 2086 2171 2144 2222 
C 2509 2528 2739 2560 2906 2560 
L 2906 2733 
C 2867 2733 2854 2733 2848 2720 
L 2534 2720 
C 2355 2720 2080 2720 1907 2733 
L 1907 2566 
C 1997 2559 2061 2508 2061 2419 
C 2061 2291 1933 2170 1926 2170 
L 960 1289 
L 960 4396 
L 198 4326 
L 198 4160 
C 576 4160 634 4122 634 3817 
L 634 426 
C 634 184 608 153 198 153 
L 198 -13 
C 352 0 634 0 794 0 
C 954 0 1235 0 1389 -13 
L 1389 153 
C 979 153 954 178 954 428 
L 954 1130 
L 1395 1532 
L 2042 574 
C 2118 459 2182 369 2182 286 
C 2182 172 2067 153 1990 153 
L 1990 -13 
C 2144 0 2419 0 2579 0 
C 2694 0 2931 0 3040 0 
L 3040 153 
C 2739 153 2669 210 2477 491 
L 1670 1673 
z
" transform="scale(0.015625)"/>
      <path id="CMR17-6f" d="M 2758 1356 
C 2758 2176 2163 2816 1466 2816 
C 768 2816 173 2176 173 1356 
C 173 551 768 -64 1466 -64 
C 2163 -64 2758 551 2758 1356 
z
M 1466 51 
C 1165 51 909 230 762 480 
C 602 767 582 1126 582 1408 
C 582 1677 595 2010 762 2298 
C 890 2509 1139 2714 1466 2714 
C 1754 2714 1997 2554 2150 2330 
C 2349 2029 2349 1607 2349 1408 
C 2349 1158 2336 775 2163 467 
C 1984 173 1709 51 1466 51 
z
" transform="scale(0.015625)"/>
     </defs>
     <use xlink:href="#CMR17-54" transform="scale(0.996264)"/>
     <use xlink:href="#CMR17-68" transform="translate(66.509881 0)scale(0.996264)"/>
     <use xlink:href="#CMR17-65" transform="translate(117.40525 0)scale(0.996264)"/>
     <use xlink:href="#CMR17-72" transform="translate(157.890911 0)scale(0.996264)"/>
     <use xlink:href="#CMR17-6d" transform="translate(193.171679 0)scale(0.996264)"/>
     <use xlink:href="#CMR17-69" transform="translate(270.091268 0)scale(0.996264)"/>
     <use xlink:href="#CMR17-73" transform="translate(294.962327 0)scale(0.996264)"/>
     <use xlink:href="#CMR17-63" transform="translate(330.763665 0)scale(0.996264)"/>
     <use xlink:href="#CMR17-68" transform="translate(368.646871 0)scale(0.996264)"/>
     <use xlink:href="#CMR17-65" transform="translate(419.542241 0)scale(0.996264)"/>
     <use xlink:href="#CMR17-4c" transform="translate(490.103868 0)scale(0.996264)"/>
     <use xlink:href="#CMR17-65" transform="translate(547.485276 0)scale(0.996264)"/>
     <use xlink:href="#CMR17-69" transform="translate(587.970936 0)scale(0.996264)"/>
     <use xlink:href="#CMR17-73" transform="translate(612.841994 0)scale(0.996264)"/>
     <use xlink:href="#CMR17-74" transform="translate(648.643332 0)scale(0.996264)"/>
     <use xlink:href="#CMR17-75" transform="translate(683.9241 0)scale(0.996264)"/>
     <use xlink:href="#CMR17-6e" transform="translate(734.81947 0)scale(0.996264)"/>
     <use xlink:href="#CMR17-67" transform="translate(785.714839 0)scale(0.996264)"/>
     <use xlink:href="#CMR17-65" transform="translate(831.405317 0)scale(0.996264)"/>
     <use xlink:href="#CMR17-6e" transform="translate(871.890977 0)scale(0.996264)"/>
     <use xlink:href="#CMR17-62" transform="translate(952.862313 0)scale(0.996264)"/>
     <use xlink:href="#CMR17-65" transform="translate(1006.360122 0)scale(0.996264)"/>
     <use xlink:href="#CMR17-69" transform="translate(1046.845782 0)scale(0.996264)"/>
     <use xlink:href="#CMR17-4b" transform="translate(1101.792807 0)scale(0.996264)"/>
     <use xlink:href="#CMR17-75" transform="translate(1173.467584 0)scale(0.996264)"/>
     <use xlink:href="#CMR17-70" transform="translate(1224.362954 0)scale(0.996264)"/>
     <use xlink:href="#CMR17-66" transform="translate(1275.258324 0)scale(0.996264)"/>
     <use xlink:href="#CMR17-65" transform="translate(1302.731836 0)scale(0.996264)"/>
     <use xlink:href="#CMR17-72" transform="translate(1343.217497 0)scale(0.996264)"/>
     <use xlink:href="#CMR17-6b" transform="translate(1408.574231 0)scale(0.996264)"/>
     <use xlink:href="#CMR17-6f" transform="translate(1454.264693 0)scale(0.996264)"/>
     <use xlink:href="#CMR17-72" transform="translate(1499.95517 0)scale(0.996264)"/>
     <use xlink:href="#CMR17-72" transform="translate(1535.235938 0)scale(0.996264)"/>
     <use xlink:href="#CMR17-69" transform="translate(1570.516706 0)scale(0.996264)"/>
     <use xlink:href="#CMR17-67" transform="translate(1595.387764 0)scale(0.996264)"/>
     <use xlink:href="#CMR17-69" transform="translate(1641.078241 0)scale(0.996264)"/>
     <use xlink:href="#CMR17-65" transform="translate(1665.9493 0)scale(0.996264)"/>
     <use xlink:href="#CMR17-72" transform="translate(1706.43496 0)scale(0.996264)"/>
     <use xlink:href="#CMR17-74" transform="translate(1741.715728 0)scale(0.996264)"/>
    </g>
   </g>
   <g id="legend_1">
    <g id="patch_35">
     <path d="M 438.969358 230.34218 
L 593.648426 230.34218 
Q 595.648426 230.34218 595.648426 228.34218 
L 595.648426 173.593466 
Q 595.648426 171.593466 593.648426 171.593466 
L 438.969358 171.593466 
Q 436.969358 171.593466 436.969358 173.593466 
L 436.969358 228.34218 
Q 436.969358 230.34218 438.969358 230.34218 
z
" style="fill: #ffffff; stroke: #cccccc; stroke-linejoin: miter"/>
    </g>
    <g id="patch_36">
     <path d="M 440.969358 182.593466 
L 460.969358 182.593466 
L 460.969358 175.593466 
L 440.969358 175.593466 
z
" style="fill: #0c5da5"/>
    </g>
    <g id="text_20">
     <!-- Negative Elektrode -->
     <g transform="translate(468.969358 182.593466)scale(0.1 -0.1)">
      <defs>
       <path id="CMR17-76" d="M 2502 2163 
C 2560 2304 2662 2560 3034 2560 
L 3034 2726 
C 2912 2726 2752 2726 2630 2726 
C 2496 2726 2285 2726 2157 2732 
L 2157 2566 
C 2317 2553 2406 2477 2406 2311 
C 2406 2253 2406 2240 2368 2151 
L 1664 377 
L 902 2286 
C 864 2369 864 2381 864 2407 
C 864 2560 1075 2560 1171 2560 
L 1171 2732 
C 1018 2726 736 2726 576 2726 
C 403 2726 205 2726 64 2732 
L 64 2560 
C 307 2560 442 2560 518 2362 
L 1446 44 
C 1485 -51 1491 -64 1549 -64 
C 1606 -64 1613 -51 1651 44 
L 2502 2163 
z
" transform="scale(0.015625)"/>
       <path id="CMR17-45" d="M 3885 1615 
L 3770 1615 
C 3629 676 3546 166 2419 166 
L 1530 166 
C 1274 166 1261 197 1261 414 
L 1261 2176 
L 1862 2176 
C 2464 2176 2522 1960 2522 1430 
L 2637 1430 
L 2637 3081 
L 2522 3081 
C 2522 2557 2464 2342 1862 2342 
L 1261 2342 
L 1261 3913 
C 1261 4128 1274 4160 1530 4160 
L 2406 4160 
C 3398 4160 3514 3769 3603 2929 
L 3718 2929 
L 3565 4325 
L 326 4325 
L 326 4160 
C 768 4160 838 4160 838 3874 
L 838 451 
C 838 166 768 166 326 166 
L 326 0 
L 3654 0 
L 3885 1615 
z
" transform="scale(0.015625)"/>
      </defs>
      <use xlink:href="#CMR17-4e" transform="scale(0.996264)"/>
      <use xlink:href="#CMR17-65" transform="translate(69.07243 0)scale(0.996264)"/>
      <use xlink:href="#CMR17-67" transform="translate(109.55809 0)scale(0.996264)"/>
      <use xlink:href="#CMR17-61" transform="translate(155.248567 0)scale(0.996264)"/>
      <use xlink:href="#CMR17-74" transform="translate(200.939045 0)scale(0.996264)"/>
      <use xlink:href="#CMR17-69" transform="translate(236.219812 0)scale(0.996264)"/>
      <use xlink:href="#CMR17-76" transform="translate(261.090871 0)scale(0.996264)"/>
      <use xlink:href="#CMR17-65" transform="translate(306.781333 0)scale(0.996264)"/>
      <use xlink:href="#CMR17-45" transform="translate(377.34296 0)scale(0.996264)"/>
      <use xlink:href="#CMR17-6c" transform="translate(439.92926 0)scale(0.996264)"/>
      <use xlink:href="#CMR17-65" transform="translate(464.800319 0)scale(0.996264)"/>
      <use xlink:href="#CMR17-6b" transform="translate(505.285979 0)scale(0.996264)"/>
      <use xlink:href="#CMR17-74" transform="translate(553.578895 0)scale(0.996264)"/>
      <use xlink:href="#CMR17-72" transform="translate(588.859663 0)scale(0.996264)"/>
      <use xlink:href="#CMR17-6f" transform="translate(624.14043 0)scale(0.996264)"/>
      <use xlink:href="#CMR17-64" transform="translate(672.433346 0)scale(0.996264)"/>
      <use xlink:href="#CMR17-65" transform="translate(723.328716 0)scale(0.996264)"/>
     </g>
    </g>
    <g id="patch_37">
     <path d="M 440.969358 196.530645 
L 460.969358 196.530645 
L 460.969358 189.530645 
L 440.969358 189.530645 
z
" style="fill: #00b945"/>
    </g>
    <g id="text_21">
     <!-- Erde zu negativer Elektrode -->
     <g transform="translate(468.969358 196.530645)scale(0.1 -0.1)">
      <use xlink:href="#CMR17-45" transform="scale(0.996264)"/>
      <use xlink:href="#CMR17-72" transform="translate(62.586301 0)scale(0.996264)"/>
      <use xlink:href="#CMR17-64" transform="translate(97.867068 0)scale(0.996264)"/>
      <use xlink:href="#CMR17-65" transform="translate(148.762438 0)scale(0.996264)"/>
      <use xlink:href="#CMR17-7a" transform="translate(219.324065 0)scale(0.996264)"/>
      <use xlink:href="#CMR17-75" transform="translate(259.809725 0)scale(0.996264)"/>
      <use xlink:href="#CMR17-6e" transform="translate(340.781061 0)scale(0.996264)"/>
      <use xlink:href="#CMR17-65" transform="translate(391.676431 0)scale(0.996264)"/>
      <use xlink:href="#CMR17-67" transform="translate(432.162092 0)scale(0.996264)"/>
      <use xlink:href="#CMR17-61" transform="translate(477.852569 0)scale(0.996264)"/>
      <use xlink:href="#CMR17-74" transform="translate(523.543046 0)scale(0.996264)"/>
      <use xlink:href="#CMR17-69" transform="translate(558.823814 0)scale(0.996264)"/>
      <use xlink:href="#CMR17-76" transform="translate(583.694872 0)scale(0.996264)"/>
      <use xlink:href="#CMR17-65" transform="translate(629.385334 0)scale(0.996264)"/>
      <use xlink:href="#CMR17-72" transform="translate(669.870995 0)scale(0.996264)"/>
      <use xlink:href="#CMR17-45" transform="translate(735.227729 0)scale(0.996264)"/>
      <use xlink:href="#CMR17-6c" transform="translate(797.814029 0)scale(0.996264)"/>
      <use xlink:href="#CMR17-65" transform="translate(822.685088 0)scale(0.996264)"/>
      <use xlink:href="#CMR17-6b" transform="translate(863.170748 0)scale(0.996264)"/>
      <use xlink:href="#CMR17-74" transform="translate(911.463664 0)scale(0.996264)"/>
      <use xlink:href="#CMR17-72" transform="translate(946.744432 0)scale(0.996264)"/>
      <use xlink:href="#CMR17-6f" transform="translate(982.0252 0)scale(0.996264)"/>
      <use xlink:href="#CMR17-64" transform="translate(1030.318116 0)scale(0.996264)"/>
      <use xlink:href="#CMR17-65" transform="translate(1081.213485 0)scale(0.996264)"/>
     </g>
    </g>
    <g id="patch_38">
     <path d="M 440.969358 210.467823 
L 460.969358 210.467823 
L 460.969358 203.467823 
L 440.969358 203.467823 
z
" style="fill: #ff9500"/>
    </g>
    <g id="text_22">
     <!-- Positive Elektrode -->
     <g transform="translate(468.969358 210.467823)scale(0.1 -0.1)">
      <defs>
       <path id="CMR17-50" d="M 1267 2042 
L 2291 2042 
C 3117 2042 3718 2578 3718 3184 
C 3718 3791 3130 4352 2291 4352 
L 333 4352 
L 333 4186 
C 774 4186 845 4186 845 3899 
L 845 446 
C 845 160 774 160 333 160 
L 333 0 
C 518 0 858 0 1056 0 
C 1254 0 1594 0 1779 0 
L 1779 160 
C 1338 160 1267 160 1267 446 
L 1267 2042 
z
M 1254 2176 
L 1254 3938 
C 1254 4155 1267 4186 1523 4186 
L 2170 4186 
C 2995 4186 3232 3714 3232 3184 
C 3232 2604 2950 2176 2170 2176 
L 1254 2176 
z
" transform="scale(0.015625)"/>
      </defs>
      <use xlink:href="#CMR17-50" transform="scale(0.996264)"/>
      <use xlink:href="#CMR17-6f" transform="translate(59.983847 0)scale(0.996264)"/>
      <use xlink:href="#CMR17-73" transform="translate(105.674324 0)scale(0.996264)"/>
      <use xlink:href="#CMR17-69" transform="translate(141.475661 0)scale(0.996264)"/>
      <use xlink:href="#CMR17-74" transform="translate(166.34672 0)scale(0.996264)"/>
      <use xlink:href="#CMR17-69" transform="translate(201.627488 0)scale(0.996264)"/>
      <use xlink:href="#CMR17-76" transform="translate(226.498546 0)scale(0.996264)"/>
      <use xlink:href="#CMR17-65" transform="translate(272.189008 0)scale(0.996264)"/>
      <use xlink:href="#CMR17-45" transform="translate(342.750635 0)scale(0.996264)"/>
      <use xlink:href="#CMR17-6c" transform="translate(405.336935 0)scale(0.996264)"/>
      <use xlink:href="#CMR17-65" transform="translate(430.207994 0)scale(0.996264)"/>
      <use xlink:href="#CMR17-6b" transform="translate(470.693654 0)scale(0.996264)"/>
      <use xlink:href="#CMR17-74" transform="translate(518.98657 0)scale(0.996264)"/>
      <use xlink:href="#CMR17-72" transform="translate(554.267338 0)scale(0.996264)"/>
      <use xlink:href="#CMR17-6f" transform="translate(589.548106 0)scale(0.996264)"/>
      <use xlink:href="#CMR17-64" transform="translate(637.841022 0)scale(0.996264)"/>
      <use xlink:href="#CMR17-65" transform="translate(688.736391 0)scale(0.996264)"/>
     </g>
    </g>
    <g id="patch_39">
     <path d="M 440.969358 224.405001 
L 460.969358 224.405001 
L 460.969358 217.405001 
L 440.969358 217.405001 
z
" style="fill: #ff2c00"/>
    </g>
    <g id="text_23">
     <!-- Erde zu positiver Elektrode -->
     <g transform="translate(468.969358 224.405001)scale(0.1 -0.1)">
      <use xlink:href="#CMR17-45" transform="scale(0.996264)"/>
      <use xlink:href="#CMR17-72" transform="translate(62.586301 0)scale(0.996264)"/>
      <use xlink:href="#CMR17-64" transform="translate(97.867068 0)scale(0.996264)"/>
      <use xlink:href="#CMR17-65" transform="translate(148.762438 0)scale(0.996264)"/>
      <use xlink:href="#CMR17-7a" transform="translate(219.324065 0)scale(0.996264)"/>
      <use xlink:href="#CMR17-75" transform="translate(259.809725 0)scale(0.996264)"/>
      <use xlink:href="#CMR17-70" transform="translate(340.781061 0)scale(0.996264)"/>
      <use xlink:href="#CMR17-6f" transform="translate(394.27887 0)scale(0.996264)"/>
      <use xlink:href="#CMR17-73" transform="translate(439.969347 0)scale(0.996264)"/>
      <use xlink:href="#CMR17-69" transform="translate(475.770685 0)scale(0.996264)"/>
      <use xlink:href="#CMR17-74" transform="translate(500.641743 0)scale(0.996264)"/>
      <use xlink:href="#CMR17-69" transform="translate(535.922511 0)scale(0.996264)"/>
      <use xlink:href="#CMR17-76" transform="translate(560.79357 0)scale(0.996264)"/>
      <use xlink:href="#CMR17-65" transform="translate(606.484031 0)scale(0.996264)"/>
      <use xlink:href="#CMR17-72" transform="translate(646.969692 0)scale(0.996264)"/>
      <use xlink:href="#CMR17-45" transform="translate(712.326426 0)scale(0.996264)"/>
      <use xlink:href="#CMR17-6c" transform="translate(774.912727 0)scale(0.996264)"/>
      <use xlink:href="#CMR17-65" transform="translate(799.783785 0)scale(0.996264)"/>
      <use xlink:href="#CMR17-6b" transform="translate(840.269446 0)scale(0.996264)"/>
      <use xlink:href="#CMR17-74" transform="translate(888.562361 0)scale(0.996264)"/>
      <use xlink:href="#CMR17-72" transform="translate(923.843129 0)scale(0.996264)"/>
      <use xlink:href="#CMR17-6f" transform="translate(959.123897 0)scale(0.996264)"/>
      <use xlink:href="#CMR17-64" transform="translate(1007.416813 0)scale(0.996264)"/>
      <use xlink:href="#CMR17-65" transform="translate(1058.312183 0)scale(0.996264)"/>
     </g>
    </g>
   </g>
  </g>
 </g>
 <defs>
  <clipPath id="pec229e9ad9">
   <rect x="42.648426" y="17.90218" width="558" height="217.44"/>
  </clipPath>
 </defs>
</svg>
