<?xml version="1.0" encoding="utf-8" standalone="no"?>
<!DOCTYPE svg PUBLIC "-//W3C//DTD SVG 1.1//EN"
  "http://www.w3.org/Graphics/SVG/1.1/DTD/svg11.dtd">
<svg xmlns:xlink="http://www.w3.org/1999/xlink" width="618.191714pt" height="318.382729pt" viewBox="0 0 618.191714 318.382729" xmlns="http://www.w3.org/2000/svg" version="1.1">
 <metadata>
  <rdf:RDF xmlns:dc="http://purl.org/dc/elements/1.1/" xmlns:cc="http://creativecommons.org/ns#" xmlns:rdf="http://www.w3.org/1999/02/22-rdf-syntax-ns#">
   <cc:Work>
    <dc:type rdf:resource="http://purl.org/dc/dcmitype/StillImage"/>
    <dc:date>2023-02-06T09:17:41.385045</dc:date>
    <dc:format>image/svg+xml</dc:format>
    <dc:creator>
     <cc:Agent>
      <dc:title>Matplotlib v3.5.1, https://matplotlib.org/</dc:title>
     </cc:Agent>
    </dc:creator>
   </cc:Work>
  </rdf:RDF>
 </metadata>
 <defs>
  <style type="text/css">*{stroke-linejoin: round; stroke-linecap: butt}</style>
 </defs>
 <g id="figure_1">
  <g id="patch_1">
   <path d="M 0 318.382729 
L 618.191714 318.382729 
L 618.191714 0 
L 0 0 
L 0 318.382729 
z
" style="fill: none"/>
  </g>
  <g id="axes_1">
   <g id="patch_2">
    <path d="M 56.591714 275.4 
L 614.591714 275.4 
L 614.591714 3.6 
L 56.591714 3.6 
z
" style="fill: #ffffff"/>
   </g>
   <g id="matplotlib.axis_1">
    <g id="xtick_1">
     <g id="line2d_1">
      <defs>
       <path id="m1316707ed8" d="M 0 0 
L 0 -3 
" style="stroke: #000000; stroke-width: 0.5"/>
      </defs>
      <g>
       <use xlink:href="#m1316707ed8" x="104.69281" y="275.4" style="stroke: #000000; stroke-width: 0.5"/>
      </g>
     </g>
     <g id="line2d_2">
      <defs>
       <path id="m62c625df11" d="M 0 0 
L 0 3 
" style="stroke: #000000; stroke-width: 0.5"/>
      </defs>
      <g>
       <use xlink:href="#m62c625df11" x="104.69281" y="3.6" style="stroke: #000000; stroke-width: 0.5"/>
      </g>
     </g>
     <g id="text_1">
      <!-- $\mathdefault{700}$ -->
      <g transform="translate(92.356381 291.3533)scale(0.18 -0.18)">
       <defs>
        <path id="CMR17-37" d="M 2886 3941 
L 2886 4081 
L 1382 4081 
C 634 4081 621 4165 595 4288 
L 480 4288 
L 294 3094 
L 410 3094 
C 429 3215 474 3540 550 3661 
C 589 3712 1062 3712 1171 3712 
L 2579 3712 
L 1869 2661 
C 1395 1954 1069 999 1069 165 
C 1069 89 1069 -128 1299 -128 
C 1530 -128 1530 89 1530 171 
L 1530 465 
C 1530 1508 1709 2196 2003 2636 
L 2886 3941 
z
" transform="scale(0.015625)"/>
        <path id="CMR17-30" d="M 2688 2025 
C 2688 2416 2682 3080 2413 3591 
C 2176 4039 1798 4198 1466 4198 
C 1158 4198 768 4058 525 3597 
C 269 3118 243 2524 243 2025 
C 243 1661 250 1106 448 619 
C 723 -39 1216 -128 1466 -128 
C 1760 -128 2208 -7 2470 600 
C 2662 1042 2688 1559 2688 2025 
z
M 1466 -26 
C 1056 -26 813 325 723 812 
C 653 1188 653 1738 653 2096 
C 653 2588 653 2997 736 3387 
C 858 3929 1216 4096 1466 4096 
C 1728 4096 2067 3923 2189 3400 
C 2272 3036 2278 2607 2278 2096 
C 2278 1680 2278 1169 2202 792 
C 2067 95 1690 -26 1466 -26 
z
" transform="scale(0.015625)"/>
       </defs>
       <use xlink:href="#CMR17-37" transform="scale(0.996264)"/>
       <use xlink:href="#CMR17-30" transform="translate(45.690477 0)scale(0.996264)"/>
       <use xlink:href="#CMR17-30" transform="translate(91.380954 0)scale(0.996264)"/>
      </g>
     </g>
    </g>
    <g id="xtick_2">
     <g id="line2d_3">
      <g>
       <use xlink:href="#m1316707ed8" x="180.484342" y="275.4" style="stroke: #000000; stroke-width: 0.5"/>
      </g>
     </g>
     <g id="line2d_4">
      <g>
       <use xlink:href="#m62c625df11" x="180.484342" y="3.6" style="stroke: #000000; stroke-width: 0.5"/>
      </g>
     </g>
     <g id="text_2">
      <!-- $\mathdefault{750}$ -->
      <g transform="translate(168.147914 291.3533)scale(0.18 -0.18)">
       <defs>
        <path id="CMR17-35" d="M 730 3692 
C 794 3666 1056 3584 1325 3584 
C 1920 3584 2246 3911 2432 4100 
C 2432 4157 2432 4192 2394 4192 
C 2387 4192 2374 4192 2323 4163 
C 2099 4058 1837 3973 1517 3973 
C 1325 3973 1037 3999 723 4139 
C 653 4171 640 4171 634 4171 
C 602 4171 595 4164 595 4037 
L 595 2203 
C 595 2089 595 2057 659 2057 
C 691 2057 704 2070 736 2114 
C 941 2401 1222 2522 1542 2522 
C 1766 2522 2246 2382 2246 1289 
C 2246 1085 2246 715 2054 421 
C 1894 159 1645 25 1370 25 
C 947 25 518 320 403 814 
C 429 807 480 795 506 795 
C 589 795 749 840 749 1038 
C 749 1210 627 1280 506 1280 
C 358 1280 262 1190 262 1011 
C 262 454 704 -128 1382 -128 
C 2042 -128 2669 440 2669 1264 
C 2669 2030 2170 2624 1549 2624 
C 1222 2624 947 2503 730 2274 
L 730 3692 
z
" transform="scale(0.015625)"/>
       </defs>
       <use xlink:href="#CMR17-37" transform="scale(0.996264)"/>
       <use xlink:href="#CMR17-35" transform="translate(45.690477 0)scale(0.996264)"/>
       <use xlink:href="#CMR17-30" transform="translate(91.380954 0)scale(0.996264)"/>
      </g>
     </g>
    </g>
    <g id="xtick_3">
     <g id="line2d_5">
      <g>
       <use xlink:href="#m1316707ed8" x="256.275875" y="275.4" style="stroke: #000000; stroke-width: 0.5"/>
      </g>
     </g>
     <g id="line2d_6">
      <g>
       <use xlink:href="#m62c625df11" x="256.275875" y="3.6" style="stroke: #000000; stroke-width: 0.5"/>
      </g>
     </g>
     <g id="text_3">
      <!-- $\mathdefault{800}$ -->
      <g transform="translate(243.939446 291.3533)scale(0.18 -0.18)">
       <defs>
        <path id="CMR17-38" d="M 1741 2264 
C 2144 2467 2554 2773 2554 3263 
C 2554 3841 1990 4179 1472 4179 
C 890 4179 378 3759 378 3180 
C 378 3021 416 2747 666 2505 
C 730 2442 998 2251 1171 2130 
C 883 1983 211 1634 211 934 
C 211 279 838 -128 1459 -128 
C 2144 -128 2720 362 2720 1010 
C 2720 1590 2330 1857 2074 2029 
L 1741 2264 
z
M 902 2822 
C 851 2854 595 3051 595 3351 
C 595 3739 998 4032 1459 4032 
C 1965 4032 2336 3676 2336 3262 
C 2336 2669 1670 2331 1638 2331 
C 1632 2331 1626 2331 1574 2370 
L 902 2822 
z
M 2080 1519 
C 2176 1449 2483 1240 2483 851 
C 2483 381 2010 25 1472 25 
C 890 25 448 438 448 940 
C 448 1443 838 1862 1280 2060 
L 2080 1519 
z
" transform="scale(0.015625)"/>
       </defs>
       <use xlink:href="#CMR17-38" transform="scale(0.996264)"/>
       <use xlink:href="#CMR17-30" transform="translate(45.690477 0)scale(0.996264)"/>
       <use xlink:href="#CMR17-30" transform="translate(91.380954 0)scale(0.996264)"/>
      </g>
     </g>
    </g>
    <g id="xtick_4">
     <g id="line2d_7">
      <g>
       <use xlink:href="#m1316707ed8" x="332.067408" y="275.4" style="stroke: #000000; stroke-width: 0.5"/>
      </g>
     </g>
     <g id="line2d_8">
      <g>
       <use xlink:href="#m62c625df11" x="332.067408" y="3.6" style="stroke: #000000; stroke-width: 0.5"/>
      </g>
     </g>
     <g id="text_4">
      <!-- $\mathdefault{850}$ -->
      <g transform="translate(319.730979 291.3533)scale(0.18 -0.18)">
       <use xlink:href="#CMR17-38" transform="scale(0.996264)"/>
       <use xlink:href="#CMR17-35" transform="translate(45.690477 0)scale(0.996264)"/>
       <use xlink:href="#CMR17-30" transform="translate(91.380954 0)scale(0.996264)"/>
      </g>
     </g>
    </g>
    <g id="xtick_5">
     <g id="line2d_9">
      <g>
       <use xlink:href="#m1316707ed8" x="407.85894" y="275.4" style="stroke: #000000; stroke-width: 0.5"/>
      </g>
     </g>
     <g id="line2d_10">
      <g>
       <use xlink:href="#m62c625df11" x="407.85894" y="3.6" style="stroke: #000000; stroke-width: 0.5"/>
      </g>
     </g>
     <g id="text_5">
      <!-- $\mathdefault{900}$ -->
      <g transform="translate(395.522511 291.3533)scale(0.18 -0.18)">
       <defs>
        <path id="CMR17-39" d="M 2253 1864 
C 2253 464 1670 31 1190 31 
C 1043 31 685 31 538 294 
C 704 268 826 357 826 518 
C 826 692 685 749 595 749 
C 538 749 365 723 365 506 
C 365 71 742 -128 1203 -128 
C 1939 -128 2688 674 2688 2073 
C 2688 3817 1971 4179 1485 4179 
C 851 4179 243 3628 243 2778 
C 243 1991 762 1408 1414 1408 
C 1952 1408 2189 1903 2253 2112 
L 2253 1864 
z
M 1427 1510 
C 1254 1510 1011 1542 813 1922 
C 678 2169 678 2461 678 2771 
C 678 3146 678 3405 858 3684 
C 947 3817 1114 4032 1485 4032 
C 2240 4032 2240 2885 2240 2632 
C 2240 2182 2035 1510 1427 1510 
z
" transform="scale(0.015625)"/>
       </defs>
       <use xlink:href="#CMR17-39" transform="scale(0.996264)"/>
       <use xlink:href="#CMR17-30" transform="translate(45.690477 0)scale(0.996264)"/>
       <use xlink:href="#CMR17-30" transform="translate(91.380954 0)scale(0.996264)"/>
      </g>
     </g>
    </g>
    <g id="xtick_6">
     <g id="line2d_11">
      <g>
       <use xlink:href="#m1316707ed8" x="483.650473" y="275.4" style="stroke: #000000; stroke-width: 0.5"/>
      </g>
     </g>
     <g id="line2d_12">
      <g>
       <use xlink:href="#m62c625df11" x="483.650473" y="3.6" style="stroke: #000000; stroke-width: 0.5"/>
      </g>
     </g>
     <g id="text_6">
      <!-- $\mathdefault{950}$ -->
      <g transform="translate(471.314044 291.3533)scale(0.18 -0.18)">
       <use xlink:href="#CMR17-39" transform="scale(0.996264)"/>
       <use xlink:href="#CMR17-35" transform="translate(45.690477 0)scale(0.996264)"/>
       <use xlink:href="#CMR17-30" transform="translate(91.380954 0)scale(0.996264)"/>
      </g>
     </g>
    </g>
    <g id="xtick_7">
     <g id="line2d_13">
      <g>
       <use xlink:href="#m1316707ed8" x="559.442005" y="275.4" style="stroke: #000000; stroke-width: 0.5"/>
      </g>
     </g>
     <g id="line2d_14">
      <g>
       <use xlink:href="#m62c625df11" x="559.442005" y="3.6" style="stroke: #000000; stroke-width: 0.5"/>
      </g>
     </g>
     <g id="text_7">
      <!-- $\mathdefault{1000}$ -->
      <g transform="translate(542.993433 291.3533)scale(0.18 -0.18)">
       <defs>
        <path id="CMR17-31" d="M 1702 4058 
C 1702 4192 1696 4192 1606 4192 
C 1357 3916 979 3827 621 3827 
C 602 3827 570 3827 563 3808 
C 557 3795 557 3782 557 3648 
C 755 3648 1088 3686 1344 3839 
L 1344 461 
C 1344 236 1331 160 781 160 
L 589 160 
L 589 0 
C 896 0 1216 0 1523 0 
C 1830 0 2150 0 2458 0 
L 2458 160 
L 2266 160 
C 1715 160 1702 230 1702 458 
L 1702 4058 
z
" transform="scale(0.015625)"/>
       </defs>
       <use xlink:href="#CMR17-31" transform="scale(0.996264)"/>
       <use xlink:href="#CMR17-30" transform="translate(45.690477 0)scale(0.996264)"/>
       <use xlink:href="#CMR17-30" transform="translate(91.380954 0)scale(0.996264)"/>
       <use xlink:href="#CMR17-30" transform="translate(137.071431 0)scale(0.996264)"/>
      </g>
     </g>
    </g>
    <g id="xtick_8">
     <g id="line2d_15">
      <defs>
       <path id="m32f0b043d4" d="M 0 0 
L 0 -1.5 
" style="stroke: #000000; stroke-width: 0.5"/>
      </defs>
      <g>
       <use xlink:href="#m32f0b043d4" x="59.21789" y="275.4" style="stroke: #000000; stroke-width: 0.5"/>
      </g>
     </g>
     <g id="line2d_16">
      <defs>
       <path id="m3d408b0567" d="M 0 0 
L 0 1.5 
" style="stroke: #000000; stroke-width: 0.5"/>
      </defs>
      <g>
       <use xlink:href="#m3d408b0567" x="59.21789" y="3.6" style="stroke: #000000; stroke-width: 0.5"/>
      </g>
     </g>
    </g>
    <g id="xtick_9">
     <g id="line2d_17">
      <g>
       <use xlink:href="#m32f0b043d4" x="74.376197" y="275.4" style="stroke: #000000; stroke-width: 0.5"/>
      </g>
     </g>
     <g id="line2d_18">
      <g>
       <use xlink:href="#m3d408b0567" x="74.376197" y="3.6" style="stroke: #000000; stroke-width: 0.5"/>
      </g>
     </g>
    </g>
    <g id="xtick_10">
     <g id="line2d_19">
      <g>
       <use xlink:href="#m32f0b043d4" x="89.534503" y="275.4" style="stroke: #000000; stroke-width: 0.5"/>
      </g>
     </g>
     <g id="line2d_20">
      <g>
       <use xlink:href="#m3d408b0567" x="89.534503" y="3.6" style="stroke: #000000; stroke-width: 0.5"/>
      </g>
     </g>
    </g>
    <g id="xtick_11">
     <g id="line2d_21">
      <g>
       <use xlink:href="#m32f0b043d4" x="119.851116" y="275.4" style="stroke: #000000; stroke-width: 0.5"/>
      </g>
     </g>
     <g id="line2d_22">
      <g>
       <use xlink:href="#m3d408b0567" x="119.851116" y="3.6" style="stroke: #000000; stroke-width: 0.5"/>
      </g>
     </g>
    </g>
    <g id="xtick_12">
     <g id="line2d_23">
      <g>
       <use xlink:href="#m32f0b043d4" x="135.009423" y="275.4" style="stroke: #000000; stroke-width: 0.5"/>
      </g>
     </g>
     <g id="line2d_24">
      <g>
       <use xlink:href="#m3d408b0567" x="135.009423" y="3.6" style="stroke: #000000; stroke-width: 0.5"/>
      </g>
     </g>
    </g>
    <g id="xtick_13">
     <g id="line2d_25">
      <g>
       <use xlink:href="#m32f0b043d4" x="150.167729" y="275.4" style="stroke: #000000; stroke-width: 0.5"/>
      </g>
     </g>
     <g id="line2d_26">
      <g>
       <use xlink:href="#m3d408b0567" x="150.167729" y="3.6" style="stroke: #000000; stroke-width: 0.5"/>
      </g>
     </g>
    </g>
    <g id="xtick_14">
     <g id="line2d_27">
      <g>
       <use xlink:href="#m32f0b043d4" x="165.326036" y="275.4" style="stroke: #000000; stroke-width: 0.5"/>
      </g>
     </g>
     <g id="line2d_28">
      <g>
       <use xlink:href="#m3d408b0567" x="165.326036" y="3.6" style="stroke: #000000; stroke-width: 0.5"/>
      </g>
     </g>
    </g>
    <g id="xtick_15">
     <g id="line2d_29">
      <g>
       <use xlink:href="#m32f0b043d4" x="195.642649" y="275.4" style="stroke: #000000; stroke-width: 0.5"/>
      </g>
     </g>
     <g id="line2d_30">
      <g>
       <use xlink:href="#m3d408b0567" x="195.642649" y="3.6" style="stroke: #000000; stroke-width: 0.5"/>
      </g>
     </g>
    </g>
    <g id="xtick_16">
     <g id="line2d_31">
      <g>
       <use xlink:href="#m32f0b043d4" x="210.800955" y="275.4" style="stroke: #000000; stroke-width: 0.5"/>
      </g>
     </g>
     <g id="line2d_32">
      <g>
       <use xlink:href="#m3d408b0567" x="210.800955" y="3.6" style="stroke: #000000; stroke-width: 0.5"/>
      </g>
     </g>
    </g>
    <g id="xtick_17">
     <g id="line2d_33">
      <g>
       <use xlink:href="#m32f0b043d4" x="225.959262" y="275.4" style="stroke: #000000; stroke-width: 0.5"/>
      </g>
     </g>
     <g id="line2d_34">
      <g>
       <use xlink:href="#m3d408b0567" x="225.959262" y="3.6" style="stroke: #000000; stroke-width: 0.5"/>
      </g>
     </g>
    </g>
    <g id="xtick_18">
     <g id="line2d_35">
      <g>
       <use xlink:href="#m32f0b043d4" x="241.117569" y="275.4" style="stroke: #000000; stroke-width: 0.5"/>
      </g>
     </g>
     <g id="line2d_36">
      <g>
       <use xlink:href="#m3d408b0567" x="241.117569" y="3.6" style="stroke: #000000; stroke-width: 0.5"/>
      </g>
     </g>
    </g>
    <g id="xtick_19">
     <g id="line2d_37">
      <g>
       <use xlink:href="#m32f0b043d4" x="271.434182" y="275.4" style="stroke: #000000; stroke-width: 0.5"/>
      </g>
     </g>
     <g id="line2d_38">
      <g>
       <use xlink:href="#m3d408b0567" x="271.434182" y="3.6" style="stroke: #000000; stroke-width: 0.5"/>
      </g>
     </g>
    </g>
    <g id="xtick_20">
     <g id="line2d_39">
      <g>
       <use xlink:href="#m32f0b043d4" x="286.592488" y="275.4" style="stroke: #000000; stroke-width: 0.5"/>
      </g>
     </g>
     <g id="line2d_40">
      <g>
       <use xlink:href="#m3d408b0567" x="286.592488" y="3.6" style="stroke: #000000; stroke-width: 0.5"/>
      </g>
     </g>
    </g>
    <g id="xtick_21">
     <g id="line2d_41">
      <g>
       <use xlink:href="#m32f0b043d4" x="301.750795" y="275.4" style="stroke: #000000; stroke-width: 0.5"/>
      </g>
     </g>
     <g id="line2d_42">
      <g>
       <use xlink:href="#m3d408b0567" x="301.750795" y="3.6" style="stroke: #000000; stroke-width: 0.5"/>
      </g>
     </g>
    </g>
    <g id="xtick_22">
     <g id="line2d_43">
      <g>
       <use xlink:href="#m32f0b043d4" x="316.909101" y="275.4" style="stroke: #000000; stroke-width: 0.5"/>
      </g>
     </g>
     <g id="line2d_44">
      <g>
       <use xlink:href="#m3d408b0567" x="316.909101" y="3.6" style="stroke: #000000; stroke-width: 0.5"/>
      </g>
     </g>
    </g>
    <g id="xtick_23">
     <g id="line2d_45">
      <g>
       <use xlink:href="#m32f0b043d4" x="347.225714" y="275.4" style="stroke: #000000; stroke-width: 0.5"/>
      </g>
     </g>
     <g id="line2d_46">
      <g>
       <use xlink:href="#m3d408b0567" x="347.225714" y="3.6" style="stroke: #000000; stroke-width: 0.5"/>
      </g>
     </g>
    </g>
    <g id="xtick_24">
     <g id="line2d_47">
      <g>
       <use xlink:href="#m32f0b043d4" x="362.384021" y="275.4" style="stroke: #000000; stroke-width: 0.5"/>
      </g>
     </g>
     <g id="line2d_48">
      <g>
       <use xlink:href="#m3d408b0567" x="362.384021" y="3.6" style="stroke: #000000; stroke-width: 0.5"/>
      </g>
     </g>
    </g>
    <g id="xtick_25">
     <g id="line2d_49">
      <g>
       <use xlink:href="#m32f0b043d4" x="377.542327" y="275.4" style="stroke: #000000; stroke-width: 0.5"/>
      </g>
     </g>
     <g id="line2d_50">
      <g>
       <use xlink:href="#m3d408b0567" x="377.542327" y="3.6" style="stroke: #000000; stroke-width: 0.5"/>
      </g>
     </g>
    </g>
    <g id="xtick_26">
     <g id="line2d_51">
      <g>
       <use xlink:href="#m32f0b043d4" x="392.700634" y="275.4" style="stroke: #000000; stroke-width: 0.5"/>
      </g>
     </g>
     <g id="line2d_52">
      <g>
       <use xlink:href="#m3d408b0567" x="392.700634" y="3.6" style="stroke: #000000; stroke-width: 0.5"/>
      </g>
     </g>
    </g>
    <g id="xtick_27">
     <g id="line2d_53">
      <g>
       <use xlink:href="#m32f0b043d4" x="423.017247" y="275.4" style="stroke: #000000; stroke-width: 0.5"/>
      </g>
     </g>
     <g id="line2d_54">
      <g>
       <use xlink:href="#m3d408b0567" x="423.017247" y="3.6" style="stroke: #000000; stroke-width: 0.5"/>
      </g>
     </g>
    </g>
    <g id="xtick_28">
     <g id="line2d_55">
      <g>
       <use xlink:href="#m32f0b043d4" x="438.175553" y="275.4" style="stroke: #000000; stroke-width: 0.5"/>
      </g>
     </g>
     <g id="line2d_56">
      <g>
       <use xlink:href="#m3d408b0567" x="438.175553" y="3.6" style="stroke: #000000; stroke-width: 0.5"/>
      </g>
     </g>
    </g>
    <g id="xtick_29">
     <g id="line2d_57">
      <g>
       <use xlink:href="#m32f0b043d4" x="453.33386" y="275.4" style="stroke: #000000; stroke-width: 0.5"/>
      </g>
     </g>
     <g id="line2d_58">
      <g>
       <use xlink:href="#m3d408b0567" x="453.33386" y="3.6" style="stroke: #000000; stroke-width: 0.5"/>
      </g>
     </g>
    </g>
    <g id="xtick_30">
     <g id="line2d_59">
      <g>
       <use xlink:href="#m32f0b043d4" x="468.492166" y="275.4" style="stroke: #000000; stroke-width: 0.5"/>
      </g>
     </g>
     <g id="line2d_60">
      <g>
       <use xlink:href="#m3d408b0567" x="468.492166" y="3.6" style="stroke: #000000; stroke-width: 0.5"/>
      </g>
     </g>
    </g>
    <g id="xtick_31">
     <g id="line2d_61">
      <g>
       <use xlink:href="#m32f0b043d4" x="498.808779" y="275.4" style="stroke: #000000; stroke-width: 0.5"/>
      </g>
     </g>
     <g id="line2d_62">
      <g>
       <use xlink:href="#m3d408b0567" x="498.808779" y="3.6" style="stroke: #000000; stroke-width: 0.5"/>
      </g>
     </g>
    </g>
    <g id="xtick_32">
     <g id="line2d_63">
      <g>
       <use xlink:href="#m32f0b043d4" x="513.967086" y="275.4" style="stroke: #000000; stroke-width: 0.5"/>
      </g>
     </g>
     <g id="line2d_64">
      <g>
       <use xlink:href="#m3d408b0567" x="513.967086" y="3.6" style="stroke: #000000; stroke-width: 0.5"/>
      </g>
     </g>
    </g>
    <g id="xtick_33">
     <g id="line2d_65">
      <g>
       <use xlink:href="#m32f0b043d4" x="529.125392" y="275.4" style="stroke: #000000; stroke-width: 0.5"/>
      </g>
     </g>
     <g id="line2d_66">
      <g>
       <use xlink:href="#m3d408b0567" x="529.125392" y="3.6" style="stroke: #000000; stroke-width: 0.5"/>
      </g>
     </g>
    </g>
    <g id="xtick_34">
     <g id="line2d_67">
      <g>
       <use xlink:href="#m32f0b043d4" x="544.283699" y="275.4" style="stroke: #000000; stroke-width: 0.5"/>
      </g>
     </g>
     <g id="line2d_68">
      <g>
       <use xlink:href="#m3d408b0567" x="544.283699" y="3.6" style="stroke: #000000; stroke-width: 0.5"/>
      </g>
     </g>
    </g>
    <g id="xtick_35">
     <g id="line2d_69">
      <g>
       <use xlink:href="#m32f0b043d4" x="574.600312" y="275.4" style="stroke: #000000; stroke-width: 0.5"/>
      </g>
     </g>
     <g id="line2d_70">
      <g>
       <use xlink:href="#m3d408b0567" x="574.600312" y="3.6" style="stroke: #000000; stroke-width: 0.5"/>
      </g>
     </g>
    </g>
    <g id="xtick_36">
     <g id="line2d_71">
      <g>
       <use xlink:href="#m32f0b043d4" x="589.758618" y="275.4" style="stroke: #000000; stroke-width: 0.5"/>
      </g>
     </g>
     <g id="line2d_72">
      <g>
       <use xlink:href="#m3d408b0567" x="589.758618" y="3.6" style="stroke: #000000; stroke-width: 0.5"/>
      </g>
     </g>
    </g>
    <g id="xtick_37">
     <g id="line2d_73">
      <g>
       <use xlink:href="#m32f0b043d4" x="604.916925" y="275.4" style="stroke: #000000; stroke-width: 0.5"/>
      </g>
     </g>
     <g id="line2d_74">
      <g>
       <use xlink:href="#m3d408b0567" x="604.916925" y="3.6" style="stroke: #000000; stroke-width: 0.5"/>
      </g>
     </g>
    </g>
    <g id="text_8">
     <!-- Betrag der Spannung am Netzteil in V -->
     <g transform="translate(196.346747 311.294664)scale(0.18 -0.18)">
      <defs>
       <path id="CMR17-42" d="M 333 4352 
L 333 4186 
C 774 4186 845 4186 845 3900 
L 845 452 
C 845 166 774 166 333 166 
L 333 0 
L 2534 0 
C 3354 0 3885 583 3885 1164 
C 3885 1741 3360 2233 2675 2233 
C 3290 2356 3718 2771 3718 3264 
C 3718 3802 3194 4352 2368 4352 
L 333 4352 
z
M 1248 2304 
L 1248 3937 
C 1248 4155 1261 4186 1517 4186 
L 2336 4186 
C 2970 4186 3251 3674 3251 3277 
C 3251 2791 2861 2304 2170 2304 
L 1248 2304 
z
M 1517 166 
C 1261 166 1248 197 1248 413 
L 1248 2202 
L 2432 2202 
C 3091 2202 3411 1625 3411 1162 
C 3411 699 3046 166 2349 166 
L 1517 166 
z
" transform="scale(0.015625)"/>
       <path id="CMR17-65" d="M 2438 1472 
C 2464 1498 2464 1511 2464 1576 
C 2464 2238 2118 2816 1389 2816 
C 710 2816 173 2169 173 1383 
C 173 551 781 -64 1459 -64 
C 2176 -64 2458 607 2458 740 
C 2458 784 2419 784 2406 784 
C 2362 784 2355 771 2330 696 
C 2189 265 1837 51 1504 51 
C 1229 51 954 203 781 480 
C 582 803 582 1176 582 1472 
L 2438 1472 
z
M 589 1568 
C 634 2505 1126 2714 1382 2714 
C 1818 2714 2112 2297 2118 1568 
L 589 1568 
z
" transform="scale(0.015625)"/>
       <path id="CMR17-74" d="M 966 2560 
L 1862 2560 
L 1862 2725 
L 966 2725 
L 966 3904 
L 851 3904 
C 838 3245 614 2668 70 2668 
L 70 2560 
L 627 2560 
L 627 771 
C 627 650 627 -64 1370 -64 
C 1747 -64 1965 306 1965 777 
L 1965 1140 
L 1850 1140 
L 1850 783 
C 1850 344 1677 51 1408 51 
C 1222 51 966 178 966 758 
L 966 2560 
z
" transform="scale(0.015625)"/>
       <path id="CMR17-72" d="M 960 1497 
C 960 2112 1222 2688 1702 2688 
C 1747 2688 1792 2682 1837 2662 
C 1837 2662 1696 2617 1696 2452 
C 1696 2298 1818 2234 1914 2234 
C 1990 2234 2131 2279 2131 2458 
C 2131 2663 1926 2790 1709 2790 
C 1222 2790 1011 2317 947 2093 
L 941 2093 
L 941 2790 
L 198 2720 
L 198 2554 
C 576 2554 634 2515 634 2208 
L 634 428 
C 634 184 608 153 198 153 
L 198 -13 
C 352 0 646 0 813 0 
C 998 0 1325 0 1498 -13 
L 1498 153 
C 1037 153 960 153 960 440 
L 960 1497 
z
" transform="scale(0.015625)"/>
       <path id="CMR17-61" d="M 2304 1653 
C 2304 2072 2304 2294 2035 2543 
C 1798 2752 1523 2816 1306 2816 
C 800 2816 435 2407 435 1971 
C 435 1728 627 1728 666 1728 
C 749 1728 896 1778 896 1954 
C 896 2112 774 2181 666 2181 
C 640 2181 608 2174 589 2168 
C 723 2592 1069 2714 1293 2714 
C 1613 2714 1965 2429 1965 1885 
L 1965 1600 
C 1587 1600 1133 1549 774 1357 
C 371 1133 256 813 256 570 
C 256 77 832 -64 1171 -64 
C 1523 -64 1850 139 1990 511 
C 2003 233 2182 -18 2464 -18 
C 2598 -18 2938 70 2938 567 
L 2938 920 
L 2822 920 
L 2822 562 
C 2822 178 2650 128 2566 128 
C 2304 128 2304 458 2304 738 
L 2304 1653 
z
M 1965 870 
C 1965 317 1568 38 1216 38 
C 896 38 646 275 646 570 
C 646 761 730 1100 1101 1305 
C 1408 1478 1760 1504 1965 1504 
L 1965 870 
z
" transform="scale(0.015625)"/>
       <path id="CMR17-67" d="M 710 1164 
C 832 1068 1043 960 1299 960 
C 1805 960 2240 1357 2240 1888 
C 2240 2054 2189 2310 1997 2509 
C 2176 2692 2438 2752 2586 2752 
C 2611 2752 2650 2752 2682 2734 
C 2656 2728 2598 2703 2598 2605 
C 2598 2527 2656 2471 2739 2471 
C 2835 2471 2886 2533 2886 2614 
C 2886 2731 2790 2854 2586 2854 
C 2330 2854 2106 2738 1926 2580 
C 1734 2753 1504 2816 1299 2816 
C 794 2816 358 2419 358 1888 
C 358 1522 570 1292 634 1228 
C 442 1004 442 743 442 711 
C 442 545 506 302 723 168 
C 390 85 128 -169 128 -486 
C 128 -943 736 -1280 1466 -1280 
C 2170 -1280 2803 -956 2803 -479 
C 2803 384 1856 384 1363 384 
C 1216 384 954 384 922 391 
C 723 423 589 602 589 826 
C 589 883 589 1024 710 1164 
z
M 1299 1068 
C 736 1068 736 1760 736 1889 
C 736 2016 736 2708 1299 2708 
C 1862 2708 1862 2016 1862 1889 
C 1862 1760 1862 1068 1299 1068 
z
M 1466 -1171 
C 826 -1171 384 -835 384 -486 
C 384 -289 493 -105 634 -4 
C 794 104 858 104 1293 104 
C 1818 104 2547 104 2547 -486 
C 2547 -835 2106 -1171 1466 -1171 
z
" transform="scale(0.015625)"/>
       <path id="CMR17-64" d="M 1869 4326 
L 1869 4160 
C 2246 4160 2304 4122 2304 3820 
L 2304 2345 
C 2278 2377 2016 2790 1498 2790 
C 845 2790 211 2208 211 1364 
C 211 525 806 -64 1434 -64 
C 1978 -64 2259 337 2291 380 
L 2291 -63 
L 3066 -63 
L 3066 128 
C 2688 128 2630 166 2630 473 
L 2630 4396 
L 1869 4326 
z
M 2291 755 
C 2291 563 2176 390 2029 262 
C 1811 70 1594 38 1472 38 
C 1286 38 621 134 621 1356 
C 621 2612 1363 2688 1530 2688 
C 1824 2688 2061 2522 2208 2291 
C 2291 2157 2291 2138 2291 2023 
L 2291 755 
z
" transform="scale(0.015625)"/>
       <path id="CMR17-53" d="M 2803 4290 
C 2803 4404 2797 4411 2758 4411 
C 2720 4411 2707 4385 2682 4328 
L 2490 3907 
C 2246 4257 1875 4416 1472 4416 
C 819 4416 294 3901 294 3253 
C 294 3056 339 2776 557 2510 
C 794 2218 1018 2167 1530 2033 
C 1722 1982 2042 1899 2106 1874 
C 2470 1722 2662 1341 2662 985 
C 2662 527 2336 38 1779 38 
C 1094 38 454 419 410 1311 
C 403 1413 397 1419 352 1419 
C 301 1419 294 1413 294 1285 
L 294 -1 
C 294 -115 301 -122 339 -122 
C 384 -122 397 -90 486 108 
C 493 127 493 140 614 381 
C 934 -39 1472 -128 1779 -128 
C 2477 -128 2970 451 2970 1124 
C 2970 1454 2848 1708 2778 1823 
C 2509 2230 2221 2306 1914 2382 
C 1869 2402 1856 2402 1498 2490 
C 1152 2579 1005 2624 845 2796 
C 666 2992 602 3196 602 3399 
C 602 3812 934 4263 1478 4263 
C 2157 4263 2579 3786 2675 2993 
C 2694 2878 2701 2872 2746 2872 
C 2803 2872 2803 2891 2803 2999 
L 2803 4290 
z
" transform="scale(0.015625)"/>
       <path id="CMR17-70" d="M 1408 -1063 
C 998 -1063 973 -1037 973 -789 
L 973 402 
C 1158 134 1427 -38 1766 -38 
C 2406 -38 3053 523 3053 1388 
C 3053 2191 2496 2802 1837 2802 
C 1453 2802 1139 2592 960 2338 
L 960 2802 
L 198 2732 
L 198 2567 
C 576 2567 634 2528 634 2223 
L 634 -789 
C 634 -1031 608 -1063 198 -1063 
L 198 -1228 
C 352 -1216 634 -1216 800 -1216 
C 966 -1216 1254 -1216 1408 -1228 
L 1408 -1063 
z
M 973 2012 
C 973 2102 973 2235 1222 2471 
C 1254 2497 1472 2688 1792 2688 
C 2259 2688 2643 2108 2643 1382 
C 2643 656 2234 64 1728 64 
C 1498 64 1248 172 1056 472 
C 973 612 973 650 973 752 
L 973 2012 
z
" transform="scale(0.015625)"/>
       <path id="CMR17-6e" d="M 2656 1933 
C 2656 2259 2592 2790 1837 2790 
C 1331 2790 1069 2400 973 2144 
L 966 2144 
L 966 2790 
L 211 2720 
L 211 2554 
C 589 2554 646 2515 646 2208 
L 646 428 
C 646 184 621 153 211 153 
L 211 -13 
C 365 0 646 0 813 0 
C 979 0 1267 0 1421 -13 
L 1421 153 
C 1011 153 986 178 986 428 
L 986 1658 
C 986 2247 1344 2688 1792 2688 
C 2266 2688 2317 2266 2317 1958 
L 2317 428 
C 2317 184 2291 153 1882 153 
L 1882 -13 
C 2035 0 2317 0 2483 0 
C 2650 0 2938 0 3091 -13 
L 3091 153 
C 2682 153 2656 178 2656 428 
L 2656 1933 
z
" transform="scale(0.015625)"/>
       <path id="CMR17-75" d="M 1882 2693 
L 1882 2528 
C 2259 2528 2317 2489 2317 2186 
L 2317 1032 
C 2317 500 2029 38 1555 38 
C 1030 38 986 348 986 678 
L 986 2763 
L 211 2693 
L 211 2528 
C 467 2528 640 2528 646 2274 
L 646 1058 
C 646 633 646 361 813 183 
C 896 101 1056 -64 1517 -64 
C 2061 -64 2272 377 2323 506 
L 2330 506 
L 2330 -63 
L 3091 -63 
L 3091 128 
C 2714 128 2656 166 2656 473 
L 2656 2763 
L 1882 2693 
z
" transform="scale(0.015625)"/>
       <path id="CMR17-6d" d="M 4326 1933 
C 4326 2252 4269 2790 3507 2790 
C 3072 2790 2771 2496 2656 2151 
L 2650 2151 
C 2573 2676 2195 2790 1837 2790 
C 1331 2790 1069 2400 973 2144 
L 966 2144 
L 966 2790 
L 211 2720 
L 211 2554 
C 589 2554 646 2515 646 2208 
L 646 428 
C 646 184 621 153 211 153 
L 211 -13 
C 365 0 646 0 813 0 
C 979 0 1267 0 1421 -13 
L 1421 153 
C 1011 153 986 178 986 428 
L 986 1658 
C 986 2247 1344 2688 1792 2688 
C 2266 2688 2317 2266 2317 1958 
L 2317 428 
C 2317 184 2291 153 1882 153 
L 1882 -13 
C 2035 0 2317 0 2483 0 
C 2650 0 2938 0 3091 -13 
L 3091 153 
C 2682 153 2656 178 2656 428 
L 2656 1658 
C 2656 2247 3014 2688 3462 2688 
C 3936 2688 3987 2266 3987 1958 
L 3987 428 
C 3987 184 3962 153 3552 153 
L 3552 -13 
C 3706 0 3987 0 4154 0 
C 4320 0 4608 0 4762 -13 
L 4762 153 
C 4352 153 4326 178 4326 428 
L 4326 1933 
z
" transform="scale(0.015625)"/>
       <path id="CMR17-4e" d="M 1312 4250 
C 1267 4320 1261 4320 1139 4320 
L 326 4320 
L 326 4160 
L 448 4160 
C 704 4160 819 4129 838 4122 
L 838 610 
C 838 451 838 153 326 153 
L 326 -13 
C 474 0 742 0 902 0 
C 1062 0 1331 0 1478 -13 
L 1478 153 
C 966 153 966 451 966 610 
L 966 4033 
C 1011 3995 1011 3982 1056 3919 
L 3430 76 
C 3475 0 3494 0 3526 0 
C 3590 0 3590 19 3590 139 
L 3590 3705 
C 3590 3863 3590 4160 4102 4160 
L 4102 4326 
C 3955 4320 3686 4320 3526 4320 
C 3366 4320 3098 4320 2950 4326 
L 2950 4160 
C 3462 4160 3462 3862 3462 3703 
L 3462 763 
L 1312 4250 
z
" transform="scale(0.015625)"/>
       <path id="CMR17-7a" d="M 2310 2605 
C 2362 2670 2362 2682 2362 2695 
C 2362 2752 2336 2752 2221 2752 
L 275 2752 
L 211 1760 
L 326 1760 
C 371 2381 442 2650 1178 2650 
L 1958 2650 
L 128 96 
C 128 0 134 0 269 0 
L 2291 0 
L 2381 1152 
L 2266 1152 
C 2214 442 2131 115 1350 115 
L 531 115 
L 2310 2605 
z
" transform="scale(0.015625)"/>
       <path id="CMR17-69" d="M 992 3909 
C 992 4049 877 4170 730 4170 
C 589 4170 467 4056 467 3909 
C 467 3769 582 3648 730 3648 
C 870 3648 992 3763 992 3909 
z
M 243 2706 
L 243 2541 
C 602 2541 653 2502 653 2197 
L 653 427 
C 653 184 627 153 218 153 
L 218 -13 
C 371 0 646 0 806 0 
C 960 0 1222 0 1370 -13 
L 1370 153 
C 992 153 979 191 979 420 
L 979 2776 
L 243 2706 
z
" transform="scale(0.015625)"/>
       <path id="CMR17-6c" d="M 979 4396 
L 218 4326 
L 218 4160 
C 595 4160 653 4122 653 3817 
L 653 426 
C 653 184 627 153 218 153 
L 218 -13 
C 371 0 653 0 813 0 
C 979 0 1261 0 1414 -13 
L 1414 153 
C 1005 153 979 178 979 426 
L 979 4396 
z
" transform="scale(0.015625)"/>
       <path id="CMR17-56" d="M 3776 3745 
C 3834 3886 3936 4160 4365 4160 
L 4365 4332 
C 4218 4319 4051 4319 3891 4319 
C 3738 4319 3475 4319 3328 4332 
L 3328 4160 
C 3648 4160 3661 3936 3661 3898 
C 3661 3827 3642 3783 3622 3732 
L 2362 446 
L 1043 3886 
C 1024 3931 1011 3963 1011 3994 
C 1011 4160 1267 4160 1402 4160 
L 1402 4319 
C 1197 4319 896 4319 685 4319 
C 518 4319 218 4319 64 4332 
L 64 4160 
C 435 4160 506 4135 582 3931 
L 2106 -26 
C 2138 -115 2144 -128 2214 -128 
C 2285 -128 2291 -115 2323 -26 
L 3776 3745 
z
" transform="scale(0.015625)"/>
      </defs>
      <use xlink:href="#CMR17-42" transform="scale(0.996264)"/>
      <use xlink:href="#CMR17-65" transform="translate(65.188754 0)scale(0.996264)"/>
      <use xlink:href="#CMR17-74" transform="translate(105.674415 0)scale(0.996264)"/>
      <use xlink:href="#CMR17-72" transform="translate(140.955183 0)scale(0.996264)"/>
      <use xlink:href="#CMR17-61" transform="translate(176.235951 0)scale(0.996264)"/>
      <use xlink:href="#CMR17-67" transform="translate(221.926428 0)scale(0.996264)"/>
      <use xlink:href="#CMR17-64" transform="translate(297.692871 0)scale(0.996264)"/>
      <use xlink:href="#CMR17-65" transform="translate(348.588241 0)scale(0.996264)"/>
      <use xlink:href="#CMR17-72" transform="translate(389.073901 0)scale(0.996264)"/>
      <use xlink:href="#CMR17-53" transform="translate(454.430635 0)scale(0.996264)"/>
      <use xlink:href="#CMR17-70" transform="translate(505.326005 0)scale(0.996264)"/>
      <use xlink:href="#CMR17-61" transform="translate(556.221375 0)scale(0.996264)"/>
      <use xlink:href="#CMR17-6e" transform="translate(601.911852 0)scale(0.996264)"/>
      <use xlink:href="#CMR17-6e" transform="translate(652.807222 0)scale(0.996264)"/>
      <use xlink:href="#CMR17-75" transform="translate(701.100138 0)scale(0.996264)"/>
      <use xlink:href="#CMR17-6e" transform="translate(751.995508 0)scale(0.996264)"/>
      <use xlink:href="#CMR17-67" transform="translate(802.890877 0)scale(0.996264)"/>
      <use xlink:href="#CMR17-61" transform="translate(878.657321 0)scale(0.996264)"/>
      <use xlink:href="#CMR17-6d" transform="translate(924.347798 0)scale(0.996264)"/>
      <use xlink:href="#CMR17-4e" transform="translate(1031.343354 0)scale(0.996264)"/>
      <use xlink:href="#CMR17-65" transform="translate(1100.415784 0)scale(0.996264)"/>
      <use xlink:href="#CMR17-74" transform="translate(1140.901444 0)scale(0.996264)"/>
      <use xlink:href="#CMR17-7a" transform="translate(1176.182212 0)scale(0.996264)"/>
      <use xlink:href="#CMR17-74" transform="translate(1216.667873 0)scale(0.996264)"/>
      <use xlink:href="#CMR17-65" transform="translate(1251.94864 0)scale(0.996264)"/>
      <use xlink:href="#CMR17-69" transform="translate(1292.434301 0)scale(0.996264)"/>
      <use xlink:href="#CMR17-6c" transform="translate(1317.305359 0)scale(0.996264)"/>
      <use xlink:href="#CMR17-69" transform="translate(1372.252384 0)scale(0.996264)"/>
      <use xlink:href="#CMR17-6e" transform="translate(1397.123443 0)scale(0.996264)"/>
      <use xlink:href="#CMR17-56" transform="translate(1478.094779 0)scale(0.996264)"/>
     </g>
    </g>
   </g>
   <g id="matplotlib.axis_2">
    <g id="ytick_1">
     <g id="line2d_75">
      <path d="M 56.591714 275.4 
L 614.591714 275.4 
" clip-path="url(#pafc2740452)" style="fill: none; stroke-dasharray: 1.85,0.8; stroke-dashoffset: 0; stroke: #000000; stroke-opacity: 0.5; stroke-width: 0.5"/>
     </g>
     <g id="line2d_76">
      <defs>
       <path id="m26bac9c3c6" d="M 0 0 
L 3 0 
" style="stroke: #000000; stroke-width: 0.5"/>
      </defs>
      <g>
       <use xlink:href="#m26bac9c3c6" x="56.591714" y="275.4" style="stroke: #000000; stroke-width: 0.5"/>
      </g>
     </g>
     <g id="line2d_77">
      <defs>
       <path id="m2e827dc607" d="M 0 0 
L -3 0 
" style="stroke: #000000; stroke-width: 0.5"/>
      </defs>
      <g>
       <use xlink:href="#m2e827dc607" x="614.591714" y="275.4" style="stroke: #000000; stroke-width: 0.5"/>
      </g>
     </g>
     <g id="text_9">
      <!-- $\mathdefault{0.00}$ -->
      <g transform="translate(23.541364 281.62665)scale(0.18 -0.18)">
       <defs>
        <path id="CMMI12-3a" d="M 1178 307 
C 1178 492 1024 619 870 619 
C 685 619 557 466 557 313 
C 557 128 710 0 864 0 
C 1050 0 1178 153 1178 307 
z
" transform="scale(0.015625)"/>
       </defs>
       <use xlink:href="#CMR17-30" transform="scale(0.996264)"/>
       <use xlink:href="#CMMI12-3a" transform="translate(45.690477 0)scale(0.996264)"/>
       <use xlink:href="#CMR17-30" transform="translate(72.787654 0)scale(0.996264)"/>
       <use xlink:href="#CMR17-30" transform="translate(118.478131 0)scale(0.996264)"/>
      </g>
     </g>
    </g>
    <g id="ytick_2">
     <g id="line2d_78">
      <path d="M 56.591714 209.400857 
L 614.591714 209.400857 
" clip-path="url(#pafc2740452)" style="fill: none; stroke-dasharray: 1.85,0.8; stroke-dashoffset: 0; stroke: #000000; stroke-opacity: 0.5; stroke-width: 0.5"/>
     </g>
     <g id="line2d_79">
      <g>
       <use xlink:href="#m26bac9c3c6" x="56.591714" y="209.400857" style="stroke: #000000; stroke-width: 0.5"/>
      </g>
     </g>
     <g id="line2d_80">
      <g>
       <use xlink:href="#m2e827dc607" x="614.591714" y="209.400857" style="stroke: #000000; stroke-width: 0.5"/>
      </g>
     </g>
     <g id="text_10">
      <!-- $\mathdefault{0.05}$ -->
      <g transform="translate(23.541364 215.627507)scale(0.18 -0.18)">
       <use xlink:href="#CMR17-30" transform="scale(0.996264)"/>
       <use xlink:href="#CMMI12-3a" transform="translate(45.690477 0)scale(0.996264)"/>
       <use xlink:href="#CMR17-30" transform="translate(72.787654 0)scale(0.996264)"/>
       <use xlink:href="#CMR17-35" transform="translate(118.478131 0)scale(0.996264)"/>
      </g>
     </g>
    </g>
    <g id="ytick_3">
     <g id="line2d_81">
      <path d="M 56.591714 143.401715 
L 614.591714 143.401715 
" clip-path="url(#pafc2740452)" style="fill: none; stroke-dasharray: 1.85,0.8; stroke-dashoffset: 0; stroke: #000000; stroke-opacity: 0.5; stroke-width: 0.5"/>
     </g>
     <g id="line2d_82">
      <g>
       <use xlink:href="#m26bac9c3c6" x="56.591714" y="143.401715" style="stroke: #000000; stroke-width: 0.5"/>
      </g>
     </g>
     <g id="line2d_83">
      <g>
       <use xlink:href="#m2e827dc607" x="614.591714" y="143.401715" style="stroke: #000000; stroke-width: 0.5"/>
      </g>
     </g>
     <g id="text_11">
      <!-- $\mathdefault{0.10}$ -->
      <g transform="translate(23.541364 149.628365)scale(0.18 -0.18)">
       <use xlink:href="#CMR17-30" transform="scale(0.996264)"/>
       <use xlink:href="#CMMI12-3a" transform="translate(45.690477 0)scale(0.996264)"/>
       <use xlink:href="#CMR17-31" transform="translate(72.787654 0)scale(0.996264)"/>
       <use xlink:href="#CMR17-30" transform="translate(118.478131 0)scale(0.996264)"/>
      </g>
     </g>
    </g>
    <g id="ytick_4">
     <g id="line2d_84">
      <path d="M 56.591714 77.402572 
L 614.591714 77.402572 
" clip-path="url(#pafc2740452)" style="fill: none; stroke-dasharray: 1.85,0.8; stroke-dashoffset: 0; stroke: #000000; stroke-opacity: 0.5; stroke-width: 0.5"/>
     </g>
     <g id="line2d_85">
      <g>
       <use xlink:href="#m26bac9c3c6" x="56.591714" y="77.402572" style="stroke: #000000; stroke-width: 0.5"/>
      </g>
     </g>
     <g id="line2d_86">
      <g>
       <use xlink:href="#m2e827dc607" x="614.591714" y="77.402572" style="stroke: #000000; stroke-width: 0.5"/>
      </g>
     </g>
     <g id="text_12">
      <!-- $\mathdefault{0.15}$ -->
      <g transform="translate(23.541364 83.629222)scale(0.18 -0.18)">
       <use xlink:href="#CMR17-30" transform="scale(0.996264)"/>
       <use xlink:href="#CMMI12-3a" transform="translate(45.690477 0)scale(0.996264)"/>
       <use xlink:href="#CMR17-31" transform="translate(72.787654 0)scale(0.996264)"/>
       <use xlink:href="#CMR17-35" transform="translate(118.478131 0)scale(0.996264)"/>
      </g>
     </g>
    </g>
    <g id="ytick_5">
     <g id="line2d_87">
      <path d="M 56.591714 11.403429 
L 614.591714 11.403429 
" clip-path="url(#pafc2740452)" style="fill: none; stroke-dasharray: 1.85,0.8; stroke-dashoffset: 0; stroke: #000000; stroke-opacity: 0.5; stroke-width: 0.5"/>
     </g>
     <g id="line2d_88">
      <g>
       <use xlink:href="#m26bac9c3c6" x="56.591714" y="11.403429" style="stroke: #000000; stroke-width: 0.5"/>
      </g>
     </g>
     <g id="line2d_89">
      <g>
       <use xlink:href="#m2e827dc607" x="614.591714" y="11.403429" style="stroke: #000000; stroke-width: 0.5"/>
      </g>
     </g>
     <g id="text_13">
      <!-- $\mathdefault{0.20}$ -->
      <g transform="translate(23.541364 17.630079)scale(0.18 -0.18)">
       <defs>
        <path id="CMR17-32" d="M 2669 989 
L 2554 989 
C 2490 536 2438 459 2413 420 
C 2381 369 1920 369 1830 369 
L 602 369 
C 832 619 1280 1072 1824 1597 
C 2214 1967 2669 2402 2669 3035 
C 2669 3790 2067 4224 1395 4224 
C 691 4224 262 3604 262 3030 
C 262 2780 448 2748 525 2748 
C 589 2748 781 2787 781 3010 
C 781 3207 614 3264 525 3264 
C 486 3264 448 3258 422 3245 
C 544 3790 915 4058 1306 4058 
C 1862 4058 2227 3617 2227 3035 
C 2227 2479 1901 2000 1536 1584 
L 262 146 
L 262 0 
L 2515 0 
L 2669 989 
z
" transform="scale(0.015625)"/>
       </defs>
       <use xlink:href="#CMR17-30" transform="scale(0.996264)"/>
       <use xlink:href="#CMMI12-3a" transform="translate(45.690477 0)scale(0.996264)"/>
       <use xlink:href="#CMR17-32" transform="translate(72.787654 0)scale(0.996264)"/>
       <use xlink:href="#CMR17-30" transform="translate(118.478131 0)scale(0.996264)"/>
      </g>
     </g>
    </g>
    <g id="ytick_6">
     <g id="line2d_90">
      <defs>
       <path id="m187939a491" d="M 0 0 
L 1.5 0 
" style="stroke: #000000; stroke-width: 0.5"/>
      </defs>
      <g>
       <use xlink:href="#m187939a491" x="56.591714" y="262.200171" style="stroke: #000000; stroke-width: 0.5"/>
      </g>
     </g>
     <g id="line2d_91">
      <defs>
       <path id="m85ab588782" d="M 0 0 
L -1.5 0 
" style="stroke: #000000; stroke-width: 0.5"/>
      </defs>
      <g>
       <use xlink:href="#m85ab588782" x="614.591714" y="262.200171" style="stroke: #000000; stroke-width: 0.5"/>
      </g>
     </g>
    </g>
    <g id="ytick_7">
     <g id="line2d_92">
      <g>
       <use xlink:href="#m187939a491" x="56.591714" y="249.000343" style="stroke: #000000; stroke-width: 0.5"/>
      </g>
     </g>
     <g id="line2d_93">
      <g>
       <use xlink:href="#m85ab588782" x="614.591714" y="249.000343" style="stroke: #000000; stroke-width: 0.5"/>
      </g>
     </g>
    </g>
    <g id="ytick_8">
     <g id="line2d_94">
      <g>
       <use xlink:href="#m187939a491" x="56.591714" y="235.800514" style="stroke: #000000; stroke-width: 0.5"/>
      </g>
     </g>
     <g id="line2d_95">
      <g>
       <use xlink:href="#m85ab588782" x="614.591714" y="235.800514" style="stroke: #000000; stroke-width: 0.5"/>
      </g>
     </g>
    </g>
    <g id="ytick_9">
     <g id="line2d_96">
      <g>
       <use xlink:href="#m187939a491" x="56.591714" y="222.600686" style="stroke: #000000; stroke-width: 0.5"/>
      </g>
     </g>
     <g id="line2d_97">
      <g>
       <use xlink:href="#m85ab588782" x="614.591714" y="222.600686" style="stroke: #000000; stroke-width: 0.5"/>
      </g>
     </g>
    </g>
    <g id="ytick_10">
     <g id="line2d_98">
      <g>
       <use xlink:href="#m187939a491" x="56.591714" y="196.201029" style="stroke: #000000; stroke-width: 0.5"/>
      </g>
     </g>
     <g id="line2d_99">
      <g>
       <use xlink:href="#m85ab588782" x="614.591714" y="196.201029" style="stroke: #000000; stroke-width: 0.5"/>
      </g>
     </g>
    </g>
    <g id="ytick_11">
     <g id="line2d_100">
      <g>
       <use xlink:href="#m187939a491" x="56.591714" y="183.0012" style="stroke: #000000; stroke-width: 0.5"/>
      </g>
     </g>
     <g id="line2d_101">
      <g>
       <use xlink:href="#m85ab588782" x="614.591714" y="183.0012" style="stroke: #000000; stroke-width: 0.5"/>
      </g>
     </g>
    </g>
    <g id="ytick_12">
     <g id="line2d_102">
      <g>
       <use xlink:href="#m187939a491" x="56.591714" y="169.801372" style="stroke: #000000; stroke-width: 0.5"/>
      </g>
     </g>
     <g id="line2d_103">
      <g>
       <use xlink:href="#m85ab588782" x="614.591714" y="169.801372" style="stroke: #000000; stroke-width: 0.5"/>
      </g>
     </g>
    </g>
    <g id="ytick_13">
     <g id="line2d_104">
      <g>
       <use xlink:href="#m187939a491" x="56.591714" y="156.601543" style="stroke: #000000; stroke-width: 0.5"/>
      </g>
     </g>
     <g id="line2d_105">
      <g>
       <use xlink:href="#m85ab588782" x="614.591714" y="156.601543" style="stroke: #000000; stroke-width: 0.5"/>
      </g>
     </g>
    </g>
    <g id="ytick_14">
     <g id="line2d_106">
      <g>
       <use xlink:href="#m187939a491" x="56.591714" y="130.201886" style="stroke: #000000; stroke-width: 0.5"/>
      </g>
     </g>
     <g id="line2d_107">
      <g>
       <use xlink:href="#m85ab588782" x="614.591714" y="130.201886" style="stroke: #000000; stroke-width: 0.5"/>
      </g>
     </g>
    </g>
    <g id="ytick_15">
     <g id="line2d_108">
      <g>
       <use xlink:href="#m187939a491" x="56.591714" y="117.002057" style="stroke: #000000; stroke-width: 0.5"/>
      </g>
     </g>
     <g id="line2d_109">
      <g>
       <use xlink:href="#m85ab588782" x="614.591714" y="117.002057" style="stroke: #000000; stroke-width: 0.5"/>
      </g>
     </g>
    </g>
    <g id="ytick_16">
     <g id="line2d_110">
      <g>
       <use xlink:href="#m187939a491" x="56.591714" y="103.802229" style="stroke: #000000; stroke-width: 0.5"/>
      </g>
     </g>
     <g id="line2d_111">
      <g>
       <use xlink:href="#m85ab588782" x="614.591714" y="103.802229" style="stroke: #000000; stroke-width: 0.5"/>
      </g>
     </g>
    </g>
    <g id="ytick_17">
     <g id="line2d_112">
      <g>
       <use xlink:href="#m187939a491" x="56.591714" y="90.6024" style="stroke: #000000; stroke-width: 0.5"/>
      </g>
     </g>
     <g id="line2d_113">
      <g>
       <use xlink:href="#m85ab588782" x="614.591714" y="90.6024" style="stroke: #000000; stroke-width: 0.5"/>
      </g>
     </g>
    </g>
    <g id="ytick_18">
     <g id="line2d_114">
      <g>
       <use xlink:href="#m187939a491" x="56.591714" y="64.202743" style="stroke: #000000; stroke-width: 0.5"/>
      </g>
     </g>
     <g id="line2d_115">
      <g>
       <use xlink:href="#m85ab588782" x="614.591714" y="64.202743" style="stroke: #000000; stroke-width: 0.5"/>
      </g>
     </g>
    </g>
    <g id="ytick_19">
     <g id="line2d_116">
      <g>
       <use xlink:href="#m187939a491" x="56.591714" y="51.002915" style="stroke: #000000; stroke-width: 0.5"/>
      </g>
     </g>
     <g id="line2d_117">
      <g>
       <use xlink:href="#m85ab588782" x="614.591714" y="51.002915" style="stroke: #000000; stroke-width: 0.5"/>
      </g>
     </g>
    </g>
    <g id="ytick_20">
     <g id="line2d_118">
      <g>
       <use xlink:href="#m187939a491" x="56.591714" y="37.803086" style="stroke: #000000; stroke-width: 0.5"/>
      </g>
     </g>
     <g id="line2d_119">
      <g>
       <use xlink:href="#m85ab588782" x="614.591714" y="37.803086" style="stroke: #000000; stroke-width: 0.5"/>
      </g>
     </g>
    </g>
    <g id="ytick_21">
     <g id="line2d_120">
      <g>
       <use xlink:href="#m187939a491" x="56.591714" y="24.603258" style="stroke: #000000; stroke-width: 0.5"/>
      </g>
     </g>
     <g id="line2d_121">
      <g>
       <use xlink:href="#m85ab588782" x="614.591714" y="24.603258" style="stroke: #000000; stroke-width: 0.5"/>
      </g>
     </g>
    </g>
    <g id="text_14">
     <!-- Thermische Leistung in W -->
     <g transform="translate(16.0533 235.117767)rotate(-90)scale(0.18 -0.18)">
      <defs>
       <path id="CMR17-54" d="M 3981 4326 
L 288 4326 
L 179 2918 
L 294 2918 
C 378 3976 467 4160 1453 4160 
C 1568 4160 1754 4160 1805 4154 
C 1926 4135 1926 4058 1926 3912 
L 1926 459 
C 1926 230 1907 160 1376 160 
L 1197 160 
L 1197 0 
C 1504 0 1824 0 2138 0 
C 2451 0 2771 0 3078 0 
L 3078 160 
L 2899 160 
C 2368 160 2349 230 2349 459 
L 2349 3912 
C 2349 4052 2349 4129 2464 4154 
C 2515 4160 2701 4160 2816 4160 
C 3795 4160 3891 3976 3974 2918 
L 4090 2918 
L 3981 4326 
z
" transform="scale(0.015625)"/>
       <path id="CMR17-68" d="M 2656 1933 
C 2656 2259 2592 2790 1837 2790 
C 1312 2790 1056 2368 979 2157 
L 973 2157 
L 973 4396 
L 211 4326 
L 211 4160 
C 589 4160 646 4122 646 3817 
L 646 426 
C 646 184 621 153 211 153 
L 211 -13 
C 365 0 646 0 813 0 
C 979 0 1267 0 1421 -13 
L 1421 153 
C 1011 153 986 178 986 428 
L 986 1658 
C 986 2247 1344 2688 1792 2688 
C 2266 2688 2317 2266 2317 1958 
L 2317 428 
C 2317 184 2291 153 1882 153 
L 1882 -13 
C 2035 0 2317 0 2483 0 
C 2650 0 2938 0 3091 -13 
L 3091 153 
C 2682 153 2656 178 2656 428 
L 2656 1933 
z
" transform="scale(0.015625)"/>
       <path id="CMR17-73" d="M 1978 2697 
C 1978 2813 1971 2819 1933 2819 
C 1907 2819 1901 2813 1824 2717 
C 1805 2691 1747 2626 1728 2601 
C 1523 2819 1235 2819 1126 2819 
C 416 2819 160 2447 160 2076 
C 160 1498 813 1365 998 1325 
C 1402 1243 1542 1217 1677 1101 
C 1760 1025 1901 884 1901 654 
C 1901 384 1747 38 1158 38 
C 602 38 403 460 288 1021 
C 269 1110 269 1117 218 1117 
C 166 1117 160 1110 160 983 
L 160 63 
C 160 -51 166 -58 205 -58 
C 237 -58 243 -51 275 0 
C 314 57 410 211 448 276 
C 576 103 800 -64 1158 -64 
C 1792 -64 2131 283 2131 784 
C 2131 1112 1958 1285 1875 1362 
C 1683 1561 1459 1606 1190 1657 
C 838 1735 390 1825 390 2217 
C 390 2383 480 2737 1126 2737 
C 1811 2737 1850 2094 1862 1888 
C 1869 1856 1901 1849 1920 1849 
C 1978 1849 1978 1869 1978 1978 
L 1978 2697 
z
" transform="scale(0.015625)"/>
       <path id="CMR17-63" d="M 2234 2240 
C 2112 2240 1933 2240 1933 2017 
C 1933 1838 2080 1787 2163 1787 
C 2208 1787 2394 1807 2394 2024 
C 2394 2467 1958 2803 1466 2803 
C 787 2803 211 2178 211 1363 
C 211 516 813 -64 1466 -64 
C 2259 -64 2458 677 2458 748 
C 2458 774 2451 793 2406 793 
C 2362 793 2355 787 2330 703 
C 2163 180 1798 51 1523 51 
C 1114 51 621 427 621 1369 
C 621 2338 1094 2688 1472 2688 
C 1722 2688 2093 2573 2234 2240 
z
" transform="scale(0.015625)"/>
       <path id="CMR17-4c" d="M 3469 1615 
L 3354 1615 
C 3302 983 3219 166 2125 166 
L 1530 166 
C 1274 166 1261 197 1261 414 
L 1261 3898 
C 1261 4129 1274 4192 1760 4192 
L 1901 4192 
L 1901 4352 
C 1638 4352 1331 4352 1069 4352 
C 870 4352 512 4352 326 4352 
L 326 4192 
C 768 4192 838 4192 838 3905 
L 838 452 
C 838 166 768 166 326 166 
L 326 0 
L 3315 0 
L 3469 1615 
z
" transform="scale(0.015625)"/>
       <path id="CMR17-57" d="M 5523 3764 
C 5581 3936 5677 4160 6048 4160 
L 6048 4326 
C 5939 4326 5715 4326 5600 4326 
C 5440 4326 5158 4326 5005 4332 
L 5005 4160 
C 5293 4160 5414 4000 5414 3847 
C 5414 3802 5408 3777 5382 3707 
L 4390 555 
L 3347 3873 
C 3328 3937 3322 3963 3322 3988 
C 3322 4160 3603 4160 3725 4160 
L 3725 4326 
C 3539 4326 3219 4326 3021 4326 
C 2861 4326 2573 4326 2426 4332 
L 2426 4160 
C 2720 4160 2797 4141 2861 4027 
C 2886 3969 2989 3638 2989 3619 
C 2989 3593 2976 3555 2970 3536 
L 2029 561 
L 986 3867 
C 954 3957 954 3969 954 3982 
C 954 4160 1235 4160 1363 4160 
L 1363 4326 
C 1178 4326 858 4326 659 4326 
C 493 4326 211 4326 58 4332 
L 58 4160 
C 442 4160 467 4122 531 3918 
L 1779 -20 
C 1811 -115 1811 -128 1869 -128 
C 1920 -128 1939 -115 1965 -26 
L 3053 3433 
L 4141 -26 
C 4166 -115 4186 -128 4237 -128 
C 4294 -128 4294 -115 4326 -20 
L 5523 3764 
z
" transform="scale(0.015625)"/>
      </defs>
      <use xlink:href="#CMR17-54" transform="scale(0.996264)"/>
      <use xlink:href="#CMR17-68" transform="translate(66.509881 0)scale(0.996264)"/>
      <use xlink:href="#CMR17-65" transform="translate(117.40525 0)scale(0.996264)"/>
      <use xlink:href="#CMR17-72" transform="translate(157.890911 0)scale(0.996264)"/>
      <use xlink:href="#CMR17-6d" transform="translate(193.171679 0)scale(0.996264)"/>
      <use xlink:href="#CMR17-69" transform="translate(270.091268 0)scale(0.996264)"/>
      <use xlink:href="#CMR17-73" transform="translate(294.962327 0)scale(0.996264)"/>
      <use xlink:href="#CMR17-63" transform="translate(330.763665 0)scale(0.996264)"/>
      <use xlink:href="#CMR17-68" transform="translate(368.646871 0)scale(0.996264)"/>
      <use xlink:href="#CMR17-65" transform="translate(419.542241 0)scale(0.996264)"/>
      <use xlink:href="#CMR17-4c" transform="translate(490.103868 0)scale(0.996264)"/>
      <use xlink:href="#CMR17-65" transform="translate(547.485276 0)scale(0.996264)"/>
      <use xlink:href="#CMR17-69" transform="translate(587.970936 0)scale(0.996264)"/>
      <use xlink:href="#CMR17-73" transform="translate(612.841994 0)scale(0.996264)"/>
      <use xlink:href="#CMR17-74" transform="translate(648.643332 0)scale(0.996264)"/>
      <use xlink:href="#CMR17-75" transform="translate(683.9241 0)scale(0.996264)"/>
      <use xlink:href="#CMR17-6e" transform="translate(734.81947 0)scale(0.996264)"/>
      <use xlink:href="#CMR17-67" transform="translate(785.714839 0)scale(0.996264)"/>
      <use xlink:href="#CMR17-69" transform="translate(861.481283 0)scale(0.996264)"/>
      <use xlink:href="#CMR17-6e" transform="translate(886.352341 0)scale(0.996264)"/>
      <use xlink:href="#CMR17-57" transform="translate(967.323678 0)scale(0.996264)"/>
     </g>
    </g>
   </g>
   <g id="patch_3">
    <path d="M 0 0 
z
" clip-path="url(#pafc2740452)" style="fill: #0c5da5"/>
   </g>
   <g id="patch_4">
    <path d="M 150.69827 275.4 
L 164.795495 275.4 
L 164.795495 103.784204 
L 150.69827 103.784204 
z
" clip-path="url(#pafc2740452)" style="fill: #0c5da5"/>
   </g>
   <g id="patch_5">
    <path d="M 226.489803 275.4 
L 240.587028 275.4 
L 240.587028 87.505489 
L 226.489803 87.505489 
z
" clip-path="url(#pafc2740452)" style="fill: #0c5da5"/>
   </g>
   <g id="patch_6">
    <path d="M 302.281335 275.4 
L 316.37856 275.4 
L 316.37856 72.826546 
L 302.281335 72.826546 
z
" clip-path="url(#pafc2740452)" style="fill: #0c5da5"/>
   </g>
   <g id="patch_7">
    <path d="M 378.072868 275.4 
L 392.170093 275.4 
L 392.170093 59.051831 
L 378.072868 59.051831 
z
" clip-path="url(#pafc2740452)" style="fill: #0c5da5"/>
   </g>
   <g id="patch_8">
    <path d="M 453.8644 275.4 
L 467.961625 275.4 
L 467.961625 41.839407 
L 453.8644 41.839407 
z
" clip-path="url(#pafc2740452)" style="fill: #0c5da5"/>
   </g>
   <g id="patch_9">
    <path d="M 529.655933 275.4 
L 543.753158 275.4 
L 543.753158 26.515236 
L 529.655933 26.515236 
z
" clip-path="url(#pafc2740452)" style="fill: #0c5da5"/>
   </g>
   <g id="patch_10">
    <path d="M 0 0 
z
" clip-path="url(#pafc2740452)" style="fill: #00b945"/>
   </g>
   <g id="patch_11">
    <path d="M 165.856577 275.4 
L 179.953802 275.4 
L 179.953802 122.318138 
L 165.856577 122.318138 
z
" clip-path="url(#pafc2740452)" style="fill: #00b945"/>
   </g>
   <g id="patch_12">
    <path d="M 241.648109 275.4 
L 255.745334 275.4 
L 255.745334 107.966539 
L 241.648109 107.966539 
z
" clip-path="url(#pafc2740452)" style="fill: #00b945"/>
   </g>
   <g id="patch_13">
    <path d="M 317.439642 275.4 
L 331.536867 275.4 
L 331.536867 94.770433 
L 317.439642 94.770433 
z
" clip-path="url(#pafc2740452)" style="fill: #00b945"/>
   </g>
   <g id="patch_14">
    <path d="M 393.231174 275.4 
L 407.328399 275.4 
L 407.328399 81.724826 
L 393.231174 81.724826 
z
" clip-path="url(#pafc2740452)" style="fill: #00b945"/>
   </g>
   <g id="patch_15">
    <path d="M 469.022707 275.4 
L 483.119932 275.4 
L 483.119932 66.747833 
L 469.022707 66.747833 
z
" clip-path="url(#pafc2740452)" style="fill: #00b945"/>
   </g>
   <g id="patch_16">
    <path d="M 544.814239 275.4 
L 558.911464 275.4 
L 558.911464 53.019045 
L 544.814239 53.019045 
z
" clip-path="url(#pafc2740452)" style="fill: #00b945"/>
   </g>
   <g id="patch_17">
    <path d="M 120.381657 275.4 
L 134.478882 275.4 
L 134.478882 137.352295 
L 120.381657 137.352295 
z
" clip-path="url(#pafc2740452)" style="fill: #ff9500"/>
   </g>
   <g id="patch_18">
    <path d="M 196.17319 275.4 
L 210.270415 275.4 
L 210.270415 124.004574 
L 196.17319 124.004574 
z
" clip-path="url(#pafc2740452)" style="fill: #ff9500"/>
   </g>
   <g id="patch_19">
    <path d="M 271.964722 275.4 
L 286.061947 275.4 
L 286.061947 109.881317 
L 271.964722 109.881317 
z
" clip-path="url(#pafc2740452)" style="fill: #ff9500"/>
   </g>
   <g id="patch_20">
    <path d="M 347.756255 275.4 
L 361.85348 275.4 
L 361.85348 94.969002 
L 347.756255 94.969002 
z
" clip-path="url(#pafc2740452)" style="fill: #ff9500"/>
   </g>
   <g id="patch_21">
    <path d="M 423.547787 275.4 
L 437.645012 275.4 
L 437.645012 79.784576 
L 423.547787 79.784576 
z
" clip-path="url(#pafc2740452)" style="fill: #ff9500"/>
   </g>
   <g id="patch_22">
    <path d="M 499.33932 275.4 
L 513.436545 275.4 
L 513.436545 65.964953 
L 499.33932 65.964953 
z
" clip-path="url(#pafc2740452)" style="fill: #ff9500"/>
   </g>
   <g id="patch_23">
    <path d="M 575.130852 275.4 
L 589.228077 275.4 
L 589.228077 51.977699 
L 575.130852 51.977699 
z
" clip-path="url(#pafc2740452)" style="fill: #ff9500"/>
   </g>
   <g id="patch_24">
    <path d="M 105.223351 275.4 
L 119.320576 275.4 
L 119.320576 119.933725 
L 105.223351 119.933725 
z
" clip-path="url(#pafc2740452)" style="fill: #ff2c00"/>
   </g>
   <g id="patch_25">
    <path d="M 181.014883 275.4 
L 195.112108 275.4 
L 195.112108 105.399652 
L 181.014883 105.399652 
z
" clip-path="url(#pafc2740452)" style="fill: #ff2c00"/>
   </g>
   <g id="patch_26">
    <path d="M 256.806416 275.4 
L 270.903641 275.4 
L 270.903641 89.87435 
L 256.806416 89.87435 
z
" clip-path="url(#pafc2740452)" style="fill: #ff2c00"/>
   </g>
   <g id="patch_27">
    <path d="M 332.597948 275.4 
L 346.695173 275.4 
L 346.695173 73.284189 
L 332.597948 73.284189 
z
" clip-path="url(#pafc2740452)" style="fill: #ff2c00"/>
   </g>
   <g id="patch_28">
    <path d="M 408.389481 275.4 
L 422.486706 275.4 
L 422.486706 55.875033 
L 408.389481 55.875033 
z
" clip-path="url(#pafc2740452)" style="fill: #ff2c00"/>
   </g>
   <g id="patch_29">
    <path d="M 484.181013 275.4 
L 498.278238 275.4 
L 498.278238 40.232481 
L 484.181013 40.232481 
z
" clip-path="url(#pafc2740452)" style="fill: #ff2c00"/>
   </g>
   <g id="patch_30">
    <path d="M 559.972546 275.4 
L 574.069771 275.4 
L 574.069771 25.487457 
L 559.972546 25.487457 
z
" clip-path="url(#pafc2740452)" style="fill: #ff2c00"/>
   </g>
   <g id="LineCollection_1">
    <path clip-path="url(#pafc2740452)" style="fill: none; stroke: #000000"/>
    <path d="M 157.746883 109.772904 
L 157.746883 97.795504 
" clip-path="url(#pafc2740452)" style="fill: none; stroke: #000000"/>
    <path d="M 233.538415 94.179219 
L 233.538415 80.83176 
" clip-path="url(#pafc2740452)" style="fill: none; stroke: #000000"/>
    <path d="M 309.329948 80.042526 
L 309.329948 65.610566 
" clip-path="url(#pafc2740452)" style="fill: none; stroke: #000000"/>
    <path d="M 385.12148 67.339314 
L 385.12148 50.764348 
" clip-path="url(#pafc2740452)" style="fill: none; stroke: #000000"/>
    <path d="M 460.913013 50.776351 
L 460.913013 32.902463 
" clip-path="url(#pafc2740452)" style="fill: none; stroke: #000000"/>
    <path d="M 536.704545 36.214708 
L 536.704545 16.815763 
" clip-path="url(#pafc2740452)" style="fill: none; stroke: #000000"/>
   </g>
   <g id="line2d_122">
    <defs>
     <path id="m728ffb642a" d="M 3 0 
L -3 -0 
" style="stroke: #000000"/>
    </defs>
    <g clip-path="url(#pafc2740452)">
     <use xlink:href="#m728ffb642a" x="157.746883" y="109.772904" style="stroke: #000000"/>
     <use xlink:href="#m728ffb642a" x="233.538415" y="94.179219" style="stroke: #000000"/>
     <use xlink:href="#m728ffb642a" x="309.329948" y="80.042526" style="stroke: #000000"/>
     <use xlink:href="#m728ffb642a" x="385.12148" y="67.339314" style="stroke: #000000"/>
     <use xlink:href="#m728ffb642a" x="460.913013" y="50.776351" style="stroke: #000000"/>
     <use xlink:href="#m728ffb642a" x="536.704545" y="36.214708" style="stroke: #000000"/>
    </g>
   </g>
   <g id="line2d_123">
    <g clip-path="url(#pafc2740452)">
     <use xlink:href="#m728ffb642a" x="157.746883" y="97.795504" style="stroke: #000000"/>
     <use xlink:href="#m728ffb642a" x="233.538415" y="80.83176" style="stroke: #000000"/>
     <use xlink:href="#m728ffb642a" x="309.329948" y="65.610566" style="stroke: #000000"/>
     <use xlink:href="#m728ffb642a" x="385.12148" y="50.764348" style="stroke: #000000"/>
     <use xlink:href="#m728ffb642a" x="460.913013" y="32.902463" style="stroke: #000000"/>
     <use xlink:href="#m728ffb642a" x="536.704545" y="16.815763" style="stroke: #000000"/>
    </g>
   </g>
   <g id="LineCollection_2">
    <path clip-path="url(#pafc2740452)" style="fill: none; stroke: #000000"/>
    <path d="M 172.905189 127.777135 
L 172.905189 116.85914 
" clip-path="url(#pafc2740452)" style="fill: none; stroke: #000000"/>
    <path d="M 248.696722 113.997562 
L 248.696722 101.935515 
" clip-path="url(#pafc2740452)" style="fill: none; stroke: #000000"/>
    <path d="M 324.488254 101.203907 
L 324.488254 88.33696 
" clip-path="url(#pafc2740452)" style="fill: none; stroke: #000000"/>
    <path d="M 400.279787 89.170712 
L 400.279787 74.278941 
" clip-path="url(#pafc2740452)" style="fill: none; stroke: #000000"/>
    <path d="M 476.071319 74.462349 
L 476.071319 59.033317 
" clip-path="url(#pafc2740452)" style="fill: none; stroke: #000000"/>
    <path d="M 551.862852 61.077427 
L 551.862852 44.960663 
" clip-path="url(#pafc2740452)" style="fill: none; stroke: #000000"/>
   </g>
   <g id="line2d_124">
    <g clip-path="url(#pafc2740452)">
     <use xlink:href="#m728ffb642a" x="172.905189" y="127.777135" style="stroke: #000000"/>
     <use xlink:href="#m728ffb642a" x="248.696722" y="113.997562" style="stroke: #000000"/>
     <use xlink:href="#m728ffb642a" x="324.488254" y="101.203907" style="stroke: #000000"/>
     <use xlink:href="#m728ffb642a" x="400.279787" y="89.170712" style="stroke: #000000"/>
     <use xlink:href="#m728ffb642a" x="476.071319" y="74.462349" style="stroke: #000000"/>
     <use xlink:href="#m728ffb642a" x="551.862852" y="61.077427" style="stroke: #000000"/>
    </g>
   </g>
   <g id="line2d_125">
    <g clip-path="url(#pafc2740452)">
     <use xlink:href="#m728ffb642a" x="172.905189" y="116.85914" style="stroke: #000000"/>
     <use xlink:href="#m728ffb642a" x="248.696722" y="101.935515" style="stroke: #000000"/>
     <use xlink:href="#m728ffb642a" x="324.488254" y="88.33696" style="stroke: #000000"/>
     <use xlink:href="#m728ffb642a" x="400.279787" y="74.278941" style="stroke: #000000"/>
     <use xlink:href="#m728ffb642a" x="476.071319" y="59.033317" style="stroke: #000000"/>
     <use xlink:href="#m728ffb642a" x="551.862852" y="44.960663" style="stroke: #000000"/>
    </g>
   </g>
   <g id="LineCollection_3">
    <path d="M 127.43027 142.403779 
L 127.43027 132.300811 
" clip-path="url(#pafc2740452)" style="fill: none; stroke: #000000"/>
    <path d="M 203.221802 129.342534 
L 203.221802 118.666613 
" clip-path="url(#pafc2740452)" style="fill: none; stroke: #000000"/>
    <path d="M 279.013335 115.783649 
L 279.013335 103.978984 
" clip-path="url(#pafc2740452)" style="fill: none; stroke: #000000"/>
    <path d="M 354.804867 100.933205 
L 354.804867 89.004799 
" clip-path="url(#pafc2740452)" style="fill: none; stroke: #000000"/>
    <path d="M 430.5964 87.141821 
L 430.5964 72.42733 
" clip-path="url(#pafc2740452)" style="fill: none; stroke: #000000"/>
    <path d="M 506.387932 72.804673 
L 506.387932 59.125233 
" clip-path="url(#pafc2740452)" style="fill: none; stroke: #000000"/>
    <path d="M 582.179465 60.167088 
L 582.179465 43.788311 
" clip-path="url(#pafc2740452)" style="fill: none; stroke: #000000"/>
   </g>
   <g id="line2d_126">
    <g clip-path="url(#pafc2740452)">
     <use xlink:href="#m728ffb642a" x="127.43027" y="142.403779" style="stroke: #000000"/>
     <use xlink:href="#m728ffb642a" x="203.221802" y="129.342534" style="stroke: #000000"/>
     <use xlink:href="#m728ffb642a" x="279.013335" y="115.783649" style="stroke: #000000"/>
     <use xlink:href="#m728ffb642a" x="354.804867" y="100.933205" style="stroke: #000000"/>
     <use xlink:href="#m728ffb642a" x="430.5964" y="87.141821" style="stroke: #000000"/>
     <use xlink:href="#m728ffb642a" x="506.387932" y="72.804673" style="stroke: #000000"/>
     <use xlink:href="#m728ffb642a" x="582.179465" y="60.167088" style="stroke: #000000"/>
    </g>
   </g>
   <g id="line2d_127">
    <g clip-path="url(#pafc2740452)">
     <use xlink:href="#m728ffb642a" x="127.43027" y="132.300811" style="stroke: #000000"/>
     <use xlink:href="#m728ffb642a" x="203.221802" y="118.666613" style="stroke: #000000"/>
     <use xlink:href="#m728ffb642a" x="279.013335" y="103.978984" style="stroke: #000000"/>
     <use xlink:href="#m728ffb642a" x="354.804867" y="89.004799" style="stroke: #000000"/>
     <use xlink:href="#m728ffb642a" x="430.5964" y="72.42733" style="stroke: #000000"/>
     <use xlink:href="#m728ffb642a" x="506.387932" y="59.125233" style="stroke: #000000"/>
     <use xlink:href="#m728ffb642a" x="582.179465" y="43.788311" style="stroke: #000000"/>
    </g>
   </g>
   <g id="LineCollection_4">
    <path d="M 112.271963 125.694852 
L 112.271963 114.172597 
" clip-path="url(#pafc2740452)" style="fill: none; stroke: #000000"/>
    <path d="M 188.063496 111.223918 
L 188.063496 99.575386 
" clip-path="url(#pafc2740452)" style="fill: none; stroke: #000000"/>
    <path d="M 263.855028 96.540462 
L 263.855028 83.208238 
" clip-path="url(#pafc2740452)" style="fill: none; stroke: #000000"/>
    <path d="M 339.646561 80.590136 
L 339.646561 65.978243 
" clip-path="url(#pafc2740452)" style="fill: none; stroke: #000000"/>
    <path d="M 415.438093 64.165049 
L 415.438093 47.585018 
" clip-path="url(#pafc2740452)" style="fill: none; stroke: #000000"/>
    <path d="M 491.229626 48.169228 
L 491.229626 32.295734 
" clip-path="url(#pafc2740452)" style="fill: none; stroke: #000000"/>
    <path d="M 567.021158 34.432056 
L 567.021158 16.542857 
" clip-path="url(#pafc2740452)" style="fill: none; stroke: #000000"/>
   </g>
   <g id="line2d_128">
    <g clip-path="url(#pafc2740452)">
     <use xlink:href="#m728ffb642a" x="112.271963" y="125.694852" style="stroke: #000000"/>
     <use xlink:href="#m728ffb642a" x="188.063496" y="111.223918" style="stroke: #000000"/>
     <use xlink:href="#m728ffb642a" x="263.855028" y="96.540462" style="stroke: #000000"/>
     <use xlink:href="#m728ffb642a" x="339.646561" y="80.590136" style="stroke: #000000"/>
     <use xlink:href="#m728ffb642a" x="415.438093" y="64.165049" style="stroke: #000000"/>
     <use xlink:href="#m728ffb642a" x="491.229626" y="48.169228" style="stroke: #000000"/>
     <use xlink:href="#m728ffb642a" x="567.021158" y="34.432056" style="stroke: #000000"/>
    </g>
   </g>
   <g id="line2d_129">
    <g clip-path="url(#pafc2740452)">
     <use xlink:href="#m728ffb642a" x="112.271963" y="114.172597" style="stroke: #000000"/>
     <use xlink:href="#m728ffb642a" x="188.063496" y="99.575386" style="stroke: #000000"/>
     <use xlink:href="#m728ffb642a" x="263.855028" y="83.208238" style="stroke: #000000"/>
     <use xlink:href="#m728ffb642a" x="339.646561" y="65.978243" style="stroke: #000000"/>
     <use xlink:href="#m728ffb642a" x="415.438093" y="47.585018" style="stroke: #000000"/>
     <use xlink:href="#m728ffb642a" x="491.229626" y="32.295734" style="stroke: #000000"/>
     <use xlink:href="#m728ffb642a" x="567.021158" y="16.542857" style="stroke: #000000"/>
    </g>
   </g>
   <g id="patch_31">
    <path d="M 56.591714 275.4 
L 56.591714 3.6 
" style="fill: none; stroke: #000000; stroke-width: 0.5; stroke-linejoin: miter; stroke-linecap: square"/>
   </g>
   <g id="patch_32">
    <path d="M 614.591714 275.4 
L 614.591714 3.6 
" style="fill: none; stroke: #000000; stroke-width: 0.5; stroke-linejoin: miter; stroke-linecap: square"/>
   </g>
   <g id="patch_33">
    <path d="M 56.591714 275.4 
L 614.591714 275.4 
" style="fill: none; stroke: #000000; stroke-width: 0.5; stroke-linejoin: miter; stroke-linecap: square"/>
   </g>
   <g id="patch_34">
    <path d="M 56.591714 3.6 
L 614.591714 3.6 
" style="fill: none; stroke: #000000; stroke-width: 0.5; stroke-linejoin: miter; stroke-linecap: square"/>
   </g>
   <g id="legend_1">
    <g id="patch_35">
     <path d="M 377.049323 266.4 
L 601.991714 266.4 
Q 605.591714 266.4 605.591714 262.8 
L 605.591714 164.247743 
Q 605.591714 160.647743 601.991714 160.647743 
L 377.049323 160.647743 
Q 373.449323 160.647743 373.449323 164.247743 
L 373.449323 262.8 
Q 373.449323 266.4 377.049323 266.4 
z
" style="fill: #ffffff; stroke: #cccccc; stroke-linejoin: miter"/>
    </g>
    <g id="patch_36">
     <path d="M 380.649323 180.447743 
L 416.649323 180.447743 
L 416.649323 167.847743 
L 380.649323 167.847743 
z
" style="fill: #0c5da5"/>
    </g>
    <g id="text_15">
     <!-- Negative Elektrode -->
     <g transform="translate(431.049323 180.447743)scale(0.18 -0.18)">
      <defs>
       <path id="CMR17-76" d="M 2502 2163 
C 2560 2304 2662 2560 3034 2560 
L 3034 2726 
C 2912 2726 2752 2726 2630 2726 
C 2496 2726 2285 2726 2157 2732 
L 2157 2566 
C 2317 2553 2406 2477 2406 2311 
C 2406 2253 2406 2240 2368 2151 
L 1664 377 
L 902 2286 
C 864 2369 864 2381 864 2407 
C 864 2560 1075 2560 1171 2560 
L 1171 2732 
C 1018 2726 736 2726 576 2726 
C 403 2726 205 2726 64 2732 
L 64 2560 
C 307 2560 442 2560 518 2362 
L 1446 44 
C 1485 -51 1491 -64 1549 -64 
C 1606 -64 1613 -51 1651 44 
L 2502 2163 
z
" transform="scale(0.015625)"/>
       <path id="CMR17-45" d="M 3885 1615 
L 3770 1615 
C 3629 676 3546 166 2419 166 
L 1530 166 
C 1274 166 1261 197 1261 414 
L 1261 2176 
L 1862 2176 
C 2464 2176 2522 1960 2522 1430 
L 2637 1430 
L 2637 3081 
L 2522 3081 
C 2522 2557 2464 2342 1862 2342 
L 1261 2342 
L 1261 3913 
C 1261 4128 1274 4160 1530 4160 
L 2406 4160 
C 3398 4160 3514 3769 3603 2929 
L 3718 2929 
L 3565 4325 
L 326 4325 
L 326 4160 
C 768 4160 838 4160 838 3874 
L 838 451 
C 838 166 768 166 326 166 
L 326 0 
L 3654 0 
L 3885 1615 
z
" transform="scale(0.015625)"/>
       <path id="CMR17-6b" d="M 1670 1673 
C 1664 1686 1632 1724 1632 1743 
C 1632 1756 2086 2171 2144 2222 
C 2509 2528 2739 2560 2906 2560 
L 2906 2733 
C 2867 2733 2854 2733 2848 2720 
L 2534 2720 
C 2355 2720 2080 2720 1907 2733 
L 1907 2566 
C 1997 2559 2061 2508 2061 2419 
C 2061 2291 1933 2170 1926 2170 
L 960 1289 
L 960 4396 
L 198 4326 
L 198 4160 
C 576 4160 634 4122 634 3817 
L 634 426 
C 634 184 608 153 198 153 
L 198 -13 
C 352 0 634 0 794 0 
C 954 0 1235 0 1389 -13 
L 1389 153 
C 979 153 954 178 954 428 
L 954 1130 
L 1395 1532 
L 2042 574 
C 2118 459 2182 369 2182 286 
C 2182 172 2067 153 1990 153 
L 1990 -13 
C 2144 0 2419 0 2579 0 
C 2694 0 2931 0 3040 0 
L 3040 153 
C 2739 153 2669 210 2477 491 
L 1670 1673 
z
" transform="scale(0.015625)"/>
       <path id="CMR17-6f" d="M 2758 1356 
C 2758 2176 2163 2816 1466 2816 
C 768 2816 173 2176 173 1356 
C 173 551 768 -64 1466 -64 
C 2163 -64 2758 551 2758 1356 
z
M 1466 51 
C 1165 51 909 230 762 480 
C 602 767 582 1126 582 1408 
C 582 1677 595 2010 762 2298 
C 890 2509 1139 2714 1466 2714 
C 1754 2714 1997 2554 2150 2330 
C 2349 2029 2349 1607 2349 1408 
C 2349 1158 2336 775 2163 467 
C 1984 173 1709 51 1466 51 
z
" transform="scale(0.015625)"/>
      </defs>
      <use xlink:href="#CMR17-4e" transform="scale(0.996264)"/>
      <use xlink:href="#CMR17-65" transform="translate(69.07243 0)scale(0.996264)"/>
      <use xlink:href="#CMR17-67" transform="translate(109.55809 0)scale(0.996264)"/>
      <use xlink:href="#CMR17-61" transform="translate(155.248567 0)scale(0.996264)"/>
      <use xlink:href="#CMR17-74" transform="translate(200.939045 0)scale(0.996264)"/>
      <use xlink:href="#CMR17-69" transform="translate(236.219812 0)scale(0.996264)"/>
      <use xlink:href="#CMR17-76" transform="translate(261.090871 0)scale(0.996264)"/>
      <use xlink:href="#CMR17-65" transform="translate(306.781333 0)scale(0.996264)"/>
      <use xlink:href="#CMR17-45" transform="translate(377.34296 0)scale(0.996264)"/>
      <use xlink:href="#CMR17-6c" transform="translate(439.92926 0)scale(0.996264)"/>
      <use xlink:href="#CMR17-65" transform="translate(464.800319 0)scale(0.996264)"/>
      <use xlink:href="#CMR17-6b" transform="translate(505.285979 0)scale(0.996264)"/>
      <use xlink:href="#CMR17-74" transform="translate(553.578895 0)scale(0.996264)"/>
      <use xlink:href="#CMR17-72" transform="translate(588.859663 0)scale(0.996264)"/>
      <use xlink:href="#CMR17-6f" transform="translate(624.14043 0)scale(0.996264)"/>
      <use xlink:href="#CMR17-64" transform="translate(672.433346 0)scale(0.996264)"/>
      <use xlink:href="#CMR17-65" transform="translate(723.328716 0)scale(0.996264)"/>
     </g>
    </g>
    <g id="patch_37">
     <path d="M 380.649323 205.535807 
L 416.649323 205.535807 
L 416.649323 192.935807 
L 380.649323 192.935807 
z
" style="fill: #00b945"/>
    </g>
    <g id="text_16">
     <!-- Erde zu neg. Elektrode -->
     <g transform="translate(431.049323 205.535807)scale(0.18 -0.18)">
      <defs>
       <path id="CMR17-2e" d="M 1062 261 
C 1062 420 934 522 800 522 
C 672 522 538 420 538 261 
C 538 102 666 0 800 0 
C 928 0 1062 102 1062 261 
z
" transform="scale(0.015625)"/>
      </defs>
      <use xlink:href="#CMR17-45" transform="scale(0.996264)"/>
      <use xlink:href="#CMR17-72" transform="translate(62.586301 0)scale(0.996264)"/>
      <use xlink:href="#CMR17-64" transform="translate(97.867068 0)scale(0.996264)"/>
      <use xlink:href="#CMR17-65" transform="translate(148.762438 0)scale(0.996264)"/>
      <use xlink:href="#CMR17-7a" transform="translate(219.324065 0)scale(0.996264)"/>
      <use xlink:href="#CMR17-75" transform="translate(259.809725 0)scale(0.996264)"/>
      <use xlink:href="#CMR17-6e" transform="translate(340.781061 0)scale(0.996264)"/>
      <use xlink:href="#CMR17-65" transform="translate(391.676431 0)scale(0.996264)"/>
      <use xlink:href="#CMR17-67" transform="translate(432.162092 0)scale(0.996264)"/>
      <use xlink:href="#CMR17-2e" transform="translate(477.852569 0)scale(0.996264)"/>
      <use xlink:href="#CMR17-45" transform="translate(543.209288 0)scale(0.996264)"/>
      <use xlink:href="#CMR17-6c" transform="translate(605.795588 0)scale(0.996264)"/>
      <use xlink:href="#CMR17-65" transform="translate(630.666647 0)scale(0.996264)"/>
      <use xlink:href="#CMR17-6b" transform="translate(671.152307 0)scale(0.996264)"/>
      <use xlink:href="#CMR17-74" transform="translate(719.445223 0)scale(0.996264)"/>
      <use xlink:href="#CMR17-72" transform="translate(754.725991 0)scale(0.996264)"/>
      <use xlink:href="#CMR17-6f" transform="translate(790.006759 0)scale(0.996264)"/>
      <use xlink:href="#CMR17-64" transform="translate(838.299675 0)scale(0.996264)"/>
      <use xlink:href="#CMR17-65" transform="translate(889.195044 0)scale(0.996264)"/>
     </g>
    </g>
    <g id="patch_38">
     <path d="M 380.649323 230.623872 
L 416.649323 230.623872 
L 416.649323 218.023872 
L 380.649323 218.023872 
z
" style="fill: #ff9500"/>
    </g>
    <g id="text_17">
     <!-- Positive Elektrode -->
     <g transform="translate(431.049323 230.623872)scale(0.18 -0.18)">
      <defs>
       <path id="CMR17-50" d="M 1267 2042 
L 2291 2042 
C 3117 2042 3718 2578 3718 3184 
C 3718 3791 3130 4352 2291 4352 
L 333 4352 
L 333 4186 
C 774 4186 845 4186 845 3899 
L 845 446 
C 845 160 774 160 333 160 
L 333 0 
C 518 0 858 0 1056 0 
C 1254 0 1594 0 1779 0 
L 1779 160 
C 1338 160 1267 160 1267 446 
L 1267 2042 
z
M 1254 2176 
L 1254 3938 
C 1254 4155 1267 4186 1523 4186 
L 2170 4186 
C 2995 4186 3232 3714 3232 3184 
C 3232 2604 2950 2176 2170 2176 
L 1254 2176 
z
" transform="scale(0.015625)"/>
      </defs>
      <use xlink:href="#CMR17-50" transform="scale(0.996264)"/>
      <use xlink:href="#CMR17-6f" transform="translate(59.983847 0)scale(0.996264)"/>
      <use xlink:href="#CMR17-73" transform="translate(105.674324 0)scale(0.996264)"/>
      <use xlink:href="#CMR17-69" transform="translate(141.475661 0)scale(0.996264)"/>
      <use xlink:href="#CMR17-74" transform="translate(166.34672 0)scale(0.996264)"/>
      <use xlink:href="#CMR17-69" transform="translate(201.627488 0)scale(0.996264)"/>
      <use xlink:href="#CMR17-76" transform="translate(226.498546 0)scale(0.996264)"/>
      <use xlink:href="#CMR17-65" transform="translate(272.189008 0)scale(0.996264)"/>
      <use xlink:href="#CMR17-45" transform="translate(342.750635 0)scale(0.996264)"/>
      <use xlink:href="#CMR17-6c" transform="translate(405.336935 0)scale(0.996264)"/>
      <use xlink:href="#CMR17-65" transform="translate(430.207994 0)scale(0.996264)"/>
      <use xlink:href="#CMR17-6b" transform="translate(470.693654 0)scale(0.996264)"/>
      <use xlink:href="#CMR17-74" transform="translate(518.98657 0)scale(0.996264)"/>
      <use xlink:href="#CMR17-72" transform="translate(554.267338 0)scale(0.996264)"/>
      <use xlink:href="#CMR17-6f" transform="translate(589.548106 0)scale(0.996264)"/>
      <use xlink:href="#CMR17-64" transform="translate(637.841022 0)scale(0.996264)"/>
      <use xlink:href="#CMR17-65" transform="translate(688.736391 0)scale(0.996264)"/>
     </g>
    </g>
    <g id="patch_39">
     <path d="M 380.649323 255.711936 
L 416.649323 255.711936 
L 416.649323 243.111936 
L 380.649323 243.111936 
z
" style="fill: #ff2c00"/>
    </g>
    <g id="text_18">
     <!-- Erde zu pos. Elektrode -->
     <g transform="translate(431.049323 255.711936)scale(0.18 -0.18)">
      <use xlink:href="#CMR17-45" transform="scale(0.996264)"/>
      <use xlink:href="#CMR17-72" transform="translate(62.586301 0)scale(0.996264)"/>
      <use xlink:href="#CMR17-64" transform="translate(97.867068 0)scale(0.996264)"/>
      <use xlink:href="#CMR17-65" transform="translate(148.762438 0)scale(0.996264)"/>
      <use xlink:href="#CMR17-7a" transform="translate(219.324065 0)scale(0.996264)"/>
      <use xlink:href="#CMR17-75" transform="translate(259.809725 0)scale(0.996264)"/>
      <use xlink:href="#CMR17-70" transform="translate(340.781061 0)scale(0.996264)"/>
      <use xlink:href="#CMR17-6f" transform="translate(394.27887 0)scale(0.996264)"/>
      <use xlink:href="#CMR17-73" transform="translate(439.969347 0)scale(0.996264)"/>
      <use xlink:href="#CMR17-2e" transform="translate(475.770685 0)scale(0.996264)"/>
      <use xlink:href="#CMR17-45" transform="translate(541.127404 0)scale(0.996264)"/>
      <use xlink:href="#CMR17-6c" transform="translate(603.713704 0)scale(0.996264)"/>
      <use xlink:href="#CMR17-65" transform="translate(628.584763 0)scale(0.996264)"/>
      <use xlink:href="#CMR17-6b" transform="translate(669.070423 0)scale(0.996264)"/>
      <use xlink:href="#CMR17-74" transform="translate(717.363339 0)scale(0.996264)"/>
      <use xlink:href="#CMR17-72" transform="translate(752.644107 0)scale(0.996264)"/>
      <use xlink:href="#CMR17-6f" transform="translate(787.924875 0)scale(0.996264)"/>
      <use xlink:href="#CMR17-64" transform="translate(836.21779 0)scale(0.996264)"/>
      <use xlink:href="#CMR17-65" transform="translate(887.11316 0)scale(0.996264)"/>
     </g>
    </g>
   </g>
  </g>
 </g>
 <defs>
  <clipPath id="pafc2740452">
   <rect x="56.591714" y="3.6" width="558" height="271.8"/>
  </clipPath>
 </defs>
</svg>
