<?xml version="1.0" encoding="utf-8" standalone="no"?>
<!DOCTYPE svg PUBLIC "-//W3C//DTD SVG 1.1//EN"
  "http://www.w3.org/Graphics/SVG/1.1/DTD/svg11.dtd">
<svg xmlns:xlink="http://www.w3.org/1999/xlink" width="626.416pt" height="352.801364pt" viewBox="0 0 626.416 352.801364" xmlns="http://www.w3.org/2000/svg" version="1.1">
 <metadata>
  <rdf:RDF xmlns:dc="http://purl.org/dc/elements/1.1/" xmlns:cc="http://creativecommons.org/ns#" xmlns:rdf="http://www.w3.org/1999/02/22-rdf-syntax-ns#">
   <cc:Work>
    <dc:type rdf:resource="http://purl.org/dc/dcmitype/StillImage"/>
    <dc:date>2023-02-06T09:18:18.505215</dc:date>
    <dc:format>image/svg+xml</dc:format>
    <dc:creator>
     <cc:Agent>
      <dc:title>Matplotlib v3.5.1, https://matplotlib.org/</dc:title>
     </cc:Agent>
    </dc:creator>
   </cc:Work>
  </rdf:RDF>
 </metadata>
 <defs>
  <style type="text/css">*{stroke-linejoin: round; stroke-linecap: butt}</style>
 </defs>
 <g id="figure_1">
  <g id="patch_1">
   <path d="M -0 352.801364 
L 626.416 352.801364 
L 626.416 0 
L -0 0 
L -0 352.801364 
z
" style="fill: none"/>
  </g>
  <g id="axes_1">
   <g id="patch_2">
    <path d="M 64.816 329.76 
L 622.816 329.76 
L 622.816 3.6 
L 64.816 3.6 
z
" style="fill: #ffffff"/>
   </g>
   <g id="matplotlib.axis_1">
    <g id="xtick_1">
     <g id="line2d_1">
      <defs>
       <path id="mae75898b5e" d="M 0 0 
L 0 -3 
" style="stroke: #000000; stroke-width: 0.5"/>
      </defs>
      <g>
       <use xlink:href="#mae75898b5e" x="161.736772" y="329.76" style="stroke: #000000; stroke-width: 0.5"/>
      </g>
     </g>
     <g id="line2d_2">
      <defs>
       <path id="m829b734873" d="M 0 0 
L 0 3 
" style="stroke: #000000; stroke-width: 0.5"/>
      </defs>
      <g>
       <use xlink:href="#m829b734873" x="161.736772" y="3.6" style="stroke: #000000; stroke-width: 0.5"/>
      </g>
     </g>
     <g id="text_1">
      <!-- Kupfer -->
      <g transform="translate(136.833304 345.7133)scale(0.18 -0.18)">
       <defs>
        <path id="CMR17-4b" d="M 2362 2675 
L 3469 3782 
C 3699 4006 3942 4186 4301 4186 
L 4301 4352 
C 4173 4352 4013 4352 3885 4352 
C 3712 4352 3411 4352 3245 4358 
L 3245 4192 
C 3411 4180 3437 4065 3437 4019 
C 3437 3975 3411 3905 3386 3867 
L 1261 1738 
L 1261 3900 
C 1261 4186 1331 4186 1773 4186 
L 1773 4352 
C 1587 4352 1248 4352 1050 4352 
C 851 4352 512 4352 326 4352 
L 326 4186 
C 768 4186 838 4186 838 3899 
L 838 446 
C 838 160 768 160 326 160 
L 326 0 
C 512 0 851 0 1050 0 
C 1248 0 1587 0 1773 0 
L 1773 160 
C 1331 160 1261 160 1261 447 
L 1261 1579 
L 2080 2390 
L 3290 537 
C 3328 473 3373 390 3373 326 
C 3373 160 3194 160 3110 160 
L 3110 0 
C 3315 0 3610 0 3821 0 
C 3974 0 4237 0 4384 -6 
L 4384 160 
C 4077 160 3981 198 3789 493 
L 2362 2675 
z
" transform="scale(0.015625)"/>
        <path id="CMR17-75" d="M 1882 2693 
L 1882 2528 
C 2259 2528 2317 2489 2317 2186 
L 2317 1032 
C 2317 500 2029 38 1555 38 
C 1030 38 986 348 986 678 
L 986 2763 
L 211 2693 
L 211 2528 
C 467 2528 640 2528 646 2274 
L 646 1058 
C 646 633 646 361 813 183 
C 896 101 1056 -64 1517 -64 
C 2061 -64 2272 377 2323 506 
L 2330 506 
L 2330 -63 
L 3091 -63 
L 3091 128 
C 2714 128 2656 166 2656 473 
L 2656 2763 
L 1882 2693 
z
" transform="scale(0.015625)"/>
        <path id="CMR17-70" d="M 1408 -1063 
C 998 -1063 973 -1037 973 -789 
L 973 402 
C 1158 134 1427 -38 1766 -38 
C 2406 -38 3053 523 3053 1388 
C 3053 2191 2496 2802 1837 2802 
C 1453 2802 1139 2592 960 2338 
L 960 2802 
L 198 2732 
L 198 2567 
C 576 2567 634 2528 634 2223 
L 634 -789 
C 634 -1031 608 -1063 198 -1063 
L 198 -1228 
C 352 -1216 634 -1216 800 -1216 
C 966 -1216 1254 -1216 1408 -1228 
L 1408 -1063 
z
M 973 2012 
C 973 2102 973 2235 1222 2471 
C 1254 2497 1472 2688 1792 2688 
C 2259 2688 2643 2108 2643 1382 
C 2643 656 2234 64 1728 64 
C 1498 64 1248 172 1056 472 
C 973 612 973 650 973 752 
L 973 2012 
z
" transform="scale(0.015625)"/>
        <path id="CMR17-66" d="M 979 2560 
L 1709 2560 
L 1709 2725 
L 966 2725 
L 966 3494 
C 966 4022 1235 4352 1510 4352 
C 1594 4352 1690 4327 1754 4282 
C 1702 4269 1568 4225 1568 4067 
C 1568 3901 1696 3850 1786 3850 
C 1875 3850 2003 3901 2003 4067 
C 2003 4308 1773 4454 1517 4454 
C 1152 4454 653 4156 653 3481 
L 653 2725 
L 141 2725 
L 141 2560 
L 653 2560 
L 653 427 
C 653 184 627 153 218 153 
L 218 -13 
C 371 0 666 0 832 0 
C 1018 0 1344 0 1517 -13 
L 1517 153 
C 1056 153 979 153 979 439 
L 979 2560 
z
" transform="scale(0.015625)"/>
        <path id="CMR17-65" d="M 2438 1472 
C 2464 1498 2464 1511 2464 1576 
C 2464 2238 2118 2816 1389 2816 
C 710 2816 173 2169 173 1383 
C 173 551 781 -64 1459 -64 
C 2176 -64 2458 607 2458 740 
C 2458 784 2419 784 2406 784 
C 2362 784 2355 771 2330 696 
C 2189 265 1837 51 1504 51 
C 1229 51 954 203 781 480 
C 582 803 582 1176 582 1472 
L 2438 1472 
z
M 589 1568 
C 634 2505 1126 2714 1382 2714 
C 1818 2714 2112 2297 2118 1568 
L 589 1568 
z
" transform="scale(0.015625)"/>
        <path id="CMR17-72" d="M 960 1497 
C 960 2112 1222 2688 1702 2688 
C 1747 2688 1792 2682 1837 2662 
C 1837 2662 1696 2617 1696 2452 
C 1696 2298 1818 2234 1914 2234 
C 1990 2234 2131 2279 2131 2458 
C 2131 2663 1926 2790 1709 2790 
C 1222 2790 1011 2317 947 2093 
L 941 2093 
L 941 2790 
L 198 2720 
L 198 2554 
C 576 2554 634 2515 634 2208 
L 634 428 
C 634 184 608 153 198 153 
L 198 -13 
C 352 0 646 0 813 0 
C 998 0 1325 0 1498 -13 
L 1498 153 
C 1037 153 960 153 960 440 
L 960 1497 
z
" transform="scale(0.015625)"/>
       </defs>
       <use xlink:href="#CMR17-4b" transform="scale(0.996264)"/>
       <use xlink:href="#CMR17-75" transform="translate(71.674777 0)scale(0.996264)"/>
       <use xlink:href="#CMR17-70" transform="translate(122.570147 0)scale(0.996264)"/>
       <use xlink:href="#CMR17-66" transform="translate(173.465517 0)scale(0.996264)"/>
       <use xlink:href="#CMR17-65" transform="translate(200.939029 0)scale(0.996264)"/>
       <use xlink:href="#CMR17-72" transform="translate(241.42469 0)scale(0.996264)"/>
      </g>
     </g>
    </g>
    <g id="xtick_2">
     <g id="line2d_3">
      <g>
       <use xlink:href="#mae75898b5e" x="343.816" y="329.76" style="stroke: #000000; stroke-width: 0.5"/>
      </g>
     </g>
     <g id="line2d_4">
      <g>
       <use xlink:href="#m829b734873" x="343.816" y="3.6" style="stroke: #000000; stroke-width: 0.5"/>
      </g>
     </g>
     <g id="text_2">
      <!-- Tantal -->
      <g transform="translate(320.548471 345.7133)scale(0.18 -0.18)">
       <defs>
        <path id="CMR17-54" d="M 3981 4326 
L 288 4326 
L 179 2918 
L 294 2918 
C 378 3976 467 4160 1453 4160 
C 1568 4160 1754 4160 1805 4154 
C 1926 4135 1926 4058 1926 3912 
L 1926 459 
C 1926 230 1907 160 1376 160 
L 1197 160 
L 1197 0 
C 1504 0 1824 0 2138 0 
C 2451 0 2771 0 3078 0 
L 3078 160 
L 2899 160 
C 2368 160 2349 230 2349 459 
L 2349 3912 
C 2349 4052 2349 4129 2464 4154 
C 2515 4160 2701 4160 2816 4160 
C 3795 4160 3891 3976 3974 2918 
L 4090 2918 
L 3981 4326 
z
" transform="scale(0.015625)"/>
        <path id="CMR17-61" d="M 2304 1653 
C 2304 2072 2304 2294 2035 2543 
C 1798 2752 1523 2816 1306 2816 
C 800 2816 435 2407 435 1971 
C 435 1728 627 1728 666 1728 
C 749 1728 896 1778 896 1954 
C 896 2112 774 2181 666 2181 
C 640 2181 608 2174 589 2168 
C 723 2592 1069 2714 1293 2714 
C 1613 2714 1965 2429 1965 1885 
L 1965 1600 
C 1587 1600 1133 1549 774 1357 
C 371 1133 256 813 256 570 
C 256 77 832 -64 1171 -64 
C 1523 -64 1850 139 1990 511 
C 2003 233 2182 -18 2464 -18 
C 2598 -18 2938 70 2938 567 
L 2938 920 
L 2822 920 
L 2822 562 
C 2822 178 2650 128 2566 128 
C 2304 128 2304 458 2304 738 
L 2304 1653 
z
M 1965 870 
C 1965 317 1568 38 1216 38 
C 896 38 646 275 646 570 
C 646 761 730 1100 1101 1305 
C 1408 1478 1760 1504 1965 1504 
L 1965 870 
z
" transform="scale(0.015625)"/>
        <path id="CMR17-6e" d="M 2656 1933 
C 2656 2259 2592 2790 1837 2790 
C 1331 2790 1069 2400 973 2144 
L 966 2144 
L 966 2790 
L 211 2720 
L 211 2554 
C 589 2554 646 2515 646 2208 
L 646 428 
C 646 184 621 153 211 153 
L 211 -13 
C 365 0 646 0 813 0 
C 979 0 1267 0 1421 -13 
L 1421 153 
C 1011 153 986 178 986 428 
L 986 1658 
C 986 2247 1344 2688 1792 2688 
C 2266 2688 2317 2266 2317 1958 
L 2317 428 
C 2317 184 2291 153 1882 153 
L 1882 -13 
C 2035 0 2317 0 2483 0 
C 2650 0 2938 0 3091 -13 
L 3091 153 
C 2682 153 2656 178 2656 428 
L 2656 1933 
z
" transform="scale(0.015625)"/>
        <path id="CMR17-74" d="M 966 2560 
L 1862 2560 
L 1862 2725 
L 966 2725 
L 966 3904 
L 851 3904 
C 838 3245 614 2668 70 2668 
L 70 2560 
L 627 2560 
L 627 771 
C 627 650 627 -64 1370 -64 
C 1747 -64 1965 306 1965 777 
L 1965 1140 
L 1850 1140 
L 1850 783 
C 1850 344 1677 51 1408 51 
C 1222 51 966 178 966 758 
L 966 2560 
z
" transform="scale(0.015625)"/>
        <path id="CMR17-6c" d="M 979 4396 
L 218 4326 
L 218 4160 
C 595 4160 653 4122 653 3817 
L 653 426 
C 653 184 627 153 218 153 
L 218 -13 
C 371 0 653 0 813 0 
C 979 0 1261 0 1414 -13 
L 1414 153 
C 1005 153 979 178 979 426 
L 979 4396 
z
" transform="scale(0.015625)"/>
       </defs>
       <use xlink:href="#CMR17-54" transform="scale(0.996264)"/>
       <use xlink:href="#CMR17-61" transform="translate(58.702625 0)scale(0.996264)"/>
       <use xlink:href="#CMR17-6e" transform="translate(104.393102 0)scale(0.996264)"/>
       <use xlink:href="#CMR17-74" transform="translate(152.686018 0)scale(0.996264)"/>
       <use xlink:href="#CMR17-61" transform="translate(187.966786 0)scale(0.996264)"/>
       <use xlink:href="#CMR17-6c" transform="translate(233.657263 0)scale(0.996264)"/>
      </g>
     </g>
    </g>
    <g id="xtick_3">
     <g id="line2d_5">
      <g>
       <use xlink:href="#mae75898b5e" x="525.895227" y="329.76" style="stroke: #000000; stroke-width: 0.5"/>
      </g>
     </g>
     <g id="line2d_6">
      <g>
       <use xlink:href="#m829b734873" x="525.895227" y="3.6" style="stroke: #000000; stroke-width: 0.5"/>
      </g>
     </g>
     <g id="text_3">
      <!-- Edelstahl -->
      <g transform="translate(492.471289 345.7133)scale(0.18 -0.18)">
       <defs>
        <path id="CMR17-45" d="M 3885 1615 
L 3770 1615 
C 3629 676 3546 166 2419 166 
L 1530 166 
C 1274 166 1261 197 1261 414 
L 1261 2176 
L 1862 2176 
C 2464 2176 2522 1960 2522 1430 
L 2637 1430 
L 2637 3081 
L 2522 3081 
C 2522 2557 2464 2342 1862 2342 
L 1261 2342 
L 1261 3913 
C 1261 4128 1274 4160 1530 4160 
L 2406 4160 
C 3398 4160 3514 3769 3603 2929 
L 3718 2929 
L 3565 4325 
L 326 4325 
L 326 4160 
C 768 4160 838 4160 838 3874 
L 838 451 
C 838 166 768 166 326 166 
L 326 0 
L 3654 0 
L 3885 1615 
z
" transform="scale(0.015625)"/>
        <path id="CMR17-64" d="M 1869 4326 
L 1869 4160 
C 2246 4160 2304 4122 2304 3820 
L 2304 2345 
C 2278 2377 2016 2790 1498 2790 
C 845 2790 211 2208 211 1364 
C 211 525 806 -64 1434 -64 
C 1978 -64 2259 337 2291 380 
L 2291 -63 
L 3066 -63 
L 3066 128 
C 2688 128 2630 166 2630 473 
L 2630 4396 
L 1869 4326 
z
M 2291 755 
C 2291 563 2176 390 2029 262 
C 1811 70 1594 38 1472 38 
C 1286 38 621 134 621 1356 
C 621 2612 1363 2688 1530 2688 
C 1824 2688 2061 2522 2208 2291 
C 2291 2157 2291 2138 2291 2023 
L 2291 755 
z
" transform="scale(0.015625)"/>
        <path id="CMR17-73" d="M 1978 2697 
C 1978 2813 1971 2819 1933 2819 
C 1907 2819 1901 2813 1824 2717 
C 1805 2691 1747 2626 1728 2601 
C 1523 2819 1235 2819 1126 2819 
C 416 2819 160 2447 160 2076 
C 160 1498 813 1365 998 1325 
C 1402 1243 1542 1217 1677 1101 
C 1760 1025 1901 884 1901 654 
C 1901 384 1747 38 1158 38 
C 602 38 403 460 288 1021 
C 269 1110 269 1117 218 1117 
C 166 1117 160 1110 160 983 
L 160 63 
C 160 -51 166 -58 205 -58 
C 237 -58 243 -51 275 0 
C 314 57 410 211 448 276 
C 576 103 800 -64 1158 -64 
C 1792 -64 2131 283 2131 784 
C 2131 1112 1958 1285 1875 1362 
C 1683 1561 1459 1606 1190 1657 
C 838 1735 390 1825 390 2217 
C 390 2383 480 2737 1126 2737 
C 1811 2737 1850 2094 1862 1888 
C 1869 1856 1901 1849 1920 1849 
C 1978 1849 1978 1869 1978 1978 
L 1978 2697 
z
" transform="scale(0.015625)"/>
        <path id="CMR17-68" d="M 2656 1933 
C 2656 2259 2592 2790 1837 2790 
C 1312 2790 1056 2368 979 2157 
L 973 2157 
L 973 4396 
L 211 4326 
L 211 4160 
C 589 4160 646 4122 646 3817 
L 646 426 
C 646 184 621 153 211 153 
L 211 -13 
C 365 0 646 0 813 0 
C 979 0 1267 0 1421 -13 
L 1421 153 
C 1011 153 986 178 986 428 
L 986 1658 
C 986 2247 1344 2688 1792 2688 
C 2266 2688 2317 2266 2317 1958 
L 2317 428 
C 2317 184 2291 153 1882 153 
L 1882 -13 
C 2035 0 2317 0 2483 0 
C 2650 0 2938 0 3091 -13 
L 3091 153 
C 2682 153 2656 178 2656 428 
L 2656 1933 
z
" transform="scale(0.015625)"/>
       </defs>
       <use xlink:href="#CMR17-45" transform="scale(0.996264)"/>
       <use xlink:href="#CMR17-64" transform="translate(62.586301 0)scale(0.996264)"/>
       <use xlink:href="#CMR17-65" transform="translate(113.48167 0)scale(0.996264)"/>
       <use xlink:href="#CMR17-6c" transform="translate(153.967331 0)scale(0.996264)"/>
       <use xlink:href="#CMR17-73" transform="translate(178.838389 0)scale(0.996264)"/>
       <use xlink:href="#CMR17-74" transform="translate(214.639727 0)scale(0.996264)"/>
       <use xlink:href="#CMR17-61" transform="translate(249.920495 0)scale(0.996264)"/>
       <use xlink:href="#CMR17-68" transform="translate(295.610972 0)scale(0.996264)"/>
       <use xlink:href="#CMR17-6c" transform="translate(346.506342 0)scale(0.996264)"/>
      </g>
     </g>
    </g>
    <g id="xtick_4">
     <g id="line2d_7">
      <defs>
       <path id="mc2bc93f14f" d="M 0 0 
L 0 -1.5 
" style="stroke: #000000; stroke-width: 0.5"/>
      </defs>
      <g>
       <use xlink:href="#mc2bc93f14f" x="88.905081" y="329.76" style="stroke: #000000; stroke-width: 0.5"/>
      </g>
     </g>
     <g id="line2d_8">
      <defs>
       <path id="ma91483c9e8" d="M 0 0 
L 0 1.5 
" style="stroke: #000000; stroke-width: 0.5"/>
      </defs>
      <g>
       <use xlink:href="#ma91483c9e8" x="88.905081" y="3.6" style="stroke: #000000; stroke-width: 0.5"/>
      </g>
     </g>
    </g>
    <g id="xtick_5">
     <g id="line2d_9">
      <g>
       <use xlink:href="#mc2bc93f14f" x="125.320927" y="329.76" style="stroke: #000000; stroke-width: 0.5"/>
      </g>
     </g>
     <g id="line2d_10">
      <g>
       <use xlink:href="#ma91483c9e8" x="125.320927" y="3.6" style="stroke: #000000; stroke-width: 0.5"/>
      </g>
     </g>
    </g>
    <g id="xtick_6">
     <g id="line2d_11">
      <g>
       <use xlink:href="#mc2bc93f14f" x="198.152618" y="329.76" style="stroke: #000000; stroke-width: 0.5"/>
      </g>
     </g>
     <g id="line2d_12">
      <g>
       <use xlink:href="#ma91483c9e8" x="198.152618" y="3.6" style="stroke: #000000; stroke-width: 0.5"/>
      </g>
     </g>
    </g>
    <g id="xtick_7">
     <g id="line2d_13">
      <g>
       <use xlink:href="#mc2bc93f14f" x="234.568463" y="329.76" style="stroke: #000000; stroke-width: 0.5"/>
      </g>
     </g>
     <g id="line2d_14">
      <g>
       <use xlink:href="#ma91483c9e8" x="234.568463" y="3.6" style="stroke: #000000; stroke-width: 0.5"/>
      </g>
     </g>
    </g>
    <g id="xtick_8">
     <g id="line2d_15">
      <g>
       <use xlink:href="#mc2bc93f14f" x="270.984309" y="329.76" style="stroke: #000000; stroke-width: 0.5"/>
      </g>
     </g>
     <g id="line2d_16">
      <g>
       <use xlink:href="#ma91483c9e8" x="270.984309" y="3.6" style="stroke: #000000; stroke-width: 0.5"/>
      </g>
     </g>
    </g>
    <g id="xtick_9">
     <g id="line2d_17">
      <g>
       <use xlink:href="#mc2bc93f14f" x="307.400154" y="329.76" style="stroke: #000000; stroke-width: 0.5"/>
      </g>
     </g>
     <g id="line2d_18">
      <g>
       <use xlink:href="#ma91483c9e8" x="307.400154" y="3.6" style="stroke: #000000; stroke-width: 0.5"/>
      </g>
     </g>
    </g>
    <g id="xtick_10">
     <g id="line2d_19">
      <g>
       <use xlink:href="#mc2bc93f14f" x="380.231845" y="329.76" style="stroke: #000000; stroke-width: 0.5"/>
      </g>
     </g>
     <g id="line2d_20">
      <g>
       <use xlink:href="#ma91483c9e8" x="380.231845" y="3.6" style="stroke: #000000; stroke-width: 0.5"/>
      </g>
     </g>
    </g>
    <g id="xtick_11">
     <g id="line2d_21">
      <g>
       <use xlink:href="#mc2bc93f14f" x="416.647691" y="329.76" style="stroke: #000000; stroke-width: 0.5"/>
      </g>
     </g>
     <g id="line2d_22">
      <g>
       <use xlink:href="#ma91483c9e8" x="416.647691" y="3.6" style="stroke: #000000; stroke-width: 0.5"/>
      </g>
     </g>
    </g>
    <g id="xtick_12">
     <g id="line2d_23">
      <g>
       <use xlink:href="#mc2bc93f14f" x="453.063536" y="329.76" style="stroke: #000000; stroke-width: 0.5"/>
      </g>
     </g>
     <g id="line2d_24">
      <g>
       <use xlink:href="#ma91483c9e8" x="453.063536" y="3.6" style="stroke: #000000; stroke-width: 0.5"/>
      </g>
     </g>
    </g>
    <g id="xtick_13">
     <g id="line2d_25">
      <g>
       <use xlink:href="#mc2bc93f14f" x="489.479382" y="329.76" style="stroke: #000000; stroke-width: 0.5"/>
      </g>
     </g>
     <g id="line2d_26">
      <g>
       <use xlink:href="#ma91483c9e8" x="489.479382" y="3.6" style="stroke: #000000; stroke-width: 0.5"/>
      </g>
     </g>
    </g>
    <g id="xtick_14">
     <g id="line2d_27">
      <g>
       <use xlink:href="#mc2bc93f14f" x="562.311072" y="329.76" style="stroke: #000000; stroke-width: 0.5"/>
      </g>
     </g>
     <g id="line2d_28">
      <g>
       <use xlink:href="#ma91483c9e8" x="562.311072" y="3.6" style="stroke: #000000; stroke-width: 0.5"/>
      </g>
     </g>
    </g>
    <g id="xtick_15">
     <g id="line2d_29">
      <g>
       <use xlink:href="#mc2bc93f14f" x="598.726918" y="329.76" style="stroke: #000000; stroke-width: 0.5"/>
      </g>
     </g>
     <g id="line2d_30">
      <g>
       <use xlink:href="#ma91483c9e8" x="598.726918" y="3.6" style="stroke: #000000; stroke-width: 0.5"/>
      </g>
     </g>
    </g>
   </g>
   <g id="matplotlib.axis_2">
    <g id="ytick_1">
     <g id="line2d_31">
      <path d="M 64.816 329.76 
L 622.816 329.76 
" clip-path="url(#pa01f62b64e)" style="fill: none; stroke-dasharray: 1.85,0.8; stroke-dashoffset: 0; stroke: #000000; stroke-opacity: 0.5; stroke-width: 0.5"/>
     </g>
     <g id="line2d_32">
      <defs>
       <path id="m79c7dc11d0" d="M 0 0 
L 3 0 
" style="stroke: #000000; stroke-width: 0.5"/>
      </defs>
      <g>
       <use xlink:href="#m79c7dc11d0" x="64.816" y="329.76" style="stroke: #000000; stroke-width: 0.5"/>
      </g>
     </g>
     <g id="line2d_33">
      <defs>
       <path id="m2c90945daa" d="M 0 0 
L -3 0 
" style="stroke: #000000; stroke-width: 0.5"/>
      </defs>
      <g>
       <use xlink:href="#m2c90945daa" x="622.816" y="329.76" style="stroke: #000000; stroke-width: 0.5"/>
      </g>
     </g>
     <g id="text_4">
      <!-- $\mathdefault{0.000}$ -->
      <g transform="translate(23.541364 335.98665)scale(0.18 -0.18)">
       <defs>
        <path id="CMR17-30" d="M 2688 2025 
C 2688 2416 2682 3080 2413 3591 
C 2176 4039 1798 4198 1466 4198 
C 1158 4198 768 4058 525 3597 
C 269 3118 243 2524 243 2025 
C 243 1661 250 1106 448 619 
C 723 -39 1216 -128 1466 -128 
C 1760 -128 2208 -7 2470 600 
C 2662 1042 2688 1559 2688 2025 
z
M 1466 -26 
C 1056 -26 813 325 723 812 
C 653 1188 653 1738 653 2096 
C 653 2588 653 2997 736 3387 
C 858 3929 1216 4096 1466 4096 
C 1728 4096 2067 3923 2189 3400 
C 2272 3036 2278 2607 2278 2096 
C 2278 1680 2278 1169 2202 792 
C 2067 95 1690 -26 1466 -26 
z
" transform="scale(0.015625)"/>
        <path id="CMMI12-3a" d="M 1178 307 
C 1178 492 1024 619 870 619 
C 685 619 557 466 557 313 
C 557 128 710 0 864 0 
C 1050 0 1178 153 1178 307 
z
" transform="scale(0.015625)"/>
       </defs>
       <use xlink:href="#CMR17-30" transform="scale(0.996264)"/>
       <use xlink:href="#CMMI12-3a" transform="translate(45.690477 0)scale(0.996264)"/>
       <use xlink:href="#CMR17-30" transform="translate(72.787654 0)scale(0.996264)"/>
       <use xlink:href="#CMR17-30" transform="translate(118.478131 0)scale(0.996264)"/>
       <use xlink:href="#CMR17-30" transform="translate(164.168608 0)scale(0.996264)"/>
      </g>
     </g>
    </g>
    <g id="ytick_2">
     <g id="line2d_34">
      <path d="M 64.816 284.932147 
L 622.816 284.932147 
" clip-path="url(#pa01f62b64e)" style="fill: none; stroke-dasharray: 1.85,0.8; stroke-dashoffset: 0; stroke: #000000; stroke-opacity: 0.5; stroke-width: 0.5"/>
     </g>
     <g id="line2d_35">
      <g>
       <use xlink:href="#m79c7dc11d0" x="64.816" y="284.932147" style="stroke: #000000; stroke-width: 0.5"/>
      </g>
     </g>
     <g id="line2d_36">
      <g>
       <use xlink:href="#m2c90945daa" x="622.816" y="284.932147" style="stroke: #000000; stroke-width: 0.5"/>
      </g>
     </g>
     <g id="text_5">
      <!-- $\mathdefault{0.025}$ -->
      <g transform="translate(23.541364 291.158797)scale(0.18 -0.18)">
       <defs>
        <path id="CMR17-32" d="M 2669 989 
L 2554 989 
C 2490 536 2438 459 2413 420 
C 2381 369 1920 369 1830 369 
L 602 369 
C 832 619 1280 1072 1824 1597 
C 2214 1967 2669 2402 2669 3035 
C 2669 3790 2067 4224 1395 4224 
C 691 4224 262 3604 262 3030 
C 262 2780 448 2748 525 2748 
C 589 2748 781 2787 781 3010 
C 781 3207 614 3264 525 3264 
C 486 3264 448 3258 422 3245 
C 544 3790 915 4058 1306 4058 
C 1862 4058 2227 3617 2227 3035 
C 2227 2479 1901 2000 1536 1584 
L 262 146 
L 262 0 
L 2515 0 
L 2669 989 
z
" transform="scale(0.015625)"/>
        <path id="CMR17-35" d="M 730 3692 
C 794 3666 1056 3584 1325 3584 
C 1920 3584 2246 3911 2432 4100 
C 2432 4157 2432 4192 2394 4192 
C 2387 4192 2374 4192 2323 4163 
C 2099 4058 1837 3973 1517 3973 
C 1325 3973 1037 3999 723 4139 
C 653 4171 640 4171 634 4171 
C 602 4171 595 4164 595 4037 
L 595 2203 
C 595 2089 595 2057 659 2057 
C 691 2057 704 2070 736 2114 
C 941 2401 1222 2522 1542 2522 
C 1766 2522 2246 2382 2246 1289 
C 2246 1085 2246 715 2054 421 
C 1894 159 1645 25 1370 25 
C 947 25 518 320 403 814 
C 429 807 480 795 506 795 
C 589 795 749 840 749 1038 
C 749 1210 627 1280 506 1280 
C 358 1280 262 1190 262 1011 
C 262 454 704 -128 1382 -128 
C 2042 -128 2669 440 2669 1264 
C 2669 2030 2170 2624 1549 2624 
C 1222 2624 947 2503 730 2274 
L 730 3692 
z
" transform="scale(0.015625)"/>
       </defs>
       <use xlink:href="#CMR17-30" transform="scale(0.996264)"/>
       <use xlink:href="#CMMI12-3a" transform="translate(45.690477 0)scale(0.996264)"/>
       <use xlink:href="#CMR17-30" transform="translate(72.787654 0)scale(0.996264)"/>
       <use xlink:href="#CMR17-32" transform="translate(118.478131 0)scale(0.996264)"/>
       <use xlink:href="#CMR17-35" transform="translate(164.168608 0)scale(0.996264)"/>
      </g>
     </g>
    </g>
    <g id="ytick_3">
     <g id="line2d_37">
      <path d="M 64.816 240.104294 
L 622.816 240.104294 
" clip-path="url(#pa01f62b64e)" style="fill: none; stroke-dasharray: 1.85,0.8; stroke-dashoffset: 0; stroke: #000000; stroke-opacity: 0.5; stroke-width: 0.5"/>
     </g>
     <g id="line2d_38">
      <g>
       <use xlink:href="#m79c7dc11d0" x="64.816" y="240.104294" style="stroke: #000000; stroke-width: 0.5"/>
      </g>
     </g>
     <g id="line2d_39">
      <g>
       <use xlink:href="#m2c90945daa" x="622.816" y="240.104294" style="stroke: #000000; stroke-width: 0.5"/>
      </g>
     </g>
     <g id="text_6">
      <!-- $\mathdefault{0.050}$ -->
      <g transform="translate(23.541364 246.330944)scale(0.18 -0.18)">
       <use xlink:href="#CMR17-30" transform="scale(0.996264)"/>
       <use xlink:href="#CMMI12-3a" transform="translate(45.690477 0)scale(0.996264)"/>
       <use xlink:href="#CMR17-30" transform="translate(72.787654 0)scale(0.996264)"/>
       <use xlink:href="#CMR17-35" transform="translate(118.478131 0)scale(0.996264)"/>
       <use xlink:href="#CMR17-30" transform="translate(164.168608 0)scale(0.996264)"/>
      </g>
     </g>
    </g>
    <g id="ytick_4">
     <g id="line2d_40">
      <path d="M 64.816 195.276441 
L 622.816 195.276441 
" clip-path="url(#pa01f62b64e)" style="fill: none; stroke-dasharray: 1.85,0.8; stroke-dashoffset: 0; stroke: #000000; stroke-opacity: 0.5; stroke-width: 0.5"/>
     </g>
     <g id="line2d_41">
      <g>
       <use xlink:href="#m79c7dc11d0" x="64.816" y="195.276441" style="stroke: #000000; stroke-width: 0.5"/>
      </g>
     </g>
     <g id="line2d_42">
      <g>
       <use xlink:href="#m2c90945daa" x="622.816" y="195.276441" style="stroke: #000000; stroke-width: 0.5"/>
      </g>
     </g>
     <g id="text_7">
      <!-- $\mathdefault{0.075}$ -->
      <g transform="translate(23.541364 201.503091)scale(0.18 -0.18)">
       <defs>
        <path id="CMR17-37" d="M 2886 3941 
L 2886 4081 
L 1382 4081 
C 634 4081 621 4165 595 4288 
L 480 4288 
L 294 3094 
L 410 3094 
C 429 3215 474 3540 550 3661 
C 589 3712 1062 3712 1171 3712 
L 2579 3712 
L 1869 2661 
C 1395 1954 1069 999 1069 165 
C 1069 89 1069 -128 1299 -128 
C 1530 -128 1530 89 1530 171 
L 1530 465 
C 1530 1508 1709 2196 2003 2636 
L 2886 3941 
z
" transform="scale(0.015625)"/>
       </defs>
       <use xlink:href="#CMR17-30" transform="scale(0.996264)"/>
       <use xlink:href="#CMMI12-3a" transform="translate(45.690477 0)scale(0.996264)"/>
       <use xlink:href="#CMR17-30" transform="translate(72.787654 0)scale(0.996264)"/>
       <use xlink:href="#CMR17-37" transform="translate(118.478131 0)scale(0.996264)"/>
       <use xlink:href="#CMR17-35" transform="translate(164.168608 0)scale(0.996264)"/>
      </g>
     </g>
    </g>
    <g id="ytick_5">
     <g id="line2d_43">
      <path d="M 64.816 150.448588 
L 622.816 150.448588 
" clip-path="url(#pa01f62b64e)" style="fill: none; stroke-dasharray: 1.85,0.8; stroke-dashoffset: 0; stroke: #000000; stroke-opacity: 0.5; stroke-width: 0.5"/>
     </g>
     <g id="line2d_44">
      <g>
       <use xlink:href="#m79c7dc11d0" x="64.816" y="150.448588" style="stroke: #000000; stroke-width: 0.5"/>
      </g>
     </g>
     <g id="line2d_45">
      <g>
       <use xlink:href="#m2c90945daa" x="622.816" y="150.448588" style="stroke: #000000; stroke-width: 0.5"/>
      </g>
     </g>
     <g id="text_8">
      <!-- $\mathdefault{0.100}$ -->
      <g transform="translate(23.541364 156.675238)scale(0.18 -0.18)">
       <defs>
        <path id="CMR17-31" d="M 1702 4058 
C 1702 4192 1696 4192 1606 4192 
C 1357 3916 979 3827 621 3827 
C 602 3827 570 3827 563 3808 
C 557 3795 557 3782 557 3648 
C 755 3648 1088 3686 1344 3839 
L 1344 461 
C 1344 236 1331 160 781 160 
L 589 160 
L 589 0 
C 896 0 1216 0 1523 0 
C 1830 0 2150 0 2458 0 
L 2458 160 
L 2266 160 
C 1715 160 1702 230 1702 458 
L 1702 4058 
z
" transform="scale(0.015625)"/>
       </defs>
       <use xlink:href="#CMR17-30" transform="scale(0.996264)"/>
       <use xlink:href="#CMMI12-3a" transform="translate(45.690477 0)scale(0.996264)"/>
       <use xlink:href="#CMR17-31" transform="translate(72.787654 0)scale(0.996264)"/>
       <use xlink:href="#CMR17-30" transform="translate(118.478131 0)scale(0.996264)"/>
       <use xlink:href="#CMR17-30" transform="translate(164.168608 0)scale(0.996264)"/>
      </g>
     </g>
    </g>
    <g id="ytick_6">
     <g id="line2d_46">
      <path d="M 64.816 105.620736 
L 622.816 105.620736 
" clip-path="url(#pa01f62b64e)" style="fill: none; stroke-dasharray: 1.85,0.8; stroke-dashoffset: 0; stroke: #000000; stroke-opacity: 0.5; stroke-width: 0.5"/>
     </g>
     <g id="line2d_47">
      <g>
       <use xlink:href="#m79c7dc11d0" x="64.816" y="105.620736" style="stroke: #000000; stroke-width: 0.5"/>
      </g>
     </g>
     <g id="line2d_48">
      <g>
       <use xlink:href="#m2c90945daa" x="622.816" y="105.620736" style="stroke: #000000; stroke-width: 0.5"/>
      </g>
     </g>
     <g id="text_9">
      <!-- $\mathdefault{0.125}$ -->
      <g transform="translate(23.541364 111.847386)scale(0.18 -0.18)">
       <use xlink:href="#CMR17-30" transform="scale(0.996264)"/>
       <use xlink:href="#CMMI12-3a" transform="translate(45.690477 0)scale(0.996264)"/>
       <use xlink:href="#CMR17-31" transform="translate(72.787654 0)scale(0.996264)"/>
       <use xlink:href="#CMR17-32" transform="translate(118.478131 0)scale(0.996264)"/>
       <use xlink:href="#CMR17-35" transform="translate(164.168608 0)scale(0.996264)"/>
      </g>
     </g>
    </g>
    <g id="ytick_7">
     <g id="line2d_49">
      <path d="M 64.816 60.792883 
L 622.816 60.792883 
" clip-path="url(#pa01f62b64e)" style="fill: none; stroke-dasharray: 1.85,0.8; stroke-dashoffset: 0; stroke: #000000; stroke-opacity: 0.5; stroke-width: 0.5"/>
     </g>
     <g id="line2d_50">
      <g>
       <use xlink:href="#m79c7dc11d0" x="64.816" y="60.792883" style="stroke: #000000; stroke-width: 0.5"/>
      </g>
     </g>
     <g id="line2d_51">
      <g>
       <use xlink:href="#m2c90945daa" x="622.816" y="60.792883" style="stroke: #000000; stroke-width: 0.5"/>
      </g>
     </g>
     <g id="text_10">
      <!-- $\mathdefault{0.150}$ -->
      <g transform="translate(23.541364 67.019533)scale(0.18 -0.18)">
       <use xlink:href="#CMR17-30" transform="scale(0.996264)"/>
       <use xlink:href="#CMMI12-3a" transform="translate(45.690477 0)scale(0.996264)"/>
       <use xlink:href="#CMR17-31" transform="translate(72.787654 0)scale(0.996264)"/>
       <use xlink:href="#CMR17-35" transform="translate(118.478131 0)scale(0.996264)"/>
       <use xlink:href="#CMR17-30" transform="translate(164.168608 0)scale(0.996264)"/>
      </g>
     </g>
    </g>
    <g id="ytick_8">
     <g id="line2d_52">
      <path d="M 64.816 15.96503 
L 622.816 15.96503 
" clip-path="url(#pa01f62b64e)" style="fill: none; stroke-dasharray: 1.85,0.8; stroke-dashoffset: 0; stroke: #000000; stroke-opacity: 0.5; stroke-width: 0.5"/>
     </g>
     <g id="line2d_53">
      <g>
       <use xlink:href="#m79c7dc11d0" x="64.816" y="15.96503" style="stroke: #000000; stroke-width: 0.5"/>
      </g>
     </g>
     <g id="line2d_54">
      <g>
       <use xlink:href="#m2c90945daa" x="622.816" y="15.96503" style="stroke: #000000; stroke-width: 0.5"/>
      </g>
     </g>
     <g id="text_11">
      <!-- $\mathdefault{0.175}$ -->
      <g transform="translate(23.541364 22.19168)scale(0.18 -0.18)">
       <use xlink:href="#CMR17-30" transform="scale(0.996264)"/>
       <use xlink:href="#CMMI12-3a" transform="translate(45.690477 0)scale(0.996264)"/>
       <use xlink:href="#CMR17-31" transform="translate(72.787654 0)scale(0.996264)"/>
       <use xlink:href="#CMR17-37" transform="translate(118.478131 0)scale(0.996264)"/>
       <use xlink:href="#CMR17-35" transform="translate(164.168608 0)scale(0.996264)"/>
      </g>
     </g>
    </g>
    <g id="ytick_9">
     <g id="line2d_55">
      <defs>
       <path id="m899ff530a7" d="M 0 0 
L 1.5 0 
" style="stroke: #000000; stroke-width: 0.5"/>
      </defs>
      <g>
       <use xlink:href="#m899ff530a7" x="64.816" y="320.794429" style="stroke: #000000; stroke-width: 0.5"/>
      </g>
     </g>
     <g id="line2d_56">
      <defs>
       <path id="m18505db2db" d="M 0 0 
L -1.5 0 
" style="stroke: #000000; stroke-width: 0.5"/>
      </defs>
      <g>
       <use xlink:href="#m18505db2db" x="622.816" y="320.794429" style="stroke: #000000; stroke-width: 0.5"/>
      </g>
     </g>
    </g>
    <g id="ytick_10">
     <g id="line2d_57">
      <g>
       <use xlink:href="#m899ff530a7" x="64.816" y="311.828859" style="stroke: #000000; stroke-width: 0.5"/>
      </g>
     </g>
     <g id="line2d_58">
      <g>
       <use xlink:href="#m18505db2db" x="622.816" y="311.828859" style="stroke: #000000; stroke-width: 0.5"/>
      </g>
     </g>
    </g>
    <g id="ytick_11">
     <g id="line2d_59">
      <g>
       <use xlink:href="#m899ff530a7" x="64.816" y="302.863288" style="stroke: #000000; stroke-width: 0.5"/>
      </g>
     </g>
     <g id="line2d_60">
      <g>
       <use xlink:href="#m18505db2db" x="622.816" y="302.863288" style="stroke: #000000; stroke-width: 0.5"/>
      </g>
     </g>
    </g>
    <g id="ytick_12">
     <g id="line2d_61">
      <g>
       <use xlink:href="#m899ff530a7" x="64.816" y="293.897718" style="stroke: #000000; stroke-width: 0.5"/>
      </g>
     </g>
     <g id="line2d_62">
      <g>
       <use xlink:href="#m18505db2db" x="622.816" y="293.897718" style="stroke: #000000; stroke-width: 0.5"/>
      </g>
     </g>
    </g>
    <g id="ytick_13">
     <g id="line2d_63">
      <g>
       <use xlink:href="#m899ff530a7" x="64.816" y="275.966577" style="stroke: #000000; stroke-width: 0.5"/>
      </g>
     </g>
     <g id="line2d_64">
      <g>
       <use xlink:href="#m18505db2db" x="622.816" y="275.966577" style="stroke: #000000; stroke-width: 0.5"/>
      </g>
     </g>
    </g>
    <g id="ytick_14">
     <g id="line2d_65">
      <g>
       <use xlink:href="#m899ff530a7" x="64.816" y="267.001006" style="stroke: #000000; stroke-width: 0.5"/>
      </g>
     </g>
     <g id="line2d_66">
      <g>
       <use xlink:href="#m18505db2db" x="622.816" y="267.001006" style="stroke: #000000; stroke-width: 0.5"/>
      </g>
     </g>
    </g>
    <g id="ytick_15">
     <g id="line2d_67">
      <g>
       <use xlink:href="#m899ff530a7" x="64.816" y="258.035435" style="stroke: #000000; stroke-width: 0.5"/>
      </g>
     </g>
     <g id="line2d_68">
      <g>
       <use xlink:href="#m18505db2db" x="622.816" y="258.035435" style="stroke: #000000; stroke-width: 0.5"/>
      </g>
     </g>
    </g>
    <g id="ytick_16">
     <g id="line2d_69">
      <g>
       <use xlink:href="#m899ff530a7" x="64.816" y="249.069865" style="stroke: #000000; stroke-width: 0.5"/>
      </g>
     </g>
     <g id="line2d_70">
      <g>
       <use xlink:href="#m18505db2db" x="622.816" y="249.069865" style="stroke: #000000; stroke-width: 0.5"/>
      </g>
     </g>
    </g>
    <g id="ytick_17">
     <g id="line2d_71">
      <g>
       <use xlink:href="#m899ff530a7" x="64.816" y="231.138724" style="stroke: #000000; stroke-width: 0.5"/>
      </g>
     </g>
     <g id="line2d_72">
      <g>
       <use xlink:href="#m18505db2db" x="622.816" y="231.138724" style="stroke: #000000; stroke-width: 0.5"/>
      </g>
     </g>
    </g>
    <g id="ytick_18">
     <g id="line2d_73">
      <g>
       <use xlink:href="#m899ff530a7" x="64.816" y="222.173153" style="stroke: #000000; stroke-width: 0.5"/>
      </g>
     </g>
     <g id="line2d_74">
      <g>
       <use xlink:href="#m18505db2db" x="622.816" y="222.173153" style="stroke: #000000; stroke-width: 0.5"/>
      </g>
     </g>
    </g>
    <g id="ytick_19">
     <g id="line2d_75">
      <g>
       <use xlink:href="#m899ff530a7" x="64.816" y="213.207582" style="stroke: #000000; stroke-width: 0.5"/>
      </g>
     </g>
     <g id="line2d_76">
      <g>
       <use xlink:href="#m18505db2db" x="622.816" y="213.207582" style="stroke: #000000; stroke-width: 0.5"/>
      </g>
     </g>
    </g>
    <g id="ytick_20">
     <g id="line2d_77">
      <g>
       <use xlink:href="#m899ff530a7" x="64.816" y="204.242012" style="stroke: #000000; stroke-width: 0.5"/>
      </g>
     </g>
     <g id="line2d_78">
      <g>
       <use xlink:href="#m18505db2db" x="622.816" y="204.242012" style="stroke: #000000; stroke-width: 0.5"/>
      </g>
     </g>
    </g>
    <g id="ytick_21">
     <g id="line2d_79">
      <g>
       <use xlink:href="#m899ff530a7" x="64.816" y="186.310871" style="stroke: #000000; stroke-width: 0.5"/>
      </g>
     </g>
     <g id="line2d_80">
      <g>
       <use xlink:href="#m18505db2db" x="622.816" y="186.310871" style="stroke: #000000; stroke-width: 0.5"/>
      </g>
     </g>
    </g>
    <g id="ytick_22">
     <g id="line2d_81">
      <g>
       <use xlink:href="#m899ff530a7" x="64.816" y="177.3453" style="stroke: #000000; stroke-width: 0.5"/>
      </g>
     </g>
     <g id="line2d_82">
      <g>
       <use xlink:href="#m18505db2db" x="622.816" y="177.3453" style="stroke: #000000; stroke-width: 0.5"/>
      </g>
     </g>
    </g>
    <g id="ytick_23">
     <g id="line2d_83">
      <g>
       <use xlink:href="#m899ff530a7" x="64.816" y="168.37973" style="stroke: #000000; stroke-width: 0.5"/>
      </g>
     </g>
     <g id="line2d_84">
      <g>
       <use xlink:href="#m18505db2db" x="622.816" y="168.37973" style="stroke: #000000; stroke-width: 0.5"/>
      </g>
     </g>
    </g>
    <g id="ytick_24">
     <g id="line2d_85">
      <g>
       <use xlink:href="#m899ff530a7" x="64.816" y="159.414159" style="stroke: #000000; stroke-width: 0.5"/>
      </g>
     </g>
     <g id="line2d_86">
      <g>
       <use xlink:href="#m18505db2db" x="622.816" y="159.414159" style="stroke: #000000; stroke-width: 0.5"/>
      </g>
     </g>
    </g>
    <g id="ytick_25">
     <g id="line2d_87">
      <g>
       <use xlink:href="#m899ff530a7" x="64.816" y="141.483018" style="stroke: #000000; stroke-width: 0.5"/>
      </g>
     </g>
     <g id="line2d_88">
      <g>
       <use xlink:href="#m18505db2db" x="622.816" y="141.483018" style="stroke: #000000; stroke-width: 0.5"/>
      </g>
     </g>
    </g>
    <g id="ytick_26">
     <g id="line2d_89">
      <g>
       <use xlink:href="#m899ff530a7" x="64.816" y="132.517447" style="stroke: #000000; stroke-width: 0.5"/>
      </g>
     </g>
     <g id="line2d_90">
      <g>
       <use xlink:href="#m18505db2db" x="622.816" y="132.517447" style="stroke: #000000; stroke-width: 0.5"/>
      </g>
     </g>
    </g>
    <g id="ytick_27">
     <g id="line2d_91">
      <g>
       <use xlink:href="#m899ff530a7" x="64.816" y="123.551877" style="stroke: #000000; stroke-width: 0.5"/>
      </g>
     </g>
     <g id="line2d_92">
      <g>
       <use xlink:href="#m18505db2db" x="622.816" y="123.551877" style="stroke: #000000; stroke-width: 0.5"/>
      </g>
     </g>
    </g>
    <g id="ytick_28">
     <g id="line2d_93">
      <g>
       <use xlink:href="#m899ff530a7" x="64.816" y="114.586306" style="stroke: #000000; stroke-width: 0.5"/>
      </g>
     </g>
     <g id="line2d_94">
      <g>
       <use xlink:href="#m18505db2db" x="622.816" y="114.586306" style="stroke: #000000; stroke-width: 0.5"/>
      </g>
     </g>
    </g>
    <g id="ytick_29">
     <g id="line2d_95">
      <g>
       <use xlink:href="#m899ff530a7" x="64.816" y="96.655165" style="stroke: #000000; stroke-width: 0.5"/>
      </g>
     </g>
     <g id="line2d_96">
      <g>
       <use xlink:href="#m18505db2db" x="622.816" y="96.655165" style="stroke: #000000; stroke-width: 0.5"/>
      </g>
     </g>
    </g>
    <g id="ytick_30">
     <g id="line2d_97">
      <g>
       <use xlink:href="#m899ff530a7" x="64.816" y="87.689594" style="stroke: #000000; stroke-width: 0.5"/>
      </g>
     </g>
     <g id="line2d_98">
      <g>
       <use xlink:href="#m18505db2db" x="622.816" y="87.689594" style="stroke: #000000; stroke-width: 0.5"/>
      </g>
     </g>
    </g>
    <g id="ytick_31">
     <g id="line2d_99">
      <g>
       <use xlink:href="#m899ff530a7" x="64.816" y="78.724024" style="stroke: #000000; stroke-width: 0.5"/>
      </g>
     </g>
     <g id="line2d_100">
      <g>
       <use xlink:href="#m18505db2db" x="622.816" y="78.724024" style="stroke: #000000; stroke-width: 0.5"/>
      </g>
     </g>
    </g>
    <g id="ytick_32">
     <g id="line2d_101">
      <g>
       <use xlink:href="#m899ff530a7" x="64.816" y="69.758453" style="stroke: #000000; stroke-width: 0.5"/>
      </g>
     </g>
     <g id="line2d_102">
      <g>
       <use xlink:href="#m18505db2db" x="622.816" y="69.758453" style="stroke: #000000; stroke-width: 0.5"/>
      </g>
     </g>
    </g>
    <g id="ytick_33">
     <g id="line2d_103">
      <g>
       <use xlink:href="#m899ff530a7" x="64.816" y="51.827312" style="stroke: #000000; stroke-width: 0.5"/>
      </g>
     </g>
     <g id="line2d_104">
      <g>
       <use xlink:href="#m18505db2db" x="622.816" y="51.827312" style="stroke: #000000; stroke-width: 0.5"/>
      </g>
     </g>
    </g>
    <g id="ytick_34">
     <g id="line2d_105">
      <g>
       <use xlink:href="#m899ff530a7" x="64.816" y="42.861741" style="stroke: #000000; stroke-width: 0.5"/>
      </g>
     </g>
     <g id="line2d_106">
      <g>
       <use xlink:href="#m18505db2db" x="622.816" y="42.861741" style="stroke: #000000; stroke-width: 0.5"/>
      </g>
     </g>
    </g>
    <g id="ytick_35">
     <g id="line2d_107">
      <g>
       <use xlink:href="#m899ff530a7" x="64.816" y="33.896171" style="stroke: #000000; stroke-width: 0.5"/>
      </g>
     </g>
     <g id="line2d_108">
      <g>
       <use xlink:href="#m18505db2db" x="622.816" y="33.896171" style="stroke: #000000; stroke-width: 0.5"/>
      </g>
     </g>
    </g>
    <g id="ytick_36">
     <g id="line2d_109">
      <g>
       <use xlink:href="#m899ff530a7" x="64.816" y="24.9306" style="stroke: #000000; stroke-width: 0.5"/>
      </g>
     </g>
     <g id="line2d_110">
      <g>
       <use xlink:href="#m18505db2db" x="622.816" y="24.9306" style="stroke: #000000; stroke-width: 0.5"/>
      </g>
     </g>
    </g>
    <g id="ytick_37">
     <g id="line2d_111">
      <g>
       <use xlink:href="#m899ff530a7" x="64.816" y="6.999459" style="stroke: #000000; stroke-width: 0.5"/>
      </g>
     </g>
     <g id="line2d_112">
      <g>
       <use xlink:href="#m18505db2db" x="622.816" y="6.999459" style="stroke: #000000; stroke-width: 0.5"/>
      </g>
     </g>
    </g>
    <g id="text_12">
     <!-- Leistung in W -->
     <g transform="translate(16.0533 218.18845)rotate(-90)scale(0.18 -0.18)">
      <defs>
       <path id="CMR17-4c" d="M 3469 1615 
L 3354 1615 
C 3302 983 3219 166 2125 166 
L 1530 166 
C 1274 166 1261 197 1261 414 
L 1261 3898 
C 1261 4129 1274 4192 1760 4192 
L 1901 4192 
L 1901 4352 
C 1638 4352 1331 4352 1069 4352 
C 870 4352 512 4352 326 4352 
L 326 4192 
C 768 4192 838 4192 838 3905 
L 838 452 
C 838 166 768 166 326 166 
L 326 0 
L 3315 0 
L 3469 1615 
z
" transform="scale(0.015625)"/>
       <path id="CMR17-69" d="M 992 3909 
C 992 4049 877 4170 730 4170 
C 589 4170 467 4056 467 3909 
C 467 3769 582 3648 730 3648 
C 870 3648 992 3763 992 3909 
z
M 243 2706 
L 243 2541 
C 602 2541 653 2502 653 2197 
L 653 427 
C 653 184 627 153 218 153 
L 218 -13 
C 371 0 646 0 806 0 
C 960 0 1222 0 1370 -13 
L 1370 153 
C 992 153 979 191 979 420 
L 979 2776 
L 243 2706 
z
" transform="scale(0.015625)"/>
       <path id="CMR17-67" d="M 710 1164 
C 832 1068 1043 960 1299 960 
C 1805 960 2240 1357 2240 1888 
C 2240 2054 2189 2310 1997 2509 
C 2176 2692 2438 2752 2586 2752 
C 2611 2752 2650 2752 2682 2734 
C 2656 2728 2598 2703 2598 2605 
C 2598 2527 2656 2471 2739 2471 
C 2835 2471 2886 2533 2886 2614 
C 2886 2731 2790 2854 2586 2854 
C 2330 2854 2106 2738 1926 2580 
C 1734 2753 1504 2816 1299 2816 
C 794 2816 358 2419 358 1888 
C 358 1522 570 1292 634 1228 
C 442 1004 442 743 442 711 
C 442 545 506 302 723 168 
C 390 85 128 -169 128 -486 
C 128 -943 736 -1280 1466 -1280 
C 2170 -1280 2803 -956 2803 -479 
C 2803 384 1856 384 1363 384 
C 1216 384 954 384 922 391 
C 723 423 589 602 589 826 
C 589 883 589 1024 710 1164 
z
M 1299 1068 
C 736 1068 736 1760 736 1889 
C 736 2016 736 2708 1299 2708 
C 1862 2708 1862 2016 1862 1889 
C 1862 1760 1862 1068 1299 1068 
z
M 1466 -1171 
C 826 -1171 384 -835 384 -486 
C 384 -289 493 -105 634 -4 
C 794 104 858 104 1293 104 
C 1818 104 2547 104 2547 -486 
C 2547 -835 2106 -1171 1466 -1171 
z
" transform="scale(0.015625)"/>
       <path id="CMR17-57" d="M 5523 3764 
C 5581 3936 5677 4160 6048 4160 
L 6048 4326 
C 5939 4326 5715 4326 5600 4326 
C 5440 4326 5158 4326 5005 4332 
L 5005 4160 
C 5293 4160 5414 4000 5414 3847 
C 5414 3802 5408 3777 5382 3707 
L 4390 555 
L 3347 3873 
C 3328 3937 3322 3963 3322 3988 
C 3322 4160 3603 4160 3725 4160 
L 3725 4326 
C 3539 4326 3219 4326 3021 4326 
C 2861 4326 2573 4326 2426 4332 
L 2426 4160 
C 2720 4160 2797 4141 2861 4027 
C 2886 3969 2989 3638 2989 3619 
C 2989 3593 2976 3555 2970 3536 
L 2029 561 
L 986 3867 
C 954 3957 954 3969 954 3982 
C 954 4160 1235 4160 1363 4160 
L 1363 4326 
C 1178 4326 858 4326 659 4326 
C 493 4326 211 4326 58 4332 
L 58 4160 
C 442 4160 467 4122 531 3918 
L 1779 -20 
C 1811 -115 1811 -128 1869 -128 
C 1920 -128 1939 -115 1965 -26 
L 3053 3433 
L 4141 -26 
C 4166 -115 4186 -128 4237 -128 
C 4294 -128 4294 -115 4326 -20 
L 5523 3764 
z
" transform="scale(0.015625)"/>
      </defs>
      <use xlink:href="#CMR17-4c" transform="scale(0.996264)"/>
      <use xlink:href="#CMR17-65" transform="translate(57.381408 0)scale(0.996264)"/>
      <use xlink:href="#CMR17-69" transform="translate(97.867068 0)scale(0.996264)"/>
      <use xlink:href="#CMR17-73" transform="translate(122.738127 0)scale(0.996264)"/>
      <use xlink:href="#CMR17-74" transform="translate(158.539464 0)scale(0.996264)"/>
      <use xlink:href="#CMR17-75" transform="translate(193.820232 0)scale(0.996264)"/>
      <use xlink:href="#CMR17-6e" transform="translate(244.715602 0)scale(0.996264)"/>
      <use xlink:href="#CMR17-67" transform="translate(295.610972 0)scale(0.996264)"/>
      <use xlink:href="#CMR17-69" transform="translate(371.377415 0)scale(0.996264)"/>
      <use xlink:href="#CMR17-6e" transform="translate(396.248474 0)scale(0.996264)"/>
      <use xlink:href="#CMR17-57" transform="translate(477.21981 0)scale(0.996264)"/>
     </g>
    </g>
   </g>
   <g id="patch_3">
    <path d="M 90.179636 329.76 
L 124.046372 329.76 
L 124.046372 74.517064 
L 90.179636 74.517064 
z
" clip-path="url(#pa01f62b64e)" style="fill: #0c5da5"/>
   </g>
   <g id="patch_4">
    <path d="M 272.258863 329.76 
L 306.1256 329.76 
L 306.1256 50.154559 
L 272.258863 50.154559 
z
" clip-path="url(#pa01f62b64e)" style="fill: #0c5da5"/>
   </g>
   <g id="patch_5">
    <path d="M 454.338091 329.76 
L 488.204827 329.76 
L 488.204827 99.278325 
L 454.338091 99.278325 
z
" clip-path="url(#pa01f62b64e)" style="fill: #0c5da5"/>
   </g>
   <g id="patch_6">
    <path d="M 126.595482 329.76 
L 160.462218 329.76 
L 160.462218 102.312119 
L 126.595482 102.312119 
z
" clip-path="url(#pa01f62b64e)" style="fill: #00b945"/>
   </g>
   <g id="patch_7">
    <path d="M 308.674709 329.76 
L 342.541445 329.76 
L 342.541445 153.640743 
L 308.674709 153.640743 
z
" clip-path="url(#pa01f62b64e)" style="fill: #00b945"/>
   </g>
   <g id="patch_8">
    <path d="M 490.753936 329.76 
L 524.620672 329.76 
L 524.620672 138.384667 
L 490.753936 138.384667 
z
" clip-path="url(#pa01f62b64e)" style="fill: #00b945"/>
   </g>
   <g id="patch_9">
    <path d="M 163.011327 329.76 
L 196.878063 329.76 
L 196.878063 77.735013 
L 163.011327 77.735013 
z
" clip-path="url(#pa01f62b64e)" style="fill: #ff9500"/>
   </g>
   <g id="patch_10">
    <path d="M 345.090554 329.76 
L 378.957291 329.76 
L 378.957291 31.656255 
L 345.090554 31.656255 
z
" clip-path="url(#pa01f62b64e)" style="fill: #ff9500"/>
   </g>
   <g id="patch_11">
    <path d="M 527.169782 329.76 
L 561.036518 329.76 
L 561.036518 108.439756 
L 527.169782 108.439756 
z
" clip-path="url(#pa01f62b64e)" style="fill: #ff9500"/>
   </g>
   <g id="patch_12">
    <path d="M 199.427172 329.76 
L 233.293909 329.76 
L 233.293909 104.913226 
L 199.427172 104.913226 
z
" clip-path="url(#pa01f62b64e)" style="fill: #ff2c00"/>
   </g>
   <g id="patch_13">
    <path d="M 381.5064 329.76 
L 415.373136 329.76 
L 415.373136 114.423946 
L 381.5064 114.423946 
z
" clip-path="url(#pa01f62b64e)" style="fill: #ff2c00"/>
   </g>
   <g id="patch_14">
    <path d="M 563.585627 329.76 
L 597.452363 329.76 
L 597.452363 153.474512 
L 563.585627 153.474512 
z
" clip-path="url(#pa01f62b64e)" style="fill: #ff2c00"/>
   </g>
   <g id="LineCollection_1">
    <path d="M 107.113004 83.582908 
L 107.113004 65.45122 
" clip-path="url(#pa01f62b64e)" style="fill: none; stroke: #000000"/>
    <path d="M 289.192232 69.61622 
L 289.192232 30.692898 
" clip-path="url(#pa01f62b64e)" style="fill: none; stroke: #000000"/>
    <path d="M 471.271459 107.987102 
L 471.271459 90.569547 
" clip-path="url(#pa01f62b64e)" style="fill: none; stroke: #000000"/>
   </g>
   <g id="line2d_113">
    <defs>
     <path id="mcb085b13f7" d="M 6 0 
L -6 -0 
" style="stroke: #000000"/>
    </defs>
    <g clip-path="url(#pa01f62b64e)">
     <use xlink:href="#mcb085b13f7" x="107.113004" y="83.582908" style="stroke: #000000"/>
     <use xlink:href="#mcb085b13f7" x="289.192232" y="69.61622" style="stroke: #000000"/>
     <use xlink:href="#mcb085b13f7" x="471.271459" y="107.987102" style="stroke: #000000"/>
    </g>
   </g>
   <g id="line2d_114">
    <g clip-path="url(#pa01f62b64e)">
     <use xlink:href="#mcb085b13f7" x="107.113004" y="65.45122" style="stroke: #000000"/>
     <use xlink:href="#mcb085b13f7" x="289.192232" y="30.692898" style="stroke: #000000"/>
     <use xlink:href="#mcb085b13f7" x="471.271459" y="90.569547" style="stroke: #000000"/>
    </g>
   </g>
   <g id="LineCollection_2">
    <path d="M 143.52885 110.504888 
L 143.52885 94.119351 
" clip-path="url(#pa01f62b64e)" style="fill: none; stroke: #000000"/>
    <path d="M 325.608077 162.506394 
L 325.608077 144.775092 
" clip-path="url(#pa01f62b64e)" style="fill: none; stroke: #000000"/>
    <path d="M 507.687304 145.951689 
L 507.687304 130.817645 
" clip-path="url(#pa01f62b64e)" style="fill: none; stroke: #000000"/>
   </g>
   <g id="line2d_115">
    <g clip-path="url(#pa01f62b64e)">
     <use xlink:href="#mcb085b13f7" x="143.52885" y="110.504888" style="stroke: #000000"/>
     <use xlink:href="#mcb085b13f7" x="325.608077" y="162.506394" style="stroke: #000000"/>
     <use xlink:href="#mcb085b13f7" x="507.687304" y="145.951689" style="stroke: #000000"/>
    </g>
   </g>
   <g id="line2d_116">
    <g clip-path="url(#pa01f62b64e)">
     <use xlink:href="#mcb085b13f7" x="143.52885" y="94.119351" style="stroke: #000000"/>
     <use xlink:href="#mcb085b13f7" x="325.608077" y="144.775092" style="stroke: #000000"/>
     <use xlink:href="#mcb085b13f7" x="507.687304" y="130.817645" style="stroke: #000000"/>
    </g>
   </g>
   <g id="LineCollection_3">
    <path d="M 179.944695 86.790509 
L 179.944695 68.679517 
" clip-path="url(#pa01f62b64e)" style="fill: none; stroke: #000000"/>
    <path d="M 362.023922 44.181082 
L 362.023922 19.131429 
" clip-path="url(#pa01f62b64e)" style="fill: none; stroke: #000000"/>
    <path d="M 544.10315 122.660618 
L 544.10315 94.218894 
" clip-path="url(#pa01f62b64e)" style="fill: none; stroke: #000000"/>
   </g>
   <g id="line2d_117">
    <g clip-path="url(#pa01f62b64e)">
     <use xlink:href="#mcb085b13f7" x="179.944695" y="86.790509" style="stroke: #000000"/>
     <use xlink:href="#mcb085b13f7" x="362.023922" y="44.181082" style="stroke: #000000"/>
     <use xlink:href="#mcb085b13f7" x="544.10315" y="122.660618" style="stroke: #000000"/>
    </g>
   </g>
   <g id="line2d_118">
    <g clip-path="url(#pa01f62b64e)">
     <use xlink:href="#mcb085b13f7" x="179.944695" y="68.679517" style="stroke: #000000"/>
     <use xlink:href="#mcb085b13f7" x="362.023922" y="19.131429" style="stroke: #000000"/>
     <use xlink:href="#mcb085b13f7" x="544.10315" y="94.218894" style="stroke: #000000"/>
    </g>
   </g>
   <g id="LineCollection_4">
    <path d="M 216.360541 112.931175 
L 216.360541 96.895276 
" clip-path="url(#pa01f62b64e)" style="fill: none; stroke: #000000"/>
    <path d="M 398.439768 124.325456 
L 398.439768 104.522436 
" clip-path="url(#pa01f62b64e)" style="fill: none; stroke: #000000"/>
    <path d="M 580.518995 160.478901 
L 580.518995 146.470123 
" clip-path="url(#pa01f62b64e)" style="fill: none; stroke: #000000"/>
   </g>
   <g id="line2d_119">
    <g clip-path="url(#pa01f62b64e)">
     <use xlink:href="#mcb085b13f7" x="216.360541" y="112.931175" style="stroke: #000000"/>
     <use xlink:href="#mcb085b13f7" x="398.439768" y="124.325456" style="stroke: #000000"/>
     <use xlink:href="#mcb085b13f7" x="580.518995" y="160.478901" style="stroke: #000000"/>
    </g>
   </g>
   <g id="line2d_120">
    <g clip-path="url(#pa01f62b64e)">
     <use xlink:href="#mcb085b13f7" x="216.360541" y="96.895276" style="stroke: #000000"/>
     <use xlink:href="#mcb085b13f7" x="398.439768" y="104.522436" style="stroke: #000000"/>
     <use xlink:href="#mcb085b13f7" x="580.518995" y="146.470123" style="stroke: #000000"/>
    </g>
   </g>
   <g id="patch_15">
    <path d="M 64.816 329.76 
L 64.816 3.6 
" style="fill: none; stroke: #000000; stroke-width: 0.5; stroke-linejoin: miter; stroke-linecap: square"/>
   </g>
   <g id="patch_16">
    <path d="M 622.816 329.76 
L 622.816 3.6 
" style="fill: none; stroke: #000000; stroke-width: 0.5; stroke-linejoin: miter; stroke-linecap: square"/>
   </g>
   <g id="patch_17">
    <path d="M 64.816 329.76 
L 622.816 329.76 
" style="fill: none; stroke: #000000; stroke-width: 0.5; stroke-linejoin: miter; stroke-linecap: square"/>
   </g>
   <g id="patch_18">
    <path d="M 64.816 3.6 
L 622.816 3.6 
" style="fill: none; stroke: #000000; stroke-width: 0.5; stroke-linejoin: miter; stroke-linecap: square"/>
   </g>
   <g id="legend_1">
    <g id="patch_19">
     <path d="M 350.710319 320.76 
L 610.216 320.76 
Q 613.816 320.76 613.816 317.16 
L 613.816 218.607743 
Q 613.816 215.007743 610.216 215.007743 
L 350.710319 215.007743 
Q 347.110319 215.007743 347.110319 218.607743 
L 347.110319 317.16 
Q 347.110319 320.76 350.710319 320.76 
z
" style="fill: #ffffff; stroke: #cccccc; stroke-linejoin: miter"/>
    </g>
    <g id="patch_20">
     <path d="M 354.310319 234.807743 
L 390.310319 234.807743 
L 390.310319 222.207743 
L 354.310319 222.207743 
z
" style="fill: #0c5da5"/>
    </g>
    <g id="text_13">
     <!-- Negative Elektrode -->
     <g transform="translate(404.710319 234.807743)scale(0.18 -0.18)">
      <defs>
       <path id="CMR17-4e" d="M 1312 4250 
C 1267 4320 1261 4320 1139 4320 
L 326 4320 
L 326 4160 
L 448 4160 
C 704 4160 819 4129 838 4122 
L 838 610 
C 838 451 838 153 326 153 
L 326 -13 
C 474 0 742 0 902 0 
C 1062 0 1331 0 1478 -13 
L 1478 153 
C 966 153 966 451 966 610 
L 966 4033 
C 1011 3995 1011 3982 1056 3919 
L 3430 76 
C 3475 0 3494 0 3526 0 
C 3590 0 3590 19 3590 139 
L 3590 3705 
C 3590 3863 3590 4160 4102 4160 
L 4102 4326 
C 3955 4320 3686 4320 3526 4320 
C 3366 4320 3098 4320 2950 4326 
L 2950 4160 
C 3462 4160 3462 3862 3462 3703 
L 3462 763 
L 1312 4250 
z
" transform="scale(0.015625)"/>
       <path id="CMR17-76" d="M 2502 2163 
C 2560 2304 2662 2560 3034 2560 
L 3034 2726 
C 2912 2726 2752 2726 2630 2726 
C 2496 2726 2285 2726 2157 2732 
L 2157 2566 
C 2317 2553 2406 2477 2406 2311 
C 2406 2253 2406 2240 2368 2151 
L 1664 377 
L 902 2286 
C 864 2369 864 2381 864 2407 
C 864 2560 1075 2560 1171 2560 
L 1171 2732 
C 1018 2726 736 2726 576 2726 
C 403 2726 205 2726 64 2732 
L 64 2560 
C 307 2560 442 2560 518 2362 
L 1446 44 
C 1485 -51 1491 -64 1549 -64 
C 1606 -64 1613 -51 1651 44 
L 2502 2163 
z
" transform="scale(0.015625)"/>
       <path id="CMR17-6b" d="M 1670 1673 
C 1664 1686 1632 1724 1632 1743 
C 1632 1756 2086 2171 2144 2222 
C 2509 2528 2739 2560 2906 2560 
L 2906 2733 
C 2867 2733 2854 2733 2848 2720 
L 2534 2720 
C 2355 2720 2080 2720 1907 2733 
L 1907 2566 
C 1997 2559 2061 2508 2061 2419 
C 2061 2291 1933 2170 1926 2170 
L 960 1289 
L 960 4396 
L 198 4326 
L 198 4160 
C 576 4160 634 4122 634 3817 
L 634 426 
C 634 184 608 153 198 153 
L 198 -13 
C 352 0 634 0 794 0 
C 954 0 1235 0 1389 -13 
L 1389 153 
C 979 153 954 178 954 428 
L 954 1130 
L 1395 1532 
L 2042 574 
C 2118 459 2182 369 2182 286 
C 2182 172 2067 153 1990 153 
L 1990 -13 
C 2144 0 2419 0 2579 0 
C 2694 0 2931 0 3040 0 
L 3040 153 
C 2739 153 2669 210 2477 491 
L 1670 1673 
z
" transform="scale(0.015625)"/>
       <path id="CMR17-6f" d="M 2758 1356 
C 2758 2176 2163 2816 1466 2816 
C 768 2816 173 2176 173 1356 
C 173 551 768 -64 1466 -64 
C 2163 -64 2758 551 2758 1356 
z
M 1466 51 
C 1165 51 909 230 762 480 
C 602 767 582 1126 582 1408 
C 582 1677 595 2010 762 2298 
C 890 2509 1139 2714 1466 2714 
C 1754 2714 1997 2554 2150 2330 
C 2349 2029 2349 1607 2349 1408 
C 2349 1158 2336 775 2163 467 
C 1984 173 1709 51 1466 51 
z
" transform="scale(0.015625)"/>
      </defs>
      <use xlink:href="#CMR17-4e" transform="scale(0.996264)"/>
      <use xlink:href="#CMR17-65" transform="translate(69.07243 0)scale(0.996264)"/>
      <use xlink:href="#CMR17-67" transform="translate(109.55809 0)scale(0.996264)"/>
      <use xlink:href="#CMR17-61" transform="translate(155.248567 0)scale(0.996264)"/>
      <use xlink:href="#CMR17-74" transform="translate(200.939045 0)scale(0.996264)"/>
      <use xlink:href="#CMR17-69" transform="translate(236.219812 0)scale(0.996264)"/>
      <use xlink:href="#CMR17-76" transform="translate(261.090871 0)scale(0.996264)"/>
      <use xlink:href="#CMR17-65" transform="translate(306.781333 0)scale(0.996264)"/>
      <use xlink:href="#CMR17-45" transform="translate(377.34296 0)scale(0.996264)"/>
      <use xlink:href="#CMR17-6c" transform="translate(439.92926 0)scale(0.996264)"/>
      <use xlink:href="#CMR17-65" transform="translate(464.800319 0)scale(0.996264)"/>
      <use xlink:href="#CMR17-6b" transform="translate(505.285979 0)scale(0.996264)"/>
      <use xlink:href="#CMR17-74" transform="translate(553.578895 0)scale(0.996264)"/>
      <use xlink:href="#CMR17-72" transform="translate(588.859663 0)scale(0.996264)"/>
      <use xlink:href="#CMR17-6f" transform="translate(624.14043 0)scale(0.996264)"/>
      <use xlink:href="#CMR17-64" transform="translate(672.433346 0)scale(0.996264)"/>
      <use xlink:href="#CMR17-65" transform="translate(723.328716 0)scale(0.996264)"/>
     </g>
    </g>
    <g id="patch_21">
     <path d="M 354.310319 259.895807 
L 390.310319 259.895807 
L 390.310319 247.295807 
L 354.310319 247.295807 
z
" style="fill: #00b945"/>
    </g>
    <g id="text_14">
     <!-- Erde zu negativer Elektrode -->
     <g transform="translate(404.710319 259.895807)scale(0.18 -0.18)">
      <defs>
       <path id="CMR17-7a" d="M 2310 2605 
C 2362 2670 2362 2682 2362 2695 
C 2362 2752 2336 2752 2221 2752 
L 275 2752 
L 211 1760 
L 326 1760 
C 371 2381 442 2650 1178 2650 
L 1958 2650 
L 128 96 
C 128 0 134 0 269 0 
L 2291 0 
L 2381 1152 
L 2266 1152 
C 2214 442 2131 115 1350 115 
L 531 115 
L 2310 2605 
z
" transform="scale(0.015625)"/>
      </defs>
      <use xlink:href="#CMR17-45" transform="scale(0.996264)"/>
      <use xlink:href="#CMR17-72" transform="translate(62.586301 0)scale(0.996264)"/>
      <use xlink:href="#CMR17-64" transform="translate(97.867068 0)scale(0.996264)"/>
      <use xlink:href="#CMR17-65" transform="translate(148.762438 0)scale(0.996264)"/>
      <use xlink:href="#CMR17-7a" transform="translate(219.324065 0)scale(0.996264)"/>
      <use xlink:href="#CMR17-75" transform="translate(259.809725 0)scale(0.996264)"/>
      <use xlink:href="#CMR17-6e" transform="translate(340.781061 0)scale(0.996264)"/>
      <use xlink:href="#CMR17-65" transform="translate(391.676431 0)scale(0.996264)"/>
      <use xlink:href="#CMR17-67" transform="translate(432.162092 0)scale(0.996264)"/>
      <use xlink:href="#CMR17-61" transform="translate(477.852569 0)scale(0.996264)"/>
      <use xlink:href="#CMR17-74" transform="translate(523.543046 0)scale(0.996264)"/>
      <use xlink:href="#CMR17-69" transform="translate(558.823814 0)scale(0.996264)"/>
      <use xlink:href="#CMR17-76" transform="translate(583.694872 0)scale(0.996264)"/>
      <use xlink:href="#CMR17-65" transform="translate(629.385334 0)scale(0.996264)"/>
      <use xlink:href="#CMR17-72" transform="translate(669.870995 0)scale(0.996264)"/>
      <use xlink:href="#CMR17-45" transform="translate(735.227729 0)scale(0.996264)"/>
      <use xlink:href="#CMR17-6c" transform="translate(797.814029 0)scale(0.996264)"/>
      <use xlink:href="#CMR17-65" transform="translate(822.685088 0)scale(0.996264)"/>
      <use xlink:href="#CMR17-6b" transform="translate(863.170748 0)scale(0.996264)"/>
      <use xlink:href="#CMR17-74" transform="translate(911.463664 0)scale(0.996264)"/>
      <use xlink:href="#CMR17-72" transform="translate(946.744432 0)scale(0.996264)"/>
      <use xlink:href="#CMR17-6f" transform="translate(982.0252 0)scale(0.996264)"/>
      <use xlink:href="#CMR17-64" transform="translate(1030.318116 0)scale(0.996264)"/>
      <use xlink:href="#CMR17-65" transform="translate(1081.213485 0)scale(0.996264)"/>
     </g>
    </g>
    <g id="patch_22">
     <path d="M 354.310319 284.983872 
L 390.310319 284.983872 
L 390.310319 272.383872 
L 354.310319 272.383872 
z
" style="fill: #ff9500"/>
    </g>
    <g id="text_15">
     <!-- Erde zu positiver Elektrode -->
     <g transform="translate(404.710319 284.983872)scale(0.18 -0.18)">
      <use xlink:href="#CMR17-45" transform="scale(0.996264)"/>
      <use xlink:href="#CMR17-72" transform="translate(62.586301 0)scale(0.996264)"/>
      <use xlink:href="#CMR17-64" transform="translate(97.867068 0)scale(0.996264)"/>
      <use xlink:href="#CMR17-65" transform="translate(148.762438 0)scale(0.996264)"/>
      <use xlink:href="#CMR17-7a" transform="translate(219.324065 0)scale(0.996264)"/>
      <use xlink:href="#CMR17-75" transform="translate(259.809725 0)scale(0.996264)"/>
      <use xlink:href="#CMR17-70" transform="translate(340.781061 0)scale(0.996264)"/>
      <use xlink:href="#CMR17-6f" transform="translate(394.27887 0)scale(0.996264)"/>
      <use xlink:href="#CMR17-73" transform="translate(439.969347 0)scale(0.996264)"/>
      <use xlink:href="#CMR17-69" transform="translate(475.770685 0)scale(0.996264)"/>
      <use xlink:href="#CMR17-74" transform="translate(500.641743 0)scale(0.996264)"/>
      <use xlink:href="#CMR17-69" transform="translate(535.922511 0)scale(0.996264)"/>
      <use xlink:href="#CMR17-76" transform="translate(560.79357 0)scale(0.996264)"/>
      <use xlink:href="#CMR17-65" transform="translate(606.484031 0)scale(0.996264)"/>
      <use xlink:href="#CMR17-72" transform="translate(646.969692 0)scale(0.996264)"/>
      <use xlink:href="#CMR17-45" transform="translate(712.326426 0)scale(0.996264)"/>
      <use xlink:href="#CMR17-6c" transform="translate(774.912727 0)scale(0.996264)"/>
      <use xlink:href="#CMR17-65" transform="translate(799.783785 0)scale(0.996264)"/>
      <use xlink:href="#CMR17-6b" transform="translate(840.269446 0)scale(0.996264)"/>
      <use xlink:href="#CMR17-74" transform="translate(888.562361 0)scale(0.996264)"/>
      <use xlink:href="#CMR17-72" transform="translate(923.843129 0)scale(0.996264)"/>
      <use xlink:href="#CMR17-6f" transform="translate(959.123897 0)scale(0.996264)"/>
      <use xlink:href="#CMR17-64" transform="translate(1007.416813 0)scale(0.996264)"/>
      <use xlink:href="#CMR17-65" transform="translate(1058.312183 0)scale(0.996264)"/>
     </g>
    </g>
    <g id="patch_23">
     <path d="M 354.310319 310.071936 
L 390.310319 310.071936 
L 390.310319 297.471936 
L 354.310319 297.471936 
z
" style="fill: #ff2c00"/>
    </g>
    <g id="text_16">
     <!-- Positive Elektrode -->
     <g transform="translate(404.710319 310.071936)scale(0.18 -0.18)">
      <defs>
       <path id="CMR17-50" d="M 1267 2042 
L 2291 2042 
C 3117 2042 3718 2578 3718 3184 
C 3718 3791 3130 4352 2291 4352 
L 333 4352 
L 333 4186 
C 774 4186 845 4186 845 3899 
L 845 446 
C 845 160 774 160 333 160 
L 333 0 
C 518 0 858 0 1056 0 
C 1254 0 1594 0 1779 0 
L 1779 160 
C 1338 160 1267 160 1267 446 
L 1267 2042 
z
M 1254 2176 
L 1254 3938 
C 1254 4155 1267 4186 1523 4186 
L 2170 4186 
C 2995 4186 3232 3714 3232 3184 
C 3232 2604 2950 2176 2170 2176 
L 1254 2176 
z
" transform="scale(0.015625)"/>
      </defs>
      <use xlink:href="#CMR17-50" transform="scale(0.996264)"/>
      <use xlink:href="#CMR17-6f" transform="translate(59.983847 0)scale(0.996264)"/>
      <use xlink:href="#CMR17-73" transform="translate(105.674324 0)scale(0.996264)"/>
      <use xlink:href="#CMR17-69" transform="translate(141.475661 0)scale(0.996264)"/>
      <use xlink:href="#CMR17-74" transform="translate(166.34672 0)scale(0.996264)"/>
      <use xlink:href="#CMR17-69" transform="translate(201.627488 0)scale(0.996264)"/>
      <use xlink:href="#CMR17-76" transform="translate(226.498546 0)scale(0.996264)"/>
      <use xlink:href="#CMR17-65" transform="translate(272.189008 0)scale(0.996264)"/>
      <use xlink:href="#CMR17-45" transform="translate(342.750635 0)scale(0.996264)"/>
      <use xlink:href="#CMR17-6c" transform="translate(405.336935 0)scale(0.996264)"/>
      <use xlink:href="#CMR17-65" transform="translate(430.207994 0)scale(0.996264)"/>
      <use xlink:href="#CMR17-6b" transform="translate(470.693654 0)scale(0.996264)"/>
      <use xlink:href="#CMR17-74" transform="translate(518.98657 0)scale(0.996264)"/>
      <use xlink:href="#CMR17-72" transform="translate(554.267338 0)scale(0.996264)"/>
      <use xlink:href="#CMR17-6f" transform="translate(589.548106 0)scale(0.996264)"/>
      <use xlink:href="#CMR17-64" transform="translate(637.841022 0)scale(0.996264)"/>
      <use xlink:href="#CMR17-65" transform="translate(688.736391 0)scale(0.996264)"/>
     </g>
    </g>
   </g>
  </g>
 </g>
 <defs>
  <clipPath id="pa01f62b64e">
   <rect x="64.816" y="3.6" width="558" height="326.16"/>
  </clipPath>
 </defs>
</svg>
