<?xml version="1.0" encoding="utf-8" standalone="no"?>
<!DOCTYPE svg PUBLIC "-//W3C//DTD SVG 1.1//EN"
  "http://www.w3.org/Graphics/SVG/1.1/DTD/svg11.dtd">
<svg xmlns:xlink="http://www.w3.org/1999/xlink" width="688.32pt" height="328.32pt" viewBox="0 0 688.32 328.32" xmlns="http://www.w3.org/2000/svg" version="1.1">
 <metadata>
  <rdf:RDF xmlns:dc="http://purl.org/dc/elements/1.1/" xmlns:cc="http://creativecommons.org/ns#" xmlns:rdf="http://www.w3.org/1999/02/22-rdf-syntax-ns#">
   <cc:Work>
    <dc:type rdf:resource="http://purl.org/dc/dcmitype/StillImage"/>
    <dc:date>2023-01-28T09:39:21.899197</dc:date>
    <dc:format>image/svg+xml</dc:format>
    <dc:creator>
     <cc:Agent>
      <dc:title>Matplotlib v3.5.1, https://matplotlib.org/</dc:title>
     </cc:Agent>
    </dc:creator>
   </cc:Work>
  </rdf:RDF>
 </metadata>
 <defs>
  <style type="text/css">*{stroke-linejoin: round; stroke-linecap: butt}</style>
 </defs>
 <g id="figure_1">
  <g id="patch_1">
   <path d="M 0 328.32 
L 688.32 328.32 
L 688.32 0 
L 0 0 
z
" style="fill: #ffffff"/>
  </g>
  <g id="axes_1">
   <g id="patch_2">
    <path d="M 43.489936 285.337271 
L 326.486009 285.337271 
L 326.486009 3.6 
L 43.489936 3.6 
z
" style="fill: #ffffff"/>
   </g>
   <g id="matplotlib.axis_1">
    <g id="xtick_1">
     <g id="line2d_1">
      <path d="M 70.917769 285.337271 
L 70.917769 3.6 
" clip-path="url(#pcfc478babe)" style="fill: none; stroke-dasharray: 1.85,0.8; stroke-dashoffset: 0; stroke: #000000; stroke-opacity: 0.5; stroke-width: 0.5"/>
     </g>
     <g id="line2d_2">
      <defs>
       <path id="m9edad8da3f" d="M 0 0 
L 0 -3 
" style="stroke: #000000; stroke-width: 0.5"/>
      </defs>
      <g>
       <use xlink:href="#m9edad8da3f" x="70.917769" y="285.337271" style="stroke: #000000; stroke-width: 0.5"/>
      </g>
     </g>
     <g id="line2d_3">
      <defs>
       <path id="mbee02bee65" d="M 0 0 
L 0 3 
" style="stroke: #000000; stroke-width: 0.5"/>
      </defs>
      <g>
       <use xlink:href="#mbee02bee65" x="70.917769" y="3.6" style="stroke: #000000; stroke-width: 0.5"/>
      </g>
     </g>
     <g id="text_1">
      <!-- $\mathdefault{−10}$ -->
      <g transform="translate(55.719613 301.290572)scale(0.18 -0.18)">
       <defs>
        <path id="CMSY10-0" d="M 4218 1472 
C 4326 1472 4442 1472 4442 1600 
C 4442 1728 4326 1728 4218 1728 
L 755 1728 
C 646 1728 531 1728 531 1600 
C 531 1472 646 1472 755 1472 
L 4218 1472 
z
" transform="scale(0.015625)"/>
        <path id="CMR17-31" d="M 1702 4058 
C 1702 4192 1696 4192 1606 4192 
C 1357 3916 979 3827 621 3827 
C 602 3827 570 3827 563 3808 
C 557 3795 557 3782 557 3648 
C 755 3648 1088 3686 1344 3839 
L 1344 461 
C 1344 236 1331 160 781 160 
L 589 160 
L 589 0 
C 896 0 1216 0 1523 0 
C 1830 0 2150 0 2458 0 
L 2458 160 
L 2266 160 
C 1715 160 1702 230 1702 458 
L 1702 4058 
z
" transform="scale(0.015625)"/>
        <path id="CMR17-30" d="M 2688 2025 
C 2688 2416 2682 3080 2413 3591 
C 2176 4039 1798 4198 1466 4198 
C 1158 4198 768 4058 525 3597 
C 269 3118 243 2524 243 2025 
C 243 1661 250 1106 448 619 
C 723 -39 1216 -128 1466 -128 
C 1760 -128 2208 -7 2470 600 
C 2662 1042 2688 1559 2688 2025 
z
M 1466 -26 
C 1056 -26 813 325 723 812 
C 653 1188 653 1738 653 2096 
C 653 2588 653 2997 736 3387 
C 858 3929 1216 4096 1466 4096 
C 1728 4096 2067 3923 2189 3400 
C 2272 3036 2278 2607 2278 2096 
C 2278 1680 2278 1169 2202 792 
C 2067 95 1690 -26 1466 -26 
z
" transform="scale(0.015625)"/>
       </defs>
       <use xlink:href="#CMSY10-0" transform="scale(0.996264)"/>
       <use xlink:href="#CMR17-31" transform="translate(77.487468 0)scale(0.996264)"/>
       <use xlink:href="#CMR17-30" transform="translate(123.177945 0)scale(0.996264)"/>
      </g>
     </g>
    </g>
    <g id="xtick_2">
     <g id="line2d_4">
      <path d="M 143.739646 285.337271 
L 143.739646 3.6 
" clip-path="url(#pcfc478babe)" style="fill: none; stroke-dasharray: 1.85,0.8; stroke-dashoffset: 0; stroke: #000000; stroke-opacity: 0.5; stroke-width: 0.5"/>
     </g>
     <g id="line2d_5">
      <g>
       <use xlink:href="#m9edad8da3f" x="143.739646" y="285.337271" style="stroke: #000000; stroke-width: 0.5"/>
      </g>
     </g>
     <g id="line2d_6">
      <g>
       <use xlink:href="#mbee02bee65" x="143.739646" y="3.6" style="stroke: #000000; stroke-width: 0.5"/>
      </g>
     </g>
     <g id="text_2">
      <!-- $\mathdefault{0}$ -->
      <g transform="translate(139.627503 301.290572)scale(0.18 -0.18)">
       <use xlink:href="#CMR17-30" transform="scale(0.996264)"/>
      </g>
     </g>
    </g>
    <g id="xtick_3">
     <g id="line2d_7">
      <path d="M 216.561523 285.337271 
L 216.561523 3.6 
" clip-path="url(#pcfc478babe)" style="fill: none; stroke-dasharray: 1.85,0.8; stroke-dashoffset: 0; stroke: #000000; stroke-opacity: 0.5; stroke-width: 0.5"/>
     </g>
     <g id="line2d_8">
      <g>
       <use xlink:href="#m9edad8da3f" x="216.561523" y="285.337271" style="stroke: #000000; stroke-width: 0.5"/>
      </g>
     </g>
     <g id="line2d_9">
      <g>
       <use xlink:href="#mbee02bee65" x="216.561523" y="3.6" style="stroke: #000000; stroke-width: 0.5"/>
      </g>
     </g>
     <g id="text_3">
      <!-- $\mathdefault{10}$ -->
      <g transform="translate(208.337237 301.290572)scale(0.18 -0.18)">
       <use xlink:href="#CMR17-31" transform="scale(0.996264)"/>
       <use xlink:href="#CMR17-30" transform="translate(45.690477 0)scale(0.996264)"/>
      </g>
     </g>
    </g>
    <g id="xtick_4">
     <g id="line2d_10">
      <path d="M 289.3834 285.337271 
L 289.3834 3.6 
" clip-path="url(#pcfc478babe)" style="fill: none; stroke-dasharray: 1.85,0.8; stroke-dashoffset: 0; stroke: #000000; stroke-opacity: 0.5; stroke-width: 0.5"/>
     </g>
     <g id="line2d_11">
      <g>
       <use xlink:href="#m9edad8da3f" x="289.3834" y="285.337271" style="stroke: #000000; stroke-width: 0.5"/>
      </g>
     </g>
     <g id="line2d_12">
      <g>
       <use xlink:href="#mbee02bee65" x="289.3834" y="3.6" style="stroke: #000000; stroke-width: 0.5"/>
      </g>
     </g>
     <g id="text_4">
      <!-- $\mathdefault{20}$ -->
      <g transform="translate(281.159114 301.290572)scale(0.18 -0.18)">
       <defs>
        <path id="CMR17-32" d="M 2669 989 
L 2554 989 
C 2490 536 2438 459 2413 420 
C 2381 369 1920 369 1830 369 
L 602 369 
C 832 619 1280 1072 1824 1597 
C 2214 1967 2669 2402 2669 3035 
C 2669 3790 2067 4224 1395 4224 
C 691 4224 262 3604 262 3030 
C 262 2780 448 2748 525 2748 
C 589 2748 781 2787 781 3010 
C 781 3207 614 3264 525 3264 
C 486 3264 448 3258 422 3245 
C 544 3790 915 4058 1306 4058 
C 1862 4058 2227 3617 2227 3035 
C 2227 2479 1901 2000 1536 1584 
L 262 146 
L 262 0 
L 2515 0 
L 2669 989 
z
" transform="scale(0.015625)"/>
       </defs>
       <use xlink:href="#CMR17-32" transform="scale(0.996264)"/>
       <use xlink:href="#CMR17-30" transform="translate(45.690477 0)scale(0.996264)"/>
      </g>
     </g>
    </g>
    <g id="xtick_5">
     <g id="line2d_13">
      <defs>
       <path id="m0fc286d8b5" d="M 0 0 
L 0 -1.5 
" style="stroke: #000000; stroke-width: 0.5"/>
      </defs>
      <g>
       <use xlink:href="#m0fc286d8b5" x="56.353394" y="285.337271" style="stroke: #000000; stroke-width: 0.5"/>
      </g>
     </g>
     <g id="line2d_14">
      <defs>
       <path id="m7227a3dbbb" d="M 0 0 
L 0 1.5 
" style="stroke: #000000; stroke-width: 0.5"/>
      </defs>
      <g>
       <use xlink:href="#m7227a3dbbb" x="56.353394" y="3.6" style="stroke: #000000; stroke-width: 0.5"/>
      </g>
     </g>
    </g>
    <g id="xtick_6">
     <g id="line2d_15">
      <g>
       <use xlink:href="#m0fc286d8b5" x="85.482145" y="285.337271" style="stroke: #000000; stroke-width: 0.5"/>
      </g>
     </g>
     <g id="line2d_16">
      <g>
       <use xlink:href="#m7227a3dbbb" x="85.482145" y="3.6" style="stroke: #000000; stroke-width: 0.5"/>
      </g>
     </g>
    </g>
    <g id="xtick_7">
     <g id="line2d_17">
      <g>
       <use xlink:href="#m0fc286d8b5" x="100.04652" y="285.337271" style="stroke: #000000; stroke-width: 0.5"/>
      </g>
     </g>
     <g id="line2d_18">
      <g>
       <use xlink:href="#m7227a3dbbb" x="100.04652" y="3.6" style="stroke: #000000; stroke-width: 0.5"/>
      </g>
     </g>
    </g>
    <g id="xtick_8">
     <g id="line2d_19">
      <g>
       <use xlink:href="#m0fc286d8b5" x="114.610895" y="285.337271" style="stroke: #000000; stroke-width: 0.5"/>
      </g>
     </g>
     <g id="line2d_20">
      <g>
       <use xlink:href="#m7227a3dbbb" x="114.610895" y="3.6" style="stroke: #000000; stroke-width: 0.5"/>
      </g>
     </g>
    </g>
    <g id="xtick_9">
     <g id="line2d_21">
      <g>
       <use xlink:href="#m0fc286d8b5" x="129.175271" y="285.337271" style="stroke: #000000; stroke-width: 0.5"/>
      </g>
     </g>
     <g id="line2d_22">
      <g>
       <use xlink:href="#m7227a3dbbb" x="129.175271" y="3.6" style="stroke: #000000; stroke-width: 0.5"/>
      </g>
     </g>
    </g>
    <g id="xtick_10">
     <g id="line2d_23">
      <g>
       <use xlink:href="#m0fc286d8b5" x="158.304022" y="285.337271" style="stroke: #000000; stroke-width: 0.5"/>
      </g>
     </g>
     <g id="line2d_24">
      <g>
       <use xlink:href="#m7227a3dbbb" x="158.304022" y="3.6" style="stroke: #000000; stroke-width: 0.5"/>
      </g>
     </g>
    </g>
    <g id="xtick_11">
     <g id="line2d_25">
      <g>
       <use xlink:href="#m0fc286d8b5" x="172.868397" y="285.337271" style="stroke: #000000; stroke-width: 0.5"/>
      </g>
     </g>
     <g id="line2d_26">
      <g>
       <use xlink:href="#m7227a3dbbb" x="172.868397" y="3.6" style="stroke: #000000; stroke-width: 0.5"/>
      </g>
     </g>
    </g>
    <g id="xtick_12">
     <g id="line2d_27">
      <g>
       <use xlink:href="#m0fc286d8b5" x="187.432772" y="285.337271" style="stroke: #000000; stroke-width: 0.5"/>
      </g>
     </g>
     <g id="line2d_28">
      <g>
       <use xlink:href="#m7227a3dbbb" x="187.432772" y="3.6" style="stroke: #000000; stroke-width: 0.5"/>
      </g>
     </g>
    </g>
    <g id="xtick_13">
     <g id="line2d_29">
      <g>
       <use xlink:href="#m0fc286d8b5" x="201.997148" y="285.337271" style="stroke: #000000; stroke-width: 0.5"/>
      </g>
     </g>
     <g id="line2d_30">
      <g>
       <use xlink:href="#m7227a3dbbb" x="201.997148" y="3.6" style="stroke: #000000; stroke-width: 0.5"/>
      </g>
     </g>
    </g>
    <g id="xtick_14">
     <g id="line2d_31">
      <g>
       <use xlink:href="#m0fc286d8b5" x="231.125899" y="285.337271" style="stroke: #000000; stroke-width: 0.5"/>
      </g>
     </g>
     <g id="line2d_32">
      <g>
       <use xlink:href="#m7227a3dbbb" x="231.125899" y="3.6" style="stroke: #000000; stroke-width: 0.5"/>
      </g>
     </g>
    </g>
    <g id="xtick_15">
     <g id="line2d_33">
      <g>
       <use xlink:href="#m0fc286d8b5" x="245.690274" y="285.337271" style="stroke: #000000; stroke-width: 0.5"/>
      </g>
     </g>
     <g id="line2d_34">
      <g>
       <use xlink:href="#m7227a3dbbb" x="245.690274" y="3.6" style="stroke: #000000; stroke-width: 0.5"/>
      </g>
     </g>
    </g>
    <g id="xtick_16">
     <g id="line2d_35">
      <g>
       <use xlink:href="#m0fc286d8b5" x="260.254649" y="285.337271" style="stroke: #000000; stroke-width: 0.5"/>
      </g>
     </g>
     <g id="line2d_36">
      <g>
       <use xlink:href="#m7227a3dbbb" x="260.254649" y="3.6" style="stroke: #000000; stroke-width: 0.5"/>
      </g>
     </g>
    </g>
    <g id="xtick_17">
     <g id="line2d_37">
      <g>
       <use xlink:href="#m0fc286d8b5" x="274.819025" y="285.337271" style="stroke: #000000; stroke-width: 0.5"/>
      </g>
     </g>
     <g id="line2d_38">
      <g>
       <use xlink:href="#m7227a3dbbb" x="274.819025" y="3.6" style="stroke: #000000; stroke-width: 0.5"/>
      </g>
     </g>
    </g>
    <g id="xtick_18">
     <g id="line2d_39">
      <g>
       <use xlink:href="#m0fc286d8b5" x="303.947776" y="285.337271" style="stroke: #000000; stroke-width: 0.5"/>
      </g>
     </g>
     <g id="line2d_40">
      <g>
       <use xlink:href="#m7227a3dbbb" x="303.947776" y="3.6" style="stroke: #000000; stroke-width: 0.5"/>
      </g>
     </g>
    </g>
    <g id="xtick_19">
     <g id="line2d_41">
      <g>
       <use xlink:href="#m0fc286d8b5" x="318.512151" y="285.337271" style="stroke: #000000; stroke-width: 0.5"/>
      </g>
     </g>
     <g id="line2d_42">
      <g>
       <use xlink:href="#m7227a3dbbb" x="318.512151" y="3.6" style="stroke: #000000; stroke-width: 0.5"/>
      </g>
     </g>
    </g>
    <g id="text_5">
     <!-- Zeit ab Peak in s -->
     <g transform="translate(123.819687 321.231936)scale(0.18 -0.18)">
      <defs>
       <path id="CMR17-5a" d="M 3302 4230 
C 3302 4352 3296 4352 3162 4352 
L 442 4352 
L 378 2948 
L 493 2948 
C 531 3675 723 4192 1760 4192 
L 2816 4192 
L 339 204 
C 294 134 294 127 294 83 
C 294 0 307 0 435 0 
L 3245 0 
L 3334 1666 
L 3219 1666 
C 3162 829 3117 178 1894 178 
L 781 178 
L 3302 4230 
z
" transform="scale(0.015625)"/>
       <path id="CMR17-65" d="M 2438 1472 
C 2464 1498 2464 1511 2464 1576 
C 2464 2238 2118 2816 1389 2816 
C 710 2816 173 2169 173 1383 
C 173 551 781 -64 1459 -64 
C 2176 -64 2458 607 2458 740 
C 2458 784 2419 784 2406 784 
C 2362 784 2355 771 2330 696 
C 2189 265 1837 51 1504 51 
C 1229 51 954 203 781 480 
C 582 803 582 1176 582 1472 
L 2438 1472 
z
M 589 1568 
C 634 2505 1126 2714 1382 2714 
C 1818 2714 2112 2297 2118 1568 
L 589 1568 
z
" transform="scale(0.015625)"/>
       <path id="CMR17-69" d="M 992 3909 
C 992 4049 877 4170 730 4170 
C 589 4170 467 4056 467 3909 
C 467 3769 582 3648 730 3648 
C 870 3648 992 3763 992 3909 
z
M 243 2706 
L 243 2541 
C 602 2541 653 2502 653 2197 
L 653 427 
C 653 184 627 153 218 153 
L 218 -13 
C 371 0 646 0 806 0 
C 960 0 1222 0 1370 -13 
L 1370 153 
C 992 153 979 191 979 420 
L 979 2776 
L 243 2706 
z
" transform="scale(0.015625)"/>
       <path id="CMR17-74" d="M 966 2560 
L 1862 2560 
L 1862 2725 
L 966 2725 
L 966 3904 
L 851 3904 
C 838 3245 614 2668 70 2668 
L 70 2560 
L 627 2560 
L 627 771 
C 627 650 627 -64 1370 -64 
C 1747 -64 1965 306 1965 777 
L 1965 1140 
L 1850 1140 
L 1850 783 
C 1850 344 1677 51 1408 51 
C 1222 51 966 178 966 758 
L 966 2560 
z
" transform="scale(0.015625)"/>
       <path id="CMR17-61" d="M 2304 1653 
C 2304 2072 2304 2294 2035 2543 
C 1798 2752 1523 2816 1306 2816 
C 800 2816 435 2407 435 1971 
C 435 1728 627 1728 666 1728 
C 749 1728 896 1778 896 1954 
C 896 2112 774 2181 666 2181 
C 640 2181 608 2174 589 2168 
C 723 2592 1069 2714 1293 2714 
C 1613 2714 1965 2429 1965 1885 
L 1965 1600 
C 1587 1600 1133 1549 774 1357 
C 371 1133 256 813 256 570 
C 256 77 832 -64 1171 -64 
C 1523 -64 1850 139 1990 511 
C 2003 233 2182 -18 2464 -18 
C 2598 -18 2938 70 2938 567 
L 2938 920 
L 2822 920 
L 2822 562 
C 2822 178 2650 128 2566 128 
C 2304 128 2304 458 2304 738 
L 2304 1653 
z
M 1965 870 
C 1965 317 1568 38 1216 38 
C 896 38 646 275 646 570 
C 646 761 730 1100 1101 1305 
C 1408 1478 1760 1504 1965 1504 
L 1965 870 
z
" transform="scale(0.015625)"/>
       <path id="CMR17-62" d="M 960 4396 
L 198 4326 
L 198 4160 
C 576 4160 634 4122 634 3817 
L 634 -13 
L 749 -13 
L 934 441 
C 1120 141 1395 -64 1766 -64 
C 2406 -64 3053 500 3053 1370 
C 3053 2188 2477 2790 1830 2790 
C 1434 2790 1152 2579 960 2330 
L 960 4396 
z
M 973 2004 
C 973 2118 973 2138 1062 2272 
C 1312 2657 1670 2688 1792 2688 
C 1984 2688 2643 2585 2643 1376 
C 2643 108 1888 38 1734 38 
C 1536 38 1248 114 1043 486 
C 973 608 973 621 973 735 
L 973 2004 
z
" transform="scale(0.015625)"/>
       <path id="CMR17-50" d="M 1267 2042 
L 2291 2042 
C 3117 2042 3718 2578 3718 3184 
C 3718 3791 3130 4352 2291 4352 
L 333 4352 
L 333 4186 
C 774 4186 845 4186 845 3899 
L 845 446 
C 845 160 774 160 333 160 
L 333 0 
C 518 0 858 0 1056 0 
C 1254 0 1594 0 1779 0 
L 1779 160 
C 1338 160 1267 160 1267 446 
L 1267 2042 
z
M 1254 2176 
L 1254 3938 
C 1254 4155 1267 4186 1523 4186 
L 2170 4186 
C 2995 4186 3232 3714 3232 3184 
C 3232 2604 2950 2176 2170 2176 
L 1254 2176 
z
" transform="scale(0.015625)"/>
       <path id="CMR17-6b" d="M 1670 1673 
C 1664 1686 1632 1724 1632 1743 
C 1632 1756 2086 2171 2144 2222 
C 2509 2528 2739 2560 2906 2560 
L 2906 2733 
C 2867 2733 2854 2733 2848 2720 
L 2534 2720 
C 2355 2720 2080 2720 1907 2733 
L 1907 2566 
C 1997 2559 2061 2508 2061 2419 
C 2061 2291 1933 2170 1926 2170 
L 960 1289 
L 960 4396 
L 198 4326 
L 198 4160 
C 576 4160 634 4122 634 3817 
L 634 426 
C 634 184 608 153 198 153 
L 198 -13 
C 352 0 634 0 794 0 
C 954 0 1235 0 1389 -13 
L 1389 153 
C 979 153 954 178 954 428 
L 954 1130 
L 1395 1532 
L 2042 574 
C 2118 459 2182 369 2182 286 
C 2182 172 2067 153 1990 153 
L 1990 -13 
C 2144 0 2419 0 2579 0 
C 2694 0 2931 0 3040 0 
L 3040 153 
C 2739 153 2669 210 2477 491 
L 1670 1673 
z
" transform="scale(0.015625)"/>
       <path id="CMR17-6e" d="M 2656 1933 
C 2656 2259 2592 2790 1837 2790 
C 1331 2790 1069 2400 973 2144 
L 966 2144 
L 966 2790 
L 211 2720 
L 211 2554 
C 589 2554 646 2515 646 2208 
L 646 428 
C 646 184 621 153 211 153 
L 211 -13 
C 365 0 646 0 813 0 
C 979 0 1267 0 1421 -13 
L 1421 153 
C 1011 153 986 178 986 428 
L 986 1658 
C 986 2247 1344 2688 1792 2688 
C 2266 2688 2317 2266 2317 1958 
L 2317 428 
C 2317 184 2291 153 1882 153 
L 1882 -13 
C 2035 0 2317 0 2483 0 
C 2650 0 2938 0 3091 -13 
L 3091 153 
C 2682 153 2656 178 2656 428 
L 2656 1933 
z
" transform="scale(0.015625)"/>
       <path id="CMR17-73" d="M 1978 2697 
C 1978 2813 1971 2819 1933 2819 
C 1907 2819 1901 2813 1824 2717 
C 1805 2691 1747 2626 1728 2601 
C 1523 2819 1235 2819 1126 2819 
C 416 2819 160 2447 160 2076 
C 160 1498 813 1365 998 1325 
C 1402 1243 1542 1217 1677 1101 
C 1760 1025 1901 884 1901 654 
C 1901 384 1747 38 1158 38 
C 602 38 403 460 288 1021 
C 269 1110 269 1117 218 1117 
C 166 1117 160 1110 160 983 
L 160 63 
C 160 -51 166 -58 205 -58 
C 237 -58 243 -51 275 0 
C 314 57 410 211 448 276 
C 576 103 800 -64 1158 -64 
C 1792 -64 2131 283 2131 784 
C 2131 1112 1958 1285 1875 1362 
C 1683 1561 1459 1606 1190 1657 
C 838 1735 390 1825 390 2217 
C 390 2383 480 2737 1126 2737 
C 1811 2737 1850 2094 1862 1888 
C 1869 1856 1901 1849 1920 1849 
C 1978 1849 1978 1869 1978 1978 
L 1978 2697 
z
" transform="scale(0.015625)"/>
      </defs>
      <use xlink:href="#CMR17-5a" transform="scale(0.996264)"/>
      <use xlink:href="#CMR17-65" transform="translate(56.100171 0)scale(0.996264)"/>
      <use xlink:href="#CMR17-69" transform="translate(96.585832 0)scale(0.996264)"/>
      <use xlink:href="#CMR17-74" transform="translate(121.45689 0)scale(0.996264)"/>
      <use xlink:href="#CMR17-61" transform="translate(186.813624 0)scale(0.996264)"/>
      <use xlink:href="#CMR17-62" transform="translate(232.504101 0)scale(0.996264)"/>
      <use xlink:href="#CMR17-50" transform="translate(313.475438 0)scale(0.996264)"/>
      <use xlink:href="#CMR17-65" transform="translate(373.459284 0)scale(0.996264)"/>
      <use xlink:href="#CMR17-61" transform="translate(413.944945 0)scale(0.996264)"/>
      <use xlink:href="#CMR17-6b" transform="translate(459.635422 0)scale(0.996264)"/>
      <use xlink:href="#CMR17-69" transform="translate(538.004304 0)scale(0.996264)"/>
      <use xlink:href="#CMR17-6e" transform="translate(562.875362 0)scale(0.996264)"/>
      <use xlink:href="#CMR17-73" transform="translate(643.846699 0)scale(0.996264)"/>
     </g>
    </g>
   </g>
   <g id="matplotlib.axis_2">
    <g id="ytick_1">
     <g id="line2d_43">
      <path d="M 43.489936 264.334753 
L 326.486009 264.334753 
" clip-path="url(#pcfc478babe)" style="fill: none; stroke-dasharray: 1.85,0.8; stroke-dashoffset: 0; stroke: #000000; stroke-opacity: 0.5; stroke-width: 0.5"/>
     </g>
     <g id="line2d_44">
      <defs>
       <path id="m259384410e" d="M 0 0 
L 3 0 
" style="stroke: #000000; stroke-width: 0.5"/>
      </defs>
      <g>
       <use xlink:href="#m259384410e" x="43.489936" y="264.334753" style="stroke: #000000; stroke-width: 0.5"/>
      </g>
     </g>
     <g id="line2d_45">
      <defs>
       <path id="m89bb6b1c07" d="M 0 0 
L -3 0 
" style="stroke: #000000; stroke-width: 0.5"/>
      </defs>
      <g>
       <use xlink:href="#m89bb6b1c07" x="326.486009" y="264.334753" style="stroke: #000000; stroke-width: 0.5"/>
      </g>
     </g>
     <g id="text_6">
      <!-- $\mathdefault{20}$ -->
      <g transform="translate(23.541364 270.561404)scale(0.18 -0.18)">
       <use xlink:href="#CMR17-32" transform="scale(0.996264)"/>
       <use xlink:href="#CMR17-30" transform="translate(45.690477 0)scale(0.996264)"/>
      </g>
     </g>
    </g>
    <g id="ytick_2">
     <g id="line2d_46">
      <path d="M 43.489936 202.596346 
L 326.486009 202.596346 
" clip-path="url(#pcfc478babe)" style="fill: none; stroke-dasharray: 1.85,0.8; stroke-dashoffset: 0; stroke: #000000; stroke-opacity: 0.5; stroke-width: 0.5"/>
     </g>
     <g id="line2d_47">
      <g>
       <use xlink:href="#m259384410e" x="43.489936" y="202.596346" style="stroke: #000000; stroke-width: 0.5"/>
      </g>
     </g>
     <g id="line2d_48">
      <g>
       <use xlink:href="#m89bb6b1c07" x="326.486009" y="202.596346" style="stroke: #000000; stroke-width: 0.5"/>
      </g>
     </g>
     <g id="text_7">
      <!-- $\mathdefault{30}$ -->
      <g transform="translate(23.541364 208.822996)scale(0.18 -0.18)">
       <defs>
        <path id="CMR17-33" d="M 1414 2157 
C 1984 2157 2234 1662 2234 1090 
C 2234 320 1824 25 1453 25 
C 1114 25 563 194 390 693 
C 422 680 454 680 486 680 
C 640 680 755 782 755 948 
C 755 1133 614 1216 486 1216 
C 378 1216 211 1165 211 926 
C 211 335 787 -128 1466 -128 
C 2176 -128 2720 430 2720 1085 
C 2720 1707 2208 2157 1600 2227 
C 2086 2328 2554 2756 2554 3329 
C 2554 3820 2048 4179 1472 4179 
C 890 4179 378 3829 378 3329 
C 378 3110 544 3072 627 3072 
C 762 3072 877 3155 877 3321 
C 877 3486 762 3569 627 3569 
C 602 3569 570 3569 544 3557 
C 730 3959 1235 4032 1459 4032 
C 1683 4032 2106 3925 2106 3320 
C 2106 3143 2080 2828 1862 2550 
C 1670 2304 1453 2304 1242 2284 
C 1210 2284 1062 2269 1037 2269 
C 992 2263 966 2257 966 2208 
C 966 2163 973 2157 1101 2157 
L 1414 2157 
z
" transform="scale(0.015625)"/>
       </defs>
       <use xlink:href="#CMR17-33" transform="scale(0.996264)"/>
       <use xlink:href="#CMR17-30" transform="translate(45.690477 0)scale(0.996264)"/>
      </g>
     </g>
    </g>
    <g id="ytick_3">
     <g id="line2d_49">
      <path d="M 43.489936 140.857938 
L 326.486009 140.857938 
" clip-path="url(#pcfc478babe)" style="fill: none; stroke-dasharray: 1.85,0.8; stroke-dashoffset: 0; stroke: #000000; stroke-opacity: 0.5; stroke-width: 0.5"/>
     </g>
     <g id="line2d_50">
      <g>
       <use xlink:href="#m259384410e" x="43.489936" y="140.857938" style="stroke: #000000; stroke-width: 0.5"/>
      </g>
     </g>
     <g id="line2d_51">
      <g>
       <use xlink:href="#m89bb6b1c07" x="326.486009" y="140.857938" style="stroke: #000000; stroke-width: 0.5"/>
      </g>
     </g>
     <g id="text_8">
      <!-- $\mathdefault{40}$ -->
      <g transform="translate(23.541364 147.084588)scale(0.18 -0.18)">
       <defs>
        <path id="CMR17-34" d="M 2150 4122 
C 2150 4256 2144 4256 2029 4256 
L 128 1254 
L 128 1088 
L 1779 1088 
L 1779 457 
C 1779 224 1766 160 1318 160 
L 1197 160 
L 1197 0 
C 1402 0 1747 0 1965 0 
C 2182 0 2528 0 2733 0 
L 2733 160 
L 2611 160 
C 2163 160 2150 224 2150 457 
L 2150 1088 
L 2803 1088 
L 2803 1254 
L 2150 1254 
L 2150 4122 
z
M 1798 3703 
L 1798 1254 
L 256 1254 
L 1798 3703 
z
" transform="scale(0.015625)"/>
       </defs>
       <use xlink:href="#CMR17-34" transform="scale(0.996264)"/>
       <use xlink:href="#CMR17-30" transform="translate(45.690477 0)scale(0.996264)"/>
      </g>
     </g>
    </g>
    <g id="ytick_4">
     <g id="line2d_52">
      <path d="M 43.489936 79.11953 
L 326.486009 79.11953 
" clip-path="url(#pcfc478babe)" style="fill: none; stroke-dasharray: 1.85,0.8; stroke-dashoffset: 0; stroke: #000000; stroke-opacity: 0.5; stroke-width: 0.5"/>
     </g>
     <g id="line2d_53">
      <g>
       <use xlink:href="#m259384410e" x="43.489936" y="79.11953" style="stroke: #000000; stroke-width: 0.5"/>
      </g>
     </g>
     <g id="line2d_54">
      <g>
       <use xlink:href="#m89bb6b1c07" x="326.486009" y="79.11953" style="stroke: #000000; stroke-width: 0.5"/>
      </g>
     </g>
     <g id="text_9">
      <!-- $\mathdefault{50}$ -->
      <g transform="translate(23.541364 85.34618)scale(0.18 -0.18)">
       <defs>
        <path id="CMR17-35" d="M 730 3692 
C 794 3666 1056 3584 1325 3584 
C 1920 3584 2246 3911 2432 4100 
C 2432 4157 2432 4192 2394 4192 
C 2387 4192 2374 4192 2323 4163 
C 2099 4058 1837 3973 1517 3973 
C 1325 3973 1037 3999 723 4139 
C 653 4171 640 4171 634 4171 
C 602 4171 595 4164 595 4037 
L 595 2203 
C 595 2089 595 2057 659 2057 
C 691 2057 704 2070 736 2114 
C 941 2401 1222 2522 1542 2522 
C 1766 2522 2246 2382 2246 1289 
C 2246 1085 2246 715 2054 421 
C 1894 159 1645 25 1370 25 
C 947 25 518 320 403 814 
C 429 807 480 795 506 795 
C 589 795 749 840 749 1038 
C 749 1210 627 1280 506 1280 
C 358 1280 262 1190 262 1011 
C 262 454 704 -128 1382 -128 
C 2042 -128 2669 440 2669 1264 
C 2669 2030 2170 2624 1549 2624 
C 1222 2624 947 2503 730 2274 
L 730 3692 
z
" transform="scale(0.015625)"/>
       </defs>
       <use xlink:href="#CMR17-35" transform="scale(0.996264)"/>
       <use xlink:href="#CMR17-30" transform="translate(45.690477 0)scale(0.996264)"/>
      </g>
     </g>
    </g>
    <g id="ytick_5">
     <g id="line2d_55">
      <path d="M 43.489936 17.381122 
L 326.486009 17.381122 
" clip-path="url(#pcfc478babe)" style="fill: none; stroke-dasharray: 1.85,0.8; stroke-dashoffset: 0; stroke: #000000; stroke-opacity: 0.5; stroke-width: 0.5"/>
     </g>
     <g id="line2d_56">
      <g>
       <use xlink:href="#m259384410e" x="43.489936" y="17.381122" style="stroke: #000000; stroke-width: 0.5"/>
      </g>
     </g>
     <g id="line2d_57">
      <g>
       <use xlink:href="#m89bb6b1c07" x="326.486009" y="17.381122" style="stroke: #000000; stroke-width: 0.5"/>
      </g>
     </g>
     <g id="text_10">
      <!-- $\mathdefault{60}$ -->
      <g transform="translate(23.541364 23.607772)scale(0.18 -0.18)">
       <defs>
        <path id="CMR17-36" d="M 678 2176 
C 678 3690 1395 4032 1811 4032 
C 1946 4032 2272 4009 2400 3776 
C 2298 3776 2106 3776 2106 3553 
C 2106 3381 2246 3323 2336 3323 
C 2394 3323 2566 3348 2566 3560 
C 2566 3954 2246 4179 1805 4179 
C 1043 4179 243 3390 243 1984 
C 243 253 966 -128 1478 -128 
C 2099 -128 2688 427 2688 1283 
C 2688 2081 2170 2662 1517 2662 
C 1126 2662 838 2407 678 1960 
L 678 2176 
z
M 1478 25 
C 691 25 691 1200 691 1436 
C 691 1896 909 2560 1504 2560 
C 1613 2560 1926 2560 2138 2120 
C 2253 1870 2253 1609 2253 1289 
C 2253 944 2253 690 2118 434 
C 1978 171 1773 25 1478 25 
z
" transform="scale(0.015625)"/>
       </defs>
       <use xlink:href="#CMR17-36" transform="scale(0.996264)"/>
       <use xlink:href="#CMR17-30" transform="translate(45.690477 0)scale(0.996264)"/>
      </g>
     </g>
    </g>
    <g id="ytick_6">
     <g id="line2d_58">
      <defs>
       <path id="mad4de0b173" d="M 0 0 
L 1.5 0 
" style="stroke: #000000; stroke-width: 0.5"/>
      </defs>
      <g>
       <use xlink:href="#mad4de0b173" x="43.489936" y="276.682435" style="stroke: #000000; stroke-width: 0.5"/>
      </g>
     </g>
     <g id="line2d_59">
      <defs>
       <path id="m5ce600836a" d="M 0 0 
L -1.5 0 
" style="stroke: #000000; stroke-width: 0.5"/>
      </defs>
      <g>
       <use xlink:href="#m5ce600836a" x="326.486009" y="276.682435" style="stroke: #000000; stroke-width: 0.5"/>
      </g>
     </g>
    </g>
    <g id="ytick_7">
     <g id="line2d_60">
      <g>
       <use xlink:href="#mad4de0b173" x="43.489936" y="251.987072" style="stroke: #000000; stroke-width: 0.5"/>
      </g>
     </g>
     <g id="line2d_61">
      <g>
       <use xlink:href="#m5ce600836a" x="326.486009" y="251.987072" style="stroke: #000000; stroke-width: 0.5"/>
      </g>
     </g>
    </g>
    <g id="ytick_8">
     <g id="line2d_62">
      <g>
       <use xlink:href="#mad4de0b173" x="43.489936" y="239.63939" style="stroke: #000000; stroke-width: 0.5"/>
      </g>
     </g>
     <g id="line2d_63">
      <g>
       <use xlink:href="#m5ce600836a" x="326.486009" y="239.63939" style="stroke: #000000; stroke-width: 0.5"/>
      </g>
     </g>
    </g>
    <g id="ytick_9">
     <g id="line2d_64">
      <g>
       <use xlink:href="#mad4de0b173" x="43.489936" y="227.291709" style="stroke: #000000; stroke-width: 0.5"/>
      </g>
     </g>
     <g id="line2d_65">
      <g>
       <use xlink:href="#m5ce600836a" x="326.486009" y="227.291709" style="stroke: #000000; stroke-width: 0.5"/>
      </g>
     </g>
    </g>
    <g id="ytick_10">
     <g id="line2d_66">
      <g>
       <use xlink:href="#mad4de0b173" x="43.489936" y="214.944027" style="stroke: #000000; stroke-width: 0.5"/>
      </g>
     </g>
     <g id="line2d_67">
      <g>
       <use xlink:href="#m5ce600836a" x="326.486009" y="214.944027" style="stroke: #000000; stroke-width: 0.5"/>
      </g>
     </g>
    </g>
    <g id="ytick_11">
     <g id="line2d_68">
      <g>
       <use xlink:href="#mad4de0b173" x="43.489936" y="190.248664" style="stroke: #000000; stroke-width: 0.5"/>
      </g>
     </g>
     <g id="line2d_69">
      <g>
       <use xlink:href="#m5ce600836a" x="326.486009" y="190.248664" style="stroke: #000000; stroke-width: 0.5"/>
      </g>
     </g>
    </g>
    <g id="ytick_12">
     <g id="line2d_70">
      <g>
       <use xlink:href="#mad4de0b173" x="43.489936" y="177.900983" style="stroke: #000000; stroke-width: 0.5"/>
      </g>
     </g>
     <g id="line2d_71">
      <g>
       <use xlink:href="#m5ce600836a" x="326.486009" y="177.900983" style="stroke: #000000; stroke-width: 0.5"/>
      </g>
     </g>
    </g>
    <g id="ytick_13">
     <g id="line2d_72">
      <g>
       <use xlink:href="#mad4de0b173" x="43.489936" y="165.553301" style="stroke: #000000; stroke-width: 0.5"/>
      </g>
     </g>
     <g id="line2d_73">
      <g>
       <use xlink:href="#m5ce600836a" x="326.486009" y="165.553301" style="stroke: #000000; stroke-width: 0.5"/>
      </g>
     </g>
    </g>
    <g id="ytick_14">
     <g id="line2d_74">
      <g>
       <use xlink:href="#mad4de0b173" x="43.489936" y="153.205619" style="stroke: #000000; stroke-width: 0.5"/>
      </g>
     </g>
     <g id="line2d_75">
      <g>
       <use xlink:href="#m5ce600836a" x="326.486009" y="153.205619" style="stroke: #000000; stroke-width: 0.5"/>
      </g>
     </g>
    </g>
    <g id="ytick_15">
     <g id="line2d_76">
      <g>
       <use xlink:href="#mad4de0b173" x="43.489936" y="128.510256" style="stroke: #000000; stroke-width: 0.5"/>
      </g>
     </g>
     <g id="line2d_77">
      <g>
       <use xlink:href="#m5ce600836a" x="326.486009" y="128.510256" style="stroke: #000000; stroke-width: 0.5"/>
      </g>
     </g>
    </g>
    <g id="ytick_16">
     <g id="line2d_78">
      <g>
       <use xlink:href="#mad4de0b173" x="43.489936" y="116.162575" style="stroke: #000000; stroke-width: 0.5"/>
      </g>
     </g>
     <g id="line2d_79">
      <g>
       <use xlink:href="#m5ce600836a" x="326.486009" y="116.162575" style="stroke: #000000; stroke-width: 0.5"/>
      </g>
     </g>
    </g>
    <g id="ytick_17">
     <g id="line2d_80">
      <g>
       <use xlink:href="#mad4de0b173" x="43.489936" y="103.814893" style="stroke: #000000; stroke-width: 0.5"/>
      </g>
     </g>
     <g id="line2d_81">
      <g>
       <use xlink:href="#m5ce600836a" x="326.486009" y="103.814893" style="stroke: #000000; stroke-width: 0.5"/>
      </g>
     </g>
    </g>
    <g id="ytick_18">
     <g id="line2d_82">
      <g>
       <use xlink:href="#mad4de0b173" x="43.489936" y="91.467212" style="stroke: #000000; stroke-width: 0.5"/>
      </g>
     </g>
     <g id="line2d_83">
      <g>
       <use xlink:href="#m5ce600836a" x="326.486009" y="91.467212" style="stroke: #000000; stroke-width: 0.5"/>
      </g>
     </g>
    </g>
    <g id="ytick_19">
     <g id="line2d_84">
      <g>
       <use xlink:href="#mad4de0b173" x="43.489936" y="66.771848" style="stroke: #000000; stroke-width: 0.5"/>
      </g>
     </g>
     <g id="line2d_85">
      <g>
       <use xlink:href="#m5ce600836a" x="326.486009" y="66.771848" style="stroke: #000000; stroke-width: 0.5"/>
      </g>
     </g>
    </g>
    <g id="ytick_20">
     <g id="line2d_86">
      <g>
       <use xlink:href="#mad4de0b173" x="43.489936" y="54.424167" style="stroke: #000000; stroke-width: 0.5"/>
      </g>
     </g>
     <g id="line2d_87">
      <g>
       <use xlink:href="#m5ce600836a" x="326.486009" y="54.424167" style="stroke: #000000; stroke-width: 0.5"/>
      </g>
     </g>
    </g>
    <g id="ytick_21">
     <g id="line2d_88">
      <g>
       <use xlink:href="#mad4de0b173" x="43.489936" y="42.076485" style="stroke: #000000; stroke-width: 0.5"/>
      </g>
     </g>
     <g id="line2d_89">
      <g>
       <use xlink:href="#m5ce600836a" x="326.486009" y="42.076485" style="stroke: #000000; stroke-width: 0.5"/>
      </g>
     </g>
    </g>
    <g id="ytick_22">
     <g id="line2d_90">
      <g>
       <use xlink:href="#mad4de0b173" x="43.489936" y="29.728804" style="stroke: #000000; stroke-width: 0.5"/>
      </g>
     </g>
     <g id="line2d_91">
      <g>
       <use xlink:href="#m5ce600836a" x="326.486009" y="29.728804" style="stroke: #000000; stroke-width: 0.5"/>
      </g>
     </g>
    </g>
    <g id="ytick_23">
     <g id="line2d_92">
      <g>
       <use xlink:href="#mad4de0b173" x="43.489936" y="5.033441" style="stroke: #000000; stroke-width: 0.5"/>
      </g>
     </g>
     <g id="line2d_93">
      <g>
       <use xlink:href="#m5ce600836a" x="326.486009" y="5.033441" style="stroke: #000000; stroke-width: 0.5"/>
      </g>
     </g>
    </g>
    <g id="text_11">
     <!-- T in $^\circ$C -->
     <g transform="translate(16.0533 172.060342)rotate(-90)scale(0.18 -0.18)">
      <defs>
       <path id="CMR17-54" d="M 3981 4326 
L 288 4326 
L 179 2918 
L 294 2918 
C 378 3976 467 4160 1453 4160 
C 1568 4160 1754 4160 1805 4154 
C 1926 4135 1926 4058 1926 3912 
L 1926 459 
C 1926 230 1907 160 1376 160 
L 1197 160 
L 1197 0 
C 1504 0 1824 0 2138 0 
C 2451 0 2771 0 3078 0 
L 3078 160 
L 2899 160 
C 2368 160 2349 230 2349 459 
L 2349 3912 
C 2349 4052 2349 4129 2464 4154 
C 2515 4160 2701 4160 2816 4160 
C 3795 4160 3891 3976 3974 2918 
L 4090 2918 
L 3981 4326 
z
" transform="scale(0.015625)"/>
       <path id="CMSY10-e" d="M 2842 1600 
C 2842 2277 2272 2828 1600 2828 
C 909 2828 352 2264 352 1600 
C 352 930 909 372 1600 372 
C 2272 372 2842 923 2842 1600 
z
M 1600 628 
C 1043 628 608 1070 608 1600 
C 608 2130 1050 2572 1600 2572 
C 2131 2572 2586 2142 2586 1600 
C 2586 1058 2131 628 1600 628 
z
" transform="scale(0.015625)"/>
       <path id="CMR17-43" d="M 3974 4289 
C 3974 4403 3968 4410 3930 4410 
C 3904 4410 3898 4403 3853 4327 
L 3571 3792 
C 3258 4187 2874 4416 2381 4416 
C 1286 4416 294 3456 294 2148 
C 294 826 1286 -128 2387 -128 
C 3366 -128 3974 730 3974 1461 
C 3974 1524 3974 1550 3917 1550 
C 3866 1550 3866 1531 3859 1474 
C 3808 585 3168 38 2477 38 
C 1824 38 781 495 781 2147 
C 781 3805 1843 4250 2464 4250 
C 3187 4250 3712 3628 3834 2745 
C 3846 2668 3846 2655 3904 2655 
C 3974 2655 3974 2668 3974 2783 
L 3974 4289 
z
" transform="scale(0.015625)"/>
      </defs>
      <use xlink:href="#CMR17-54" transform="scale(0.996264)"/>
      <use xlink:href="#CMR17-69" transform="translate(96.585847 0)scale(0.996264)"/>
      <use xlink:href="#CMR17-6e" transform="translate(121.456905 0)scale(0.996264)"/>
      <use xlink:href="#CMSY10-e" transform="translate(202.428242 36.153639)scale(0.697382)"/>
      <use xlink:href="#CMR17-43" transform="translate(237.795583 0)scale(0.996264)"/>
     </g>
    </g>
   </g>
   <g id="line2d_94">
    <path d="M 56.353394 272.397431 
L 60.480707 272.428641 
L 66.145646 272.44684 
L 71.001308 272.381284 
L 71.648729 272.116609 
L 72.134295 271.692185 
L 72.619862 270.946513 
L 73.105428 269.753885 
L 73.671922 267.62789 
L 74.238416 264.584052 
L 74.966765 259.306696 
L 75.937897 250.402189 
L 78.203873 226.765952 
L 80.712632 201.749845 
L 82.816752 182.914135 
L 85.0018 165.359655 
L 87.186848 149.517779 
L 89.21004 136.367893 
L 91.476016 122.999484 
L 93.499208 112.354416 
L 95.684256 102.078675 
L 98.193015 91.468684 
L 100.378063 83.07041 
L 102.724966 74.916596 
L 104.586303 69.162559 
L 107.014134 62.369596 
L 110.413097 53.670575 
L 111.950724 50.358393 
L 114.297627 45.862712 
L 116.563603 41.953358 
L 119.638855 37.091981 
L 121.662048 34.341139 
L 124.251734 31.169826 
L 128.379047 26.597575 
L 130.887805 24.43388 
L 134.124913 21.882204 
L 137.76666 19.365636 
L 141.084696 17.497529 
L 143.593454 16.418859 
L 144.07902 16.456768 
L 144.483659 16.726842 
L 144.888297 17.318804 
L 145.292936 18.328581 
L 145.778502 20.196096 
L 146.344996 23.331233 
L 147.073345 28.723379 
L 148.125405 38.343879 
L 152.819212 83.441691 
L 155.166115 102.773268 
L 157.270236 118.304143 
L 159.778994 134.991063 
L 161.640331 146.071972 
L 163.825379 157.674454 
L 166.010427 168.1508 
L 168.03362 176.86729 
L 170.299595 185.680377 
L 172.727426 194.209539 
L 175.317113 202.422323 
L 177.421233 208.350792 
L 179.849064 214.579371 
L 182.276895 220.249036 
L 184.704726 225.314512 
L 186.808846 229.30135 
L 189.47946 233.782238 
L 191.664508 237.096369 
L 194.41605 240.847938 
L 196.843881 243.541047 
L 200.242844 247.17669 
L 202.670675 249.464061 
L 205.422217 251.86908 
L 209.225819 254.582985 
L 212.543855 256.680272 
L 217.561372 259.30471 
L 222.255178 261.320473 
L 225.492286 262.498519 
L 230.105165 264.03409 
L 237.307731 265.729751 
L 240.544839 266.392227 
L 242.648959 266.739597 
L 244.267513 267.074794 
L 246.533488 267.515284 
L 252.1175 268.137382 
L 255.192752 268.517889 
L 274.210762 269.959175 
L 285.621567 270.286975 
L 290.153519 270.575298 
L 295.413819 270.7839 
L 297.517939 270.785268 
L 301.159686 270.789129 
L 307.310191 270.983582 
L 312.084925 271.005103 
L 313.622552 271.063252 
L 313.622552 271.063252 
" clip-path="url(#pcfc478babe)" style="fill: none; stroke: #0c5da5; stroke-linecap: square"/>
   </g>
   <g id="patch_3">
    <path d="M 43.489936 285.337271 
L 43.489936 3.6 
" style="fill: none; stroke: #000000; stroke-width: 0.5; stroke-linejoin: miter; stroke-linecap: square"/>
   </g>
   <g id="patch_4">
    <path d="M 326.486009 285.337271 
L 326.486009 3.6 
" style="fill: none; stroke: #000000; stroke-width: 0.5; stroke-linejoin: miter; stroke-linecap: square"/>
   </g>
   <g id="patch_5">
    <path d="M 43.489936 285.337271 
L 326.486009 285.337271 
" style="fill: none; stroke: #000000; stroke-width: 0.5; stroke-linejoin: miter; stroke-linecap: square"/>
   </g>
   <g id="patch_6">
    <path d="M 43.489936 3.6 
L 326.486009 3.6 
" style="fill: none; stroke: #000000; stroke-width: 0.5; stroke-linejoin: miter; stroke-linecap: square"/>
   </g>
   <g id="text_12">
    <!-- a) -->
    <g transform="translate(57.889936 24.331816)scale(0.18 -0.18)">
     <defs>
      <path id="CMR17-29" d="M 1683 1581 
C 1683 2040 1638 2817 1254 3639 
C 947 4303 422 4768 346 4768 
C 326 4768 301 4761 301 4729 
C 301 4717 307 4710 314 4697 
C 621 4378 1402 3568 1402 1584 
C 1402 -407 627 -1217 314 -1537 
C 307 -1549 301 -1556 301 -1568 
C 301 -1600 326 -1600 346 -1600 
C 416 -1600 960 -1128 1274 -426 
C 1594 281 1683 969 1683 1581 
z
" transform="scale(0.015625)"/>
     </defs>
     <use xlink:href="#CMR17-61" transform="scale(0.996264)"/>
     <use xlink:href="#CMR17-29" transform="translate(45.690477 0)scale(0.996264)"/>
    </g>
   </g>
  </g>
  <g id="axes_2">
   <g id="patch_7">
    <path d="M 401.723927 285.337271 
L 684.72 285.337271 
L 684.72 3.6 
L 401.723927 3.6 
z
" style="fill: #ffffff"/>
   </g>
   <g id="matplotlib.axis_3">
    <g id="xtick_20">
     <g id="line2d_95">
      <path d="M 422.820284 285.337271 
L 422.820284 3.6 
" clip-path="url(#pded1b1234b)" style="fill: none; stroke-dasharray: 1.85,0.8; stroke-dashoffset: 0; stroke: #000000; stroke-opacity: 0.5; stroke-width: 0.5"/>
     </g>
     <g id="line2d_96">
      <g>
       <use xlink:href="#m9edad8da3f" x="422.820284" y="285.337271" style="stroke: #000000; stroke-width: 0.5"/>
      </g>
     </g>
     <g id="line2d_97">
      <g>
       <use xlink:href="#mbee02bee65" x="422.820284" y="3.6" style="stroke: #000000; stroke-width: 0.5"/>
      </g>
     </g>
     <g id="text_13">
      <!-- $\mathdefault{20}$ -->
      <g transform="translate(414.595998 301.290572)scale(0.18 -0.18)">
       <use xlink:href="#CMR17-32" transform="scale(0.996264)"/>
       <use xlink:href="#CMR17-30" transform="translate(45.690477 0)scale(0.996264)"/>
      </g>
     </g>
    </g>
    <g id="xtick_21">
     <g id="line2d_98">
      <path d="M 484.834539 285.337271 
L 484.834539 3.6 
" clip-path="url(#pded1b1234b)" style="fill: none; stroke-dasharray: 1.85,0.8; stroke-dashoffset: 0; stroke: #000000; stroke-opacity: 0.5; stroke-width: 0.5"/>
     </g>
     <g id="line2d_99">
      <g>
       <use xlink:href="#m9edad8da3f" x="484.834539" y="285.337271" style="stroke: #000000; stroke-width: 0.5"/>
      </g>
     </g>
     <g id="line2d_100">
      <g>
       <use xlink:href="#mbee02bee65" x="484.834539" y="3.6" style="stroke: #000000; stroke-width: 0.5"/>
      </g>
     </g>
     <g id="text_14">
      <!-- $\mathdefault{30}$ -->
      <g transform="translate(476.610253 301.290572)scale(0.18 -0.18)">
       <use xlink:href="#CMR17-33" transform="scale(0.996264)"/>
       <use xlink:href="#CMR17-30" transform="translate(45.690477 0)scale(0.996264)"/>
      </g>
     </g>
    </g>
    <g id="xtick_22">
     <g id="line2d_101">
      <path d="M 546.848794 285.337271 
L 546.848794 3.6 
" clip-path="url(#pded1b1234b)" style="fill: none; stroke-dasharray: 1.85,0.8; stroke-dashoffset: 0; stroke: #000000; stroke-opacity: 0.5; stroke-width: 0.5"/>
     </g>
     <g id="line2d_102">
      <g>
       <use xlink:href="#m9edad8da3f" x="546.848794" y="285.337271" style="stroke: #000000; stroke-width: 0.5"/>
      </g>
     </g>
     <g id="line2d_103">
      <g>
       <use xlink:href="#mbee02bee65" x="546.848794" y="3.6" style="stroke: #000000; stroke-width: 0.5"/>
      </g>
     </g>
     <g id="text_15">
      <!-- $\mathdefault{40}$ -->
      <g transform="translate(538.624508 301.290572)scale(0.18 -0.18)">
       <use xlink:href="#CMR17-34" transform="scale(0.996264)"/>
       <use xlink:href="#CMR17-30" transform="translate(45.690477 0)scale(0.996264)"/>
      </g>
     </g>
    </g>
    <g id="xtick_23">
     <g id="line2d_104">
      <path d="M 608.863049 285.337271 
L 608.863049 3.6 
" clip-path="url(#pded1b1234b)" style="fill: none; stroke-dasharray: 1.85,0.8; stroke-dashoffset: 0; stroke: #000000; stroke-opacity: 0.5; stroke-width: 0.5"/>
     </g>
     <g id="line2d_105">
      <g>
       <use xlink:href="#m9edad8da3f" x="608.863049" y="285.337271" style="stroke: #000000; stroke-width: 0.5"/>
      </g>
     </g>
     <g id="line2d_106">
      <g>
       <use xlink:href="#mbee02bee65" x="608.863049" y="3.6" style="stroke: #000000; stroke-width: 0.5"/>
      </g>
     </g>
     <g id="text_16">
      <!-- $\mathdefault{50}$ -->
      <g transform="translate(600.638763 301.290572)scale(0.18 -0.18)">
       <use xlink:href="#CMR17-35" transform="scale(0.996264)"/>
       <use xlink:href="#CMR17-30" transform="translate(45.690477 0)scale(0.996264)"/>
      </g>
     </g>
    </g>
    <g id="xtick_24">
     <g id="line2d_107">
      <path d="M 670.877304 285.337271 
L 670.877304 3.6 
" clip-path="url(#pded1b1234b)" style="fill: none; stroke-dasharray: 1.85,0.8; stroke-dashoffset: 0; stroke: #000000; stroke-opacity: 0.5; stroke-width: 0.5"/>
     </g>
     <g id="line2d_108">
      <g>
       <use xlink:href="#m9edad8da3f" x="670.877304" y="285.337271" style="stroke: #000000; stroke-width: 0.5"/>
      </g>
     </g>
     <g id="line2d_109">
      <g>
       <use xlink:href="#mbee02bee65" x="670.877304" y="3.6" style="stroke: #000000; stroke-width: 0.5"/>
      </g>
     </g>
     <g id="text_17">
      <!-- $\mathdefault{60}$ -->
      <g transform="translate(662.653018 301.290572)scale(0.18 -0.18)">
       <use xlink:href="#CMR17-36" transform="scale(0.996264)"/>
       <use xlink:href="#CMR17-30" transform="translate(45.690477 0)scale(0.996264)"/>
      </g>
     </g>
    </g>
    <g id="xtick_25">
     <g id="line2d_110">
      <g>
       <use xlink:href="#m0fc286d8b5" x="410.417433" y="285.337271" style="stroke: #000000; stroke-width: 0.5"/>
      </g>
     </g>
     <g id="line2d_111">
      <g>
       <use xlink:href="#m7227a3dbbb" x="410.417433" y="3.6" style="stroke: #000000; stroke-width: 0.5"/>
      </g>
     </g>
    </g>
    <g id="xtick_26">
     <g id="line2d_112">
      <g>
       <use xlink:href="#m0fc286d8b5" x="435.223135" y="285.337271" style="stroke: #000000; stroke-width: 0.5"/>
      </g>
     </g>
     <g id="line2d_113">
      <g>
       <use xlink:href="#m7227a3dbbb" x="435.223135" y="3.6" style="stroke: #000000; stroke-width: 0.5"/>
      </g>
     </g>
    </g>
    <g id="xtick_27">
     <g id="line2d_114">
      <g>
       <use xlink:href="#m0fc286d8b5" x="447.625986" y="285.337271" style="stroke: #000000; stroke-width: 0.5"/>
      </g>
     </g>
     <g id="line2d_115">
      <g>
       <use xlink:href="#m7227a3dbbb" x="447.625986" y="3.6" style="stroke: #000000; stroke-width: 0.5"/>
      </g>
     </g>
    </g>
    <g id="xtick_28">
     <g id="line2d_116">
      <g>
       <use xlink:href="#m0fc286d8b5" x="460.028837" y="285.337271" style="stroke: #000000; stroke-width: 0.5"/>
      </g>
     </g>
     <g id="line2d_117">
      <g>
       <use xlink:href="#m7227a3dbbb" x="460.028837" y="3.6" style="stroke: #000000; stroke-width: 0.5"/>
      </g>
     </g>
    </g>
    <g id="xtick_29">
     <g id="line2d_118">
      <g>
       <use xlink:href="#m0fc286d8b5" x="472.431688" y="285.337271" style="stroke: #000000; stroke-width: 0.5"/>
      </g>
     </g>
     <g id="line2d_119">
      <g>
       <use xlink:href="#m7227a3dbbb" x="472.431688" y="3.6" style="stroke: #000000; stroke-width: 0.5"/>
      </g>
     </g>
    </g>
    <g id="xtick_30">
     <g id="line2d_120">
      <g>
       <use xlink:href="#m0fc286d8b5" x="497.23739" y="285.337271" style="stroke: #000000; stroke-width: 0.5"/>
      </g>
     </g>
     <g id="line2d_121">
      <g>
       <use xlink:href="#m7227a3dbbb" x="497.23739" y="3.6" style="stroke: #000000; stroke-width: 0.5"/>
      </g>
     </g>
    </g>
    <g id="xtick_31">
     <g id="line2d_122">
      <g>
       <use xlink:href="#m0fc286d8b5" x="509.640241" y="285.337271" style="stroke: #000000; stroke-width: 0.5"/>
      </g>
     </g>
     <g id="line2d_123">
      <g>
       <use xlink:href="#m7227a3dbbb" x="509.640241" y="3.6" style="stroke: #000000; stroke-width: 0.5"/>
      </g>
     </g>
    </g>
    <g id="xtick_32">
     <g id="line2d_124">
      <g>
       <use xlink:href="#m0fc286d8b5" x="522.043092" y="285.337271" style="stroke: #000000; stroke-width: 0.5"/>
      </g>
     </g>
     <g id="line2d_125">
      <g>
       <use xlink:href="#m7227a3dbbb" x="522.043092" y="3.6" style="stroke: #000000; stroke-width: 0.5"/>
      </g>
     </g>
    </g>
    <g id="xtick_33">
     <g id="line2d_126">
      <g>
       <use xlink:href="#m0fc286d8b5" x="534.445943" y="285.337271" style="stroke: #000000; stroke-width: 0.5"/>
      </g>
     </g>
     <g id="line2d_127">
      <g>
       <use xlink:href="#m7227a3dbbb" x="534.445943" y="3.6" style="stroke: #000000; stroke-width: 0.5"/>
      </g>
     </g>
    </g>
    <g id="xtick_34">
     <g id="line2d_128">
      <g>
       <use xlink:href="#m0fc286d8b5" x="559.251645" y="285.337271" style="stroke: #000000; stroke-width: 0.5"/>
      </g>
     </g>
     <g id="line2d_129">
      <g>
       <use xlink:href="#m7227a3dbbb" x="559.251645" y="3.6" style="stroke: #000000; stroke-width: 0.5"/>
      </g>
     </g>
    </g>
    <g id="xtick_35">
     <g id="line2d_130">
      <g>
       <use xlink:href="#m0fc286d8b5" x="571.654496" y="285.337271" style="stroke: #000000; stroke-width: 0.5"/>
      </g>
     </g>
     <g id="line2d_131">
      <g>
       <use xlink:href="#m7227a3dbbb" x="571.654496" y="3.6" style="stroke: #000000; stroke-width: 0.5"/>
      </g>
     </g>
    </g>
    <g id="xtick_36">
     <g id="line2d_132">
      <g>
       <use xlink:href="#m0fc286d8b5" x="584.057347" y="285.337271" style="stroke: #000000; stroke-width: 0.5"/>
      </g>
     </g>
     <g id="line2d_133">
      <g>
       <use xlink:href="#m7227a3dbbb" x="584.057347" y="3.6" style="stroke: #000000; stroke-width: 0.5"/>
      </g>
     </g>
    </g>
    <g id="xtick_37">
     <g id="line2d_134">
      <g>
       <use xlink:href="#m0fc286d8b5" x="596.460198" y="285.337271" style="stroke: #000000; stroke-width: 0.5"/>
      </g>
     </g>
     <g id="line2d_135">
      <g>
       <use xlink:href="#m7227a3dbbb" x="596.460198" y="3.6" style="stroke: #000000; stroke-width: 0.5"/>
      </g>
     </g>
    </g>
    <g id="xtick_38">
     <g id="line2d_136">
      <g>
       <use xlink:href="#m0fc286d8b5" x="621.2659" y="285.337271" style="stroke: #000000; stroke-width: 0.5"/>
      </g>
     </g>
     <g id="line2d_137">
      <g>
       <use xlink:href="#m7227a3dbbb" x="621.2659" y="3.6" style="stroke: #000000; stroke-width: 0.5"/>
      </g>
     </g>
    </g>
    <g id="xtick_39">
     <g id="line2d_138">
      <g>
       <use xlink:href="#m0fc286d8b5" x="633.668751" y="285.337271" style="stroke: #000000; stroke-width: 0.5"/>
      </g>
     </g>
     <g id="line2d_139">
      <g>
       <use xlink:href="#m7227a3dbbb" x="633.668751" y="3.6" style="stroke: #000000; stroke-width: 0.5"/>
      </g>
     </g>
    </g>
    <g id="xtick_40">
     <g id="line2d_140">
      <g>
       <use xlink:href="#m0fc286d8b5" x="646.071602" y="285.337271" style="stroke: #000000; stroke-width: 0.5"/>
      </g>
     </g>
     <g id="line2d_141">
      <g>
       <use xlink:href="#m7227a3dbbb" x="646.071602" y="3.6" style="stroke: #000000; stroke-width: 0.5"/>
      </g>
     </g>
    </g>
    <g id="xtick_41">
     <g id="line2d_142">
      <g>
       <use xlink:href="#m0fc286d8b5" x="658.474453" y="285.337271" style="stroke: #000000; stroke-width: 0.5"/>
      </g>
     </g>
     <g id="line2d_143">
      <g>
       <use xlink:href="#m7227a3dbbb" x="658.474453" y="3.6" style="stroke: #000000; stroke-width: 0.5"/>
      </g>
     </g>
    </g>
    <g id="xtick_42">
     <g id="line2d_144">
      <g>
       <use xlink:href="#m0fc286d8b5" x="683.280155" y="285.337271" style="stroke: #000000; stroke-width: 0.5"/>
      </g>
     </g>
     <g id="line2d_145">
      <g>
       <use xlink:href="#m7227a3dbbb" x="683.280155" y="3.6" style="stroke: #000000; stroke-width: 0.5"/>
      </g>
     </g>
    </g>
    <g id="text_18">
     <!-- T in $^\circ$C -->
     <g transform="translate(515.630257 321.231936)scale(0.18 -0.18)">
      <use xlink:href="#CMR17-54" transform="scale(0.996264)"/>
      <use xlink:href="#CMR17-69" transform="translate(96.585847 0)scale(0.996264)"/>
      <use xlink:href="#CMR17-6e" transform="translate(121.456905 0)scale(0.996264)"/>
      <use xlink:href="#CMSY10-e" transform="translate(202.428242 36.153639)scale(0.697382)"/>
      <use xlink:href="#CMR17-43" transform="translate(237.795583 0)scale(0.996264)"/>
     </g>
    </g>
   </g>
   <g id="matplotlib.axis_4">
    <g id="ytick_24">
     <g id="line2d_146">
      <path d="M 401.723927 283.846227 
L 684.72 283.846227 
" clip-path="url(#pded1b1234b)" style="fill: none; stroke-dasharray: 1.85,0.8; stroke-dashoffset: 0; stroke: #000000; stroke-opacity: 0.5; stroke-width: 0.5"/>
     </g>
     <g id="line2d_147">
      <g>
       <use xlink:href="#m259384410e" x="401.723927" y="283.846227" style="stroke: #000000; stroke-width: 0.5"/>
      </g>
     </g>
     <g id="line2d_148">
      <g>
       <use xlink:href="#m89bb6b1c07" x="684.72" y="283.846227" style="stroke: #000000; stroke-width: 0.5"/>
      </g>
     </g>
     <g id="text_19">
      <!-- $\mathdefault{−15}$ -->
      <g transform="translate(367.827613 290.072877)scale(0.18 -0.18)">
       <use xlink:href="#CMSY10-0" transform="scale(0.996264)"/>
       <use xlink:href="#CMR17-31" transform="translate(77.487468 0)scale(0.996264)"/>
       <use xlink:href="#CMR17-35" transform="translate(123.177945 0)scale(0.996264)"/>
      </g>
     </g>
    </g>
    <g id="ytick_25">
     <g id="line2d_149">
      <path d="M 401.723927 239.283929 
L 684.72 239.283929 
" clip-path="url(#pded1b1234b)" style="fill: none; stroke-dasharray: 1.85,0.8; stroke-dashoffset: 0; stroke: #000000; stroke-opacity: 0.5; stroke-width: 0.5"/>
     </g>
     <g id="line2d_150">
      <g>
       <use xlink:href="#m259384410e" x="401.723927" y="239.283929" style="stroke: #000000; stroke-width: 0.5"/>
      </g>
     </g>
     <g id="line2d_151">
      <g>
       <use xlink:href="#m89bb6b1c07" x="684.72" y="239.283929" style="stroke: #000000; stroke-width: 0.5"/>
      </g>
     </g>
     <g id="text_20">
      <!-- $\mathdefault{−10}$ -->
      <g transform="translate(367.827613 245.510579)scale(0.18 -0.18)">
       <use xlink:href="#CMSY10-0" transform="scale(0.996264)"/>
       <use xlink:href="#CMR17-31" transform="translate(77.487468 0)scale(0.996264)"/>
       <use xlink:href="#CMR17-30" transform="translate(123.177945 0)scale(0.996264)"/>
      </g>
     </g>
    </g>
    <g id="ytick_26">
     <g id="line2d_152">
      <path d="M 401.723927 194.721631 
L 684.72 194.721631 
" clip-path="url(#pded1b1234b)" style="fill: none; stroke-dasharray: 1.85,0.8; stroke-dashoffset: 0; stroke: #000000; stroke-opacity: 0.5; stroke-width: 0.5"/>
     </g>
     <g id="line2d_153">
      <g>
       <use xlink:href="#m259384410e" x="401.723927" y="194.721631" style="stroke: #000000; stroke-width: 0.5"/>
      </g>
     </g>
     <g id="line2d_154">
      <g>
       <use xlink:href="#m89bb6b1c07" x="684.72" y="194.721631" style="stroke: #000000; stroke-width: 0.5"/>
      </g>
     </g>
     <g id="text_21">
      <!-- $\mathdefault{−5}$ -->
      <g transform="translate(376.051899 200.948282)scale(0.18 -0.18)">
       <use xlink:href="#CMSY10-0" transform="scale(0.996264)"/>
       <use xlink:href="#CMR17-35" transform="translate(77.487468 0)scale(0.996264)"/>
      </g>
     </g>
    </g>
    <g id="ytick_27">
     <g id="line2d_155">
      <path d="M 401.723927 150.159334 
L 684.72 150.159334 
" clip-path="url(#pded1b1234b)" style="fill: none; stroke-dasharray: 1.85,0.8; stroke-dashoffset: 0; stroke: #000000; stroke-opacity: 0.5; stroke-width: 0.5"/>
     </g>
     <g id="line2d_156">
      <g>
       <use xlink:href="#m259384410e" x="401.723927" y="150.159334" style="stroke: #000000; stroke-width: 0.5"/>
      </g>
     </g>
     <g id="line2d_157">
      <g>
       <use xlink:href="#m89bb6b1c07" x="684.72" y="150.159334" style="stroke: #000000; stroke-width: 0.5"/>
      </g>
     </g>
     <g id="text_22">
      <!-- $\mathdefault{0}$ -->
      <g transform="translate(389.999641 156.385984)scale(0.18 -0.18)">
       <use xlink:href="#CMR17-30" transform="scale(0.996264)"/>
      </g>
     </g>
    </g>
    <g id="ytick_28">
     <g id="line2d_158">
      <path d="M 401.723927 105.597036 
L 684.72 105.597036 
" clip-path="url(#pded1b1234b)" style="fill: none; stroke-dasharray: 1.85,0.8; stroke-dashoffset: 0; stroke: #000000; stroke-opacity: 0.5; stroke-width: 0.5"/>
     </g>
     <g id="line2d_159">
      <g>
       <use xlink:href="#m259384410e" x="401.723927" y="105.597036" style="stroke: #000000; stroke-width: 0.5"/>
      </g>
     </g>
     <g id="line2d_160">
      <g>
       <use xlink:href="#m89bb6b1c07" x="684.72" y="105.597036" style="stroke: #000000; stroke-width: 0.5"/>
      </g>
     </g>
     <g id="text_23">
      <!-- $\mathdefault{5}$ -->
      <g transform="translate(389.999641 111.823686)scale(0.18 -0.18)">
       <use xlink:href="#CMR17-35" transform="scale(0.996264)"/>
      </g>
     </g>
    </g>
    <g id="ytick_29">
     <g id="line2d_161">
      <path d="M 401.723927 61.034738 
L 684.72 61.034738 
" clip-path="url(#pded1b1234b)" style="fill: none; stroke-dasharray: 1.85,0.8; stroke-dashoffset: 0; stroke: #000000; stroke-opacity: 0.5; stroke-width: 0.5"/>
     </g>
     <g id="line2d_162">
      <g>
       <use xlink:href="#m259384410e" x="401.723927" y="61.034738" style="stroke: #000000; stroke-width: 0.5"/>
      </g>
     </g>
     <g id="line2d_163">
      <g>
       <use xlink:href="#m89bb6b1c07" x="684.72" y="61.034738" style="stroke: #000000; stroke-width: 0.5"/>
      </g>
     </g>
     <g id="text_24">
      <!-- $\mathdefault{10}$ -->
      <g transform="translate(381.775355 67.261388)scale(0.18 -0.18)">
       <use xlink:href="#CMR17-31" transform="scale(0.996264)"/>
       <use xlink:href="#CMR17-30" transform="translate(45.690477 0)scale(0.996264)"/>
      </g>
     </g>
    </g>
    <g id="ytick_30">
     <g id="line2d_164">
      <path d="M 401.723927 16.47244 
L 684.72 16.47244 
" clip-path="url(#pded1b1234b)" style="fill: none; stroke-dasharray: 1.85,0.8; stroke-dashoffset: 0; stroke: #000000; stroke-opacity: 0.5; stroke-width: 0.5"/>
     </g>
     <g id="line2d_165">
      <g>
       <use xlink:href="#m259384410e" x="401.723927" y="16.47244" style="stroke: #000000; stroke-width: 0.5"/>
      </g>
     </g>
     <g id="line2d_166">
      <g>
       <use xlink:href="#m89bb6b1c07" x="684.72" y="16.47244" style="stroke: #000000; stroke-width: 0.5"/>
      </g>
     </g>
     <g id="text_25">
      <!-- $\mathdefault{15}$ -->
      <g transform="translate(381.775355 22.69909)scale(0.18 -0.18)">
       <use xlink:href="#CMR17-31" transform="scale(0.996264)"/>
       <use xlink:href="#CMR17-35" transform="translate(45.690477 0)scale(0.996264)"/>
      </g>
     </g>
    </g>
    <g id="ytick_31">
     <g id="line2d_167">
      <g>
       <use xlink:href="#mad4de0b173" x="401.723927" y="274.933767" style="stroke: #000000; stroke-width: 0.5"/>
      </g>
     </g>
     <g id="line2d_168">
      <g>
       <use xlink:href="#m5ce600836a" x="684.72" y="274.933767" style="stroke: #000000; stroke-width: 0.5"/>
      </g>
     </g>
    </g>
    <g id="ytick_32">
     <g id="line2d_169">
      <g>
       <use xlink:href="#mad4de0b173" x="401.723927" y="266.021308" style="stroke: #000000; stroke-width: 0.5"/>
      </g>
     </g>
     <g id="line2d_170">
      <g>
       <use xlink:href="#m5ce600836a" x="684.72" y="266.021308" style="stroke: #000000; stroke-width: 0.5"/>
      </g>
     </g>
    </g>
    <g id="ytick_33">
     <g id="line2d_171">
      <g>
       <use xlink:href="#mad4de0b173" x="401.723927" y="257.108848" style="stroke: #000000; stroke-width: 0.5"/>
      </g>
     </g>
     <g id="line2d_172">
      <g>
       <use xlink:href="#m5ce600836a" x="684.72" y="257.108848" style="stroke: #000000; stroke-width: 0.5"/>
      </g>
     </g>
    </g>
    <g id="ytick_34">
     <g id="line2d_173">
      <g>
       <use xlink:href="#mad4de0b173" x="401.723927" y="248.196389" style="stroke: #000000; stroke-width: 0.5"/>
      </g>
     </g>
     <g id="line2d_174">
      <g>
       <use xlink:href="#m5ce600836a" x="684.72" y="248.196389" style="stroke: #000000; stroke-width: 0.5"/>
      </g>
     </g>
    </g>
    <g id="ytick_35">
     <g id="line2d_175">
      <g>
       <use xlink:href="#mad4de0b173" x="401.723927" y="230.37147" style="stroke: #000000; stroke-width: 0.5"/>
      </g>
     </g>
     <g id="line2d_176">
      <g>
       <use xlink:href="#m5ce600836a" x="684.72" y="230.37147" style="stroke: #000000; stroke-width: 0.5"/>
      </g>
     </g>
    </g>
    <g id="ytick_36">
     <g id="line2d_177">
      <g>
       <use xlink:href="#mad4de0b173" x="401.723927" y="221.45901" style="stroke: #000000; stroke-width: 0.5"/>
      </g>
     </g>
     <g id="line2d_178">
      <g>
       <use xlink:href="#m5ce600836a" x="684.72" y="221.45901" style="stroke: #000000; stroke-width: 0.5"/>
      </g>
     </g>
    </g>
    <g id="ytick_37">
     <g id="line2d_179">
      <g>
       <use xlink:href="#mad4de0b173" x="401.723927" y="212.546551" style="stroke: #000000; stroke-width: 0.5"/>
      </g>
     </g>
     <g id="line2d_180">
      <g>
       <use xlink:href="#m5ce600836a" x="684.72" y="212.546551" style="stroke: #000000; stroke-width: 0.5"/>
      </g>
     </g>
    </g>
    <g id="ytick_38">
     <g id="line2d_181">
      <g>
       <use xlink:href="#mad4de0b173" x="401.723927" y="203.634091" style="stroke: #000000; stroke-width: 0.5"/>
      </g>
     </g>
     <g id="line2d_182">
      <g>
       <use xlink:href="#m5ce600836a" x="684.72" y="203.634091" style="stroke: #000000; stroke-width: 0.5"/>
      </g>
     </g>
    </g>
    <g id="ytick_39">
     <g id="line2d_183">
      <g>
       <use xlink:href="#mad4de0b173" x="401.723927" y="185.809172" style="stroke: #000000; stroke-width: 0.5"/>
      </g>
     </g>
     <g id="line2d_184">
      <g>
       <use xlink:href="#m5ce600836a" x="684.72" y="185.809172" style="stroke: #000000; stroke-width: 0.5"/>
      </g>
     </g>
    </g>
    <g id="ytick_40">
     <g id="line2d_185">
      <g>
       <use xlink:href="#mad4de0b173" x="401.723927" y="176.896712" style="stroke: #000000; stroke-width: 0.5"/>
      </g>
     </g>
     <g id="line2d_186">
      <g>
       <use xlink:href="#m5ce600836a" x="684.72" y="176.896712" style="stroke: #000000; stroke-width: 0.5"/>
      </g>
     </g>
    </g>
    <g id="ytick_41">
     <g id="line2d_187">
      <g>
       <use xlink:href="#mad4de0b173" x="401.723927" y="167.984253" style="stroke: #000000; stroke-width: 0.5"/>
      </g>
     </g>
     <g id="line2d_188">
      <g>
       <use xlink:href="#m5ce600836a" x="684.72" y="167.984253" style="stroke: #000000; stroke-width: 0.5"/>
      </g>
     </g>
    </g>
    <g id="ytick_42">
     <g id="line2d_189">
      <g>
       <use xlink:href="#mad4de0b173" x="401.723927" y="159.071793" style="stroke: #000000; stroke-width: 0.5"/>
      </g>
     </g>
     <g id="line2d_190">
      <g>
       <use xlink:href="#m5ce600836a" x="684.72" y="159.071793" style="stroke: #000000; stroke-width: 0.5"/>
      </g>
     </g>
    </g>
    <g id="ytick_43">
     <g id="line2d_191">
      <g>
       <use xlink:href="#mad4de0b173" x="401.723927" y="141.246874" style="stroke: #000000; stroke-width: 0.5"/>
      </g>
     </g>
     <g id="line2d_192">
      <g>
       <use xlink:href="#m5ce600836a" x="684.72" y="141.246874" style="stroke: #000000; stroke-width: 0.5"/>
      </g>
     </g>
    </g>
    <g id="ytick_44">
     <g id="line2d_193">
      <g>
       <use xlink:href="#mad4de0b173" x="401.723927" y="132.334415" style="stroke: #000000; stroke-width: 0.5"/>
      </g>
     </g>
     <g id="line2d_194">
      <g>
       <use xlink:href="#m5ce600836a" x="684.72" y="132.334415" style="stroke: #000000; stroke-width: 0.5"/>
      </g>
     </g>
    </g>
    <g id="ytick_45">
     <g id="line2d_195">
      <g>
       <use xlink:href="#mad4de0b173" x="401.723927" y="123.421955" style="stroke: #000000; stroke-width: 0.5"/>
      </g>
     </g>
     <g id="line2d_196">
      <g>
       <use xlink:href="#m5ce600836a" x="684.72" y="123.421955" style="stroke: #000000; stroke-width: 0.5"/>
      </g>
     </g>
    </g>
    <g id="ytick_46">
     <g id="line2d_197">
      <g>
       <use xlink:href="#mad4de0b173" x="401.723927" y="114.509495" style="stroke: #000000; stroke-width: 0.5"/>
      </g>
     </g>
     <g id="line2d_198">
      <g>
       <use xlink:href="#m5ce600836a" x="684.72" y="114.509495" style="stroke: #000000; stroke-width: 0.5"/>
      </g>
     </g>
    </g>
    <g id="ytick_47">
     <g id="line2d_199">
      <g>
       <use xlink:href="#mad4de0b173" x="401.723927" y="96.684576" style="stroke: #000000; stroke-width: 0.5"/>
      </g>
     </g>
     <g id="line2d_200">
      <g>
       <use xlink:href="#m5ce600836a" x="684.72" y="96.684576" style="stroke: #000000; stroke-width: 0.5"/>
      </g>
     </g>
    </g>
    <g id="ytick_48">
     <g id="line2d_201">
      <g>
       <use xlink:href="#mad4de0b173" x="401.723927" y="87.772117" style="stroke: #000000; stroke-width: 0.5"/>
      </g>
     </g>
     <g id="line2d_202">
      <g>
       <use xlink:href="#m5ce600836a" x="684.72" y="87.772117" style="stroke: #000000; stroke-width: 0.5"/>
      </g>
     </g>
    </g>
    <g id="ytick_49">
     <g id="line2d_203">
      <g>
       <use xlink:href="#mad4de0b173" x="401.723927" y="78.859657" style="stroke: #000000; stroke-width: 0.5"/>
      </g>
     </g>
     <g id="line2d_204">
      <g>
       <use xlink:href="#m5ce600836a" x="684.72" y="78.859657" style="stroke: #000000; stroke-width: 0.5"/>
      </g>
     </g>
    </g>
    <g id="ytick_50">
     <g id="line2d_205">
      <g>
       <use xlink:href="#mad4de0b173" x="401.723927" y="69.947198" style="stroke: #000000; stroke-width: 0.5"/>
      </g>
     </g>
     <g id="line2d_206">
      <g>
       <use xlink:href="#m5ce600836a" x="684.72" y="69.947198" style="stroke: #000000; stroke-width: 0.5"/>
      </g>
     </g>
    </g>
    <g id="ytick_51">
     <g id="line2d_207">
      <g>
       <use xlink:href="#mad4de0b173" x="401.723927" y="52.122279" style="stroke: #000000; stroke-width: 0.5"/>
      </g>
     </g>
     <g id="line2d_208">
      <g>
       <use xlink:href="#m5ce600836a" x="684.72" y="52.122279" style="stroke: #000000; stroke-width: 0.5"/>
      </g>
     </g>
    </g>
    <g id="ytick_52">
     <g id="line2d_209">
      <g>
       <use xlink:href="#mad4de0b173" x="401.723927" y="43.209819" style="stroke: #000000; stroke-width: 0.5"/>
      </g>
     </g>
     <g id="line2d_210">
      <g>
       <use xlink:href="#m5ce600836a" x="684.72" y="43.209819" style="stroke: #000000; stroke-width: 0.5"/>
      </g>
     </g>
    </g>
    <g id="ytick_53">
     <g id="line2d_211">
      <g>
       <use xlink:href="#mad4de0b173" x="401.723927" y="34.297359" style="stroke: #000000; stroke-width: 0.5"/>
      </g>
     </g>
     <g id="line2d_212">
      <g>
       <use xlink:href="#m5ce600836a" x="684.72" y="34.297359" style="stroke: #000000; stroke-width: 0.5"/>
      </g>
     </g>
    </g>
    <g id="ytick_54">
     <g id="line2d_213">
      <g>
       <use xlink:href="#mad4de0b173" x="401.723927" y="25.3849" style="stroke: #000000; stroke-width: 0.5"/>
      </g>
     </g>
     <g id="line2d_214">
      <g>
       <use xlink:href="#m5ce600836a" x="684.72" y="25.3849" style="stroke: #000000; stroke-width: 0.5"/>
      </g>
     </g>
    </g>
    <g id="ytick_55">
     <g id="line2d_215">
      <g>
       <use xlink:href="#mad4de0b173" x="401.723927" y="7.559981" style="stroke: #000000; stroke-width: 0.5"/>
      </g>
     </g>
     <g id="line2d_216">
      <g>
       <use xlink:href="#m5ce600836a" x="684.72" y="7.559981" style="stroke: #000000; stroke-width: 0.5"/>
      </g>
     </g>
    </g>
    <g id="text_26">
     <!-- dT/dt in K/s -->
     <g transform="translate(359.359429 192.920714)rotate(-90)scale(0.18 -0.18)">
      <defs>
       <path id="CMR17-64" d="M 1869 4326 
L 1869 4160 
C 2246 4160 2304 4122 2304 3820 
L 2304 2345 
C 2278 2377 2016 2790 1498 2790 
C 845 2790 211 2208 211 1364 
C 211 525 806 -64 1434 -64 
C 1978 -64 2259 337 2291 380 
L 2291 -63 
L 3066 -63 
L 3066 128 
C 2688 128 2630 166 2630 473 
L 2630 4396 
L 1869 4326 
z
M 2291 755 
C 2291 563 2176 390 2029 262 
C 1811 70 1594 38 1472 38 
C 1286 38 621 134 621 1356 
C 621 2612 1363 2688 1530 2688 
C 1824 2688 2061 2522 2208 2291 
C 2291 2157 2291 2138 2291 2023 
L 2291 755 
z
" transform="scale(0.015625)"/>
       <path id="CMR17-2f" d="M 2605 4545 
C 2637 4627 2637 4640 2637 4653 
C 2637 4729 2579 4768 2528 4768 
C 2451 4768 2426 4717 2400 4640 
L 326 -1377 
C 294 -1460 294 -1473 294 -1486 
C 294 -1562 352 -1600 403 -1600 
C 480 -1600 506 -1549 531 -1473 
L 2605 4545 
z
" transform="scale(0.015625)"/>
       <path id="CMR17-4b" d="M 2362 2675 
L 3469 3782 
C 3699 4006 3942 4186 4301 4186 
L 4301 4352 
C 4173 4352 4013 4352 3885 4352 
C 3712 4352 3411 4352 3245 4358 
L 3245 4192 
C 3411 4180 3437 4065 3437 4019 
C 3437 3975 3411 3905 3386 3867 
L 1261 1738 
L 1261 3900 
C 1261 4186 1331 4186 1773 4186 
L 1773 4352 
C 1587 4352 1248 4352 1050 4352 
C 851 4352 512 4352 326 4352 
L 326 4186 
C 768 4186 838 4186 838 3899 
L 838 446 
C 838 160 768 160 326 160 
L 326 0 
C 512 0 851 0 1050 0 
C 1248 0 1587 0 1773 0 
L 1773 160 
C 1331 160 1261 160 1261 447 
L 1261 1579 
L 2080 2390 
L 3290 537 
C 3328 473 3373 390 3373 326 
C 3373 160 3194 160 3110 160 
L 3110 0 
C 3315 0 3610 0 3821 0 
C 3974 0 4237 0 4384 -6 
L 4384 160 
C 4077 160 3981 198 3789 493 
L 2362 2675 
z
" transform="scale(0.015625)"/>
      </defs>
      <use xlink:href="#CMR17-64" transform="scale(0.996264)"/>
      <use xlink:href="#CMR17-54" transform="translate(50.89537 0)scale(0.996264)"/>
      <use xlink:href="#CMR17-2f" transform="translate(117.40525 0)scale(0.996264)"/>
      <use xlink:href="#CMR17-64" transform="translate(163.095727 0)scale(0.996264)"/>
      <use xlink:href="#CMR17-74" transform="translate(213.991097 0)scale(0.996264)"/>
      <use xlink:href="#CMR17-69" transform="translate(279.347831 0)scale(0.996264)"/>
      <use xlink:href="#CMR17-6e" transform="translate(304.21889 0)scale(0.996264)"/>
      <use xlink:href="#CMR17-4b" transform="translate(385.190226 0)scale(0.996264)"/>
      <use xlink:href="#CMR17-2f" transform="translate(456.865003 0)scale(0.996264)"/>
      <use xlink:href="#CMR17-73" transform="translate(502.55548 0)scale(0.996264)"/>
     </g>
    </g>
   </g>
   <g id="line2d_217">
    <path d="M 414.721583 150.384115 
L 414.699048 149.940732 
L 414.634996 150.553514 
L 414.617344 150.63924 
L 414.588563 150.113761 
L 414.588089 150.117001 
L 414.718608 147.837383 
L 414.955352 144.268466 
L 415.529639 136.7193 
L 416.919588 122.467908 
L 418.48996 109.665921 
L 419.890756 100.041854 
L 421.140846 92.430854 
L 422.569871 84.781317 
L 424.172212 77.43036 
L 425.334968 72.653422 
L 427.210641 65.958996 
L 428.545114 61.927325 
L 429.940279 58.16553 
L 431.390333 54.770864 
L 432.889059 51.755099 
L 434.431189 49.096462 
L 436.815099 45.861187 
L 438.442491 44.066767 
L 440.094377 42.641962 
L 442.60851 40.975906 
L 443.453956 40.512555 
L 446.008944 39.638612 
L 446.862951 39.508485 
L 447.71989 39.504174 
L 448.573963 39.336176 
L 449.4335 38.965102 
L 454.587947 39.259839 
L 457.155466 39.706176 
L 458.008656 39.973985 
L 458.859214 40.106487 
L 466.437627 42.47307 
L 473.833443 45.294571 
L 481.806844 48.846604 
L 487.215552 51.61615 
L 491.729746 54.041551 
L 492.471138 54.535262 
L 493.944617 55.314939 
L 514.632997 66.312232 
L 515.280201 66.547528 
L 515.925849 66.961613 
L 516.566651 67.209813 
L 517.843568 67.901889 
L 519.111424 68.535826 
L 531.866664 74.556763 
L 532.45017 74.937715 
L 533.609745 75.478198 
L 547.795823 83.457771 
L 552.361058 85.553283 
L 554.839054 86.53628 
L 555.330347 86.837333 
L 556.307042 87.211829 
L 562.492571 90.113587 
L 562.955041 90.450694 
L 563.87542 90.92067 
L 573.847519 96.990834 
L 574.258291 97.157971 
L 574.667056 97.472646 
L 575.479669 97.841408 
L 582.115576 101.486514 
L 584.344597 102.745662 
L 585.075989 103.075147 
L 589.348868 105.028722 
L 592.108958 106.050011 
L 592.448212 106.248284 
L 592.787935 106.295254 
L 593.126463 106.472581 
L 593.463444 106.514645 
L 594.135245 106.837728 
L 595.800013 107.377829 
L 596.787235 107.847432 
L 597.4404 108.061449 
L 601.570202 110.114661 
L 601.878673 110.350567 
L 602.185747 110.435052 
L 602.796309 110.828222 
L 606.650347 112.699157 
L 606.94022 112.736938 
L 607.803983 113.174551 
L 608.658715 113.383321 
L 608.943909 113.459703 
L 609.226185 113.650893 
L 609.508423 113.67398 
L 610.069487 113.938713 
L 612.005681 114.854103 
L 612.818395 115.435838 
L 617.661997 118.776293 
L 620.280615 119.940636 
L 620.514519 119.948466 
L 620.747753 120.130418 
L 621.211756 120.239774 
L 622.586386 120.762255 
L 623.264362 121.157774 
L 623.48668 121.299472 
L 623.710609 121.21025 
L 624.376877 121.626574 
L 625.253161 122.021648 
L 625.687822 122.146546 
L 625.902882 122.307309 
L 626.118486 122.285086 
L 626.33389 122.427946 
L 626.547284 122.398251 
L 626.974892 122.544302 
L 628.888647 122.699955 
L 629.950185 122.744986 
L 630.162653 122.85755 
L 630.585546 122.853416 
L 631.425588 123.09397 
L 631.634001 123.290799 
L 631.841045 123.304871 
L 632.459824 123.768112 
L 633.854064 125.119732 
L 634.615016 125.944355 
L 635.167749 126.668169 
L 635.347967 126.791626 
L 635.883978 127.388988 
L 636.404643 127.932647 
L 636.576399 127.973485 
L 636.916053 128.231462 
L 637.586049 128.744786 
L 637.752691 128.751895 
L 637.917063 128.91221 
L 638.081226 128.901882 
L 638.245758 129.074409 
L 638.571741 129.184997 
L 640.316527 130.083454 
L 640.469774 130.243145 
L 640.624482 130.227674 
L 641.080813 130.705161 
L 641.230799 130.642796 
L 641.828608 131.051501 
L 641.976705 131.074209 
L 642.123713 131.290993 
L 642.268458 131.213895 
L 643.848049 131.907145 
L 649.353361 133.665475 
L 650.356255 134.306449 
L 651.078377 134.831198 
L 651.312512 135.034139 
L 651.773951 135.421231 
L 652.113566 135.630574 
L 652.335523 135.820128 
L 652.774443 136.100654 
L 652.883931 136.087045 
L 653.099216 136.259897 
L 653.525007 136.458994 
L 654.77188 136.93932 
L 654.974466 137.015212 
L 655.277747 137.198813 
L 656.260414 137.66859 
L 656.358475 137.573352 
L 656.647278 137.857023 
L 656.837836 137.894604 
L 657.589452 138.034793 
L 657.964508 138.031843 
L 658.247103 137.928698 
L 658.435193 137.925628 
L 659.004496 137.934606 
L 659.098621 137.791539 
L 659.288567 137.870251 
L 659.574939 137.88899 
L 660.750861 139.183228 
L 661.395569 140.316595 
L 661.694642 140.657435 
L 662.054019 141.050371 
L 662.334579 141.126767 
L 662.542935 141.203471 
L 662.612237 141.10997 
L 662.682861 141.176467 
L 663.09992 141.132149 
L 663.169127 141.220852 
L 663.238132 141.12598 
L 663.308806 141.180585 
L 663.447988 141.168386 
L 663.654686 141.245363 
L 663.793034 141.297008 
L 664.60316 141.600747 
L 664.670651 141.572688 
L 664.996891 141.879883 
L 665.125219 141.907326 
L 666.114542 142.363115 
L 666.294614 142.371468 
L 666.837886 142.356587 
L 667.199668 142.424021 
L 667.437646 142.486487 
L 667.613174 142.705942 
L 667.728892 142.741332 
L 668.381295 143.479801 
L 668.433758 143.471036 
L 668.586801 143.662562 
L 668.78632 143.779434 
L 668.932693 143.882953 
L 668.980972 143.819683 
L 669.03072 143.893046 
L 669.559751 143.996167 
L 669.700125 144.09904 
L 669.747533 144.044557 
L 669.794675 144.156195 
L 669.93318 144.175207 
L 670.383933 144.522203 
L 670.718805 144.922254 
L 671.151082 145.182994 
L 671.268 145.090164 
L 671.675602 145.926628 
L 671.790664 147.177781 
L 671.856542 150.066127 
L 671.77273 155.010105 
L 671.445778 162.656476 
L 670.774621 172.845489 
L 669.925612 182.511378 
L 669.082674 190.543207 
L 668.049752 198.825241 
L 666.375747 209.774101 
L 664.900608 217.621281 
L 663.250625 224.845427 
L 662.059473 229.362492 
L 660.802275 233.47671 
L 659.48437 237.262466 
L 657.40582 242.119542 
L 655.960293 244.983269 
L 654.474269 247.49839 
L 652.952266 249.661773 
L 650.612329 252.286866 
L 649.021327 253.715745 
L 647.410637 254.886731 
L 644.966428 256.113195 
L 644.146106 256.517058 
L 641.670539 257.095187 
L 638.360656 257.280596 
L 637.533108 257.08602 
L 636.707296 257.007504 
L 632.596941 255.813686 
L 626.947277 253.174173 
L 624.574787 251.796001 
L 623.790265 251.417615 
L 622.232645 250.502566 
L 619.157235 248.72719 
L 616.885442 247.515648 
L 615.387586 246.647657 
L 612.428587 245.072296 
L 610.239681 244.035398 
L 608.794796 243.274121 
L 602.420568 240.272704 
L 600.340544 239.394625 
L 597.599954 238.168327 
L 596.919732 237.91289 
L 596.24306 237.536006 
L 595.568665 237.323573 
L 594.226624 236.667586 
L 587.659156 233.491293 
L 577.087753 227.650329 
L 576.488376 227.525287 
L 575.891477 227.035411 
L 568.937762 223.324899 
L 562.828562 220.763922 
L 560.118456 219.816591 
L 556.386439 218.379498 
L 553.772488 217.14458 
L 545.807012 211.87361 
L 544.387668 210.85023 
L 543.452976 210.27305 
L 539.355412 207.898078 
L 537.147036 206.694134 
L 536.710423 206.546329 
L 536.275148 206.24111 
L 535.41048 205.842984 
L 531.190859 203.541498 
L 530.778837 203.518229 
L 527.528113 201.919123 
L 525.152026 200.871672 
L 524.76136 200.621777 
L 524.371747 200.532773 
L 523.596652 200.137438 
L 518.33027 197.43787 
L 517.965782 197.151371 
L 517.24138 196.757316 
L 515.813077 195.94573 
L 515.460132 195.643122 
L 514.758584 195.307246 
L 512.691776 194.150872 
L 512.353346 193.898875 
L 512.015451 193.799286 
L 511.344449 193.425907 
L 510.017212 192.745252 
L 509.034296 192.324471 
L 508.385554 192.010691 
L 505.831253 190.86605 
L 504.892281 190.479731 
L 501.826088 189.131238 
L 500.927613 188.667026 
L 500.630817 188.602937 
L 499.743682 188.164026 
L 497.429664 187.064824 
L 491.381125 184.480617 
L 491.116354 184.455322 
L 490.588479 184.223822 
L 489.281302 183.712884 
L 489.022597 183.532323 
L 488.507003 183.40991 
L 487.487225 182.874576 
L 484.767403 181.402829 
L 484.526234 181.179206 
L 484.287756 181.146877 
L 483.339862 180.343293 
L 483.107193 180.342473 
L 481.724706 179.535443 
L 481.271147 179.337698 
L 474.413499 176.495717 
L 474.210344 176.510335 
L 473.600921 176.296985 
L 472.598542 175.872508 
L 472.400382 175.878749 
L 472.004586 175.694575 
L 471.413434 175.539937 
L 471.023566 175.320523 
L 466.044867 172.735811 
L 465.871592 172.506316 
L 465.699325 172.562427 
L 465.354763 172.341633 
L 465.182187 172.377824 
L 464.84116 172.071053 
L 464.502301 171.980875 
L 463.497168 171.72011 
L 463.330696 171.584572 
L 462.999133 171.535677 
L 460.88697 170.764295 
L 460.412994 170.419363 
L 459.947235 170.119805 
L 459.486874 169.827261 
L 459.034766 169.447942 
L 458.444111 169.054668 
L 458.010217 168.706883 
L 457.86728 168.713239 
L 457.439234 168.470031 
L 457.018255 168.247094 
L 456.877948 168.242652 
L 456.738641 168.096126 
L 456.600599 168.127686 
L 456.324778 167.986937 
L 456.185144 167.992186 
L 456.049036 167.874474 
L 455.911222 167.918125 
L 455.638921 167.7783 
L 454.029626 167.164485 
L 453.251961 166.71513 
L 453.1223 166.835515 
L 452.867128 166.668967 
L 452.362457 166.313059 
L 452.236771 166.451351 
L 451.987875 166.181126 
L 451.616896 166.003906 
L 451.252657 165.74247 
L 451.132786 165.769485 
L 450.654206 165.537499 
L 450.298337 165.442081 
L 450.063992 165.351999 
L 449.36361 165.154276 
L 449.247852 165.174987 
L 449.017115 165.114235 
L 448.327417 164.876114 
L 447.989045 164.689701 
L 447.014451 163.585125 
L 445.573682 161.801527 
L 444.772111 161.570129 
L 444.594573 161.620801 
L 442.994465 161.66134 
L 442.907464 161.461826 
L 442.729598 161.635628 
L 442.28735 161.577072 
L 442.198896 161.631717 
L 442.022835 161.591959 
L 440.802393 161.194108 
L 440.465944 160.940132 
L 440.216775 160.8222 
L 440.05501 160.625962 
L 439.57951 160.208097 
L 439.347513 160.084974 
L 439.195906 159.997565 
L 438.894042 159.87756 
L 438.668025 159.909024 
L 438.518508 159.877565 
L 438.368342 159.899248 
L 438.140178 160.026611 
L 438.063769 159.968333 
L 437.835625 160.079778 
L 437.299238 160.067653 
L 436.99635 159.851009 
L 436.626141 159.63062 
L 436.339148 159.278528 
L 435.993255 158.962685 
L 435.596573 158.475745 
L 435.532069 158.47804 
L 435.341654 158.241514 
L 434.620743 157.689986 
L 434.446341 157.67596 
L 434.272639 157.597646 
L 433.814199 157.602593 
L 433.122555 157.605427 
L 432.952053 157.443574 
L 432.83873 157.424429 
L 432.505967 157.26135 
L 432.288756 157.139106 
L 431.75602 156.964805 
L 431.599869 156.866241 
L 431.548147 156.936436 
L 431.495078 156.85113 
L 431.28884 156.79275 
L 431.035854 156.58399 
L 430.839356 156.43833 
L 430.556399 156.140976 
L 430.102845 155.967643 
L 429.877718 155.982744 
L 429.695649 156.099305 
L 429.55789 156.105016 
L 429.372798 156.140514 
L 427.94536 154.840663 
L 427.654659 154.818477 
L 426.682716 154.505982 
L 426.339425 154.716721 
L 426.304963 154.666712 
L 426.233858 154.729368 
L 425.952497 154.720369 
L 425.74842 154.418966 
L 425.714766 154.4311 
L 425.525483 154.121154 
L 425.06298 153.803643 
L 424.920215 153.875716 
L 424.807081 153.824396 
L 423.508514 153.748852 
L 423.302633 153.22394 
L 423.2787 153.261377 
L 423.254668 153.123053 
L 423.232873 153.133438 
L 423.059347 152.818953 
L 422.933403 152.950302 
L 422.912472 152.882244 
L 422.848473 153.023708 
L 422.690678 153.108936 
L 422.557022 152.970987 
L 422.534368 153.045885 
L 422.468932 152.887344 
L 422.385192 152.896331 
L 422.365423 152.747694 
L 422.283911 152.798251 
L 422.242219 152.774297 
L 422.159158 152.849431 
L 421.818903 152.481988 
L 421.573513 151.884279 
L 421.477925 151.949103 
L 421.325662 152.274875 
L 421.30953 152.217342 
L 421.260533 152.383923 
L 421.121269 152.426648 
L 421.085966 152.356932 
L 421.051903 152.410013 
L 420.951331 152.160457 
L 420.917511 152.306769 
L 420.73603 152.275584 
L 420.451359 151.573408 
L 420.393115 151.73532 
L 420.027108 152.874519 
L 419.560653 150.840433 
L 419.503985 151.078777 
L 419.395125 151.523708 
L 419.362703 151.520902 
L 419.220807 151.365347 
L 419.341874 151.53739 
L 419.192639 151.436298 
L 418.964875 151.702238 
L 418.942103 151.729405 
L 418.847367 151.583124 
L 418.836985 151.639671 
L 418.771047 151.478088 
L 418.760572 151.516709 
L 418.604179 150.998154 
L 418.572859 150.957649 
L 418.365245 151.387476 
L 418.347308 151.39669 
L 418.22216 151.04162 
L 418.214605 151.086622 
L 418.154654 150.782386 
L 418.150403 150.860724 
L 418.118238 150.801734 
L 418.072571 150.969536 
L 418.06705 150.914445 
L 418.003818 151.036884 
L 417.967268 150.897495 
L 417.960699 150.942125 
L 417.904518 150.836294 
L 417.949798 150.946736 
L 417.848533 150.914168 
L 417.733998 150.744364 
L 417.83004 150.920894 
L 417.700286 150.79169 
L 417.63876 150.848123 
L 417.599207 150.747487 
L 417.594296 150.827456 
L 417.588876 150.741396 
L 417.500492 150.984836 
L 417.493447 150.925774 
L 417.392552 151.119193 
L 417.364624 151.097742 
L 417.278898 151.039424 
L 417.163635 149.956448 
L 417.266237 151.062917 
L 417.145007 150.731655 
L 417.062977 151.044976 
L 417.020619 150.891086 
L 416.946559 150.119814 
L 416.904266 150.711604 
L 416.776527 151.067449 
L 416.645966 150.782257 
L 416.763462 151.099205 
L 416.642556 150.793584 
L 416.636159 150.797339 
L 416.623606 150.687978 
L 416.618801 150.754645 
L 416.536178 150.402796 
L 416.496083 150.489585 
L 416.467294 150.407317 
L 416.369825 150.961483 
L 416.346964 149.697235 
L 416.238067 150.551033 
L 416.196848 150.811495 
L 416.142338 150.095483 
L 416.141749 150.098973 
L 416.154987 149.930442 
L 416.107469 150.646903 
L 416.022337 150.592832 
L 415.966391 150.80712 
L 415.924414 150.557281 
L 415.917658 150.565003 
L 415.839997 149.842071 
L 415.819046 150.751668 
L 415.815753 150.73579 
L 415.810132 150.780629 
L 415.768195 150.235021 
L 415.706176 149.684195 
L 415.652679 150.747325 
L 415.556559 150.560165 
L 415.624633 150.856283 
L 415.552752 150.585328 
L 415.564362 149.586605 
L 415.523998 150.785449 
L 415.440389 150.511264 
L 415.430752 150.599819 
L 415.34069 150.308915 
L 415.336578 150.164435 
L 415.336363 150.203897 
L 415.376444 149.664294 
L 415.329424 150.906167 
L 415.228377 150.538207 
L 415.158588 149.728495 
L 415.130358 150.725123 
L 415.122995 150.632836 
L 415.091118 150.070538 
L 415.123713 149.733292 
L 415.15558 150.237203 
L 415.189668 150.074759 
" clip-path="url(#pded1b1234b)" style="fill: none; stroke: #0c5da5; stroke-linecap: square"/>
   </g>
   <g id="line2d_218">
    <path d="M 414.721583 16.47356 
L 414.587385 16.40624 
L 671.856542 145.46456 
L 415.189668 16.708373 
" clip-path="url(#pded1b1234b)" style="fill: none; stroke: #00b945; stroke-linecap: square"/>
   </g>
   <g id="line2d_219">
    <path d="M 414.721583 147.664443 
L 414.587385 147.599276 
L 671.856542 272.531032 
L 415.189668 147.891749 
" clip-path="url(#pded1b1234b)" style="fill: none; stroke: #ff9500; stroke-linecap: square"/>
   </g>
   <g id="patch_8">
    <path d="M 401.723927 285.337271 
L 401.723927 3.6 
" style="fill: none; stroke: #000000; stroke-width: 0.5; stroke-linejoin: miter; stroke-linecap: square"/>
   </g>
   <g id="patch_9">
    <path d="M 684.72 285.337271 
L 684.72 3.6 
" style="fill: none; stroke: #000000; stroke-width: 0.5; stroke-linejoin: miter; stroke-linecap: square"/>
   </g>
   <g id="patch_10">
    <path d="M 401.723927 285.337271 
L 684.72 285.337271 
" style="fill: none; stroke: #000000; stroke-width: 0.5; stroke-linejoin: miter; stroke-linecap: square"/>
   </g>
   <g id="patch_11">
    <path d="M 401.723927 3.6 
L 684.72 3.6 
" style="fill: none; stroke: #000000; stroke-width: 0.5; stroke-linejoin: miter; stroke-linecap: square"/>
   </g>
   <g id="text_27">
    <!-- b) -->
    <g transform="translate(416.123927 24.331816)scale(0.18 -0.18)">
     <use xlink:href="#CMR17-62" transform="scale(0.996264)"/>
     <use xlink:href="#CMR17-29" transform="translate(50.89537 0)scale(0.996264)"/>
    </g>
   </g>
  </g>
 </g>
 <defs>
  <clipPath id="pcfc478babe">
   <rect x="43.489936" y="3.6" width="282.996073" height="281.737271"/>
  </clipPath>
  <clipPath id="pded1b1234b">
   <rect x="401.723927" y="3.6" width="282.996073" height="281.737271"/>
  </clipPath>
 </defs>
</svg>
